<?xml version="1.0" encoding="utf-8" standalone="no"?>
<!DOCTYPE svg PUBLIC "-//W3C//DTD SVG 1.1//EN"
  "http://www.w3.org/Graphics/SVG/1.1/DTD/svg11.dtd">
<svg xmlns:xlink="http://www.w3.org/1999/xlink" width="1022.4pt" height="576pt" viewBox="0 0 1022.4 576" xmlns="http://www.w3.org/2000/svg" version="1.1">
 <metadata>
  <rdf:RDF xmlns:dc="http://purl.org/dc/elements/1.1/" xmlns:cc="http://creativecommons.org/ns#" xmlns:rdf="http://www.w3.org/1999/02/22-rdf-syntax-ns#">
   <cc:Work>
    <dc:type rdf:resource="http://purl.org/dc/dcmitype/StillImage"/>
    <dc:date>2022-05-08T15:34:32.201812</dc:date>
    <dc:format>image/svg+xml</dc:format>
    <dc:creator>
     <cc:Agent>
      <dc:title>Matplotlib v3.5.2, https://matplotlib.org/</dc:title>
     </cc:Agent>
    </dc:creator>
   </cc:Work>
  </rdf:RDF>
 </metadata>
 <defs>
  <style type="text/css">*{stroke-linejoin: round; stroke-linecap: butt}</style>
 </defs>
 <g id="figure_1">
  <g id="patch_1">
   <path d="M 0 576 
L 1022.4 576 
L 1022.4 0 
L 0 0 
z
" style="fill: #ffffff"/>
  </g>
  <g id="axes_1">
   <g id="patch_2">
    <path d="M 0 576 
L 0 0 
L 1022.4 0 
L 1022.4 576 
z
" clip-path="url(#p5a246e69cc)" style="fill: #808080"/>
   </g>
   <g id="patch_3">
    <path d="M 115.513937 360.486488 
L 831.1368 4.199876 
L 419.610677 464.048232 
z
" clip-path="url(#p5a246e69cc)" style="fill: #cfc2d3; fill-opacity: 0.925224"/>
   </g>
   <g id="patch_4">
    <path d="M 233.541116 353.973489 
L 436.011773 19.309668 
L 149.271543 575.990207 
z
" clip-path="url(#p5a246e69cc)" style="fill: #76b2cc; fill-opacity: 0.517183"/>
   </g>
   <g id="patch_5">
    <path d="M 192.716259 417.945009 
L 519.890357 328.625486 
L 450.513678 365.716778 
z
" clip-path="url(#p5a246e69cc)" style="fill: #bcfffa; fill-opacity: 0.370156"/>
   </g>
   <g id="patch_6">
    <path d="M 565.546596 370.131356 
L 73.513516 164.500283 
L 835.024212 143.151373 
z
" clip-path="url(#p5a246e69cc)" style="fill: #d19f9b; fill-opacity: 0.684031"/>
   </g>
   <g id="patch_7">
    <path d="M 752.517624 401.664322 
L 490.242059 342.476809 
L 108.840526 130.963417 
L 685.626705 352.499619 
z
" clip-path="url(#p5a246e69cc)" style="fill: #3da3b9; fill-opacity: 0.512455"/>
   </g>
   <g id="patch_8">
    <path d="M 699.189776 31.103314 
L 516.355895 399.826602 
L 259.233255 331.491902 
z
" clip-path="url(#p5a246e69cc)" style="fill: #9e95b0; fill-opacity: 0.562252"/>
   </g>
   <g id="patch_9">
    <path d="M 559.288296 336.455308 
L 480.999998 547.383711 
L 731.855765 472.086849 
z
" clip-path="url(#p5a246e69cc)" style="fill: #d0e9b2; fill-opacity: 0.552875"/>
   </g>
   <g id="patch_10">
    <path d="M 362.842738 0.187541 
L 110.721646 331.485734 
L 605.649806 225.454846 
L 175.58637 552.798212 
z
" clip-path="url(#p5a246e69cc)" style="fill: #d7e4e6; fill-opacity: 0.542133"/>
   </g>
   <g id="patch_11">
    <path d="M 502.621519 277.333906 
L 691.325196 156.015691 
L 706.816435 123.619931 
L 810.143826 458.120046 
z
" clip-path="url(#p5a246e69cc)" style="fill: #ffffff; fill-opacity: 0.413261"/>
   </g>
   <g id="patch_12">
    <path d="M 64.614567 72.482782 
L 848.880992 497.06224 
L 126.75639 529.224972 
L 643.03054 171.290627 
z
" clip-path="url(#p5a246e69cc)" style="fill: #a3ae85; fill-opacity: 0.214278"/>
   </g>
   <g id="patch_13">
    <path d="M 796.930622 53.221189 
L 361.915051 367.826001 
L 446.424534 160.980636 
L 644.932015 289.678386 
z
" clip-path="url(#p5a246e69cc)" style="fill: #272938; fill-opacity: 0.172987"/>
   </g>
   <g id="patch_14">
    <path d="M 750.982945 261.636701 
L 274.791175 167.234436 
L 200.698523 421.015393 
z
" clip-path="url(#p5a246e69cc)" style="fill: #aab2f8; fill-opacity: 0.257237"/>
   </g>
   <g id="patch_15">
    <path d="M 680.647932 360.98879 
L 721.080436 102.078633 
L 341.266185 283.203423 
z
" clip-path="url(#p5a246e69cc)" style="fill: #7424b1; fill-opacity: 0.214266"/>
   </g>
   <g id="patch_16">
    <path d="M 141.31789 427.750118 
L 154.188646 393.633537 
L 757.460277 170.353163 
z
" clip-path="url(#p5a246e69cc)" style="fill: #b1a8c5; fill-opacity: 0.711011"/>
   </g>
   <g id="patch_17">
    <path d="M 344.191846 122.293264 
L 206.816323 428.510976 
L 196.132454 164.299413 
L 976.626698 432.280261 
z
" clip-path="url(#p5a246e69cc)" style="fill: #88bdcf; fill-opacity: 0.006425"/>
   </g>
   <g id="patch_18">
    <path d="M 154.701619 88.232105 
L 751.921831 251.724677 
L 907.556274 107.884234 
z
" clip-path="url(#p5a246e69cc)" style="fill: #cde8d8; fill-opacity: 0.546477"/>
   </g>
   <g id="patch_19">
    <path d="M 517.098377 464.188785 
L 911.622326 558.546341 
L 117.578689 335.952338 
L 931.812259 551.780657 
z
" clip-path="url(#p5a246e69cc)" style="fill: #d2cedf; fill-opacity: 0.687645"/>
   </g>
   <g id="patch_20">
    <path d="M 910.955315 430.631939 
L 18.991681 165.90089 
L 556.33618 237.210279 
L 381.778495 76.381877 
L 910.955315 430.631939 
z
" clip-path="url(#p5a246e69cc)" style="fill: none"/>
   </g>
   <g id="patch_21">
    <path d="M 822.577156 384.819126 
L 148.967966 290.244426 
L 609.649155 121.531604 
L 584.728489 454.483899 
z
" clip-path="url(#p5a246e69cc)" style="fill: #bcf9da; fill-opacity: 0.46953"/>
   </g>
   <g id="patch_22">
    <path d="M 410.979695 541.945185 
L 781.992523 399.701696 
L 845.898124 568.994037 
L 589.323079 13.156506 
z
" clip-path="url(#p5a246e69cc)" style="fill: #34e0b8; fill-opacity: 0.252346"/>
   </g>
  </g>
 </g>
 <defs>
  <clipPath id="p5a246e69cc">
   <rect x="0" y="0" width="1022.4" height="576"/>
  </clipPath>
 </defs>
</svg>
