<?xml version="1.0" encoding="utf-8" standalone="no"?>
<!DOCTYPE svg PUBLIC "-//W3C//DTD SVG 1.1//EN"
  "http://www.w3.org/Graphics/SVG/1.1/DTD/svg11.dtd">
<svg xmlns:xlink="http://www.w3.org/1999/xlink" width="1022.4pt" height="576pt" viewBox="0 0 1022.4 576" xmlns="http://www.w3.org/2000/svg" version="1.1">
 <metadata>
  <rdf:RDF xmlns:dc="http://purl.org/dc/elements/1.1/" xmlns:cc="http://creativecommons.org/ns#" xmlns:rdf="http://www.w3.org/1999/02/22-rdf-syntax-ns#">
   <cc:Work>
    <dc:type rdf:resource="http://purl.org/dc/dcmitype/StillImage"/>
    <dc:date>2022-05-09T01:35:17.419261</dc:date>
    <dc:format>image/svg+xml</dc:format>
    <dc:creator>
     <cc:Agent>
      <dc:title>Matplotlib v3.5.2, https://matplotlib.org/</dc:title>
     </cc:Agent>
    </dc:creator>
   </cc:Work>
  </rdf:RDF>
 </metadata>
 <defs>
  <style type="text/css">*{stroke-linejoin: round; stroke-linecap: butt}</style>
 </defs>
 <g id="figure_1">
  <g id="patch_1">
   <path d="M 0 576 
L 1022.4 576 
L 1022.4 0 
L 0 0 
z
" style="fill: #ffffff"/>
  </g>
  <g id="axes_1">
   <g id="patch_2">
    <path d="M 0 576 
L 0 0 
L 1022.4 0 
L 1022.4 576 
z
" clip-path="url(#p8318b4c003)" style="fill: #808080"/>
   </g>
   <g id="patch_3">
    <path d="M 563.071482 16.672709 
L 752.932284 412.641219 
L 267.318084 553.443697 
L 814.837024 135.149133 
L 413.374533 295.155635 
z
" clip-path="url(#p8318b4c003)" style="fill: #65e2fe; fill-opacity: 0.966739"/>
   </g>
   <g id="patch_4">
    <path d="M 271.935639 150.465224 
L 72.993922 91.117526 
L 491.170652 479.804936 
z
" clip-path="url(#p8318b4c003)" style="fill: #f0d0cc; fill-opacity: 0.628782"/>
   </g>
   <g id="patch_5">
    <path d="M 1006.281497 151.862173 
L 958.227443 260.256964 
L 440.549623 567.301124 
L 977.25579 260.017266 
L 1012.061475 364.110591 
z
" clip-path="url(#p8318b4c003)" style="fill: #9fcece; fill-opacity: 0.93638"/>
   </g>
   <g id="patch_6">
    <path d="M 940.990633 43.068604 
L 394.156215 290.873239 
L 780.795466 116.509708 
L 734.624664 24.959234 
z
" clip-path="url(#p8318b4c003)" style="fill: #563814; fill-opacity: 0.912508"/>
   </g>
   <g id="patch_7">
    <path d="M 459.75479 329.277082 
L 365.461651 141.193848 
L 178.791592 121.003376 
L 527.551135 0.117603 
z
" clip-path="url(#p8318b4c003)" style="fill: #75bee2; fill-opacity: 0.949532"/>
   </g>
   <g id="patch_8">
    <path d="M 216.092513 127.505088 
L 132.156043 415.713721 
L 73.418146 242.490589 
L 672.841867 200.913088 
L 745.820566 4.090306 
z
" clip-path="url(#p8318b4c003)" style="fill: #ffebd7"/>
   </g>
   <g id="patch_9">
    <path d="M 743.023862 568.334215 
L 165.123826 222.680602 
L 339.576313 458.298944 
L 1005.388718 317.430118 
z
" clip-path="url(#p8318b4c003)" style="fill: #f5eee3; fill-opacity: 0.702567"/>
   </g>
   <g id="patch_10">
    <path d="M 352.123009 245.491417 
L 806.735027 203.18775 
L 910.048695 121.091954 
L 969.124344 323.409274 
L 983.158653 474.279859 
z
" clip-path="url(#p8318b4c003)" style="fill: #013c8d; fill-opacity: 0.915889"/>
   </g>
   <g id="patch_11">
    <path d="M 73.957208 492.456535 
L 966.810771 373.198427 
L 892.70917 27.370542 
L 196.028215 120.938595 
z
" clip-path="url(#p8318b4c003)" style="fill: #fffcff"/>
   </g>
   <g id="patch_12">
    <path d="M 698.302914 332.327289 
L 692.339464 277.773026 
L 430.264529 297.102114 
z
" clip-path="url(#p8318b4c003)" style="fill: #f2b555; fill-opacity: 0.986167"/>
   </g>
   <g id="patch_13">
    <path d="M 296.555748 373.862392 
L 837.131659 430.13971 
L 446.179157 315.40432 
L 746.546966 405.513426 
L 383.712762 353.207882 
z
" clip-path="url(#p8318b4c003)" style="fill: #f8d820; fill-opacity: 0.174146"/>
   </g>
   <g id="patch_14">
    <path d="M 579.839543 325.251974 
L 389.173677 321.459687 
L 998.267394 167.243157 
L 500.578035 54.467961 
z
" clip-path="url(#p8318b4c003)" style="fill: #66cacb; fill-opacity: 0.55443"/>
   </g>
   <g id="patch_15">
    <path d="M 400.623639 491.112223 
L 954.107754 103.363832 
L 90.243 22.105312 
z
" clip-path="url(#p8318b4c003)" style="fill: #3d4c3d; fill-opacity: 0.956937"/>
   </g>
   <g id="patch_16">
    <path d="M 497.321759 514.182181 
L 410.204114 193.086676 
L 476.224877 429.032934 
L 93.722448 312.28815 
z
" clip-path="url(#p8318b4c003)" style="fill: #8698ab; fill-opacity: 0.760992"/>
   </g>
   <g id="patch_17">
    <path d="M 186.2934 266.468483 
L 97.209381 341.449399 
L 477.986259 574.701507 
L 688.532443 345.662607 
L 619.116065 159.487743 
z
" clip-path="url(#p8318b4c003)" style="fill: #c0dbe1; fill-opacity: 0.975307"/>
   </g>
   <g id="patch_18">
    <path d="M 285.692605 406.757849 
L 160.908367 547.359721 
L 858.516675 478.853802 
L 660.784679 4.189911 
z
" clip-path="url(#p8318b4c003)" style="fill: #dbd2c8; fill-opacity: 0.9531"/>
   </g>
   <g id="patch_19">
    <path d="M 455.745631 69.12628 
L 84.368102 204.821605 
L 500.918673 34.835363 
L 6.313215 453.055476 
z
" clip-path="url(#p8318b4c003)" style="fill: #45ac8f; fill-opacity: 0.9643"/>
   </g>
   <g id="patch_20">
    <path d="M 157.954902 297.436244 
L 99.811328 314.437227 
L 363.69032 302.291304 
L 801.817395 331.241395 
z
" clip-path="url(#p8318b4c003)" style="fill: #62ffff; fill-opacity: 0.729877"/>
   </g>
   <g id="patch_21">
    <path d="M 618.327421 338.716297 
L 981.265159 15.435699 
L 974.506974 539.627125 
z
" clip-path="url(#p8318b4c003)" style="fill: #4aa4bb; fill-opacity: 0.537468"/>
   </g>
   <g id="patch_22">
    <path d="M 157.970982 563.408088 
L 588.922644 360.167385 
L 752.550823 474.46003 
z
" clip-path="url(#p8318b4c003)" style="fill: #ffcca5; fill-opacity: 0.880842"/>
   </g>
   <g id="patch_23">
    <path d="M 1008.596608 338.024301 
L 306.616075 298.540608 
L 144.111522 561.200366 
L 346.630468 85.751094 
L 135.776926 530.443245 
z
" clip-path="url(#p8318b4c003)" style="fill: #fff0ee; fill-opacity: 0.925938"/>
   </g>
   <g id="patch_24">
    <path d="M 598.12447 206.098065 
L 21.735063 329.783671 
L 58.39937 239.533847 
L 283.171008 438.614642 
z
" clip-path="url(#p8318b4c003)" style="fill: #74bbc9; fill-opacity: 0.913803"/>
   </g>
   <g id="patch_25">
    <path d="M 547.342069 276.484118 
L 957.771997 501.325404 
L 774.984993 29.369079 
L 942.391318 510.889561 
L 1007.687094 449.683126 
z
" clip-path="url(#p8318b4c003)" style="fill: #fafeff; fill-opacity: 0.546165"/>
   </g>
   <g id="patch_26">
    <path d="M 300.66659 121.698981 
L 851.325626 21.911956 
L 710.875577 332.718712 
z
" clip-path="url(#p8318b4c003)" style="fill: #8affbc; fill-opacity: 0.20678"/>
   </g>
   <g id="patch_27">
    <path d="M 609.050392 505.478278 
L 328.993293 102.111203 
L 508.471533 423.109151 
z
" clip-path="url(#p8318b4c003)" style="fill: #ce9da7; fill-opacity: 0.324399"/>
   </g>
   <g id="patch_28">
    <path d="M 479.099956 162.277215 
L 863.93973 490.688786 
L 534.528908 71.653938 
L 686.832586 429.620987 
L 907.804603 149.288753 
z
" clip-path="url(#p8318b4c003)" style="fill: #94b40f; fill-opacity: 0.437759"/>
   </g>
   <g id="patch_29">
    <path d="M 551.50962 72.578669 
L 67.665248 400.890238 
L 66.197741 28.253025 
L 727.392315 362.20203 
z
" clip-path="url(#p8318b4c003)" style="fill: #01352d; fill-opacity: 0.347069"/>
   </g>
   <g id="patch_30">
    <path d="M 914.225934 571.981571 
L 503.031575 560.023293 
L 828.587162 556.531625 
L 778.189311 471.517215 
L 664.22447 318.98463 
z
" clip-path="url(#p8318b4c003)" style="fill: #ffdef1; fill-opacity: 0.738458"/>
   </g>
   <g id="patch_31">
    <path d="M 465.683504 567.967711 
L 448.397156 141.043853 
L 526.837236 432.625766 
L 489.9149 436.504356 
z
" clip-path="url(#p8318b4c003)" style="fill: #2ad2fc; fill-opacity: 0.591919"/>
   </g>
   <g id="patch_32">
    <path d="M 516.748052 193.162349 
L 986.786258 160.879199 
L 862.141255 488.988768 
z
" clip-path="url(#p8318b4c003)" style="fill: #52361f; fill-opacity: 0.960182"/>
   </g>
   <g id="patch_33">
    <path d="M 959.616093 287.740646 
L 1013.962594 9.52828 
L 831.1368 4.199876 
L 419.610677 464.048232 
z
" clip-path="url(#p8318b4c003)" style="fill: #e8edf1; fill-opacity: 0.814002"/>
   </g>
   <g id="patch_34">
    <path d="M 807.176839 326.069186 
L 169.388215 341.53533 
L 323.657448 240.931862 
L 1013.613371 504.335576 
L 794.38736 206.482261 
z
" clip-path="url(#p8318b4c003)" style="fill: #d0dcd9; fill-opacity: 0.702352"/>
   </g>
   <g id="patch_35">
    <path d="M 202.61906 204.071759 
L 944.794666 287.989078 
L 365.575301 193.733139 
z
" clip-path="url(#p8318b4c003)" style="fill: #e5ff04; fill-opacity: 0.777054"/>
   </g>
   <g id="patch_36">
    <path d="M 33.673967 358.023537 
L 932.846758 309.792811 
L 71.589201 562.316552 
z
" clip-path="url(#p8318b4c003)" style="fill: #292500; fill-opacity: 0.238991"/>
   </g>
   <g id="patch_37">
    <path d="M 714.072504 303.84213 
L 484.560815 516.715495 
L 220.839536 294.783478 
z
" clip-path="url(#p8318b4c003)" style="fill: #3ce599; fill-opacity: 0.602187"/>
   </g>
   <g id="patch_38">
    <path d="M 917.509109 155.841728 
L 762.567647 386.50334 
L 263.106129 288.484363 
L 438.634644 101.259355 
z
" clip-path="url(#p8318b4c003)" style="fill: #003cff; fill-opacity: 0.792068"/>
   </g>
   <g id="patch_39">
    <path d="M 521.722897 127.489039 
L 804.707515 370.510596 
L 604.053579 405.733418 
L 1015.586719 269.890056 
L 252.109454 481.680155 
z
" clip-path="url(#p8318b4c003)" style="fill: #66f6fa; fill-opacity: 0.626855"/>
   </g>
   <g id="patch_40">
    <path d="M 603.484026 319.17594 
L 398.984769 345.081606 
L 928.417399 121.760384 
L 515.661923 178.677075 
L 370.260482 383.646715 
z
" clip-path="url(#p8318b4c003)" style="fill: #e3edff; fill-opacity: 0.71896"/>
   </g>
   <g id="patch_41">
    <path d="M 585.147722 481.579771 
L 554.961323 120.432127 
L 788.265805 82.229293 
L 995.253783 267.125916 
L 304.592516 553.929482 
z
" clip-path="url(#p8318b4c003)" style="fill: #b3ffb8; fill-opacity: 0.700146"/>
   </g>
   <g id="patch_42">
    <path d="M 542.331324 97.280573 
L 558.449406 233.257687 
L 581.023088 23.861238 
z
" clip-path="url(#p8318b4c003)" style="fill: #00319a; fill-opacity: 0.481298"/>
   </g>
   <g id="patch_43">
    <path d="M 940.749427 134.798261 
L 872.016077 491.021209 
L 754.064569 445.591394 
z
" clip-path="url(#p8318b4c003)" style="fill: #000036"/>
   </g>
   <g id="patch_44">
    <path d="M 611.927129 258.097198 
L 443.226591 57.405629 
L 50.687997 544.542806 
L 441.297899 28.344288 
z
" clip-path="url(#p8318b4c003)" style="fill: #beab47; fill-opacity: 0.027151"/>
   </g>
   <g id="patch_45">
    <path d="M 1001.952387 148.630974 
L 297.774586 347.371295 
L 456.031873 379.731043 
L 187.918317 323.13433 
L 659.509934 75.58985 
z
" clip-path="url(#p8318b4c003)" style="fill: #a93d4f; fill-opacity: 0.189362"/>
   </g>
   <g id="patch_46">
    <path d="M 228.568287 509.321441 
L 105.596395 163.478157 
L 24.200107 280.674553 
L 763.720145 534.978646 
L 138.283786 567.678417 
z
" clip-path="url(#p8318b4c003)" style="fill: #dfbb97; fill-opacity: 0.855862"/>
   </g>
   <g id="patch_47">
    <path d="M 911.92223 131.474059 
L 723.341479 190.298577 
L 1008.554988 12.089171 
z
" clip-path="url(#p8318b4c003)" style="fill: #ade4d3; fill-opacity: 0.649159"/>
   </g>
   <g id="patch_48">
    <path d="M 920.282873 240.075805 
L 233.622059 224.692112 
L 993.330968 245.404498 
L 911.694429 276.515512 
L 447.447978 386.392374 
z
" clip-path="url(#p8318b4c003)" style="fill: #ffffea"/>
   </g>
   <g id="patch_49">
    <path d="M 718.451156 71.396105 
L 235.497149 195.857418 
L 457.578239 575.571437 
L 657.356078 521.548377 
z
" clip-path="url(#p8318b4c003)" style="fill: #9cc2d5"/>
   </g>
   <g id="patch_50">
    <path d="M 29.049575 493.959004 
L 978.074551 471.734507 
L 0.101065 468.206092 
L 826.227971 325.615548 
L 611.456496 42.071712 
z
" clip-path="url(#p8318b4c003)" style="fill: #d20600; fill-opacity: 0.275978"/>
   </g>
   <g id="patch_51">
    <path d="M 645.240724 87.619155 
L 768.346392 182.19243 
L 851.580061 90.929591 
L 743.994527 305.611218 
L 381.403415 501.420352 
z
" clip-path="url(#p8318b4c003)" style="fill: #479ed9; fill-opacity: 0.864114"/>
   </g>
   <g id="patch_52">
    <path d="M 200.189133 281.11078 
L 387.591129 370.63879 
L 342.559436 16.328728 
L 722.509441 67.999217 
z
" clip-path="url(#p8318b4c003)" style="fill: #60cfe1; fill-opacity: 0.379654"/>
   </g>
   <g id="patch_53">
    <path d="M 444.511522 397.260224 
L 651.607022 71.277998 
L 399.740241 33.617051 
L 738.089843 574.814335 
L 699.011843 304.594022 
z
" clip-path="url(#p8318b4c003)" style="fill: #3fdaf6; fill-opacity: 0.442042"/>
   </g>
   <g id="patch_54">
    <path d="M 87.418603 533.876672 
L 881.36217 319.337125 
L 577.757086 21.174926 
L 79.135344 3.713939 
z
" clip-path="url(#p8318b4c003)" style="fill: #090b43; fill-opacity: 0.211248"/>
   </g>
   <g id="patch_55">
    <path d="M 549.967502 46.113318 
L 696.372184 171.273108 
L 747.175536 38.691659 
L 645.937149 64.728102 
L 54.309862 31.0753 
z
" clip-path="url(#p8318b4c003)" style="fill: #44615e; fill-opacity: 0.27258"/>
   </g>
   <g id="patch_56">
    <path d="M 552.794887 538.612752 
L 937.529742 88.239363 
L 174.587181 507.093423 
L 94.220697 142.384955 
z
" clip-path="url(#p8318b4c003)" style="fill: #203430; fill-opacity: 0.82132"/>
   </g>
   <g id="patch_57">
    <path d="M 396.892559 27.060713 
L 526.463285 214.876822 
L 643.364991 452.384509 
L 880.182405 314.918462 
L 396.892559 27.060713 
z
" clip-path="url(#p8318b4c003)" style="fill: none"/>
   </g>
   <g id="patch_58">
    <path d="M 796.633865 515.660416 
L 379.503248 563.089545 
L 1011.332547 494.785665 
z
" clip-path="url(#p8318b4c003)" style="fill: #fffefa"/>
   </g>
   <g id="patch_59">
    <path d="M 607.185627 361.471289 
L 349.694881 360.119932 
L 276.84247 570.5027 
L 1011.99103 572.280206 
z
" clip-path="url(#p8318b4c003)" style="fill: #b3c8df; fill-opacity: 0.680805"/>
   </g>
   <g id="patch_60">
    <path d="M 681.882503 76.679824 
L 1014.066783 226.447927 
L 627.271622 249.800082 
L 183.190174 117.69946 
z
" clip-path="url(#p8318b4c003)" style="fill: #b6d8c3; fill-opacity: 0.9459"/>
   </g>
   <g id="patch_61">
    <path d="M 31.597609 459.911654 
L 932.556933 170.961694 
L 335.063931 431.419167 
z
" clip-path="url(#p8318b4c003)" style="fill: #ffb3c1; fill-opacity: 0.758684"/>
   </g>
   <g id="patch_62">
    <path d="M 423.059543 32.985216 
L 466.779791 40.749811 
L 978.911053 85.86755 
z
" clip-path="url(#p8318b4c003)" style="fill: #5fa89f; fill-opacity: 0.770928"/>
   </g>
   <g id="patch_63">
    <path d="M 89.605824 480.556883 
L 522.683013 142.510182 
L 10.938881 297.829908 
L 756.750082 184.898357 
z
" clip-path="url(#p8318b4c003)" style="fill: #c0d9f3; fill-opacity: 0.234928"/>
   </g>
   <g id="patch_64">
    <path d="M 487.44183 244.290045 
L 836.908297 100.844781 
L 468.280366 260.121844 
L 791.55148 430.863989 
z
" clip-path="url(#p8318b4c003)" style="fill: #68beb0; fill-opacity: 0.721318"/>
   </g>
   <g id="patch_65">
    <path d="M 402.23597 234.731697 
L 923.433969 548.704902 
L 178.269761 415.173556 
z
" clip-path="url(#p8318b4c003)" style="fill: #ebe8ec; fill-opacity: 0.942444"/>
   </g>
   <g id="patch_66">
    <path d="M 992.981614 296.791725 
L 1021.747459 425.860383 
L 631.461242 575.110881 
L 796.581998 456.101084 
z
" clip-path="url(#p8318b4c003)" style="fill: #dfd3df"/>
   </g>
   <g id="patch_67">
    <path d="M 159.084132 278.698707 
L 660.990815 472.260542 
L 752.901989 546.701923 
z
" clip-path="url(#p8318b4c003)" style="fill: #e2e0e3; fill-opacity: 0.774886"/>
   </g>
   <g id="patch_68">
    <path d="M 54.414195 197.890379 
L 859.575933 205.762722 
L 745.63058 362.764195 
L 651.296321 206.587429 
z
" clip-path="url(#p8318b4c003)" style="fill: #a43ed0; fill-opacity: 0.883237"/>
   </g>
   <g id="patch_69">
    <path d="M 34.915156 124.416175 
L 225.994506 501.641062 
L 818.766232 533.852468 
L 362.24502 160.450252 
L 634.172075 478.127956 
z
" clip-path="url(#p8318b4c003)" style="fill: #262134"/>
   </g>
   <g id="patch_70">
    <path d="M 798.204096 149.008203 
L 317.922144 109.6708 
L 583.420696 453.567954 
z
" clip-path="url(#p8318b4c003)" style="fill: #de527d; fill-opacity: 0.892415"/>
   </g>
   <g id="patch_71">
    <path d="M 279.695844 141.658555 
L 408.422488 279.90814 
L 295.524952 251.801143 
L 770.478205 113.638835 
z
" clip-path="url(#p8318b4c003)" style="fill: #fff8c6; fill-opacity: 0.978051"/>
   </g>
   <g id="patch_72">
    <path d="M 937.682111 326.50487 
L 311.727146 93.43636 
L 523.483307 566.152464 
L 257.952201 165.002991 
L 249.002285 388.506157 
z
" clip-path="url(#p8318b4c003)" style="fill: #00001d; fill-opacity: 0.936839"/>
   </g>
   <g id="patch_73">
    <path d="M 816.747573 420.331972 
L 251.951437 534.833598 
L 720.209893 354.590522 
L 718.837124 500.507879 
z
" clip-path="url(#p8318b4c003)" style="fill: #d6ffff"/>
   </g>
   <g id="patch_74">
    <path d="M 284.852665 413.317438 
L 48.651586 199.915354 
L 450.24214 306.094488 
L 346.131028 26.875824 
L 1016.819026 273.889513 
z
" clip-path="url(#p8318b4c003)" style="fill: #74b7ff; fill-opacity: 0.538129"/>
   </g>
   <g id="patch_75">
    <path d="M 695.499377 53.694023 
L 894.908793 11.225017 
L 1002.991811 496.318467 
L 561.559281 456.49952 
z
" clip-path="url(#p8318b4c003)" style="fill: #c7ffcf; fill-opacity: 0.000054"/>
   </g>
   <g id="patch_76">
    <path d="M 468.280019 349.778495 
L 692.122 71.173274 
L 983.088402 18.803373 
L 868.559675 323.71723 
L 468.280019 349.778495 
z
" clip-path="url(#p8318b4c003)" style="fill: none"/>
   </g>
   <g id="patch_77">
    <path d="M 846.925507 519.890451 
L 344.965619 496.876739 
L 521.250442 401.611458 
z
" clip-path="url(#p8318b4c003)" style="fill: #00d8db; fill-opacity: 0.080432"/>
   </g>
   <g id="patch_78">
    <path d="M 1002.274098 35.156038 
L 78.033416 486.396942 
L 788.163006 363.537723 
L 68.392218 176.310104 
L 7.644865 556.907735 
z
" clip-path="url(#p8318b4c003)" style="fill: #dcd1a4; fill-opacity: 0.314693"/>
   </g>
   <g id="patch_79">
    <path d="M 489.770333 228.087125 
L 257.500398 409.770307 
L 420.806155 235.056522 
L 942.173128 42.222214 
L 343.153203 426.952664 
z
" clip-path="url(#p8318b4c003)" style="fill: #eaecb8"/>
   </g>
   <g id="patch_80">
    <path d="M 623.868361 543.47945 
L 645.285375 225.528676 
L 164.626926 285.801291 
L 15.937768 407.185581 
z
" clip-path="url(#p8318b4c003)" style="fill: #ffffff"/>
   </g>
   <g id="patch_81">
    <path d="M 604.15115 203.677192 
L 746.58818 103.159615 
L 227.014965 145.882486 
L 392.464236 532.664316 
L 262.297988 385.128449 
z
" clip-path="url(#p8318b4c003)" style="fill: #ffffc2; fill-opacity: 0.100986"/>
   </g>
   <g id="patch_82">
    <path d="M 565.537158 194.33664 
L 916.348083 191.330509 
L 8.696233 515.512073 
L 698.011117 103.257457 
L 3.147208 488.029566 
z
" clip-path="url(#p8318b4c003)" style="fill: #ad6b43; fill-opacity: 0.796183"/>
   </g>
   <g id="patch_83">
    <path d="M 650.763677 170.058386 
L 712.019495 499.300752 
L 230.256125 245.79228 
L 269.168941 130.851175 
L 599.547807 522.688487 
z
" clip-path="url(#p8318b4c003)" style="fill: #ffefb8"/>
   </g>
   <g id="patch_84">
    <path d="M 802.643538 444.868777 
L 269.036597 402.356571 
L 252.606353 167.868856 
z
" clip-path="url(#p8318b4c003)" style="fill: #fffff5"/>
   </g>
   <g id="patch_85">
    <path d="M 333.073957 191.970792 
L 511.73069 503.499762 
L 14.885846 556.19377 
L 723.396045 575.196091 
L 808.344262 134.195786 
z
" clip-path="url(#p8318b4c003)" style="fill: #aeb9ad; fill-opacity: 0.898029"/>
   </g>
   <g id="patch_86">
    <path d="M 789.223507 150.296441 
L 225.869055 407.211006 
L 767.035271 125.71378 
z
" clip-path="url(#p8318b4c003)" style="fill: #6d54fe; fill-opacity: 0.836957"/>
   </g>
   <g id="patch_87">
    <path d="M 786.935657 455.914663 
L 693.275185 381.191483 
L 164.571938 500.349874 
z
" clip-path="url(#p8318b4c003)" style="fill: #d5c5eb; fill-opacity: 0.88838"/>
   </g>
   <g id="patch_88">
    <path d="M 383.074986 382.918801 
L 1019.056335 48.636233 
L 483.678319 206.847477 
L 225.005786 340.619066 
L 590.093995 9.718372 
z
" clip-path="url(#p8318b4c003)" style="fill: #9dc6cf; fill-opacity: 0.643871"/>
   </g>
   <g id="patch_89">
    <path d="M 841.614168 572.627617 
L 101.735529 262.73616 
L 765.349777 513.179811 
L 526.147437 132.688829 
z
" clip-path="url(#p8318b4c003)" style="fill: #f7bae6; fill-opacity: 0.660604"/>
   </g>
   <g id="patch_90">
    <path d="M 998.541178 182.377566 
L 175.330904 446.741772 
L 387.520808 62.985193 
z
" clip-path="url(#p8318b4c003)" style="fill: #f4ddff; fill-opacity: 0.219712"/>
   </g>
   <g id="patch_91">
    <path d="M 169.706955 182.078519 
L 118.308384 503.34518 
L 288.475007 371.343878 
L 947.416595 342.613916 
L 169.706955 182.078519 
z
" clip-path="url(#p8318b4c003)" style="fill: none"/>
   </g>
   <g id="patch_92">
    <path d="M 331.081805 397.707674 
L 247.281109 173.707792 
L 357.741133 462.181984 
L 904.540911 448.09127 
L 22.929679 151.555244 
z
" clip-path="url(#p8318b4c003)" style="fill: #181b3f; fill-opacity: 0.493722"/>
   </g>
   <g id="patch_93">
    <path d="M 430.910304 6.308135 
L 860.41478 279.220109 
L 447.935916 32.904253 
L 512.178592 446.356224 
z
" clip-path="url(#p8318b4c003)" style="fill: #68a9ce; fill-opacity: 0.654398"/>
   </g>
   <g id="patch_94">
    <path d="M 349.160389 68.656057 
L 632.497848 399.683579 
L 609.686302 5.810695 
L 143.525201 135.818764 
L 939.168066 113.994261 
z
" clip-path="url(#p8318b4c003)" style="fill: #3c7fb3; fill-opacity: 0.584686"/>
   </g>
   <g id="patch_95">
    <path d="M 154.768412 538.705188 
L 1008.845686 476.09129 
L 953.281671 174.151329 
L 800.413914 570.869212 
z
" clip-path="url(#p8318b4c003)" style="fill: #f4f0ff; fill-opacity: 0.506369"/>
   </g>
   <g id="patch_96">
    <path d="M 534.113204 365.372573 
L 444.138527 328.966978 
L 569.574642 306.050877 
L 232.41537 335.741274 
z
" clip-path="url(#p8318b4c003)" style="fill: #34c3c9; fill-opacity: 0.855333"/>
   </g>
   <g id="patch_97">
    <path d="M 776.31035 484.115585 
L 387.27067 73.423482 
L 823.579701 320.748039 
L 96.37298 458.779075 
L 904.175193 439.400181 
L 776.31035 484.115585 
z
" clip-path="url(#p8318b4c003)" style="fill: none"/>
   </g>
   <g id="patch_98">
    <path d="M 2.392139 246.648388 
L 80.717679 390.057865 
L 829.242371 325.703076 
z
" clip-path="url(#p8318b4c003)" style="fill: #83c5dc; fill-opacity: 0.696155"/>
   </g>
   <g id="patch_99">
    <path d="M 379.575588 201.21222 
L 921.370414 285.205588 
L 522.195896 240.146617 
z
" clip-path="url(#p8318b4c003)" style="fill: #ebe7c6"/>
   </g>
   <g id="patch_100">
    <path d="M 129.568578 549.233976 
L 94.162425 222.705753 
L 308.178342 158.607735 
L 629.643504 367.334628 
z
" clip-path="url(#p8318b4c003)" style="fill: #ffe1b1"/>
   </g>
   <g id="patch_101">
    <path d="M 919.410243 526.823779 
L 373.151645 10.087358 
L 633.147864 204.142464 
z
" clip-path="url(#p8318b4c003)" style="fill: #5a91bf; fill-opacity: 0.810567"/>
   </g>
   <g id="patch_102">
    <path d="M 941.805699 216.569422 
L 744.037266 423.745768 
L 880.138451 247.502088 
L 206.166772 169.033844 
z
" clip-path="url(#p8318b4c003)" style="fill: #fff6d1; fill-opacity: 0.585912"/>
   </g>
   <g id="patch_103">
    <path d="M 497.154272 502.151239 
L 978.182445 439.590188 
L 1006.983966 560.274917 
z
" clip-path="url(#p8318b4c003)" style="fill: #dcc3ee; fill-opacity: 0.574048"/>
   </g>
   <g id="patch_104">
    <path d="M 389.979799 486.171212 
L 752.087349 571.215655 
L 743.504608 253.095823 
L 626.925903 336.246935 
L 413.323287 294.378261 
z
" clip-path="url(#p8318b4c003)" style="fill: #a9fff8; fill-opacity: 0.918791"/>
   </g>
   <g id="patch_105">
    <path d="M 1003.42342 193.825693 
L 826.546629 140.277338 
L 841.216798 181.502521 
L 727.461823 408.321111 
L 490.586347 123.924457 
z
" clip-path="url(#p8318b4c003)" style="fill: #1e494b; fill-opacity: 0.505186"/>
   </g>
   <g id="patch_106">
    <path d="M 495.549866 365.761423 
L 793.532019 90.787695 
L 783.141855 510.887383 
z
" clip-path="url(#p8318b4c003)" style="fill: #33ffe2; fill-opacity: 0.398175"/>
   </g>
   <g id="patch_107">
    <path d="M 768.599918 1.843943 
L 864.07046 21.418024 
L 49.376268 372.231628 
z
" clip-path="url(#p8318b4c003)" style="fill: #ffebe6"/>
   </g>
   <g id="patch_108">
    <path d="M 180.524831 536.624725 
L 465.218056 139.36572 
L 643.308322 299.967649 
L 813.539196 460.349735 
z
" clip-path="url(#p8318b4c003)" style="fill: #ff944e; fill-opacity: 0.718898"/>
   </g>
   <g id="patch_109">
    <path d="M 652.850458 144.029855 
L 567.852879 219.771978 
L 812.305988 12.408856 
L 553.011905 1.258637 
z
" clip-path="url(#p8318b4c003)" style="fill: #9ad6ff; fill-opacity: 0.417579"/>
   </g>
   <g id="patch_110">
    <path d="M 694.568154 63.869836 
L 999.665636 7.687166 
L 923.904115 192.964956 
z
" clip-path="url(#p8318b4c003)" style="fill: #8cb2cb; fill-opacity: 0.408151"/>
   </g>
   <g id="patch_111">
    <path d="M 181.366152 358.548258 
L 483.762224 297.00815 
L 945.919502 167.036805 
L 740.784798 395.477783 
L 201.499632 551.247486 
z
" clip-path="url(#p8318b4c003)" style="fill: #bde9ff"/>
   </g>
   <g id="patch_112">
    <path d="M 68.598324 155.535457 
L 687.332852 61.867588 
L 56.274038 198.586074 
L 42.219227 266.392019 
L 590.836572 534.226548 
z
" clip-path="url(#p8318b4c003)" style="fill: #262c34"/>
   </g>
   <g id="patch_113">
    <path d="M 265.327908 466.652615 
L 676.700254 283.785859 
L 56.952767 373.916003 
L 934.285638 165.578652 
L 974.532966 33.913437 
z
" clip-path="url(#p8318b4c003)" style="fill: #ccc8df; fill-opacity: 0.639708"/>
   </g>
   <g id="patch_114">
    <path d="M 163.923535 360.080232 
L 585.635382 539.076636 
L 266.989087 538.075084 
z
" clip-path="url(#p8318b4c003)" style="fill: #61ddff; fill-opacity: 0.946044"/>
   </g>
   <g id="patch_115">
    <path d="M 20.785199 128.873202 
L 39.463626 161.29769 
L 944.914061 65.171108 
L 367.065046 118.932067 
L 82.846015 65.487526 
z
" clip-path="url(#p8318b4c003)" style="fill: #25313b; fill-opacity: 0.868339"/>
   </g>
   <g id="patch_116">
    <path d="M 692.442254 539.517261 
L 580.786347 171.775147 
L 937.359191 451.500299 
L 397.666095 288.576901 
L 871.2591 213.480527 
L 692.442254 539.517261 
z
" clip-path="url(#p8318b4c003)" style="fill: none"/>
   </g>
   <g id="patch_117">
    <path d="M 305.216741 566.264347 
L 945.351694 494.198746 
L 87.711034 386.868231 
L 158.106242 431.701736 
z
" clip-path="url(#p8318b4c003)" style="fill: #016878; fill-opacity: 0.26016"/>
   </g>
   <g id="patch_118">
    <path d="M 676.500919 228.079259 
L 828.047217 218.424096 
L 817.453884 223.274131 
L 1020.844864 251.102035 
z
" clip-path="url(#p8318b4c003)" style="fill: #82b894; fill-opacity: 0.860228"/>
   </g>
   <g id="patch_119">
    <path d="M 446.585172 552.105234 
L 518.068055 474.160436 
L 780.898746 308.476086 
z
" clip-path="url(#p8318b4c003)" style="fill: #00c8f1; fill-opacity: 0.839424"/>
   </g>
   <g id="patch_120">
    <path d="M 345.682745 198.990504 
L 333.56678 490.506249 
L 429.191809 515.801419 
L 120.434811 198.561474 
z
" clip-path="url(#p8318b4c003)" style="fill: #f0edff; fill-opacity: 0.294197"/>
   </g>
   <g id="patch_121">
    <path d="M 1002.82926 375.835525 
L 939.418496 190.723891 
L 265.714382 60.142079 
L 342.473104 34.726037 
z
" clip-path="url(#p8318b4c003)" style="fill: #61e6c0; fill-opacity: 0.090258"/>
   </g>
   <g id="patch_122">
    <path d="M 678.775451 441.433804 
L 141.074008 270.358669 
L 647.674868 309.215568 
z
" clip-path="url(#p8318b4c003)" style="fill: #f7878d; fill-opacity: 0.834842"/>
   </g>
   <g id="patch_123">
    <path d="M 1016.636396 276.341602 
L 112.105578 110.833627 
L 875.233878 219.913927 
z
" clip-path="url(#p8318b4c003)" style="fill: #906e5c; fill-opacity: 0.041104"/>
   </g>
   <g id="patch_124">
    <path d="M 559.958561 398.113734 
L 802.413335 138.006222 
L 381.834837 244.567116 
L 500.798973 554.373141 
L 627.573349 565.452412 
z
" clip-path="url(#p8318b4c003)" style="fill: #530e0e"/>
   </g>
   <g id="patch_125">
    <path d="M 775.459884 525.573027 
L 1020.576897 222.462001 
L 996.610497 23.775006 
z
" clip-path="url(#p8318b4c003)" style="fill: #7bafff; fill-opacity: 0.355973"/>
   </g>
   <g id="patch_126">
    <path d="M 433.785094 510.388012 
L 553.836013 50.83793 
L 103.642104 227.156404 
L 288.954488 174.01515 
z
" clip-path="url(#p8318b4c003)" style="fill: #900017; fill-opacity: 0.222754"/>
   </g>
   <g id="patch_127">
    <path d="M 181.260525 558.97949 
L 64.167903 35.398556 
L 149.186303 103.406474 
L 714.564855 313.155648 
L 77.809012 76.809919 
z
" clip-path="url(#p8318b4c003)" style="fill: #2a3342; fill-opacity: 0.633869"/>
   </g>
   <g id="patch_128">
    <path d="M 635.685854 177.295468 
L 477.214298 385.069389 
L 993.317943 562.837447 
L 675.043632 567.166729 
z
" clip-path="url(#p8318b4c003)" style="fill: #d4c7c8; fill-opacity: 0.557169"/>
   </g>
   <g id="patch_129">
    <path d="M 69.391103 411.361951 
L 222.488831 237.53611 
L 1.265785 565.761967 
L 10.152493 454.129565 
z
" clip-path="url(#p8318b4c003)" style="fill: #e4dddd; fill-opacity: 0.911375"/>
   </g>
   <g id="patch_130">
    <path d="M 442.374624 38.741067 
L 81.636226 420.361937 
L 593.525066 355.786267 
z
" clip-path="url(#p8318b4c003)" style="fill: #4291b0; fill-opacity: 0.619802"/>
   </g>
   <g id="patch_131">
    <path d="M 340.386668 520.781495 
L 533.172896 322.510545 
L 708.914869 240.109499 
z
" clip-path="url(#p8318b4c003)" style="fill: #cacd92; fill-opacity: 0.96297"/>
   </g>
   <g id="patch_132">
    <path d="M 661.63862 159.256454 
L 249.604591 389.094624 
L 525.95949 17.512199 
L 266.270679 152.958106 
L 744.970176 248.311137 
z
" clip-path="url(#p8318b4c003)" style="fill: #5ca9cb; fill-opacity: 0.479821"/>
   </g>
   <g id="patch_133">
    <path d="M 369.002145 502.83288 
L 556.656829 554.232309 
L 900.058966 420.742278 
L 538.601315 320.153526 
L 14.203273 149.027306 
z
" clip-path="url(#p8318b4c003)" style="fill: #142439; fill-opacity: 0.474013"/>
   </g>
   <g id="patch_134">
    <path d="M 512.551201 265.335993 
L 232.206303 341.325598 
L 689.415531 135.374012 
L 997.307407 154.839275 
z
" clip-path="url(#p8318b4c003)" style="fill: #00247b; fill-opacity: 0.249123"/>
   </g>
   <g id="patch_135">
    <path d="M 833.868477 106.237105 
L 140.308539 286.370124 
L 965.715062 54.62588 
L 994.294665 145.016811 
z
" clip-path="url(#p8318b4c003)" style="fill: #d5ccda; fill-opacity: 0.803171"/>
   </g>
   <g id="patch_136">
    <path d="M 422.669064 333.505299 
L 692.414948 487.977158 
L 706.995704 107.298131 
L 630.965659 44.799991 
z
" clip-path="url(#p8318b4c003)" style="fill: #fdffd8; fill-opacity: 0.696921"/>
   </g>
   <g id="patch_137">
    <path d="M 21.228999 325.888537 
L 23.093706 571.825522 
L 426.858557 129.134009 
L 942.249361 177.802724 
L 829.154241 4.052558 
z
" clip-path="url(#p8318b4c003)" style="fill: #cfe6ec; fill-opacity: 0.423285"/>
   </g>
   <g id="patch_138">
    <path d="M 434.450016 490.498399 
L 826.459079 233.301527 
L 241.249819 90.437306 
z
" clip-path="url(#p8318b4c003)" style="fill: #ffe699; fill-opacity: 0.711098"/>
   </g>
   <g id="patch_139">
    <path d="M 864.604695 164.019982 
L 961.709612 473.107626 
L 1000.762393 450.420138 
L 876.377113 49.432673 
z
" clip-path="url(#p8318b4c003)" style="fill: #d3cce4; fill-opacity: 0.659064"/>
   </g>
   <g id="patch_140">
    <path d="M 992.23721 575.008213 
L 604.045499 423.211966 
L 756.411392 393.653758 
L 606.309971 505.652633 
L 25.493992 414.645411 
z
" clip-path="url(#p8318b4c003)" style="fill: #ccd5ff; fill-opacity: 0.701857"/>
   </g>
   <g id="patch_141">
    <path d="M 600.302958 569.41564 
L 336.346396 99.22023 
L 956.588638 293.688341 
L 131.430818 574.76358 
z
" clip-path="url(#p8318b4c003)" style="fill: #fff4ec; fill-opacity: 0.397832"/>
   </g>
   <g id="patch_142">
    <path d="M 500.02978 248.211737 
L 89.735856 493.358154 
L 420.944555 300.453128 
L 500.02978 248.211737 
z
" clip-path="url(#p8318b4c003)" style="fill: none"/>
   </g>
   <g id="patch_143">
    <path d="M 201.991593 202.450021 
L 414.695006 1.792752 
L 78.609315 39.606035 
L 834.452855 270.010567 
z
" clip-path="url(#p8318b4c003)" style="fill: #0146a9; fill-opacity: 0.115373"/>
   </g>
   <g id="patch_144">
    <path d="M 498.045748 217.091573 
L 231.336531 348.153613 
L 147.714815 383.2638 
z
" clip-path="url(#p8318b4c003)" style="fill: #6ac8e5; fill-opacity: 0.633889"/>
   </g>
   <g id="patch_145">
    <path d="M 111.183266 418.93604 
L 720.722154 419.478307 
L 1009.528887 523.058823 
z
" clip-path="url(#p8318b4c003)" style="fill: #b1a0c4"/>
   </g>
   <g id="patch_146">
    <path d="M 582.358548 459.396356 
L 791.493689 266.44883 
L 339.42258 529.097844 
L 692.374944 221.701607 
L 333.461611 550.309487 
z
" clip-path="url(#p8318b4c003)" style="fill: #fdb140; fill-opacity: 0.991531"/>
   </g>
   <g id="patch_147">
    <path d="M 463.131904 277.907899 
L 4.047679 107.244844 
L 485.140877 286.635353 
L 212.084162 38.351822 
z
" clip-path="url(#p8318b4c003)" style="fill: #4b3c1a; fill-opacity: 0.55633"/>
   </g>
   <g id="patch_148">
    <path d="M 565.546596 370.131356 
L 839.197237 388.918518 
L 835.024212 143.151373 
z
" clip-path="url(#p8318b4c003)" style="fill: #c13621; fill-opacity: 0.049709"/>
   </g>
   <g id="patch_149">
    <path d="M 470.946305 133.902144 
L 10.343302 153.181955 
L 91.401074 130.908577 
L 270.657114 77.73422 
z
" clip-path="url(#p8318b4c003)" style="fill: #202832; fill-opacity: 0.85643"/>
   </g>
   <g id="patch_150">
    <path d="M 699.189776 31.103314 
L 1012.846674 242.716975 
L 924.113853 337.537536 
L 259.233255 331.491902 
z
" clip-path="url(#p8318b4c003)" style="fill: #3b4d91; fill-opacity: 0.181304"/>
   </g>
   <g id="patch_151">
    <path d="M 1020.207443 473.689269 
L 738.141043 562.742026 
L 770.384397 498.574871 
L 212.407277 430.36749 
z
" clip-path="url(#p8318b4c003)" style="fill: #cfc3df; fill-opacity: 0.988492"/>
   </g>
   <g id="patch_152">
    <path d="M 211.165786 560.818549 
L 837.703067 218.752783 
L 118.486775 170.367174 
L 495.581331 332.328634 
L 368.999099 485.598797 
L 211.165786 560.818549 
z
" clip-path="url(#p8318b4c003)" style="fill: none"/>
   </g>
   <g id="patch_153">
    <path d="M 927.561491 72.818641 
L 336.526962 110.301503 
L 613.248445 572.363964 
z
" clip-path="url(#p8318b4c003)" style="fill: #e3ffff; fill-opacity: 0.322107"/>
   </g>
   <g id="patch_154">
    <path d="M 790.969999 108.848845 
L 244.168563 518.123899 
L 150.097476 472.28301 
L 646.315219 250.027772 
z
" clip-path="url(#p8318b4c003)" style="fill: #1f8fda; fill-opacity: 0.935608"/>
   </g>
   <g id="patch_155">
    <path d="M 992.72174 143.364628 
L 842.552366 23.984612 
L 313.82925 380.470915 
L 521.371309 439.44629 
z
" clip-path="url(#p8318b4c003)" style="fill: #fbecc7; fill-opacity: 0.179715"/>
   </g>
   <g id="patch_156">
    <path d="M 784.174384 386.546373 
L 898.236479 496.716112 
L 478.944213 246.099681 
z
" clip-path="url(#p8318b4c003)" style="fill: #031468"/>
   </g>
   <g id="patch_157">
    <path d="M 437.858629 151.646858 
L 585.051341 393.989298 
L 819.768898 338.272385 
z
" clip-path="url(#p8318b4c003)" style="fill: #ffdfc3"/>
   </g>
   <g id="patch_158">
    <path d="M 773.000355 286.842039 
L 933.206798 479.4383 
L 582.475435 293.535757 
L 330.987414 420.513846 
L 987.974708 424.015134 
z
" clip-path="url(#p8318b4c003)" style="fill: #fffff3; fill-opacity: 0.12725"/>
   </g>
   <g id="patch_159">
    <path d="M 987.2487 196.443787 
L 992.681143 415.089957 
L 697.107906 114.031294 
z
" clip-path="url(#p8318b4c003)" style="fill: #7ba8bc; fill-opacity: 0.124985"/>
   </g>
   <g id="patch_160">
    <path d="M 211.655304 290.883615 
L 214.15496 197.128033 
L 583.699101 205.868175 
L 990.677211 573.981292 
z
" clip-path="url(#p8318b4c003)" style="fill: #f8e9ff; fill-opacity: 0.45979"/>
   </g>
   <g id="patch_161">
    <path d="M 565.910102 184.148795 
L 363.257477 217.585125 
L 307.972537 229.181404 
z
" clip-path="url(#p8318b4c003)" style="fill: #0c6939"/>
   </g>
   <g id="patch_162">
    <path d="M 117.435728 455.992502 
L 562.226523 283.352216 
L 847.832381 246.402335 
L 959.646775 251.407403 
z
" clip-path="url(#p8318b4c003)" style="fill: #d9d5e7; fill-opacity: 0.878064"/>
   </g>
   <g id="patch_163">
    <path d="M 237.456651 313.751481 
L 736.038088 60.980014 
L 882.773809 223.408888 
L 688.032998 0.76925 
z
" clip-path="url(#p8318b4c003)" style="fill: #fde7ec; fill-opacity: 0.679576"/>
   </g>
   <g id="patch_164">
    <path d="M 230.58732 216.057742 
L 680.263838 471.258604 
L 357.030044 273.645442 
z
" clip-path="url(#p8318b4c003)" style="fill: #f0ff5c"/>
   </g>
   <g id="patch_165">
    <path d="M 734.441606 570.420257 
L 482.865997 564.157438 
L 337.84598 187.595294 
z
" clip-path="url(#p8318b4c003)" style="fill: #a6b6c9; fill-opacity: 0.635652"/>
   </g>
   <g id="patch_166">
    <path d="M 783.542407 95.160601 
L 180.315873 296.474801 
L 431.231076 285.167023 
z
" clip-path="url(#p8318b4c003)" style="fill: #fffff3"/>
   </g>
   <g id="patch_167">
    <path d="M 697.0587 469.217899 
L 658.103797 544.994933 
L 471.577806 276.609678 
L 377.561339 197.139283 
z
" clip-path="url(#p8318b4c003)" style="fill: #ffffff; fill-opacity: 0.930096"/>
   </g>
   <g id="patch_168">
    <path d="M 769.060508 563.2409 
L 679.614298 99.15786 
L 321.461599 444.63503 
z
" clip-path="url(#p8318b4c003)" style="fill: #427d69; fill-opacity: 0.238916"/>
   </g>
   <g id="patch_169">
    <path d="M 559.288296 336.455308 
L 480.999998 547.383711 
L 731.855765 472.086849 
z
" clip-path="url(#p8318b4c003)" style="fill: #4feeff; fill-opacity: 0.87373"/>
   </g>
   <g id="patch_170">
    <path d="M 247.251392 318.177865 
L 835.979465 340.464823 
L 736.486319 8.305769 
L 978.619017 187.767252 
L 835.320017 312.654221 
z
" clip-path="url(#p8318b4c003)" style="fill: #f2c7cd; fill-opacity: 0.37328"/>
   </g>
   <g id="patch_171">
    <path d="M 758.404117 63.215646 
L 996.707645 28.375154 
L 727.554566 167.978849 
L 451.03619 199.659348 
z
" clip-path="url(#p8318b4c003)" style="fill: #e5e1fc; fill-opacity: 0.45126"/>
   </g>
   <g id="patch_172">
    <path d="M 474.270956 435.320113 
L 596.570856 304.903553 
L 569.192449 474.58404 
L 470.073035 507.696774 
z
" clip-path="url(#p8318b4c003)" style="fill: #00ffff; fill-opacity: 0.986494"/>
   </g>
   <g id="patch_173">
    <path d="M 838.797569 321.302107 
L 248.106523 170.687801 
L 264.057478 440.016372 
L 518.20226 242.433193 
L 731.90307 264.517763 
z
" clip-path="url(#p8318b4c003)" style="fill: #ffe6d8; fill-opacity: 0.976428"/>
   </g>
   <g id="patch_174">
    <path d="M 357.449621 370.238807 
L 602.960192 533.858151 
L 326.951364 170.299625 
L 662.410846 193.643793 
z
" clip-path="url(#p8318b4c003)" style="fill: #c5c8d7"/>
   </g>
   <g id="patch_175">
    <path d="M 856.917388 138.696857 
L 323.950429 434.062531 
L 790.345558 13.650027 
L 319.278796 86.79591 
L 856.917388 138.696857 
z
" clip-path="url(#p8318b4c003)" style="fill: none"/>
   </g>
   <g id="patch_176">
    <path d="M 178.691963 403.36795 
L 732.181526 287.067617 
L 213.306341 227.899952 
L 578.950931 12.070871 
L 382.224162 416.367338 
z
" clip-path="url(#p8318b4c003)" style="fill: #5b9db2; fill-opacity: 0.78818"/>
   </g>
   <g id="patch_177">
    <path d="M 981.938541 471.087171 
L 362.842738 0.187541 
L 110.721646 331.485734 
L 605.649806 225.454846 
L 175.58637 552.798212 
z
" clip-path="url(#p8318b4c003)" style="fill: #b2eeff; fill-opacity: 0.146581"/>
   </g>
   <g id="patch_178">
    <path d="M 533.623752 251.212587 
L 59.812067 351.177639 
L 809.913904 453.3975 
z
" clip-path="url(#p8318b4c003)" style="fill: #b4d3eb; fill-opacity: 0.951407"/>
   </g>
   <g id="patch_179">
    <path d="M 292.919751 231.366161 
L 563.009874 430.759977 
L 549.307216 6.498178 
z
" clip-path="url(#p8318b4c003)" style="fill: #37a1d8; fill-opacity: 0.789778"/>
   </g>
   <g id="patch_180">
    <path d="M 538.64523 500.878076 
L 638.767786 61.783758 
L 995.422233 57.001802 
z
" clip-path="url(#p8318b4c003)" style="fill: #dfe9ed; fill-opacity: 0.353297"/>
   </g>
   <g id="patch_181">
    <path d="M 628.897802 451.33949 
L 320.071008 524.684572 
L 357.471385 380.135304 
z
" clip-path="url(#p8318b4c003)" style="fill: #ffb858"/>
   </g>
   <g id="patch_182">
    <path d="M 671.030249 507.313895 
L 165.504223 454.820133 
L 155.481331 173.569224 
L 657.565375 324.140101 
L 554.154287 472.494548 
z
" clip-path="url(#p8318b4c003)" style="fill: #fffdc3; fill-opacity: 0.640893"/>
   </g>
   <g id="patch_183">
    <path d="M 569.495813 356.530681 
L 5.504714 415.123637 
L 510.085812 488.872507 
L 701.287326 304.079807 
L 575.608242 123.289736 
z
" clip-path="url(#p8318b4c003)" style="fill: #ffffff"/>
   </g>
   <g id="patch_184">
    <path d="M 683.109106 462.647013 
L 844.22331 303.163961 
L 999.486695 80.303895 
z
" clip-path="url(#p8318b4c003)" style="fill: #cfbcbc; fill-opacity: 0.991271"/>
   </g>
   <g id="patch_185">
    <path d="M 502.621519 277.333906 
L 836.416516 140.88531 
L 706.816435 123.619931 
L 810.143826 458.120046 
z
" clip-path="url(#p8318b4c003)" style="fill: #f5fff2; fill-opacity: 0.688964"/>
   </g>
   <g id="patch_186">
    <path d="M 649.458171 57.89523 
L 622.150265 498.035082 
L 941.712048 18.259471 
L 434.098975 90.063286 
z
" clip-path="url(#p8318b4c003)" style="fill: #ffe9ee; fill-opacity: 0.216908"/>
   </g>
   <g id="patch_187">
    <path d="M 64.614567 72.482782 
L 205.183829 16.610054 
L 848.880992 497.06224 
L 126.75639 529.224972 
z
" clip-path="url(#p8318b4c003)" style="fill: #190008; fill-opacity: 0.15876"/>
   </g>
   <g id="patch_188">
    <path d="M 89.998897 43.974917 
L 109.634472 210.223892 
L 326.56596 380.529123 
L 605.030253 471.412017 
L 89.998897 43.974917 
z
" clip-path="url(#p8318b4c003)" style="fill: none"/>
   </g>
   <g id="patch_189">
    <path d="M 219.437053 211.891029 
L 51.099261 409.183057 
L 380.045071 120.33177 
L 41.893556 303.556464 
z
" clip-path="url(#p8318b4c003)" style="fill: #fcd9b7; fill-opacity: 0.154092"/>
   </g>
   <g id="patch_190">
    <path d="M 999.943177 227.728861 
L 821.857972 103.610011 
L 301.562523 220.651854 
z
" clip-path="url(#p8318b4c003)" style="fill: #a4ba94; fill-opacity: 0.039021"/>
   </g>
   <g id="patch_191">
    <path d="M 565.821 463.231762 
L 114.266553 73.998815 
L 270.311908 518.272685 
L 565.821 463.231762 
z
" clip-path="url(#p8318b4c003)" style="fill: none"/>
   </g>
   <g id="patch_192">
    <path d="M 668.481717 517.860904 
L 359.244008 255.588889 
L 870.682223 470.221752 
L 606.048666 534.688897 
z
" clip-path="url(#p8318b4c003)" style="fill: #9775cb; fill-opacity: 0.773835"/>
   </g>
   <g id="patch_193">
    <path d="M 662.651739 471.336499 
L 309.611072 554.355693 
L 686.338971 305.968982 
L 274.402727 431.530858 
L 674.100944 447.699544 
z
" clip-path="url(#p8318b4c003)" style="fill: #fc702d; fill-opacity: 0.254154"/>
   </g>
   <g id="patch_194">
    <path d="M 669.479156 569.923761 
L 255.107251 306.764958 
L 466.138849 298.563281 
L 539.800805 240.525494 
L 707.37299 572.021023 
z
" clip-path="url(#p8318b4c003)" style="fill: #ffb7b5; fill-opacity: 0.562397"/>
   </g>
   <g id="patch_195">
    <path d="M 427.294512 49.721872 
L 688.985003 438.388553 
L 766.584843 1.823193 
z
" clip-path="url(#p8318b4c003)" style="fill: #ffd5a9; fill-opacity: 0.143311"/>
   </g>
   <g id="patch_196">
    <path d="M 598.42924 282.001333 
L 154.188646 393.633537 
L 757.460277 170.353163 
z
" clip-path="url(#p8318b4c003)" style="fill: #836590; fill-opacity: 0.33638"/>
   </g>
   <g id="patch_197">
    <path d="M 443.134889 459.693484 
L 182.642055 425.905406 
L 911.622326 558.546341 
L 305.849463 136.378783 
L 117.578689 335.952338 
z
" clip-path="url(#p8318b4c003)" style="fill: #f4cfb7; fill-opacity: 0.537368"/>
   </g>
   <g id="patch_198">
    <path d="M 92.097314 308.530079 
L 382.823999 271.359979 
L 790.984554 404.234647 
L 105.487928 459.841232 
L 677.723033 427.910021 
z
" clip-path="url(#p8318b4c003)" style="fill: #b09491; fill-opacity: 0.567333"/>
   </g>
   <g id="patch_199">
    <path d="M 314.002916 327.841593 
L 408.388248 454.763337 
L 458.292187 393.763531 
L 501.522969 128.924366 
z
" clip-path="url(#p8318b4c003)" style="fill: #eefff0; fill-opacity: 0.206219"/>
   </g>
   <g id="patch_200">
    <path d="M 964.019689 261.504527 
L 939.264284 62.72534 
L 575.520474 142.664914 
L 802.222469 243.087366 
z
" clip-path="url(#p8318b4c003)" style="fill: #ded4d9; fill-opacity: 0.516275"/>
   </g>
   <g id="patch_201">
    <path d="M 360.650769 232.452079 
L 9.826655 440.175392 
L 982.726574 228.994756 
z
" clip-path="url(#p8318b4c003)" style="fill: #fffdf0; fill-opacity: 0.307921"/>
   </g>
   <g id="patch_202">
    <path d="M 488.08234 86.127167 
L 596.051787 569.721848 
L 56.319314 152.62566 
L 588.7481 360.752329 
z
" clip-path="url(#p8318b4c003)" style="fill: #ffca68; fill-opacity: 0.027781"/>
   </g>
   <g id="patch_203">
    <path d="M 161.549157 178.188734 
L 46.00446 231.643885 
L 287.482738 49.71289 
L 161.549157 178.188734 
z
" clip-path="url(#p8318b4c003)" style="fill: none"/>
   </g>
   <g id="patch_204">
    <path d="M 702.3046 498.160949 
L 794.116585 530.284575 
L 633.321745 313.781173 
L 376.871377 342.474511 
L 337.164183 69.960024 
z
" clip-path="url(#p8318b4c003)" style="fill: #59d6ff; fill-opacity: 0.346312"/>
   </g>
   <g id="patch_205">
    <path d="M 344.603811 311.443239 
L 687.356042 564.455232 
L 38.960492 554.183818 
z
" clip-path="url(#p8318b4c003)" style="fill: #c0c3bb; fill-opacity: 0.627075"/>
   </g>
   <g id="patch_206">
    <path d="M 236.690862 254.829662 
L 472.8952 237.472706 
L 857.209515 216.502986 
L 446.014656 110.104558 
z
" clip-path="url(#p8318b4c003)" style="fill: #4a8983; fill-opacity: 0.094013"/>
   </g>
   <g id="patch_207">
    <path d="M 682.985775 142.233202 
L 512.461005 448.11182 
L 193.31401 448.733747 
L 625.56054 505.532234 
z
" clip-path="url(#p8318b4c003)" style="fill: #bb7b75; fill-opacity: 0.252872"/>
   </g>
   <g id="patch_208">
    <path d="M 632.140942 297.203769 
L 829.564341 476.071047 
L 697.874829 114.548952 
L 666.991563 33.822291 
L 115.821098 247.595656 
z
" clip-path="url(#p8318b4c003)" style="fill: #fdf6f9; fill-opacity: 0.065549"/>
   </g>
   <g id="patch_209">
    <path d="M 794.566775 505.425278 
L 730.539502 248.623123 
L 714.733189 334.821152 
z
" clip-path="url(#p8318b4c003)" style="fill: #fffbea"/>
   </g>
   <g id="patch_210">
    <path d="M 648.992584 196.310587 
L 566.054408 474.895179 
L 334.719201 237.442805 
L 9.310468 420.404312 
L 4.469929 500.090728 
z
" clip-path="url(#p8318b4c003)" style="fill: #d7ceba; fill-opacity: 0.806371"/>
   </g>
   <g id="patch_211">
    <path d="M 963.68627 534.724186 
L 570.873756 242.280523 
L 1.358433 387.948803 
z
" clip-path="url(#p8318b4c003)" style="fill: #a5ccd2; fill-opacity: 0.681344"/>
   </g>
   <g id="patch_212">
    <path d="M 678.805443 497.129613 
L 105.510657 442.65904 
L 654.162095 353.709664 
z
" clip-path="url(#p8318b4c003)" style="fill: #cbcaba; fill-opacity: 0.518888"/>
   </g>
   <g id="patch_213">
    <path d="M 696.883491 289.168964 
L 368.781363 101.809493 
L 588.195981 301.600287 
L 519.723932 558.226934 
L 523.878321 279.41719 
z
" clip-path="url(#p8318b4c003)" style="fill: #50b0cf; fill-opacity: 0.470134"/>
   </g>
   <g id="patch_214">
    <path d="M 447.116326 448.457933 
L 765.050092 417.104098 
L 20.39692 303.170934 
z
" clip-path="url(#p8318b4c003)" style="fill: #a84e44; fill-opacity: 0.173187"/>
   </g>
   <g id="patch_215">
    <path d="M 910.955315 430.631939 
L 818.691987 350.306293 
L 514.448066 303.283654 
L 18.991681 165.90089 
L 556.33618 237.210279 
z
" clip-path="url(#p8318b4c003)" style="fill: #002abc; fill-opacity: 0.044679"/>
   </g>
   <g id="patch_216">
    <path d="M 822.577156 384.819126 
L 148.967966 290.244426 
L 598.421714 501.228366 
L 609.649155 121.531604 
L 584.728489 454.483899 
z
" clip-path="url(#p8318b4c003)" style="fill: #009bc4; fill-opacity: 0.146954"/>
   </g>
   <g id="patch_217">
    <path d="M 119.649432 128.303123 
L 193.509441 366.340694 
L 191.147019 269.177495 
z
" clip-path="url(#p8318b4c003)" style="fill: #75474d; fill-opacity: 0.265434"/>
   </g>
   <g id="patch_218">
    <path d="M 681.527371 394.843104 
L 314.375622 460.252874 
L 291.83073 193.791485 
L 216.795844 537.716207 
L 630.120919 241.094228 
z
" clip-path="url(#p8318b4c003)" style="fill: #8ccdde; fill-opacity: 0.36673"/>
   </g>
   <g id="patch_219">
    <path d="M 70.566329 107.562336 
L 423.664201 265.594601 
L 758.2947 194.388202 
z
" clip-path="url(#p8318b4c003)" style="fill: #003854; fill-opacity: 0.000949"/>
   </g>
   <g id="patch_220">
    <path d="M 25.321854 512.429727 
L 513.75968 99.175442 
L 899.113378 367.667641 
z
" clip-path="url(#p8318b4c003)" style="fill: #0f09bf; fill-opacity: 0.016475"/>
   </g>
   <g id="patch_221">
    <path d="M 540.056394 394.183792 
L 581.322837 550.329711 
L 1.629039 381.248485 
L 90.300724 504.447101 
z
" clip-path="url(#p8318b4c003)" style="fill: #b7bdb5; fill-opacity: 0.336065"/>
   </g>
   <g id="patch_222">
    <path d="M 64.601971 437.39115 
L 474.077118 219.679466 
L 354.448081 373.658192 
z
" clip-path="url(#p8318b4c003)" style="fill: #4ffcff; fill-opacity: 0.04899"/>
   </g>
   <g id="patch_223">
    <path d="M 637.464352 430.053426 
L 387.21157 544.141985 
L 433.453236 504.958615 
L 654.59961 22.753981 
L 438.346596 8.89243 
z
" clip-path="url(#p8318b4c003)" style="fill: #48a5cb; fill-opacity: 0.15147"/>
   </g>
   <g id="patch_224">
    <path d="M 500.94595 38.490256 
L 774.096622 509.898807 
L 947.163176 212.102167 
z
" clip-path="url(#p8318b4c003)" style="fill: #ffe4d7; fill-opacity: 0.118857"/>
   </g>
   <g id="patch_225">
    <path d="M 937.163645 364.275372 
L 979.579742 107.240451 
L 827.335293 349.787483 
L 901.742821 496.292118 
L 211.285017 119.551039 
z
" clip-path="url(#p8318b4c003)" style="fill: #00276c; fill-opacity: 0.07811"/>
   </g>
   <g id="patch_226">
    <path d="M 117.339233 357.317061 
L 203.62621 141.536939 
L 275.216139 39.233478 
L 169.140778 525.94863 
z
" clip-path="url(#p8318b4c003)" style="fill: #cd2f3c; fill-opacity: 0.10511"/>
   </g>
   <g id="patch_227">
    <path d="M 451.432784 359.43558 
L 550.180254 142.303102 
L 934.887853 486.449083 
L 468.490152 74.717081 
z
" clip-path="url(#p8318b4c003)" style="fill: #53b0c5; fill-opacity: 0.080694"/>
   </g>
   <g id="patch_228">
    <path d="M 768.684854 518.022526 
L 620.95454 344.646042 
L 413.241575 306.900511 
z
" clip-path="url(#p8318b4c003)" style="fill: #8db2d4; fill-opacity: 0.485188"/>
   </g>
   <g id="patch_229">
    <path d="M 250.852087 451.110814 
L 371.389967 232.060527 
L 29.095874 351.138929 
L 75.129867 530.525074 
L 348.705377 380.808575 
z
" clip-path="url(#p8318b4c003)" style="fill: #f9ae80; fill-opacity: 0.235597"/>
   </g>
   <g id="patch_230">
    <path d="M 26.360824 469.142943 
L 72.658343 395.697659 
L 205.833782 327.588875 
L 975.855649 80.842691 
z
" clip-path="url(#p8318b4c003)" style="fill: #8f4d61; fill-opacity: 0.053079"/>
   </g>
   <g id="patch_231">
    <path d="M 373.216418 11.137538 
L 91.432698 157.395817 
L 876.652062 37.683664 
z
" clip-path="url(#p8318b4c003)" style="fill: #29b8ff; fill-opacity: 0.059596"/>
   </g>
   <g id="patch_232">
    <path d="M 447.67714 152.128089 
L 762.121798 437.328971 
L 495.06361 431.902903 
z
" clip-path="url(#p8318b4c003)" style="fill: #00355f; fill-opacity: 0.041072"/>
   </g>
   <g id="patch_233">
    <path d="M 177.120414 562.160842 
L 67.737135 480.648196 
L 182.846012 117.079967 
L 219.378334 77.90204 
L 144.681389 361.501377 
z
" clip-path="url(#p8318b4c003)" style="fill: #ffd56f; fill-opacity: 0.114701"/>
   </g>
   <g id="patch_234">
    <path d="M 905.27276 573.396346 
L 277.603281 23.444951 
L 883.980451 575.012757 
L 387.70117 442.905553 
z
" clip-path="url(#p8318b4c003)" style="fill: #b0e6e7; fill-opacity: 0.146483"/>
   </g>
   <g id="patch_235">
    <path d="M 897.972012 547.400011 
L 970.102548 181.989687 
L 141.388902 19.381071 
z
" clip-path="url(#p8318b4c003)" style="fill: #2a0039; fill-opacity: 0.076782"/>
   </g>
   <g id="patch_236">
    <path d="M 410.979695 541.945185 
L 781.992523 399.701696 
L 202.77171 508.020692 
L 845.898124 568.994037 
L 589.323079 13.156506 
z
" clip-path="url(#p8318b4c003)" style="fill: #9be2ff; fill-opacity: 0.167133"/>
   </g>
  </g>
 </g>
 <defs>
  <clipPath id="p8318b4c003">
   <rect x="0" y="0" width="1022.4" height="576"/>
  </clipPath>
 </defs>
</svg>
