<?xml version="1.0" encoding="utf-8" standalone="no"?>
<!DOCTYPE svg PUBLIC "-//W3C//DTD SVG 1.1//EN"
  "http://www.w3.org/Graphics/SVG/1.1/DTD/svg11.dtd">
<svg xmlns:xlink="http://www.w3.org/1999/xlink" width="1022.4pt" height="576pt" viewBox="0 0 1022.4 576" xmlns="http://www.w3.org/2000/svg" version="1.1">
 <metadata>
  <rdf:RDF xmlns:dc="http://purl.org/dc/elements/1.1/" xmlns:cc="http://creativecommons.org/ns#" xmlns:rdf="http://www.w3.org/1999/02/22-rdf-syntax-ns#">
   <cc:Work>
    <dc:type rdf:resource="http://purl.org/dc/dcmitype/StillImage"/>
    <dc:date>2022-05-08T16:58:20.111564</dc:date>
    <dc:format>image/svg+xml</dc:format>
    <dc:creator>
     <cc:Agent>
      <dc:title>Matplotlib v3.5.2, https://matplotlib.org/</dc:title>
     </cc:Agent>
    </dc:creator>
   </cc:Work>
  </rdf:RDF>
 </metadata>
 <defs>
  <style type="text/css">*{stroke-linejoin: round; stroke-linecap: butt}</style>
 </defs>
 <g id="figure_1">
  <g id="patch_1">
   <path d="M 0 576 
L 1022.4 576 
L 1022.4 0 
L 0 0 
z
" style="fill: #ffffff"/>
  </g>
  <g id="axes_1">
   <g id="patch_2">
    <path d="M 0 576 
L 0 0 
L 1022.4 0 
L 1022.4 576 
z
" clip-path="url(#p48d365c374)" style="fill: #808080"/>
   </g>
   <g id="patch_3">
    <path d="M 814.837024 135.149133 
L 261.643635 524.136065 
L 213.052142 442.286337 
z
" clip-path="url(#p48d365c374)" style="fill: #f2dce3; fill-opacity: 0.312003"/>
   </g>
   <g id="patch_4">
    <path d="M 958.227443 260.256964 
L 1012.061475 364.110591 
L 177.278551 460.093894 
L 646.480807 37.201167 
z
" clip-path="url(#p48d365c374)" style="fill: #caeaf8; fill-opacity: 0.733918"/>
   </g>
   <g id="patch_5">
    <path d="M 806.735027 203.18775 
L 910.048695 121.091954 
L 969.124344 323.409274 
L 192.483431 215.34626 
L 983.158653 474.279859 
z
" clip-path="url(#p48d365c374)" style="fill: #afb5d1; fill-opacity: 0.703732"/>
   </g>
   <g id="patch_6">
    <path d="M 698.302914 332.327289 
L 842.417072 335.0406 
L 692.339464 277.773026 
L 430.264529 297.102114 
z
" clip-path="url(#p48d365c374)" style="fill: #ffffae; fill-opacity: 0.992388"/>
   </g>
   <g id="patch_7">
    <path d="M 945.13867 173.078888 
L 858.310276 132.612701 
L 217.879739 562.648929 
L 197.996944 341.300954 
z
" clip-path="url(#p48d365c374)" style="fill: #d6d6ff; fill-opacity: 0.932024"/>
   </g>
   <g id="patch_8">
    <path d="M 156.252489 472.380018 
L 489.746992 449.518993 
L 386.151312 39.131731 
L 318.58394 425.395003 
z
" clip-path="url(#p48d365c374)" style="fill: #0092cd; fill-opacity: 0.757934"/>
   </g>
   <g id="patch_9">
    <path d="M 618.327421 338.716297 
L 583.507568 392.152358 
L 981.265159 15.435699 
L 142.073919 398.769491 
L 974.506974 539.627125 
z
" clip-path="url(#p48d365c374)" style="fill: #e1d0f7; fill-opacity: 0.749019"/>
   </g>
   <g id="patch_10">
    <path d="M 1008.596608 338.024301 
L 306.616075 298.540608 
L 144.111522 561.200366 
L 346.630468 85.751094 
L 135.776926 530.443245 
z
" clip-path="url(#p48d365c374)" style="fill: #e9d6df; fill-opacity: 0.950904"/>
   </g>
   <g id="patch_11">
    <path d="M 516.748052 193.162349 
L 986.786258 160.879199 
L 115.045891 505.144978 
z
" clip-path="url(#p48d365c374)" style="fill: #ffc3c3; fill-opacity: 0.979959"/>
   </g>
   <g id="patch_12">
    <path d="M 115.513937 360.486488 
L 1013.962594 9.52828 
L 831.1368 4.199876 
L 419.610677 464.048232 
z
" clip-path="url(#p48d365c374)" style="fill: #d0e0e3; fill-opacity: 0.865317"/>
   </g>
   <g id="patch_13">
    <path d="M 202.61906 204.071759 
L 944.794666 287.989078 
L 365.575301 193.733139 
z
" clip-path="url(#p48d365c374)" style="fill: #b8e65d; fill-opacity: 0.690107"/>
   </g>
   <g id="patch_14">
    <path d="M 521.722897 127.489039 
L 804.707515 370.510596 
L 604.053579 405.733418 
L 252.109454 481.680155 
L 241.70739 302.560335 
z
" clip-path="url(#p48d365c374)" style="fill: #ffffff; fill-opacity: 0.714568"/>
   </g>
   <g id="patch_15">
    <path d="M 940.749427 134.798261 
L 872.016077 491.021209 
L 754.064569 445.591394 
z
" clip-path="url(#p48d365c374)"/>
   </g>
   <g id="patch_16">
    <path d="M 228.568287 509.321441 
L 105.596395 163.478157 
L 138.283786 567.678417 
L 1019.066206 357.818108 
z
" clip-path="url(#p48d365c374)" style="fill: #faffe4; fill-opacity: 0.420108"/>
   </g>
   <g id="patch_17">
    <path d="M 920.282873 240.075805 
L 993.330968 245.404498 
L 911.694429 276.515512 
L 584.323345 318.012753 
z
" clip-path="url(#p48d365c374)" style="fill: #ce98f6"/>
   </g>
   <g id="patch_18">
    <path d="M 978.074551 471.734507 
L 0.101065 468.206092 
L 826.227971 325.615548 
L 180.332086 508.163119 
L 242.356088 556.942168 
z
" clip-path="url(#p48d365c374)" style="fill: #99f2ff; fill-opacity: 0.948938"/>
   </g>
   <g id="patch_19">
    <path d="M 577.757086 21.174926 
L 126.296422 144.041812 
L 746.104015 216.209472 
z
" clip-path="url(#p48d365c374)" style="fill: #413d53; fill-opacity: 0.126348"/>
   </g>
   <g id="patch_20">
    <path d="M 696.372184 171.273108 
L 645.937149 64.728102 
L 54.309862 31.0753 
z
" clip-path="url(#p48d365c374)" style="fill: #374c5c"/>
   </g>
   <g id="patch_21">
    <path d="M 552.794887 538.612752 
L 937.529742 88.239363 
L 174.587181 507.093423 
L 366.708212 243.640074 
L 88.611361 404.985852 
z
" clip-path="url(#p48d365c374)" style="fill: #7c78e2; fill-opacity: 0.95382"/>
   </g>
   <g id="patch_22">
    <path d="M 1021.747459 425.860383 
L 631.461242 575.110881 
L 796.581998 456.101084 
z
" clip-path="url(#p48d365c374)" style="fill: #d9c6d9; fill-opacity: 0.847156"/>
   </g>
   <g id="patch_23">
    <path d="M 225.994506 501.641062 
L 362.24502 160.450252 
L 634.172075 478.127956 
L 780.769137 389.270709 
z
" clip-path="url(#p48d365c374)" style="fill: #38ffe6"/>
   </g>
   <g id="patch_24">
    <path d="M 695.499377 53.694023 
L 894.908793 11.225017 
L 1002.991811 496.318467 
L 561.559281 456.49952 
z
" clip-path="url(#p48d365c374)" style="fill: #feeafe; fill-opacity: 0.534795"/>
   </g>
   <g id="patch_25">
    <path d="M 1002.274098 35.156038 
L 78.033416 486.396942 
L 7.644865 556.907735 
L 572.806774 508.646744 
z
" clip-path="url(#p48d365c374)" style="fill: #f8dcd5; fill-opacity: 0.589447"/>
   </g>
   <g id="patch_26">
    <path d="M 722.095762 11.359216 
L 133.960292 153.218803 
L 832.705364 447.872435 
L 801.258083 539.41278 
z
" clip-path="url(#p48d365c374)" style="fill: #b9c0ea; fill-opacity: 0.608515"/>
   </g>
   <g id="patch_27">
    <path d="M 712.019495 499.300752 
L 269.168941 130.851175 
L 755.842031 473.112843 
L 991.913997 547.212988 
z
" clip-path="url(#p48d365c374)" style="fill: #f5e7f5; fill-opacity: 0.723448"/>
   </g>
   <g id="patch_28">
    <path d="M 333.073957 191.970792 
L 511.73069 503.499762 
L 808.344262 134.195786 
z
" clip-path="url(#p48d365c374)" style="fill: #bec1bf; fill-opacity: 0.599966"/>
   </g>
   <g id="patch_29">
    <path d="M 346.562065 257.179328 
L 696.006027 49.600608 
L 233.516531 242.473122 
L 653.291448 271.822909 
z
" clip-path="url(#p48d365c374)" style="fill: #ffffca"/>
   </g>
   <g id="patch_30">
    <path d="M 860.41478 279.220109 
L 447.935916 32.904253 
L 512.178592 446.356224 
L 587.377259 172.786223 
z
" clip-path="url(#p48d365c374)" style="fill: #0072e1; fill-opacity: 0.521577"/>
   </g>
   <g id="patch_31">
    <path d="M 349.160389 68.656057 
L 143.525201 135.818764 
L 939.168066 113.994261 
L 475.152255 30.261634 
z
" clip-path="url(#p48d365c374)" style="fill: #32e3ac; fill-opacity: 0.314097"/>
   </g>
   <g id="patch_32">
    <path d="M 776.31035 484.115585 
L 387.27067 73.423482 
L 823.579701 320.748039 
L 904.175193 439.400181 
z
" clip-path="url(#p48d365c374)" style="fill: #03001d; fill-opacity: 0.602625"/>
   </g>
   <g id="patch_33">
    <path d="M 129.568578 549.233976 
L 94.162425 222.705753 
L 308.178342 158.607735 
L 629.643504 367.334628 
z
" clip-path="url(#p48d365c374)" style="fill: #ffd1c9; fill-opacity: 0.991474"/>
   </g>
   <g id="patch_34">
    <path d="M 389.979799 486.171212 
L 752.087349 571.215655 
L 413.323287 294.378261 
L 746.018933 502.498032 
L 949.525519 464.539134 
z
" clip-path="url(#p48d365c374)" style="fill: #bddcfe; fill-opacity: 0.59872"/>
   </g>
   <g id="patch_35">
    <path d="M 768.599918 1.843943 
L 864.07046 21.418024 
L 49.376268 372.231628 
z
" clip-path="url(#p48d365c374)" style="fill: #ebe3f3; fill-opacity: 0.9389"/>
   </g>
   <g id="patch_36">
    <path d="M 181.366152 358.548258 
L 945.919502 167.036805 
L 740.784798 395.477783 
L 201.499632 551.247486 
z
" clip-path="url(#p48d365c374)" style="fill: #eeffe5; fill-opacity: 0.956477"/>
   </g>
   <g id="patch_37">
    <path d="M 687.332852 61.867588 
L 56.274038 198.586074 
L 42.219227 266.392019 
L 590.836572 534.226548 
z
" clip-path="url(#p48d365c374)" style="fill: #190f4f; fill-opacity: 0.70333"/>
   </g>
   <g id="patch_38">
    <path d="M 765.104929 175.95081 
L 132.174771 514.000042 
L 338.924866 91.822799 
L 154.075757 541.665318 
L 640.01407 569.756973 
z
" clip-path="url(#p48d365c374)" style="fill: #b0ced5; fill-opacity: 0.659159"/>
   </g>
   <g id="patch_39">
    <path d="M 692.442254 539.517261 
L 24.338329 557.691272 
L 937.359191 451.500299 
L 397.666095 288.576901 
L 871.2591 213.480527 
z
" clip-path="url(#p48d365c374)" style="fill: #ffabc6; fill-opacity: 0.403297"/>
   </g>
   <g id="patch_40">
    <path d="M 192.716259 417.945009 
L 519.890357 328.625486 
L 450.513678 365.716778 
z
" clip-path="url(#p48d365c374)" style="fill: #00ffff"/>
   </g>
   <g id="patch_41">
    <path d="M 305.216741 566.264347 
L 87.711034 386.868231 
L 158.106242 431.701736 
z
" clip-path="url(#p48d365c374)" style="fill: #cbfff9; fill-opacity: 0.761884"/>
   </g>
   <g id="patch_42">
    <path d="M 1016.636396 276.341602 
L 112.105578 110.833627 
L 875.233878 219.913927 
z
" clip-path="url(#p48d365c374)" style="fill: #e2ccd7; fill-opacity: 0.75303"/>
   </g>
   <g id="patch_43">
    <path d="M 674.960977 348.974863 
L 505.777174 28.954226 
L 813.150628 269.582852 
z
" clip-path="url(#p48d365c374)" style="fill: #ece9fe; fill-opacity: 0.900537"/>
   </g>
   <g id="patch_44">
    <path d="M 775.459884 525.573027 
L 1020.576897 222.462001 
L 996.610497 23.775006 
z
" clip-path="url(#p48d365c374)" style="fill: #6dbff8; fill-opacity: 0.450951"/>
   </g>
   <g id="patch_45">
    <path d="M 753.831832 242.249566 
L 87.790602 493.19321 
L 380.427245 553.505818 
L 937.902607 534.73428 
L 641.92688 330.641911 
z
" clip-path="url(#p48d365c374)" style="fill: #e6e4d6; fill-opacity: 0.87939"/>
   </g>
   <g id="patch_46">
    <path d="M 311.227869 388.277388 
L 149.186303 103.406474 
L 714.564855 313.155648 
L 77.809012 76.809919 
L 450.923779 181.586274 
z
" clip-path="url(#p48d365c374)" style="fill: #3f2d44; fill-opacity: 0.80189"/>
   </g>
   <g id="patch_47">
    <path d="M 69.391103 411.361951 
L 222.488831 237.53611 
L 1.265785 565.761967 
L 10.152493 454.129565 
z
" clip-path="url(#p48d365c374)" style="fill: #d7dcd9; fill-opacity: 0.94602"/>
   </g>
   <g id="patch_48">
    <path d="M 442.374624 38.741067 
L 81.636226 420.361937 
L 593.525066 355.786267 
z
" clip-path="url(#p48d365c374)" style="fill: #2888cd; fill-opacity: 0.767873"/>
   </g>
   <g id="patch_49">
    <path d="M 965.715062 54.62588 
L 994.294665 145.016811 
L 646.900726 255.408961 
L 672.187079 443.870314 
z
" clip-path="url(#p48d365c374)" style="fill: #ece3e9; fill-opacity: 0.793212"/>
   </g>
   <g id="patch_50">
    <path d="M 422.669064 333.505299 
L 692.414948 487.977158 
L 706.995704 107.298131 
L 630.965659 44.799991 
z
" clip-path="url(#p48d365c374)" style="fill: #ffffef"/>
   </g>
   <g id="patch_51">
    <path d="M 21.228999 325.888537 
L 23.093706 571.825522 
L 426.858557 129.134009 
L 942.249361 177.802724 
L 829.154241 4.052558 
z
" clip-path="url(#p48d365c374)" style="fill: #c2dbde; fill-opacity: 0.765737"/>
   </g>
   <g id="patch_52">
    <path d="M 785.798878 49.681052 
L 386.314583 363.470476 
L 997.629011 490.095173 
L 640.516651 362.328038 
L 972.78321 291.666111 
L 785.798878 49.681052 
z
" clip-path="url(#p48d365c374)" style="fill: none"/>
   </g>
   <g id="patch_53">
    <path d="M 201.991593 202.450021 
L 987.551848 506.748559 
L 78.609315 39.606035 
L 834.452855 270.010567 
z
" clip-path="url(#p48d365c374)" style="fill: #000025; fill-opacity: 0.434483"/>
   </g>
   <g id="patch_54">
    <path d="M 111.183266 418.93604 
L 720.722154 419.478307 
L 1009.528887 523.058823 
z
" clip-path="url(#p48d365c374)" style="fill: #cab7df; fill-opacity: 0.604429"/>
   </g>
   <g id="patch_55">
    <path d="M 565.546596 370.131356 
L 839.197237 388.918518 
L 835.024212 143.151373 
z
" clip-path="url(#p48d365c374)" style="fill: #f43f00; fill-opacity: 0.062878"/>
   </g>
   <g id="patch_56">
    <path d="M 470.946305 133.902144 
L 91.401074 130.908577 
L 270.657114 77.73422 
z
" clip-path="url(#p48d365c374)" style="fill: #001023; fill-opacity: 0.902349"/>
   </g>
   <g id="patch_57">
    <path d="M 699.189776 31.103314 
L 1012.846674 242.716975 
L 924.113853 337.537536 
L 259.233255 331.491902 
z
" clip-path="url(#p48d365c374)" style="fill: #aabebc; fill-opacity: 0.321565"/>
   </g>
   <g id="patch_58">
    <path d="M 1020.207443 473.689269 
L 770.384397 498.574871 
L 600.763171 570.769178 
L 212.407277 430.36749 
z
" clip-path="url(#p48d365c374)" style="fill: #d89ecb; fill-opacity: 0.794647"/>
   </g>
   <g id="patch_59">
    <path d="M 790.969999 108.848845 
L 244.168563 518.123899 
L 150.097476 472.28301 
L 646.315219 250.027772 
z
" clip-path="url(#p48d365c374)" style="fill: #2dd5ff"/>
   </g>
   <g id="patch_60">
    <path d="M 992.72174 143.364628 
L 842.552366 23.984612 
L 313.82925 380.470915 
L 521.371309 439.44629 
L 289.446346 96.20404 
z
" clip-path="url(#p48d365c374)" style="fill: #eafeff; fill-opacity: 0.182906"/>
   </g>
   <g id="patch_61">
    <path d="M 437.858629 151.646858 
L 585.051341 393.989298 
L 819.768898 338.272385 
z
" clip-path="url(#p48d365c374)" style="fill: #ffe8c9; fill-opacity: 0.999395"/>
   </g>
   <g id="patch_62">
    <path d="M 773.000355 286.842039 
L 933.206798 479.4383 
L 330.987414 420.513846 
L 987.974708 424.015134 
z
" clip-path="url(#p48d365c374)" style="fill: #fcd9df; fill-opacity: 0.18808"/>
   </g>
   <g id="patch_63">
    <path d="M 230.58732 216.057742 
L 680.263838 471.258604 
L 357.030044 273.645442 
z
" clip-path="url(#p48d365c374)" style="fill: #d5f391; fill-opacity: 0.869758"/>
   </g>
   <g id="patch_64">
    <path d="M 783.542407 95.160601 
L 180.315873 296.474801 
L 431.231076 285.167023 
L 783.542407 95.160601 
z
" clip-path="url(#p48d365c374)" style="fill: none"/>
   </g>
   <g id="patch_65">
    <path d="M 992.326111 523.144579 
L 512.752168 560.815397 
L 470.302401 567.509294 
z
" clip-path="url(#p48d365c374)" style="fill: #d3d6ff; fill-opacity: 0.904545"/>
   </g>
   <g id="patch_66">
    <path d="M 559.288296 336.455308 
L 480.999998 547.383711 
L 731.855765 472.086849 
z
" clip-path="url(#p48d365c374)" style="fill: #2dc1ff"/>
   </g>
   <g id="patch_67">
    <path d="M 758.404117 63.215646 
L 996.707645 28.375154 
L 727.554566 167.978849 
L 451.03619 199.659348 
z
" clip-path="url(#p48d365c374)" style="fill: #d7fffc; fill-opacity: 0.464075"/>
   </g>
   <g id="patch_68">
    <path d="M 317.871604 247.220672 
L 248.106523 170.687801 
L 518.20226 242.433193 
L 731.90307 264.517763 
z
" clip-path="url(#p48d365c374)" style="fill: #fff498"/>
   </g>
   <g id="patch_69">
    <path d="M 856.917388 138.696857 
L 229.918635 334.929756 
L 323.950429 434.062531 
L 790.345558 13.650027 
L 319.278796 86.79591 
z
" clip-path="url(#p48d365c374)" style="fill: #ffe5ea; fill-opacity: 0.215627"/>
   </g>
   <g id="patch_70">
    <path d="M 178.691963 403.36795 
L 213.306341 227.899952 
L 578.950931 12.070871 
L 382.224162 416.367338 
z
" clip-path="url(#p48d365c374)" style="fill: #7372da; fill-opacity: 0.069204"/>
   </g>
   <g id="patch_71">
    <path d="M 981.938541 471.087171 
L 362.842738 0.187541 
L 110.721646 331.485734 
L 605.649806 225.454846 
L 175.58637 552.798212 
z
" clip-path="url(#p48d365c374)" style="fill: #9cf7ff; fill-opacity: 0.266255"/>
   </g>
   <g id="patch_72">
    <path d="M 533.623752 251.212587 
L 59.812067 351.177639 
L 809.913904 453.3975 
z
" clip-path="url(#p48d365c374)" style="fill: #c0ffff; fill-opacity: 0.837889"/>
   </g>
   <g id="patch_73">
    <path d="M 292.919751 231.366161 
L 563.009874 430.759977 
L 549.307216 6.498178 
z
" clip-path="url(#p48d365c374)" style="fill: #3fa9cc; fill-opacity: 0.987249"/>
   </g>
   <g id="patch_74">
    <path d="M 538.64523 500.878076 
L 638.767786 61.783758 
L 995.422233 57.001802 
z
" clip-path="url(#p48d365c374)" style="fill: #dfe2e7; fill-opacity: 0.410515"/>
   </g>
   <g id="patch_75">
    <path d="M 155.481331 173.569224 
L 657.565375 324.140101 
L 554.154287 472.494548 
L 178.255009 215.668454 
z
" clip-path="url(#p48d365c374)" style="fill: #ffffff; fill-opacity: 0.992119"/>
   </g>
   <g id="patch_76">
    <path d="M 569.495813 356.530681 
L 510.085812 488.872507 
L 575.608242 123.289736 
z
" clip-path="url(#p48d365c374)" style="fill: #ffcb91; fill-opacity: 0.382315"/>
   </g>
   <g id="patch_77">
    <path d="M 683.109106 462.647013 
L 844.22331 303.163961 
L 999.486695 80.303895 
z
" clip-path="url(#p48d365c374)" style="fill: #ccc6ce; fill-opacity: 0.853383"/>
   </g>
   <g id="patch_78">
    <path d="M 502.621519 277.333906 
L 691.325196 156.015691 
L 706.816435 123.619931 
L 810.143826 458.120046 
z
" clip-path="url(#p48d365c374)" style="fill: #ffefd8; fill-opacity: 0.634432"/>
   </g>
   <g id="patch_79">
    <path d="M 649.458171 57.89523 
L 622.150265 498.035082 
L 941.712048 18.259471 
L 434.098975 90.063286 
z
" clip-path="url(#p48d365c374)" style="fill: #f9d6ce; fill-opacity: 0.273585"/>
   </g>
   <g id="patch_80">
    <path d="M 64.614567 72.482782 
L 848.880992 497.06224 
L 126.75639 529.224972 
z
" clip-path="url(#p48d365c374)" style="fill: #110000; fill-opacity: 0.359939"/>
   </g>
   <g id="patch_81">
    <path d="M 89.998897 43.974917 
L 109.634472 210.223892 
L 326.56596 380.529123 
L 605.030253 471.412017 
z
" clip-path="url(#p48d365c374)" style="fill: #141624; fill-opacity: 0.656369"/>
   </g>
   <g id="patch_82">
    <path d="M 219.437053 211.891029 
L 380.045071 120.33177 
L 41.893556 303.556464 
z
" clip-path="url(#p48d365c374)" style="fill: #92828b; fill-opacity: 0.949111"/>
   </g>
   <g id="patch_83">
    <path d="M 999.943177 227.728861 
L 821.857972 103.610011 
L 301.562523 220.651854 
z
" clip-path="url(#p48d365c374)" style="fill: #e5c4d3; fill-opacity: 0.300787"/>
   </g>
   <g id="patch_84">
    <path d="M 565.821 463.231762 
L 114.266553 73.998815 
L 270.311908 518.272685 
z
" clip-path="url(#p48d365c374)" style="fill: #ffe3e3; fill-opacity: 0.185401"/>
   </g>
   <g id="patch_85">
    <path d="M 669.479156 569.923761 
L 255.107251 306.764958 
L 466.138849 298.563281 
L 539.800805 240.525494 
L 707.37299 572.021023 
z
" clip-path="url(#p48d365c374)" style="fill: #edc9cf; fill-opacity: 0.792233"/>
   </g>
   <g id="patch_86">
    <path d="M 680.647932 360.98879 
L 721.080436 102.078633 
L 341.266185 283.203423 
z
" clip-path="url(#p48d365c374)" style="fill: #5076aa; fill-opacity: 0.013272"/>
   </g>
   <g id="patch_87">
    <path d="M 427.294512 49.721872 
L 688.985003 438.388553 
L 766.584843 1.823193 
z
" clip-path="url(#p48d365c374)" style="fill: #ffece1; fill-opacity: 0.321929"/>
   </g>
   <g id="patch_88">
    <path d="M 141.31789 427.750118 
L 154.188646 393.633537 
L 757.460277 170.353163 
z
" clip-path="url(#p48d365c374)" style="fill: #3f308c; fill-opacity: 0.359914"/>
   </g>
   <g id="patch_89">
    <path d="M 443.134889 459.693484 
L 182.642055 425.905406 
L 911.622326 558.546341 
L 305.849463 136.378783 
L 117.578689 335.952338 
z
" clip-path="url(#p48d365c374)" style="fill: #e0c1c4; fill-opacity: 0.857233"/>
   </g>
   <g id="patch_90">
    <path d="M 382.823999 271.359979 
L 790.984554 404.234647 
L 677.723033 427.910021 
z
" clip-path="url(#p48d365c374)" style="fill: #acffd5; fill-opacity: 0.296564"/>
   </g>
   <g id="patch_91">
    <path d="M 964.019689 261.504527 
L 939.264284 62.72534 
L 575.520474 142.664914 
L 802.222469 243.087366 
z
" clip-path="url(#p48d365c374)" style="fill: #e2d6d6; fill-opacity: 0.273713"/>
   </g>
   <g id="patch_92">
    <path d="M 360.650769 232.452079 
L 9.826655 440.175392 
L 52.545787 528.337638 
L 982.726574 228.994756 
z
" clip-path="url(#p48d365c374)" style="fill: #fff3ea; fill-opacity: 0.35405"/>
   </g>
   <g id="patch_93">
    <path d="M 488.08234 86.127167 
L 596.051787 569.721848 
L 56.319314 152.62566 
L 588.7481 360.752329 
z
" clip-path="url(#p48d365c374)" style="fill: #fee2d1; fill-opacity: 0.2205"/>
   </g>
   <g id="patch_94">
    <path d="M 702.3046 498.160949 
L 794.116585 530.284575 
L 337.164183 69.960024 
z
" clip-path="url(#p48d365c374)" style="fill: #71bced; fill-opacity: 0.528021"/>
   </g>
   <g id="patch_95">
    <path d="M 344.603811 311.443239 
L 687.356042 564.455232 
L 38.960492 554.183818 
z
" clip-path="url(#p48d365c374)" style="fill: #b2c3b6; fill-opacity: 0.688596"/>
   </g>
   <g id="patch_96">
    <path d="M 682.985775 142.233202 
L 193.31401 448.733747 
L 625.56054 505.532234 
z
" clip-path="url(#p48d365c374)" style="fill: #cb6987; fill-opacity: 0.085285"/>
   </g>
   <g id="patch_97">
    <path d="M 794.566775 505.425278 
L 730.539502 248.623123 
L 714.733189 334.821152 
z
" clip-path="url(#p48d365c374)" style="fill: #ffefe7"/>
   </g>
   <g id="patch_98">
    <path d="M 648.992584 196.310587 
L 566.054408 474.895179 
L 334.719201 237.442805 
L 4.469929 500.090728 
z
" clip-path="url(#p48d365c374)" style="fill: #c2c4b8; fill-opacity: 0.880188"/>
   </g>
   <g id="patch_99">
    <path d="M 963.68627 534.724186 
L 570.873756 242.280523 
L 1.358433 387.948803 
z
" clip-path="url(#p48d365c374)" style="fill: #b9d8de; fill-opacity: 0.635922"/>
   </g>
   <g id="patch_100">
    <path d="M 678.805443 497.129613 
L 105.510657 442.65904 
L 654.162095 353.709664 
z
" clip-path="url(#p48d365c374)" style="fill: #cddfc5; fill-opacity: 0.429767"/>
   </g>
   <g id="patch_101">
    <path d="M 83.789024 164.866572 
L 447.116326 448.457933 
L 765.050092 417.104098 
L 20.39692 303.170934 
z
" clip-path="url(#p48d365c374)" style="fill: #001a11; fill-opacity: 0.042553"/>
   </g>
   <g id="patch_102">
    <path d="M 910.955315 430.631939 
L 818.691987 350.306293 
L 514.448066 303.283654 
L 18.991681 165.90089 
L 556.33618 237.210279 
z
" clip-path="url(#p48d365c374)" style="fill: #22b4bc; fill-opacity: 0.111713"/>
   </g>
   <g id="patch_103">
    <path d="M 822.577156 384.819126 
L 148.967966 290.244426 
L 598.421714 501.228366 
L 609.649155 121.531604 
L 584.728489 454.483899 
z
" clip-path="url(#p48d365c374)" style="fill: #4aace2; fill-opacity: 0.169299"/>
   </g>
   <g id="patch_104">
    <path d="M 119.649432 128.303123 
L 193.509441 366.340694 
L 191.147019 269.177495 
z
" clip-path="url(#p48d365c374)" style="fill: #c99e7a; fill-opacity: 0.389507"/>
   </g>
   <g id="patch_105">
    <path d="M 681.527371 394.843104 
L 314.375622 460.252874 
L 216.795844 537.716207 
L 630.120919 241.094228 
z
" clip-path="url(#p48d365c374)" style="fill: #62b8cf; fill-opacity: 0.436958"/>
   </g>
   <g id="patch_106">
    <path d="M 70.566329 107.562336 
L 423.664201 265.594601 
L 758.2947 194.388202 
z
" clip-path="url(#p48d365c374)" style="fill: #003c21; fill-opacity: 0.085845"/>
   </g>
   <g id="patch_107">
    <path d="M 25.321854 512.429727 
L 513.75968 99.175442 
L 899.113378 367.667641 
z
" clip-path="url(#p48d365c374)" style="fill: #002caf; fill-opacity: 0.041601"/>
   </g>
   <g id="patch_108">
    <path d="M 702.068477 353.537763 
L 796.372861 439.34265 
L 521.875345 392.258908 
L 792.401447 399.750573 
L 964.146513 513.472531 
z
" clip-path="url(#p48d365c374)" style="fill: #7ebff2; fill-opacity: 0.466804"/>
   </g>
   <g id="patch_109">
    <path d="M 603.29391 179.665373 
L 597.952249 78.346189 
L 338.006794 209.090819 
L 603.29391 179.665373 
z
" clip-path="url(#p48d365c374)" style="fill: none"/>
   </g>
   <g id="patch_110">
    <path d="M 540.056394 394.183792 
L 581.322837 550.329711 
L 1.629039 381.248485 
L 90.300724 504.447101 
z
" clip-path="url(#p48d365c374)" style="fill: #f2b6bc; fill-opacity: 0.24624"/>
   </g>
   <g id="patch_111">
    <path d="M 64.601971 437.39115 
L 474.077118 219.679466 
L 354.448081 373.658192 
L 415.529486 290.374394 
z
" clip-path="url(#p48d365c374)" style="fill: #c6dcfc; fill-opacity: 0.333962"/>
   </g>
   <g id="patch_112">
    <path d="M 637.464352 430.053426 
L 603.955125 273.779052 
L 654.59961 22.753981 
L 438.346596 8.89243 
z
" clip-path="url(#p48d365c374)" style="fill: #419dda; fill-opacity: 0.298085"/>
   </g>
   <g id="patch_113">
    <path d="M 937.163645 364.275372 
L 979.579742 107.240451 
L 827.335293 349.787483 
L 211.285017 119.551039 
z
" clip-path="url(#p48d365c374)" style="fill: #657087; fill-opacity: 0.107079"/>
   </g>
   <g id="patch_114">
    <path d="M 117.339233 357.317061 
L 275.216139 39.233478 
L 169.140778 525.94863 
z
" clip-path="url(#p48d365c374)" style="fill: #ffa077; fill-opacity: 0.208953"/>
   </g>
   <g id="patch_115">
    <path d="M 371.389967 232.060527 
L 29.095874 351.138929 
L 75.129867 530.525074 
L 348.705377 380.808575 
z
" clip-path="url(#p48d365c374)" style="fill: #cbbb9f; fill-opacity: 0.765223"/>
   </g>
   <g id="patch_116">
    <path d="M 813.68326 398.52732 
L 324.542983 535.947935 
L 370.135913 173.061461 
L 311.820251 120.806756 
z
" clip-path="url(#p48d365c374)" style="fill: #62c0ac; fill-opacity: 0.18639"/>
   </g>
   <g id="patch_117">
    <path d="M 230.537714 207.71135 
L 182.846012 117.079967 
L 219.378334 77.90204 
L 144.681389 361.501377 
z
" clip-path="url(#p48d365c374)" style="fill: #ffcdb4; fill-opacity: 0.211304"/>
   </g>
   <g id="patch_118">
    <path d="M 905.27276 573.396346 
L 277.603281 23.444951 
L 883.980451 575.012757 
L 387.70117 442.905553 
z
" clip-path="url(#p48d365c374)" style="fill: #cfcaaf; fill-opacity: 0.165483"/>
   </g>
   <g id="patch_119">
    <path d="M 897.972012 547.400011 
L 970.102548 181.989687 
L 141.388902 19.381071 
z
" clip-path="url(#p48d365c374)" style="fill: #4e2c63; fill-opacity: 0.114667"/>
   </g>
   <g id="patch_120">
    <path d="M 410.979695 541.945185 
L 781.992523 399.701696 
L 202.77171 508.020692 
L 845.898124 568.994037 
L 589.323079 13.156506 
z
" clip-path="url(#p48d365c374)" style="fill: #a2c4ce; fill-opacity: 0.460435"/>
   </g>
  </g>
 </g>
 <defs>
  <clipPath id="p48d365c374">
   <rect x="0" y="0" width="1022.4" height="576"/>
  </clipPath>
 </defs>
</svg>
