<?xml version="1.0" encoding="utf-8" standalone="no"?>
<!DOCTYPE svg PUBLIC "-//W3C//DTD SVG 1.1//EN"
  "http://www.w3.org/Graphics/SVG/1.1/DTD/svg11.dtd">
<svg xmlns:xlink="http://www.w3.org/1999/xlink" width="1022.4pt" height="576pt" viewBox="0 0 1022.4 576" xmlns="http://www.w3.org/2000/svg" version="1.1">
 <metadata>
  <rdf:RDF xmlns:dc="http://purl.org/dc/elements/1.1/" xmlns:cc="http://creativecommons.org/ns#" xmlns:rdf="http://www.w3.org/1999/02/22-rdf-syntax-ns#">
   <cc:Work>
    <dc:type rdf:resource="http://purl.org/dc/dcmitype/StillImage"/>
    <dc:date>2022-05-08T15:38:12.808089</dc:date>
    <dc:format>image/svg+xml</dc:format>
    <dc:creator>
     <cc:Agent>
      <dc:title>Matplotlib v3.5.2, https://matplotlib.org/</dc:title>
     </cc:Agent>
    </dc:creator>
   </cc:Work>
  </rdf:RDF>
 </metadata>
 <defs>
  <style type="text/css">*{stroke-linejoin: round; stroke-linecap: butt}</style>
 </defs>
 <g id="figure_1">
  <g id="patch_1">
   <path d="M 0 576 
L 1022.4 576 
L 1022.4 0 
L 0 0 
z
" style="fill: #ffffff"/>
  </g>
  <g id="axes_1">
   <g id="patch_2">
    <path d="M 0 576 
L 0 0 
L 1022.4 0 
L 1022.4 576 
z
" clip-path="url(#p8850230e9f)" style="fill: #808080"/>
   </g>
   <g id="patch_3">
    <path d="M 115.513937 360.486488 
L 831.1368 4.199876 
L 419.610677 464.048232 
z
" clip-path="url(#p8850230e9f)" style="fill: #d2cdc6; fill-opacity: 0.88876"/>
   </g>
   <g id="patch_4">
    <path d="M 978.074551 471.734507 
L 0.101065 468.206092 
L 180.332086 508.163119 
L 242.356088 556.942168 
z
" clip-path="url(#p8850230e9f)" style="fill: #c9c7d3; fill-opacity: 0.838215"/>
   </g>
   <g id="patch_5">
    <path d="M 346.562065 257.179328 
L 696.006027 49.600608 
L 233.516531 242.473122 
L 653.291448 271.822909 
z
" clip-path="url(#p8850230e9f)" style="fill: #54bcd0; fill-opacity: 0.841257"/>
   </g>
   <g id="patch_6">
    <path d="M 233.541116 353.973489 
L 436.011773 19.309668 
L 149.271543 575.990207 
z
" clip-path="url(#p8850230e9f)" style="fill: #b9c6d0; fill-opacity: 0.425445"/>
   </g>
   <g id="patch_7">
    <path d="M 776.31035 484.115585 
L 387.27067 73.423482 
L 823.579701 320.748039 
L 904.175193 439.400181 
z
" clip-path="url(#p8850230e9f)" style="fill: #6f7ac1; fill-opacity: 0.621422"/>
   </g>
   <g id="patch_8">
    <path d="M 192.716259 417.945009 
L 519.890357 328.625486 
L 450.513678 365.716778 
z
" clip-path="url(#p8850230e9f)" style="fill: #4ddcb4; fill-opacity: 0.342098"/>
   </g>
   <g id="patch_9">
    <path d="M 753.831832 242.249566 
L 641.92688 330.641911 
L 951.390703 143.74083 
L 535.750733 332.048052 
z
" clip-path="url(#p8850230e9f)" style="fill: #d4d0e2; fill-opacity: 0.824149"/>
   </g>
   <g id="patch_10">
    <path d="M 69.391103 411.361951 
L 1.265785 565.761967 
L 10.152493 454.129565 
L 727.007889 35.928498 
z
" clip-path="url(#p8850230e9f)" style="fill: #60a2c2; fill-opacity: 0.65869"/>
   </g>
   <g id="patch_11">
    <path d="M 565.546596 370.131356 
L 73.513516 164.500283 
L 839.197237 388.918518 
L 835.024212 143.151373 
z
" clip-path="url(#p8850230e9f)" style="fill: #e6aa9a; fill-opacity: 0.577683"/>
   </g>
   <g id="patch_12">
    <path d="M 752.517624 401.664322 
L 490.242059 342.476809 
L 108.840526 130.963417 
L 685.626705 352.499619 
z
" clip-path="url(#p8850230e9f)" style="fill: #6b7e68; fill-opacity: 0.572516"/>
   </g>
   <g id="patch_13">
    <path d="M 699.189776 31.103314 
L 516.355895 399.826602 
L 1012.846674 242.716975 
L 259.233255 331.491902 
z
" clip-path="url(#p8850230e9f)" style="fill: #d2c7ec; fill-opacity: 0.681613"/>
   </g>
   <g id="patch_14">
    <path d="M 790.969999 108.848845 
L 244.168563 518.123899 
L 150.097476 472.28301 
L 646.315219 250.027772 
z
" clip-path="url(#p8850230e9f)" style="fill: #9fbdb0; fill-opacity: 0.972819"/>
   </g>
   <g id="patch_15">
    <path d="M 559.288296 336.455308 
L 480.999998 547.383711 
L 731.855765 472.086849 
z
" clip-path="url(#p8850230e9f)" style="fill: #b7f5e3; fill-opacity: 0.545649"/>
   </g>
   <g id="patch_16">
    <path d="M 362.842738 0.187541 
L 110.721646 331.485734 
L 605.649806 225.454846 
L 175.58637 552.798212 
z
" clip-path="url(#p8850230e9f)" style="fill: #c8c8ed; fill-opacity: 0.238026"/>
   </g>
   <g id="patch_17">
    <path d="M 502.621519 277.333906 
L 691.325196 156.015691 
L 706.816435 123.619931 
L 810.143826 458.120046 
z
" clip-path="url(#p8850230e9f)" style="fill: #ffefe3; fill-opacity: 0.387291"/>
   </g>
   <g id="patch_18">
    <path d="M 64.614567 72.482782 
L 848.880992 497.06224 
L 126.75639 529.224972 
L 643.03054 171.290627 
z
" clip-path="url(#p8850230e9f)" style="fill: #9d98af; fill-opacity: 0.069977"/>
   </g>
   <g id="patch_19">
    <path d="M 1007.950919 309.906235 
L 177.879177 227.151352 
L 508.307564 165.387382 
z
" clip-path="url(#p8850230e9f)" style="fill: #a6bfc3; fill-opacity: 0.562705"/>
   </g>
   <g id="patch_20">
    <path d="M 796.930622 53.221189 
L 361.915051 367.826001 
L 446.424534 160.980636 
L 644.932015 289.678386 
z
" clip-path="url(#p8850230e9f)" style="fill: #3a6d6e; fill-opacity: 0.204209"/>
   </g>
   <g id="patch_21">
    <path d="M 750.982945 261.636701 
L 274.791175 167.234436 
L 200.698523 421.015393 
z
" clip-path="url(#p8850230e9f)" style="fill: #d6c4cd; fill-opacity: 0.259484"/>
   </g>
   <g id="patch_22">
    <path d="M 675.908528 217.472018 
L 951.544846 495.625748 
L 328.922411 5.686003 
L 921.116608 227.680097 
z
" clip-path="url(#p8850230e9f)" style="fill: #b6c8c9; fill-opacity: 0.659549"/>
   </g>
   <g id="patch_23">
    <path d="M 680.647932 360.98879 
L 721.080436 102.078633 
L 341.266185 283.203423 
z
" clip-path="url(#p8850230e9f)" style="fill: #4308ad; fill-opacity: 0.143778"/>
   </g>
   <g id="patch_24">
    <path d="M 141.31789 427.750118 
L 154.188646 393.633537 
L 757.460277 170.353163 
z
" clip-path="url(#p8850230e9f)" style="fill: #9ab0ca; fill-opacity: 0.977858"/>
   </g>
   <g id="patch_25">
    <path d="M 154.701619 88.232105 
L 751.921831 251.724677 
L 907.556274 107.884234 
z
" clip-path="url(#p8850230e9f)" style="fill: #a3c1d8; fill-opacity: 0.628845"/>
   </g>
   <g id="patch_26">
    <path d="M 517.098377 464.188785 
L 911.622326 558.546341 
L 117.578689 335.952338 
L 931.812259 551.780657 
z
" clip-path="url(#p8850230e9f)" style="fill: #c7d5f7; fill-opacity: 0.663402"/>
   </g>
   <g id="patch_27">
    <path d="M 488.08234 86.127167 
L 596.051787 569.721848 
L 588.7481 360.752329 
z
" clip-path="url(#p8850230e9f)" style="fill: #abc4ff; fill-opacity: 0.013733"/>
   </g>
   <g id="patch_28">
    <path d="M 910.955315 430.631939 
L 18.991681 165.90089 
L 556.33618 237.210279 
L 381.778495 76.381877 
z
" clip-path="url(#p8850230e9f)" style="fill: #d5b194; fill-opacity: 0.00531"/>
   </g>
   <g id="patch_29">
    <path d="M 822.577156 384.819126 
L 148.967966 290.244426 
L 609.649155 121.531604 
L 584.728489 454.483899 
z
" clip-path="url(#p8850230e9f)" style="fill: #8dbde9; fill-opacity: 0.442753"/>
   </g>
   <g id="patch_30">
    <path d="M 117.339233 357.317061 
L 275.216139 39.233478 
L 169.140778 525.94863 
z
" clip-path="url(#p8850230e9f)" style="fill: #c99e87; fill-opacity: 0.748017"/>
   </g>
   <g id="patch_31">
    <path d="M 410.979695 541.945185 
L 781.992523 399.701696 
L 845.898124 568.994037 
L 589.323079 13.156506 
z
" clip-path="url(#p8850230e9f)" style="fill: #94bdd5; fill-opacity: 0.477185"/>
   </g>
  </g>
 </g>
 <defs>
  <clipPath id="p8850230e9f">
   <rect x="0" y="0" width="1022.4" height="576"/>
  </clipPath>
 </defs>
</svg>
