<?xml version="1.0" encoding="utf-8" standalone="no"?>
<!DOCTYPE svg PUBLIC "-//W3C//DTD SVG 1.1//EN"
  "http://www.w3.org/Graphics/SVG/1.1/DTD/svg11.dtd">
<svg xmlns:xlink="http://www.w3.org/1999/xlink" width="1022.4pt" height="576pt" viewBox="0 0 1022.4 576" xmlns="http://www.w3.org/2000/svg" version="1.1">
 <metadata>
  <rdf:RDF xmlns:dc="http://purl.org/dc/elements/1.1/" xmlns:cc="http://creativecommons.org/ns#" xmlns:rdf="http://www.w3.org/1999/02/22-rdf-syntax-ns#">
   <cc:Work>
    <dc:type rdf:resource="http://purl.org/dc/dcmitype/StillImage"/>
    <dc:date>2022-05-08T15:33:29.906474</dc:date>
    <dc:format>image/svg+xml</dc:format>
    <dc:creator>
     <cc:Agent>
      <dc:title>Matplotlib v3.5.2, https://matplotlib.org/</dc:title>
     </cc:Agent>
    </dc:creator>
   </cc:Work>
  </rdf:RDF>
 </metadata>
 <defs>
  <style type="text/css">*{stroke-linejoin: round; stroke-linecap: butt}</style>
 </defs>
 <g id="figure_1">
  <g id="patch_1">
   <path d="M 0 576 
L 1022.4 576 
L 1022.4 0 
L 0 0 
z
" style="fill: #ffffff"/>
  </g>
  <g id="axes_1">
   <g id="patch_2">
    <path d="M 0 576 
L 0 0 
L 1022.4 0 
L 1022.4 576 
z
" clip-path="url(#pa5239e3b23)" style="fill: #808080"/>
   </g>
   <g id="patch_3">
    <path d="M 565.546596 370.131356 
L 73.513516 164.500283 
L 835.024212 143.151373 
z
" clip-path="url(#pa5239e3b23)" style="fill: #ddbe9f; fill-opacity: 0.869299"/>
   </g>
   <g id="patch_4">
    <path d="M 752.517624 401.664322 
L 490.242059 342.476809 
L 108.840526 130.963417 
L 685.626705 352.499619 
z
" clip-path="url(#pa5239e3b23)" style="fill: #5ea0c3; fill-opacity: 0.433119"/>
   </g>
   <g id="patch_5">
    <path d="M 362.842738 0.187541 
L 110.721646 331.485734 
L 605.649806 225.454846 
L 175.58637 552.798212 
z
" clip-path="url(#pa5239e3b23)" style="fill: #e1dad4; fill-opacity: 0.632481"/>
   </g>
   <g id="patch_6">
    <path d="M 64.614567 72.482782 
L 848.880992 497.06224 
L 126.75639 529.224972 
L 643.03054 171.290627 
z
" clip-path="url(#pa5239e3b23)" style="fill: #91a56a; fill-opacity: 0.257517"/>
   </g>
   <g id="patch_7">
    <path d="M 680.647932 360.98879 
L 721.080436 102.078633 
L 341.266185 283.203423 
z
" clip-path="url(#pa5239e3b23)" style="fill: #971199; fill-opacity: 0.133971"/>
   </g>
   <g id="patch_8">
    <path d="M 141.31789 427.750118 
L 154.188646 393.633537 
L 757.460277 170.353163 
z
" clip-path="url(#pa5239e3b23)" style="fill: #b1a8c5; fill-opacity: 0.711011"/>
   </g>
   <g id="patch_9">
    <path d="M 510.467002 12.173178 
L 471.427242 444.315825 
L 521.076388 360.553651 
z
" clip-path="url(#pa5239e3b23)" style="fill: #dacbda; fill-opacity: 0.306968"/>
   </g>
   <g id="patch_10">
    <path d="M 822.577156 384.819126 
L 148.967966 290.244426 
L 609.649155 121.531604 
L 584.728489 454.483899 
z
" clip-path="url(#pa5239e3b23)" style="fill: #dbd9dc; fill-opacity: 0.356115"/>
   </g>
   <g id="patch_11">
    <path d="M 410.979695 541.945185 
L 781.992523 399.701696 
L 845.898124 568.994037 
L 589.323079 13.156506 
z
" clip-path="url(#pa5239e3b23)" style="fill: #32d2c6; fill-opacity: 0.190607"/>
   </g>
  </g>
 </g>
 <defs>
  <clipPath id="pa5239e3b23">
   <rect x="0" y="0" width="1022.4" height="576"/>
  </clipPath>
 </defs>
</svg>
