<?xml version="1.0" encoding="utf-8" standalone="no"?>
<!DOCTYPE svg PUBLIC "-//W3C//DTD SVG 1.1//EN"
  "http://www.w3.org/Graphics/SVG/1.1/DTD/svg11.dtd">
<svg xmlns:xlink="http://www.w3.org/1999/xlink" width="1022.4pt" height="576pt" viewBox="0 0 1022.4 576" xmlns="http://www.w3.org/2000/svg" version="1.1">
 <metadata>
  <rdf:RDF xmlns:dc="http://purl.org/dc/elements/1.1/" xmlns:cc="http://creativecommons.org/ns#" xmlns:rdf="http://www.w3.org/1999/02/22-rdf-syntax-ns#">
   <cc:Work>
    <dc:type rdf:resource="http://purl.org/dc/dcmitype/StillImage"/>
    <dc:date>2022-05-08T18:40:14.997308</dc:date>
    <dc:format>image/svg+xml</dc:format>
    <dc:creator>
     <cc:Agent>
      <dc:title>Matplotlib v3.5.2, https://matplotlib.org/</dc:title>
     </cc:Agent>
    </dc:creator>
   </cc:Work>
  </rdf:RDF>
 </metadata>
 <defs>
  <style type="text/css">*{stroke-linejoin: round; stroke-linecap: butt}</style>
 </defs>
 <g id="figure_1">
  <g id="patch_1">
   <path d="M 0 576 
L 1022.4 576 
L 1022.4 0 
L 0 0 
z
" style="fill: #ffffff"/>
  </g>
  <g id="axes_1">
   <g id="patch_2">
    <path d="M 0 576 
L 0 0 
L 1022.4 0 
L 1022.4 576 
z
" clip-path="url(#pa69376d6ad)" style="fill: #808080"/>
   </g>
   <g id="patch_3">
    <path d="M 814.837024 135.149133 
L 781.257301 456.964981 
L 195.061699 310.204075 
L 261.643635 524.136065 
L 213.052142 442.286337 
z
" clip-path="url(#pa69376d6ad)" style="fill: #8effe9; fill-opacity: 0.40234"/>
   </g>
   <g id="patch_4">
    <path d="M 958.227443 260.256964 
L 977.25579 260.017266 
L 1012.061475 364.110591 
L 177.278551 460.093894 
L 646.480807 37.201167 
z
" clip-path="url(#pa69376d6ad)" style="fill: #ded7e7; fill-opacity: 0.890311"/>
   </g>
   <g id="patch_5">
    <path d="M 940.990633 43.068604 
L 657.008548 113.784656 
L 394.156215 290.873239 
L 780.795466 116.509708 
L 199.780739 257.710009 
z
" clip-path="url(#pa69376d6ad)" style="fill: #da39ec; fill-opacity: 0.154375"/>
   </g>
   <g id="patch_6">
    <path d="M 216.092513 127.505088 
L 132.156043 415.713721 
L 73.418146 242.490589 
L 672.841867 200.913088 
L 745.820566 4.090306 
z
" clip-path="url(#pa69376d6ad)" style="fill: #def3f1; fill-opacity: 0.832975"/>
   </g>
   <g id="patch_7">
    <path d="M 165.123826 222.680602 
L 339.576313 458.298944 
L 1005.388718 317.430118 
L 690.944842 296.778768 
z
" clip-path="url(#pa69376d6ad)" style="fill: #d1dbcb; fill-opacity: 0.907547"/>
   </g>
   <g id="patch_8">
    <path d="M 806.735027 203.18775 
L 910.048695 121.091954 
L 969.124344 323.409274 
L 192.483431 215.34626 
L 983.158653 474.279859 
z
" clip-path="url(#pa69376d6ad)" style="fill: #99c0c5; fill-opacity: 0.915033"/>
   </g>
   <g id="patch_9">
    <path d="M 698.302914 332.327289 
L 692.339464 277.773026 
L 430.264529 297.102114 
z
" clip-path="url(#pa69376d6ad)" style="fill: #c7ff91; fill-opacity: 0.941834"/>
   </g>
   <g id="patch_10">
    <path d="M 639.251036 410.081474 
L 945.13867 173.078888 
L 217.879739 562.648929 
L 197.996944 341.300954 
z
" clip-path="url(#pa69376d6ad)" style="fill: #03bbf8; fill-opacity: 0.983963"/>
   </g>
   <g id="patch_11">
    <path d="M 156.252489 472.380018 
L 772.598999 520.983692 
L 489.746992 449.518993 
L 978.628824 154.465748 
L 386.151312 39.131731 
z
" clip-path="url(#pa69376d6ad)" style="fill: #297de0; fill-opacity: 0.69219"/>
   </g>
   <g id="patch_12">
    <path d="M 400.623639 491.112223 
L 954.107754 103.363832 
L 90.243 22.105312 
z
" clip-path="url(#pa69376d6ad)" style="fill: #41434c; fill-opacity: 0.963282"/>
   </g>
   <g id="patch_13">
    <path d="M 186.2934 266.468483 
L 477.986259 574.701507 
L 688.532443 345.662607 
L 619.116065 159.487743 
z
" clip-path="url(#pa69376d6ad)" style="fill: #b89cff; fill-opacity: 0.664835"/>
   </g>
   <g id="patch_14">
    <path d="M 455.745631 69.12628 
L 84.368102 204.821605 
L 500.918673 34.835363 
L 6.313215 453.055476 
z
" clip-path="url(#pa69376d6ad)" style="fill: #118fa1; fill-opacity: 0.831089"/>
   </g>
   <g id="patch_15">
    <path d="M 618.327421 338.716297 
L 583.507568 392.152358 
L 981.265159 15.435699 
L 974.506974 539.627125 
z
" clip-path="url(#pa69376d6ad)" style="fill: #b5c4d3; fill-opacity: 0.841604"/>
   </g>
   <g id="patch_16">
    <path d="M 1008.596608 338.024301 
L 306.616075 298.540608 
L 144.111522 561.200366 
L 346.630468 85.751094 
L 135.776926 530.443245 
z
" clip-path="url(#pa69376d6ad)" style="fill: #ffe3eb; fill-opacity: 0.875264"/>
   </g>
   <g id="patch_17">
    <path d="M 551.50962 72.578669 
L 66.197741 28.253025 
L 727.392315 362.20203 
z
" clip-path="url(#pa69376d6ad)" style="fill: #001532; fill-opacity: 0.282344"/>
   </g>
   <g id="patch_18">
    <path d="M 914.225934 571.981571 
L 828.587162 556.531625 
L 778.189311 471.517215 
L 664.22447 318.98463 
L 962.568309 305.211137 
z
" clip-path="url(#pa69376d6ad)" style="fill: #e4ddf2; fill-opacity: 0.819747"/>
   </g>
   <g id="patch_19">
    <path d="M 516.748052 193.162349 
L 986.786258 160.879199 
L 862.141255 488.988768 
L 115.045891 505.144978 
z
" clip-path="url(#pa69376d6ad)" style="fill: #b2a9be; fill-opacity: 0.938519"/>
   </g>
   <g id="patch_20">
    <path d="M 959.616093 287.740646 
L 1013.962594 9.52828 
L 831.1368 4.199876 
L 419.610677 464.048232 
z
" clip-path="url(#pa69376d6ad)" style="fill: #c0d3dc; fill-opacity: 0.933423"/>
   </g>
   <g id="patch_21">
    <path d="M 202.61906 204.071759 
L 944.794666 287.989078 
L 365.575301 193.733139 
z
" clip-path="url(#pa69376d6ad)" style="fill: #bce5ae; fill-opacity: 0.875781"/>
   </g>
   <g id="patch_22">
    <path d="M 521.722897 127.489039 
L 804.707515 370.510596 
L 604.053579 405.733418 
L 1015.586719 269.890056 
L 252.109454 481.680155 
z
" clip-path="url(#pa69376d6ad)" style="fill: #6cfbf8; fill-opacity: 0.83451"/>
   </g>
   <g id="patch_23">
    <path d="M 940.749427 134.798261 
L 872.016077 491.021209 
L 754.064569 445.591394 
z
" clip-path="url(#pa69376d6ad)" style="fill: #000015"/>
   </g>
   <g id="patch_24">
    <path d="M 228.568287 509.321441 
L 105.596395 163.478157 
L 24.200107 280.674553 
L 763.720145 534.978646 
L 138.283786 567.678417 
z
" clip-path="url(#pa69376d6ad)" style="fill: #afd2d7; fill-opacity: 0.759001"/>
   </g>
   <g id="patch_25">
    <path d="M 911.92223 131.474059 
L 723.341479 190.298577 
L 1008.554988 12.089171 
z
" clip-path="url(#pa69376d6ad)" style="fill: #c1b6cc"/>
   </g>
   <g id="patch_26">
    <path d="M 920.282873 240.075805 
L 233.622059 224.692112 
L 993.330968 245.404498 
L 911.694429 276.515512 
L 447.447978 386.392374 
z
" clip-path="url(#pa69376d6ad)" style="fill: #ffe6f5; fill-opacity: 0.945686"/>
   </g>
   <g id="patch_27">
    <path d="M 978.074551 471.734507 
L 0.101065 468.206092 
L 826.227971 325.615548 
L 180.332086 508.163119 
L 242.356088 556.942168 
z
" clip-path="url(#pa69376d6ad)" style="fill: #8debff; fill-opacity: 0.996901"/>
   </g>
   <g id="patch_28">
    <path d="M 87.418603 533.876672 
L 881.36217 319.337125 
L 577.757086 21.174926 
L 126.296422 144.041812 
L 79.135344 3.713939 
z
" clip-path="url(#pa69376d6ad)" style="fill: #001540; fill-opacity: 0.453914"/>
   </g>
   <g id="patch_29">
    <path d="M 696.372184 171.273108 
L 747.175536 38.691659 
L 645.937149 64.728102 
L 54.309862 31.0753 
z
" clip-path="url(#pa69376d6ad)" style="fill: #25374b; fill-opacity: 0.531388"/>
   </g>
   <g id="patch_30">
    <path d="M 552.794887 538.612752 
L 937.529742 88.239363 
L 174.587181 507.093423 
L 94.220697 142.384955 
L 366.708212 243.640074 
z
" clip-path="url(#pa69376d6ad)" style="fill: #30273d"/>
   </g>
   <g id="patch_31">
    <path d="M 578.508454 211.167922 
L 129.495172 242.188713 
L 249.864909 159.756348 
L 414.894744 394.764124 
z
" clip-path="url(#pa69376d6ad)" style="fill: #e8f7f7"/>
   </g>
   <g id="patch_32">
    <path d="M 261.096743 171.930142 
L 681.882503 76.679824 
L 1014.066783 226.447927 
L 627.271622 249.800082 
L 183.190174 117.69946 
z
" clip-path="url(#pa69376d6ad)" style="fill: #95aacc"/>
   </g>
   <g id="patch_33">
    <path d="M 112.899701 191.063454 
L 128.991792 477.296514 
L 138.430145 200.472767 
z
" clip-path="url(#pa69376d6ad)" style="fill: #b37bdb; fill-opacity: 0.770091"/>
   </g>
   <g id="patch_34">
    <path d="M 487.44183 244.290045 
L 468.280366 260.121844 
L 791.55148 430.863989 
z
" clip-path="url(#pa69376d6ad)" style="fill: #87bf9e; fill-opacity: 0.590445"/>
   </g>
   <g id="patch_35">
    <path d="M 402.23597 234.731697 
L 923.433969 548.704902 
L 178.269761 415.173556 
z
" clip-path="url(#pa69376d6ad)" style="fill: #cfc8cd; fill-opacity: 0.552486"/>
   </g>
   <g id="patch_36">
    <path d="M 1021.747459 425.860383 
L 631.461242 575.110881 
L 796.581998 456.101084 
z
" clip-path="url(#pa69376d6ad)" style="fill: #e6d1e4; fill-opacity: 0.991312"/>
   </g>
   <g id="patch_37">
    <path d="M 225.994506 501.641062 
L 818.766232 533.852468 
L 362.24502 160.450252 
L 634.172075 478.127956 
L 780.769137 389.270709 
z
" clip-path="url(#pa69376d6ad)" style="fill: #07ab4b; fill-opacity: 0.799971"/>
   </g>
   <g id="patch_38">
    <path d="M 937.682111 326.50487 
L 311.727146 93.43636 
L 523.483307 566.152464 
L 249.002285 388.506157 
z
" clip-path="url(#pa69376d6ad)" style="fill: #190000; fill-opacity: 0.70028"/>
   </g>
   <g id="patch_39">
    <path d="M 695.499377 53.694023 
L 894.908793 11.225017 
L 1002.991811 496.318467 
L 561.559281 456.49952 
z
" clip-path="url(#pa69376d6ad)" style="fill: #ffffff; fill-opacity: 0.28551"/>
   </g>
   <g id="patch_40">
    <path d="M 1002.274098 35.156038 
L 78.033416 486.396942 
L 68.392218 176.310104 
L 7.644865 556.907735 
L 572.806774 508.646744 
z
" clip-path="url(#pa69376d6ad)" style="fill: #c6c6eb; fill-opacity: 0.292069"/>
   </g>
   <g id="patch_41">
    <path d="M 489.770333 228.087125 
L 257.500398 409.770307 
L 942.173128 42.222214 
L 343.153203 426.952664 
z
" clip-path="url(#pa69376d6ad)" style="fill: #ffbce0; fill-opacity: 0.479298"/>
   </g>
   <g id="patch_42">
    <path d="M 746.58818 103.159615 
L 392.464236 532.664316 
L 262.297988 385.128449 
L 368.069506 237.880684 
z
" clip-path="url(#pa69376d6ad)" style="fill: #16ce76; fill-opacity: 0.566026"/>
   </g>
   <g id="patch_43">
    <path d="M 916.348083 191.330509 
L 8.696233 515.512073 
L 3.147208 488.029566 
L 926.513109 180.953577 
z
" clip-path="url(#pa69376d6ad)" style="fill: #ab7ba6; fill-opacity: 0.554113"/>
   </g>
   <g id="patch_44">
    <path d="M 712.019495 499.300752 
L 269.168941 130.851175 
L 755.842031 473.112843 
L 991.913997 547.212988 
z
" clip-path="url(#pa69376d6ad)" style="fill: #bee7ff; fill-opacity: 0.688785"/>
   </g>
   <g id="patch_45">
    <path d="M 802.643538 444.868777 
L 269.036597 402.356571 
L 252.606353 167.868856 
z
" clip-path="url(#pa69376d6ad)" style="fill: #7bdeb6; fill-opacity: 0.206558"/>
   </g>
   <g id="patch_46">
    <path d="M 333.073957 191.970792 
L 511.73069 503.499762 
L 723.396045 575.196091 
L 808.344262 134.195786 
z
" clip-path="url(#pa69376d6ad)" style="fill: #abc6d7"/>
   </g>
   <g id="patch_47">
    <path d="M 346.562065 257.179328 
L 696.006027 49.600608 
L 233.516531 242.473122 
L 943.909245 306.10613 
L 653.291448 271.822909 
z
" clip-path="url(#pa69376d6ad)" style="fill: #151053; fill-opacity: 0.563659"/>
   </g>
   <g id="patch_48">
    <path d="M 331.081805 397.707674 
L 904.540911 448.09127 
L 22.929679 151.555244 
L 688.36841 535.923533 
z
" clip-path="url(#pa69376d6ad)" style="fill: #000015; fill-opacity: 0.639557"/>
   </g>
   <g id="patch_49">
    <path d="M 860.41478 279.220109 
L 447.935916 32.904253 
L 512.178592 446.356224 
L 587.377259 172.786223 
z
" clip-path="url(#pa69376d6ad)" style="fill: #0057e5; fill-opacity: 0.399947"/>
   </g>
   <g id="patch_50">
    <path d="M 349.160389 68.656057 
L 143.525201 135.818764 
L 939.168066 113.994261 
L 475.152255 30.261634 
z
" clip-path="url(#pa69376d6ad)" style="fill: #3accd7; fill-opacity: 0.436519"/>
   </g>
   <g id="patch_51">
    <path d="M 154.768412 538.705188 
L 1008.845686 476.09129 
L 800.413914 570.869212 
z
" clip-path="url(#pa69376d6ad)" style="fill: #d7c6e9; fill-opacity: 0.734233"/>
   </g>
   <g id="patch_52">
    <path d="M 776.31035 484.115585 
L 387.27067 73.423482 
L 823.579701 320.748039 
L 904.175193 439.400181 
z
" clip-path="url(#pa69376d6ad)" style="fill: #000014; fill-opacity: 0.233944"/>
   </g>
   <g id="patch_53">
    <path d="M 129.568578 549.233976 
L 94.162425 222.705753 
L 308.178342 158.607735 
L 629.643504 367.334628 
z
" clip-path="url(#pa69376d6ad)" style="fill: #ffd9b2; fill-opacity: 0.993989"/>
   </g>
   <g id="patch_54">
    <path d="M 941.805699 216.569422 
L 711.487409 84.212102 
L 206.166772 169.033844 
z
" clip-path="url(#pa69376d6ad)" style="fill: #ffc6de; fill-opacity: 0.379826"/>
   </g>
   <g id="patch_55">
    <path d="M 497.154272 502.151239 
L 978.182445 439.590188 
L 1006.983966 560.274917 
L 272.609106 423.309287 
z
" clip-path="url(#pa69376d6ad)" style="fill: #ccc0d4; fill-opacity: 0.746462"/>
   </g>
   <g id="patch_56">
    <path d="M 389.979799 486.171212 
L 752.087349 571.215655 
L 743.504608 253.095823 
L 626.925903 336.246935 
L 413.323287 294.378261 
z
" clip-path="url(#pa69376d6ad)" style="fill: #afdfda; fill-opacity: 0.822695"/>
   </g>
   <g id="patch_57">
    <path d="M 768.599918 1.843943 
L 864.07046 21.418024 
L 49.376268 372.231628 
z
" clip-path="url(#pa69376d6ad)" style="fill: #ede7f2; fill-opacity: 0.870773"/>
   </g>
   <g id="patch_58">
    <path d="M 181.366152 358.548258 
L 945.919502 167.036805 
L 740.784798 395.477783 
L 201.499632 551.247486 
z
" clip-path="url(#pa69376d6ad)" style="fill: #ffffdc"/>
   </g>
   <g id="patch_59">
    <path d="M 687.332852 61.867588 
L 56.274038 198.586074 
L 42.219227 266.392019 
L 590.836572 534.226548 
z
" clip-path="url(#pa69376d6ad)" style="fill: #231e30; fill-opacity: 0.944188"/>
   </g>
   <g id="patch_60">
    <path d="M 265.327908 466.652615 
L 56.952767 373.916003 
L 934.285638 165.578652 
L 974.532966 33.913437 
z
" clip-path="url(#pa69376d6ad)" style="fill: #a4f3ff; fill-opacity: 0.460655"/>
   </g>
   <g id="patch_61">
    <path d="M 163.923535 360.080232 
L 585.635382 539.076636 
L 266.989087 538.075084 
L 163.923535 360.080232 
z
" clip-path="url(#pa69376d6ad)" style="fill: none"/>
   </g>
   <g id="patch_62">
    <path d="M 39.463626 161.29769 
L 944.914061 65.171108 
L 367.065046 118.932067 
L 82.846015 65.487526 
z
" clip-path="url(#pa69376d6ad)" style="fill: #1a132d; fill-opacity: 0.665123"/>
   </g>
   <g id="patch_63">
    <path d="M 765.104929 175.95081 
L 132.174771 514.000042 
L 338.924866 91.822799 
L 154.075757 541.665318 
L 640.01407 569.756973 
z
" clip-path="url(#pa69376d6ad)" style="fill: #edcdda; fill-opacity: 0.411405"/>
   </g>
   <g id="patch_64">
    <path d="M 692.442254 539.517261 
L 24.338329 557.691272 
L 937.359191 451.500299 
L 397.666095 288.576901 
L 871.2591 213.480527 
z
" clip-path="url(#pa69376d6ad)" style="fill: #ffc8c7; fill-opacity: 0.316793"/>
   </g>
   <g id="patch_65">
    <path d="M 344.110422 354.915229 
L 192.716259 417.945009 
L 519.890357 328.625486 
L 450.513678 365.716778 
z
" clip-path="url(#pa69376d6ad)" style="fill: #22ffd8; fill-opacity: 0.959543"/>
   </g>
   <g id="patch_66">
    <path d="M 305.216741 566.264347 
L 945.351694 494.198746 
L 87.711034 386.868231 
L 158.106242 431.701736 
z
" clip-path="url(#pa69376d6ad)" style="fill: #a4a44d; fill-opacity: 0.414223"/>
   </g>
   <g id="patch_67">
    <path d="M 1002.82926 375.835525 
L 939.418496 190.723891 
L 265.714382 60.142079 
L 342.473104 34.726037 
z
" clip-path="url(#pa69376d6ad)" style="fill: #76c9ff; fill-opacity: 0.186245"/>
   </g>
   <g id="patch_68">
    <path d="M 1016.636396 276.341602 
L 112.105578 110.833627 
L 875.233878 219.913927 
z
" clip-path="url(#pa69376d6ad)" style="fill: #a5e3b2; fill-opacity: 0.794779"/>
   </g>
   <g id="patch_69">
    <path d="M 674.960977 348.974863 
L 505.777174 28.954226 
L 813.150628 269.582852 
z
" clip-path="url(#pa69376d6ad)" style="fill: #ffe2ff; fill-opacity: 0.926011"/>
   </g>
   <g id="patch_70">
    <path d="M 559.958561 398.113734 
L 802.413335 138.006222 
L 381.834837 244.567116 
L 627.573349 565.452412 
z
" clip-path="url(#pa69376d6ad)" style="fill: #d0c532; fill-opacity: 0.231935"/>
   </g>
   <g id="patch_71">
    <path d="M 775.459884 525.573027 
L 1020.576897 222.462001 
L 996.610497 23.775006 
z
" clip-path="url(#pa69376d6ad)" style="fill: #51a4f5; fill-opacity: 0.314614"/>
   </g>
   <g id="patch_72">
    <path d="M 553.836013 50.83793 
L 103.642104 227.156404 
L 288.954488 174.01515 
z
" clip-path="url(#pa69376d6ad)" style="fill: #464a4c; fill-opacity: 0.688063"/>
   </g>
   <g id="patch_73">
    <path d="M 753.831832 242.249566 
L 87.790602 493.19321 
L 380.427245 553.505818 
L 937.902607 534.73428 
L 641.92688 330.641911 
z
" clip-path="url(#pa69376d6ad)" style="fill: #badfd4; fill-opacity: 0.959437"/>
   </g>
   <g id="patch_74">
    <path d="M 869.554329 232.506931 
L 359.015228 272.904219 
L 316.020595 350.572159 
z
" clip-path="url(#pa69376d6ad)" style="fill: #f2ffff; fill-opacity: 0.829488"/>
   </g>
   <g id="patch_75">
    <path d="M 311.227869 388.277388 
L 149.186303 103.406474 
L 714.564855 313.155648 
L 77.809012 76.809919 
L 450.923779 181.586274 
z
" clip-path="url(#pa69376d6ad)" style="fill: #43324a"/>
   </g>
   <g id="patch_76">
    <path d="M 69.391103 411.361951 
L 222.488831 237.53611 
L 1.265785 565.761967 
L 10.152493 454.129565 
z
" clip-path="url(#pa69376d6ad)" style="fill: #e9e8e5; fill-opacity: 0.816293"/>
   </g>
   <g id="patch_77">
    <path d="M 442.374624 38.741067 
L 81.636226 420.361937 
L 593.525066 355.786267 
z
" clip-path="url(#pa69376d6ad)" style="fill: #2a8bca; fill-opacity: 0.642509"/>
   </g>
   <g id="patch_78">
    <path d="M 340.386668 520.781495 
L 533.172896 322.510545 
L 708.914869 240.109499 
z
" clip-path="url(#pa69376d6ad)" style="fill: #efc7d0; fill-opacity: 0.164895"/>
   </g>
   <g id="patch_79">
    <path d="M 645.433538 526.201183 
L 661.63862 159.256454 
L 525.95949 17.512199 
L 744.970176 248.311137 
z
" clip-path="url(#pa69376d6ad)" style="fill: #f6e0df; fill-opacity: 0.580879"/>
   </g>
   <g id="patch_80">
    <path d="M 556.656829 554.232309 
L 900.058966 420.742278 
L 538.601315 320.153526 
L 14.203273 149.027306 
z
" clip-path="url(#pa69376d6ad)" style="fill: #292a3e; fill-opacity: 0.608008"/>
   </g>
   <g id="patch_81">
    <path d="M 833.868477 106.237105 
L 491.832946 229.475875 
L 965.715062 54.62588 
L 994.294665 145.016811 
L 646.900726 255.408961 
z
" clip-path="url(#pa69376d6ad)" style="fill: #d8c3cf; fill-opacity: 0.740727"/>
   </g>
   <g id="patch_82">
    <path d="M 422.669064 333.505299 
L 692.414948 487.977158 
L 706.995704 107.298131 
L 630.965659 44.799991 
z
" clip-path="url(#pa69376d6ad)" style="fill: #f5fff1; fill-opacity: 0.972283"/>
   </g>
   <g id="patch_83">
    <path d="M 21.228999 325.888537 
L 23.093706 571.825522 
L 426.858557 129.134009 
L 942.249361 177.802724 
L 829.154241 4.052558 
z
" clip-path="url(#pa69376d6ad)" style="fill: #cbdfe5; fill-opacity: 0.597223"/>
   </g>
   <g id="patch_84">
    <path d="M 961.709612 473.107626 
L 927.716359 363.829757 
L 1000.762393 450.420138 
L 876.377113 49.432673 
z
" clip-path="url(#pa69376d6ad)" style="fill: #ccd2d2; fill-opacity: 0.935343"/>
   </g>
   <g id="patch_85">
    <path d="M 600.302958 569.41564 
L 336.346396 99.22023 
L 956.588638 293.688341 
L 131.430818 574.76358 
z
" clip-path="url(#pa69376d6ad)" style="fill: #ffffff; fill-opacity: 0.436257"/>
   </g>
   <g id="patch_86">
    <path d="M 500.02978 248.211737 
L 89.735856 493.358154 
L 420.944555 300.453128 
L 500.02978 248.211737 
z
" clip-path="url(#pa69376d6ad)" style="fill: none"/>
   </g>
   <g id="patch_87">
    <path d="M 785.798878 49.681052 
L 386.314583 363.470476 
L 997.629011 490.095173 
L 640.516651 362.328038 
L 972.78321 291.666111 
L 785.798878 49.681052 
z
" clip-path="url(#pa69376d6ad)" style="fill: none"/>
   </g>
   <g id="patch_88">
    <path d="M 201.991593 202.450021 
L 78.609315 39.606035 
L 834.452855 270.010567 
z
" clip-path="url(#pa69376d6ad)" style="fill: #0a301d; fill-opacity: 0.153365"/>
   </g>
   <g id="patch_89">
    <path d="M 111.183266 418.93604 
L 720.722154 419.478307 
L 1009.528887 523.058823 
z
" clip-path="url(#pa69376d6ad)" style="fill: #a985ac; fill-opacity: 0.565003"/>
   </g>
   <g id="patch_90">
    <path d="M 565.546596 370.131356 
L 839.197237 388.918518 
L 835.024212 143.151373 
L 565.546596 370.131356 
z
" clip-path="url(#pa69376d6ad)" style="fill: none"/>
   </g>
   <g id="patch_91">
    <path d="M 470.946305 133.902144 
L 91.401074 130.908577 
L 270.657114 77.73422 
z
" clip-path="url(#pa69376d6ad)" style="fill: #121c32; fill-opacity: 0.904634"/>
   </g>
   <g id="patch_92">
    <path d="M 699.189776 31.103314 
L 1012.846674 242.716975 
L 924.113853 337.537536 
L 259.233255 331.491902 
z
" clip-path="url(#pa69376d6ad)" style="fill: #324a99; fill-opacity: 0.211026"/>
   </g>
   <g id="patch_93">
    <path d="M 1020.207443 473.689269 
L 738.141043 562.742026 
L 770.384397 498.574871 
L 212.407277 430.36749 
z
" clip-path="url(#pa69376d6ad)" style="fill: #dbc8d7; fill-opacity: 0.898402"/>
   </g>
   <g id="patch_94">
    <path d="M 162.430355 423.112096 
L 118.486775 170.367174 
L 495.581331 332.328634 
L 888.296916 23.335231 
z
" clip-path="url(#pa69376d6ad)" style="fill: #857ea5; fill-opacity: 0.12913"/>
   </g>
   <g id="patch_95">
    <path d="M 790.969999 108.848845 
L 244.168563 518.123899 
L 150.097476 472.28301 
L 646.315219 250.027772 
z
" clip-path="url(#pa69376d6ad)" style="fill: #0485ff; fill-opacity: 0.93938"/>
   </g>
   <g id="patch_96">
    <path d="M 992.72174 143.364628 
L 842.552366 23.984612 
L 313.82925 380.470915 
L 521.371309 439.44629 
L 289.446346 96.20404 
L 992.72174 143.364628 
z
" clip-path="url(#pa69376d6ad)" style="fill: none"/>
   </g>
   <g id="patch_97">
    <path d="M 784.174384 386.546373 
L 898.236479 496.716112 
L 478.944213 246.099681 
z
" clip-path="url(#pa69376d6ad)" style="fill: #677087; fill-opacity: 0.974241"/>
   </g>
   <g id="patch_98">
    <path d="M 437.858629 151.646858 
L 585.051341 393.989298 
L 819.768898 338.272385 
z
" clip-path="url(#pa69376d6ad)" style="fill: #fdd0b7; fill-opacity: 0.624359"/>
   </g>
   <g id="patch_99">
    <path d="M 773.000355 286.842039 
L 933.206798 479.4383 
L 330.987414 420.513846 
L 987.974708 424.015134 
z
" clip-path="url(#pa69376d6ad)" style="fill: #ffd1fe; fill-opacity: 0.263449"/>
   </g>
   <g id="patch_100">
    <path d="M 987.2487 196.443787 
L 992.681143 415.089957 
L 697.107906 114.031294 
z
" clip-path="url(#pa69376d6ad)" style="fill: #c8e7e4; fill-opacity: 0.280598"/>
   </g>
   <g id="patch_101">
    <path d="M 230.58732 216.057742 
L 680.263838 471.258604 
L 357.030044 273.645442 
z
" clip-path="url(#pa69376d6ad)" style="fill: #eea8e4; fill-opacity: 0.863638"/>
   </g>
   <g id="patch_102">
    <path d="M 304.787201 305.647096 
L 734.441606 570.420257 
L 482.865997 564.157438 
L 337.84598 187.595294 
z
" clip-path="url(#pa69376d6ad)" style="fill: #4f95c6; fill-opacity: 0.141354"/>
   </g>
   <g id="patch_103">
    <path d="M 547.927319 289.660696 
L 702.252518 375.998146 
L 251.949666 398.848047 
z
" clip-path="url(#pa69376d6ad)" style="fill: #888b1c; fill-opacity: 0.531904"/>
   </g>
   <g id="patch_104">
    <path d="M 783.542407 95.160601 
L 180.315873 296.474801 
L 431.231076 285.167023 
z
" clip-path="url(#pa69376d6ad)" style="fill: #e5ff77; fill-opacity: 0.202388"/>
   </g>
   <g id="patch_105">
    <path d="M 992.326111 523.144579 
L 512.752168 560.815397 
L 470.302401 567.509294 
z
" clip-path="url(#pa69376d6ad)" style="fill: #b2c6d2"/>
   </g>
   <g id="patch_106">
    <path d="M 559.288296 336.455308 
L 480.999998 547.383711 
L 731.855765 472.086849 
z
" clip-path="url(#pa69376d6ad)" style="fill: #00cfff"/>
   </g>
   <g id="patch_107">
    <path d="M 758.404117 63.215646 
L 996.707645 28.375154 
L 727.554566 167.978849 
L 451.03619 199.659348 
z
" clip-path="url(#pa69376d6ad)" style="fill: #dfebf9; fill-opacity: 0.47268"/>
   </g>
   <g id="patch_108">
    <path d="M 317.871604 247.220672 
L 248.106523 170.687801 
L 264.057478 440.016372 
L 518.20226 242.433193 
L 731.90307 264.517763 
z
" clip-path="url(#pa69376d6ad)" style="fill: #ffecd1"/>
   </g>
   <g id="patch_109">
    <path d="M 326.951364 170.299625 
L 662.410846 193.643793 
L 722.837859 292.794904 
L 702.328832 243.516864 
z
" clip-path="url(#pa69376d6ad)" style="fill: #fffff3; fill-opacity: 0.928559"/>
   </g>
   <g id="patch_110">
    <path d="M 856.917388 138.696857 
L 323.950429 434.062531 
L 790.345558 13.650027 
L 319.278796 86.79591 
z
" clip-path="url(#pa69376d6ad)" style="fill: #ff94eb; fill-opacity: 0.106498"/>
   </g>
   <g id="patch_111">
    <path d="M 178.691963 403.36795 
L 213.306341 227.899952 
L 578.950931 12.070871 
L 382.224162 416.367338 
z
" clip-path="url(#pa69376d6ad)" style="fill: #468ebf"/>
   </g>
   <g id="patch_112">
    <path d="M 981.938541 471.087171 
L 362.842738 0.187541 
L 110.721646 331.485734 
L 605.649806 225.454846 
L 175.58637 552.798212 
z
" clip-path="url(#pa69376d6ad)" style="fill: #bef2ff; fill-opacity: 0.235793"/>
   </g>
   <g id="patch_113">
    <path d="M 533.623752 251.212587 
L 59.812067 351.177639 
L 809.913904 453.3975 
z
" clip-path="url(#pa69376d6ad)" style="fill: #bfffe0"/>
   </g>
   <g id="patch_114">
    <path d="M 292.919751 231.366161 
L 563.009874 430.759977 
L 549.307216 6.498178 
z
" clip-path="url(#pa69376d6ad)" style="fill: #399dd8; fill-opacity: 0.867545"/>
   </g>
   <g id="patch_115">
    <path d="M 538.64523 500.878076 
L 638.767786 61.783758 
L 995.422233 57.001802 
z
" clip-path="url(#pa69376d6ad)" style="fill: #ebe9ee; fill-opacity: 0.522845"/>
   </g>
   <g id="patch_116">
    <path d="M 155.481331 173.569224 
L 657.565375 324.140101 
L 554.154287 472.494548 
L 178.255009 215.668454 
z
" clip-path="url(#pa69376d6ad)" style="fill: #ffdbdb; fill-opacity: 0.956532"/>
   </g>
   <g id="patch_117">
    <path d="M 569.495813 356.530681 
L 5.504714 415.123637 
L 510.085812 488.872507 
L 575.608242 123.289736 
z
" clip-path="url(#pa69376d6ad)" style="fill: #e6fff9"/>
   </g>
   <g id="patch_118">
    <path d="M 683.109106 462.647013 
L 844.22331 303.163961 
L 999.486695 80.303895 
z
" clip-path="url(#pa69376d6ad)" style="fill: #cec5c4"/>
   </g>
   <g id="patch_119">
    <path d="M 502.621519 277.333906 
L 706.816435 123.619931 
L 810.143826 458.120046 
z
" clip-path="url(#pa69376d6ad)" style="fill: #f3f7ee; fill-opacity: 0.746524"/>
   </g>
   <g id="patch_120">
    <path d="M 649.458171 57.89523 
L 622.150265 498.035082 
L 941.712048 18.259471 
L 434.098975 90.063286 
z
" clip-path="url(#pa69376d6ad)" style="fill: #ffe2ca; fill-opacity: 0.282964"/>
   </g>
   <g id="patch_121">
    <path d="M 64.614567 72.482782 
L 848.880992 497.06224 
L 126.75639 529.224972 
z
" clip-path="url(#pa69376d6ad)" style="fill: #00100c; fill-opacity: 0.262914"/>
   </g>
   <g id="patch_122">
    <path d="M 89.998897 43.974917 
L 109.634472 210.223892 
L 326.56596 380.529123 
L 605.030253 471.412017 
z
" clip-path="url(#pa69376d6ad)" style="fill: #1e0016; fill-opacity: 0.09514"/>
   </g>
   <g id="patch_123">
    <path d="M 219.437053 211.891029 
L 51.099261 409.183057 
L 380.045071 120.33177 
L 41.893556 303.556464 
z
" clip-path="url(#pa69376d6ad)" style="fill: #e4c59a; fill-opacity: 0.526942"/>
   </g>
   <g id="patch_124">
    <path d="M 999.943177 227.728861 
L 821.857972 103.610011 
L 301.562523 220.651854 
z
" clip-path="url(#pa69376d6ad)" style="fill: #f7ffff; fill-opacity: 0.155491"/>
   </g>
   <g id="patch_125">
    <path d="M 565.821 463.231762 
L 114.266553 73.998815 
L 270.311908 518.272685 
z
" clip-path="url(#pa69376d6ad)" style="fill: #ffffff; fill-opacity: 0.098009"/>
   </g>
   <g id="patch_126">
    <path d="M 662.651739 471.336499 
L 309.611072 554.355693 
L 674.526848 293.440803 
z
" clip-path="url(#pa69376d6ad)" style="fill: #f69158; fill-opacity: 0.668204"/>
   </g>
   <g id="patch_127">
    <path d="M 669.479156 569.923761 
L 255.107251 306.764958 
L 466.138849 298.563281 
L 539.800805 240.525494 
L 707.37299 572.021023 
z
" clip-path="url(#pa69376d6ad)" style="fill: #e4cdca; fill-opacity: 0.810082"/>
   </g>
   <g id="patch_128">
    <path d="M 427.294512 49.721872 
L 688.985003 438.388553 
L 766.584843 1.823193 
z
" clip-path="url(#pa69376d6ad)" style="fill: #feedd7; fill-opacity: 0.277835"/>
   </g>
   <g id="patch_129">
    <path d="M 598.42924 282.001333 
L 154.188646 393.633537 
L 757.460277 170.353163 
z
" clip-path="url(#pa69376d6ad)" style="fill: #353c67; fill-opacity: 0.200985"/>
   </g>
   <g id="patch_130">
    <path d="M 443.134889 459.693484 
L 182.642055 425.905406 
L 911.622326 558.546341 
L 305.849463 136.378783 
L 117.578689 335.952338 
z
" clip-path="url(#pa69376d6ad)" style="fill: #decfbb; fill-opacity: 0.784308"/>
   </g>
   <g id="patch_131">
    <path d="M 92.097314 308.530079 
L 382.823999 271.359979 
L 790.984554 404.234647 
L 677.723033 427.910021 
z
" clip-path="url(#pa69376d6ad)" style="fill: #fb9a8c; fill-opacity: 0.423135"/>
   </g>
   <g id="patch_132">
    <path d="M 964.019689 261.504527 
L 939.264284 62.72534 
L 575.520474 142.664914 
L 802.222469 243.087366 
z
" clip-path="url(#pa69376d6ad)" style="fill: #dbcdda; fill-opacity: 0.542679"/>
   </g>
   <g id="patch_133">
    <path d="M 360.650769 232.452079 
L 9.826655 440.175392 
L 52.545787 528.337638 
L 982.726574 228.994756 
z
" clip-path="url(#pa69376d6ad)" style="fill: #fff3ea; fill-opacity: 0.35405"/>
   </g>
   <g id="patch_134">
    <path d="M 488.08234 86.127167 
L 596.051787 569.721848 
L 56.319314 152.62566 
L 588.7481 360.752329 
z
" clip-path="url(#pa69376d6ad)" style="fill: #fff296; fill-opacity: 0.174438"/>
   </g>
   <g id="patch_135">
    <path d="M 702.3046 498.160949 
L 794.116585 530.284575 
L 633.321745 313.781173 
L 376.871377 342.474511 
L 337.164183 69.960024 
z
" clip-path="url(#pa69376d6ad)" style="fill: #67bdf3; fill-opacity: 0.42474"/>
   </g>
   <g id="patch_136">
    <path d="M 344.603811 311.443239 
L 687.356042 564.455232 
L 38.960492 554.183818 
z
" clip-path="url(#pa69376d6ad)" style="fill: #bcc3b3; fill-opacity: 0.805042"/>
   </g>
   <g id="patch_137">
    <path d="M 682.985775 142.233202 
L 193.31401 448.733747 
L 625.56054 505.532234 
z
" clip-path="url(#pa69376d6ad)" style="fill: #fca270; fill-opacity: 0.060848"/>
   </g>
   <g id="patch_138">
    <path d="M 632.140942 297.203769 
L 829.564341 476.071047 
L 666.991563 33.822291 
L 115.821098 247.595656 
z
" clip-path="url(#pa69376d6ad)" style="fill: #ffddd3; fill-opacity: 0.090786"/>
   </g>
   <g id="patch_139">
    <path d="M 794.566775 505.425278 
L 730.539502 248.623123 
L 714.733189 334.821152 
z
" clip-path="url(#pa69376d6ad)" style="fill: #fff9e5"/>
   </g>
   <g id="patch_140">
    <path d="M 648.992584 196.310587 
L 566.054408 474.895179 
L 334.719201 237.442805 
L 4.469929 500.090728 
z
" clip-path="url(#pa69376d6ad)" style="fill: #bdc4be; fill-opacity: 0.706362"/>
   </g>
   <g id="patch_141">
    <path d="M 963.68627 534.724186 
L 570.873756 242.280523 
L 1.358433 387.948803 
z
" clip-path="url(#pa69376d6ad)" style="fill: #a6bfe1; fill-opacity: 0.60944"/>
   </g>
   <g id="patch_142">
    <path d="M 678.805443 497.129613 
L 105.510657 442.65904 
L 654.162095 353.709664 
z
" clip-path="url(#pa69376d6ad)" style="fill: #ddc0b7; fill-opacity: 0.572181"/>
   </g>
   <g id="patch_143">
    <path d="M 696.883491 289.168964 
L 368.781363 101.809493 
L 588.195981 301.600287 
L 523.878321 279.41719 
z
" clip-path="url(#pa69376d6ad)" style="fill: #7bb3c7; fill-opacity: 0.333906"/>
   </g>
   <g id="patch_144">
    <path d="M 83.789024 164.866572 
L 447.116326 448.457933 
L 765.050092 417.104098 
L 20.39692 303.170934 
z
" clip-path="url(#pa69376d6ad)" style="fill: #45353b; fill-opacity: 0.035733"/>
   </g>
   <g id="patch_145">
    <path d="M 910.955315 430.631939 
L 818.691987 350.306293 
L 514.448066 303.283654 
L 18.991681 165.90089 
L 556.33618 237.210279 
z
" clip-path="url(#pa69376d6ad)" style="fill: #0997be; fill-opacity: 0.079569"/>
   </g>
   <g id="patch_146">
    <path d="M 822.577156 384.819126 
L 148.967966 290.244426 
L 598.421714 501.228366 
L 609.649155 121.531604 
L 584.728489 454.483899 
z
" clip-path="url(#pa69376d6ad)" style="fill: #007aa0; fill-opacity: 0.179372"/>
   </g>
   <g id="patch_147">
    <path d="M 119.649432 128.303123 
L 193.509441 366.340694 
L 191.147019 269.177495 
z
" clip-path="url(#pa69376d6ad)" style="fill: #835d6e; fill-opacity: 0.578368"/>
   </g>
   <g id="patch_148">
    <path d="M 681.527371 394.843104 
L 314.375622 460.252874 
L 291.83073 193.791485 
L 216.795844 537.716207 
L 630.120919 241.094228 
z
" clip-path="url(#pa69376d6ad)" style="fill: #54d2e0; fill-opacity: 0.281047"/>
   </g>
   <g id="patch_149">
    <path d="M 70.566329 107.562336 
L 423.664201 265.594601 
L 758.2947 194.388202 
z
" clip-path="url(#pa69376d6ad)" style="fill: #003440; fill-opacity: 0.072286"/>
   </g>
   <g id="patch_150">
    <path d="M 25.321854 512.429727 
L 513.75968 99.175442 
L 899.113378 367.667641 
z
" clip-path="url(#pa69376d6ad)" style="fill: #002caf; fill-opacity: 0.041601"/>
   </g>
   <g id="patch_151">
    <path d="M 702.068477 353.537763 
L 796.372861 439.34265 
L 521.875345 392.258908 
L 792.401447 399.750573 
L 964.146513 513.472531 
z
" clip-path="url(#pa69376d6ad)" style="fill: #33eee3; fill-opacity: 0.153717"/>
   </g>
   <g id="patch_152">
    <path d="M 603.29391 179.665373 
L 597.952249 78.346189 
L 338.006794 209.090819 
L 603.29391 179.665373 
z
" clip-path="url(#pa69376d6ad)" style="fill: none"/>
   </g>
   <g id="patch_153">
    <path d="M 540.056394 394.183792 
L 581.322837 550.329711 
L 1.629039 381.248485 
L 90.300724 504.447101 
z
" clip-path="url(#pa69376d6ad)" style="fill: #bcbfb7; fill-opacity: 0.497365"/>
   </g>
   <g id="patch_154">
    <path d="M 64.601971 437.39115 
L 474.077118 219.679466 
L 354.448081 373.658192 
z
" clip-path="url(#pa69376d6ad)" style="fill: #a1eaff; fill-opacity: 0.233002"/>
   </g>
   <g id="patch_155">
    <path d="M 637.464352 430.053426 
L 603.955125 273.779052 
L 387.21157 544.141985 
L 654.59961 22.753981 
L 438.346596 8.89243 
z
" clip-path="url(#pa69376d6ad)" style="fill: #38b8d0; fill-opacity: 0.278096"/>
   </g>
   <g id="patch_156">
    <path d="M 937.163645 364.275372 
L 979.579742 107.240451 
L 827.335293 349.787483 
L 211.285017 119.551039 
z
" clip-path="url(#pa69376d6ad)" style="fill: #3d3468; fill-opacity: 0.042498"/>
   </g>
   <g id="patch_157">
    <path d="M 117.339233 357.317061 
L 275.216139 39.233478 
L 169.140778 525.94863 
z
" clip-path="url(#pa69376d6ad)" style="fill: #f3a350; fill-opacity: 0.177557"/>
   </g>
   <g id="patch_158">
    <path d="M 371.389967 232.060527 
L 29.095874 351.138929 
L 75.129867 530.525074 
L 348.705377 380.808575 
z
" clip-path="url(#pa69376d6ad)" style="fill: #d1af99; fill-opacity: 0.588106"/>
   </g>
   <g id="patch_159">
    <path d="M 813.68326 398.52732 
L 324.542983 535.947935 
L 370.135913 173.061461 
L 311.820251 120.806756 
z
" clip-path="url(#pa69376d6ad)" style="fill: #8dd9a2; fill-opacity: 0.069052"/>
   </g>
   <g id="patch_160">
    <path d="M 67.737135 480.648196 
L 182.846012 117.079967 
L 219.378334 77.90204 
L 144.681389 361.501377 
z
" clip-path="url(#pa69376d6ad)" style="fill: #ffc883; fill-opacity: 0.155782"/>
   </g>
   <g id="patch_161">
    <path d="M 905.27276 573.396346 
L 277.603281 23.444951 
L 883.980451 575.012757 
L 387.70117 442.905553 
z
" clip-path="url(#pa69376d6ad)" style="fill: #bcd7e1; fill-opacity: 0.357569"/>
   </g>
   <g id="patch_162">
    <path d="M 897.972012 547.400011 
L 970.102548 181.989687 
L 141.388902 19.381071 
z
" clip-path="url(#pa69376d6ad)" style="fill: #2a0d45; fill-opacity: 0.094729"/>
   </g>
   <g id="patch_163">
    <path d="M 410.979695 541.945185 
L 781.992523 399.701696 
L 202.77171 508.020692 
L 845.898124 568.994037 
L 589.323079 13.156506 
z
" clip-path="url(#pa69376d6ad)" style="fill: #9cc6e4; fill-opacity: 0.31324"/>
   </g>
  </g>
 </g>
 <defs>
  <clipPath id="pa69376d6ad">
   <rect x="0" y="0" width="1022.4" height="576"/>
  </clipPath>
 </defs>
</svg>
