<?xml version="1.0" encoding="utf-8" standalone="no"?>
<!DOCTYPE svg PUBLIC "-//W3C//DTD SVG 1.1//EN"
  "http://www.w3.org/Graphics/SVG/1.1/DTD/svg11.dtd">
<svg xmlns:xlink="http://www.w3.org/1999/xlink" width="452.16pt" height="329.76pt" viewBox="0 0 452.16 329.76" xmlns="http://www.w3.org/2000/svg" version="1.1">
 <metadata>
  <rdf:RDF xmlns:dc="http://purl.org/dc/elements/1.1/" xmlns:cc="http://creativecommons.org/ns#" xmlns:rdf="http://www.w3.org/1999/02/22-rdf-syntax-ns#">
   <cc:Work>
    <dc:type rdf:resource="http://purl.org/dc/dcmitype/StillImage"/>
    <dc:date>2022-05-08T16:01:07.234312</dc:date>
    <dc:format>image/svg+xml</dc:format>
    <dc:creator>
     <cc:Agent>
      <dc:title>Matplotlib v3.5.2, https://matplotlib.org/</dc:title>
     </cc:Agent>
    </dc:creator>
   </cc:Work>
  </rdf:RDF>
 </metadata>
 <defs>
  <style type="text/css">*{stroke-linejoin: round; stroke-linecap: butt}</style>
 </defs>
 <g id="figure_1">
  <g id="patch_1">
   <path d="M 0 329.76 
L 452.16 329.76 
L 452.16 0 
L 0 0 
z
" style="fill: #ffffff"/>
  </g>
  <g id="axes_1">
   <g id="patch_2">
    <path d="M 0 329.76 
L 0 0 
L 452.16 0 
L 452.16 329.76 
z
" clip-path="url(#p1c2ac3f7da)" style="fill: #808080"/>
   </g>
   <g id="patch_3">
    <path d="M 314.169443 87.936035 
L 143.835353 188.530939 
L 354.84512 317.955267 
z
" clip-path="url(#p1c2ac3f7da)" style="fill: #e2fdeb"/>
   </g>
   <g id="patch_4">
    <path d="M 398.84848 64.866089 
L 72.693027 269.758381 
L 254.725041 50.797068 
L 194.371763 230.290393 
L 360.403764 138.678188 
z
" clip-path="url(#p1c2ac3f7da)" style="fill: #305a6d; fill-opacity: 0.997017"/>
   </g>
   <g id="patch_5">
    <path d="M 198.954996 257.981219 
L 218.165925 203.663429 
L 262.448971 197.520957 
L 402.371885 267.950329 
z
" clip-path="url(#p1c2ac3f7da)" style="fill: #94b087; fill-opacity: 0.509816"/>
   </g>
   <g id="patch_6">
    <path d="M 248.576327 189.089691 
L 242.551388 166.578485 
L 358.158687 52.413291 
L 285.324768 8.414096 
z
" clip-path="url(#p1c2ac3f7da)" style="fill: #47963d; fill-opacity: 0.498973"/>
   </g>
   <g id="patch_7">
    <path d="M 81.593404 190.897796 
L 421.588209 53.020842 
L 295.821534 91.401828 
L 232.063633 120.855069 
L 250.8064 15.77738 
z
" clip-path="url(#p1c2ac3f7da)" style="fill: #ffffb9; fill-opacity: 0.748062"/>
   </g>
   <g id="patch_8">
    <path d="M 71.047975 288.441068 
L 343.578803 326.911293 
L 328.798743 310.3798 
L 115.326562 79.15278 
z
" clip-path="url(#p1c2ac3f7da)" style="fill: #f3fff7; fill-opacity: 0.356079"/>
   </g>
   <g id="patch_9">
    <path d="M 225.020482 286.997937 
L 432.396367 248.648863 
L 399.337371 308.022282 
z
" clip-path="url(#p1c2ac3f7da)" style="fill: #c2d7cc; fill-opacity: 0.801255"/>
   </g>
   <g id="patch_10">
    <path d="M 302.568967 64.262521 
L 200.843556 87.103485 
L 162.839753 31.644278 
z
" clip-path="url(#p1c2ac3f7da)" style="fill: #c2cad5; fill-opacity: 0.303854"/>
   </g>
   <g id="patch_11">
    <path d="M 275.204209 34.405071 
L 140.356799 41.316647 
L 98.270516 15.622912 
z
" clip-path="url(#p1c2ac3f7da)" style="fill: #5c0c08; fill-opacity: 0.857614"/>
   </g>
   <g id="patch_12">
    <path d="M 181.365524 60.343881 
L 137.156235 235.957289 
L 218.168269 242.528951 
z
" clip-path="url(#p1c2ac3f7da)" style="fill: #020022; fill-opacity: 0.860413"/>
   </g>
   <g id="patch_13">
    <path d="M 199.039765 234.504212 
L 320.20101 226.157635 
L 104.044904 116.600944 
L 102.399283 47.110287 
z
" clip-path="url(#p1c2ac3f7da)" style="fill: #b5fcff; fill-opacity: 0.482224"/>
   </g>
   <g id="patch_14">
    <path d="M 16.094202 253.143327 
L 76.558899 296.435028 
L 17.814012 315.315579 
z
" clip-path="url(#p1c2ac3f7da)" style="fill: #f6f5ff; fill-opacity: 0.602891"/>
   </g>
   <g id="patch_15">
    <path d="M 240.331306 190.823584 
L 310.408981 106.67159 
L 71.827268 119.81878 
L 85.002714 29.838182 
L 37.571924 7.257667 
z
" clip-path="url(#p1c2ac3f7da)" style="fill: #ddca97; fill-opacity: 0.622186"/>
   </g>
   <g id="patch_16">
    <path d="M 444.483595 176.239091 
L 251.754769 134.06901 
L 310.676132 14.924238 
L 199.953313 163.112201 
z
" clip-path="url(#p1c2ac3f7da)" style="fill: #9fb3aa; fill-opacity: 0.004551"/>
   </g>
   <g id="patch_17">
    <path d="M 220.300109 267.466939 
L 117.888254 246.353121 
L 262.996929 229.217547 
L 196.463769 68.992435 
L 387.836848 78.315307 
z
" clip-path="url(#p1c2ac3f7da)" style="fill: #002d46"/>
   </g>
   <g id="patch_18">
    <path d="M 210.270585 62.945823 
L 34.837585 109.889909 
L 248.789928 215.921495 
z
" clip-path="url(#p1c2ac3f7da)" style="fill: #b1ab7f; fill-opacity: 0.924102"/>
   </g>
   <g id="patch_19">
    <path d="M 337.400066 216.831553 
L 104.324206 306.393589 
L 14.450468 61.871246 
L 107.152314 233.436389 
z
" clip-path="url(#p1c2ac3f7da)" style="fill: #ccd6f6; fill-opacity: 0.535584"/>
   </g>
   <g id="patch_20">
    <path d="M 251.723859 55.461357 
L 377.923294 208.012974 
L 278.991577 91.781922 
z
" clip-path="url(#p1c2ac3f7da)" style="fill: #38bfb5; fill-opacity: 0.904709"/>
   </g>
   <g id="patch_21">
    <path d="M 301.660571 92.995659 
L 446.904917 213.562696 
L 2.369302 48.106977 
L 39.673143 206.189915 
z
" clip-path="url(#p1c2ac3f7da)" style="fill: #b0bdad; fill-opacity: 0.349594"/>
   </g>
   <g id="patch_22">
    <path d="M 236.176531 221.224272 
L 312.964401 212.807693 
L 193.602822 140.604194 
L 331.564278 15.760221 
z
" clip-path="url(#p1c2ac3f7da)" style="fill: #ffd451; fill-opacity: 0.937358"/>
   </g>
   <g id="patch_23">
    <path d="M 441.815776 307.800958 
L 233.352062 71.459553 
L 184.866877 113.535911 
L 48.040929 88.164375 
z
" clip-path="url(#p1c2ac3f7da)" style="fill: #e0f1ff; fill-opacity: 0.685576"/>
   </g>
   <g id="patch_24">
    <path d="M 256.610358 247.163727 
L 165.035561 25.858465 
L 293.651305 7.678791 
z
" clip-path="url(#p1c2ac3f7da)" style="fill: #df7449; fill-opacity: 0.444043"/>
   </g>
   <g id="patch_25">
    <path d="M 382.487356 38.776477 
L 393.102366 77.783269 
L 238.08785 296.12621 
L 434.512482 7.931423 
z
" clip-path="url(#p1c2ac3f7da)" style="fill: #ff7e08; fill-opacity: 0.450448"/>
   </g>
   <g id="patch_26">
    <path d="M 443.36964 326.777138 
L 312.618991 196.787916 
L 13.071025 196.9189 
L 259.275156 43.501644 
z
" clip-path="url(#p1c2ac3f7da)" style="fill: #c2d1c5; fill-opacity: 0.769653"/>
   </g>
   <g id="patch_27">
    <path d="M 378.714393 27.717935 
L 382.767975 96.752902 
L 242.286286 247.321598 
z
" clip-path="url(#p1c2ac3f7da)" style="fill: #8c4a60; fill-opacity: 0.518556"/>
   </g>
   <g id="patch_28">
    <path d="M 359.612039 308.776661 
L 158.370282 146.335655 
L 55.252026 69.125348 
L 272.876117 260.10098 
L 278.128344 145.577993 
z
" clip-path="url(#p1c2ac3f7da)" style="fill: #eae4f2; fill-opacity: 0.230333"/>
   </g>
   <g id="patch_29">
    <path d="M 429.936864 233.607284 
L 189.660186 280.70389 
L 253.796685 99.159702 
L 284.036023 259.08067 
z
" clip-path="url(#p1c2ac3f7da)" style="fill: #023c5e; fill-opacity: 0.717822"/>
   </g>
   <g id="patch_30">
    <path d="M 330.720426 66.431529 
L 310.122818 214.23453 
L 425.709378 88.872189 
z
" clip-path="url(#p1c2ac3f7da)" style="fill: #2a2d42; fill-opacity: 0.609032"/>
   </g>
   <g id="patch_31">
    <path d="M 268.626658 87.564465 
L 161.863616 317.760367 
L 247.05663 267.970681 
L 111.222796 252.869947 
z
" clip-path="url(#p1c2ac3f7da)" style="fill: #122a15; fill-opacity: 0.640284"/>
   </g>
   <g id="patch_32">
    <path d="M 206.843215 178.311633 
L 169.247513 173.39254 
L 231.429368 279.622847 
z
" clip-path="url(#p1c2ac3f7da)" style="fill: #f0caa4; fill-opacity: 0.183298"/>
   </g>
   <g id="patch_33">
    <path d="M 10.652637 261.379723 
L 305.491389 296.531114 
L 164.554015 291.743972 
L 243.158227 246.487015 
z
" clip-path="url(#p1c2ac3f7da)" style="fill: #7e481b; fill-opacity: 0.20147"/>
   </g>
   <g id="patch_34">
    <path d="M 2.558419 88.659643 
L 413.133473 216.825786 
L 209.359876 165.65653 
z
" clip-path="url(#p1c2ac3f7da)" style="fill: #3e0b17; fill-opacity: 0.25607"/>
   </g>
   <g id="patch_35">
    <path d="M 365.094989 216.35459 
L 198.384443 75.577043 
L 332.235295 83.631282 
L 369.028074 190.658479 
L 365.094989 216.35459 
z
" clip-path="url(#p1c2ac3f7da)" style="fill: none"/>
   </g>
   <g id="patch_36">
    <path d="M 132.273754 161.83494 
L 349.220698 71.772285 
L 183.945272 135.635398 
L 121.119615 235.387399 
z
" clip-path="url(#p1c2ac3f7da)" style="fill: #00222b; fill-opacity: 0.970471"/>
   </g>
   <g id="patch_37">
    <path d="M 142.309044 185.170393 
L 200.505777 252.692514 
L 437.964013 307.853899 
z
" clip-path="url(#p1c2ac3f7da)" style="fill: #a7a9b9; fill-opacity: 0.621213"/>
   </g>
   <g id="patch_38">
    <path d="M 396.442889 253.865091 
L 437.660269 283.300764 
L 409.970309 254.418808 
L 371.288711 185.360581 
z
" clip-path="url(#p1c2ac3f7da)" style="fill: #e6f9f6; fill-opacity: 0.435494"/>
   </g>
   <g id="patch_39">
    <path d="M 14.749076 39.564828 
L 3.190471 323.051041 
L 103.467222 0.998866 
L 289.242349 48.375298 
z
" clip-path="url(#p1c2ac3f7da)" style="fill: #decd9c; fill-opacity: 0.58944"/>
   </g>
   <g id="patch_40">
    <path d="M 365.183211 315.694906 
L 153.568543 309.764204 
L 140.623754 111.869117 
z
" clip-path="url(#p1c2ac3f7da)" style="fill: #35182e; fill-opacity: 0.287156"/>
   </g>
   <g id="patch_41">
    <path d="M 145.514848 175.759854 
L 77.164631 91.355089 
L 38.532442 144.407985 
L 234.306511 168.139121 
z
" clip-path="url(#p1c2ac3f7da)" style="fill: #c9ebd9; fill-opacity: 0.792742"/>
   </g>
   <g id="patch_42">
    <path d="M 112.114568 6.584164 
L 3.487459 324.948296 
L 327.244732 50.123132 
L 75.327055 275.619076 
z
" clip-path="url(#p1c2ac3f7da)" style="fill: #c7e1d1; fill-opacity: 0.831696"/>
   </g>
   <g id="patch_43">
    <path d="M 97.57894 78.47262 
L 297.414935 297.70696 
L 449.318812 128.695958 
z
" clip-path="url(#p1c2ac3f7da)" style="fill: #2a3015; fill-opacity: 0.135484"/>
   </g>
   <g id="patch_44">
    <path d="M 117.421763 127.476847 
L 130.117093 243.710683 
L 407.038319 213.494449 
z
" clip-path="url(#p1c2ac3f7da)" style="fill: #e4b8c6; fill-opacity: 0.017394"/>
   </g>
   <g id="patch_45">
    <path d="M 180.144324 180.740423 
L 396.790616 323.825656 
L 144.444399 12.785827 
L 93.287293 182.815922 
z
" clip-path="url(#p1c2ac3f7da)" style="fill: #a97170; fill-opacity: 0.141411"/>
   </g>
   <g id="patch_46">
    <path d="M 269.702599 306.50966 
L 366.319701 268.10829 
L 47.890234 154.109826 
L 396.650105 144.517397 
z
" clip-path="url(#p1c2ac3f7da)" style="fill: #ada7b8; fill-opacity: 0.387203"/>
   </g>
   <g id="patch_47">
    <path d="M 70.241183 225.444173 
L 431.329073 8.4787 
L 431.392115 214.630747 
L 38.429298 104.448613 
z
" clip-path="url(#p1c2ac3f7da)" style="fill: #200000; fill-opacity: 0.361685"/>
   </g>
   <g id="patch_48">
    <path d="M 347.38696 11.245042 
L 159.81457 139.901407 
L 4.822169 266.366711 
z
" clip-path="url(#p1c2ac3f7da)" style="fill: #efd27a; fill-opacity: 0.426275"/>
   </g>
   <g id="patch_49">
    <path d="M 96.122862 183.478288 
L 53.145446 148.002529 
L 264.973266 200.662972 
z
" clip-path="url(#p1c2ac3f7da)" style="fill: #f8ffff"/>
   </g>
   <g id="patch_50">
    <path d="M 235.727062 79.809526 
L 241.471752 319.875453 
L 191.489369 216.390003 
z
" clip-path="url(#p1c2ac3f7da)" style="fill: #542f1d; fill-opacity: 0.664502"/>
   </g>
   <g id="patch_51">
    <path d="M 296.752652 210.594743 
L 51.453275 199.233045 
L 123.225867 280.807248 
L 105.752893 119.484418 
z
" clip-path="url(#p1c2ac3f7da)" style="fill: #837cae; fill-opacity: 0.77055"/>
   </g>
   <g id="patch_52">
    <path d="M 29.091075 81.967349 
L 438.564378 96.846627 
L 328.895267 24.090632 
z
" clip-path="url(#p1c2ac3f7da)" style="fill: #7d2b09; fill-opacity: 0.277213"/>
   </g>
   <g id="patch_53">
    <path d="M 111.882157 150.723012 
L 275.477125 309.504747 
L 57.439438 236.799201 
L 360.170422 239.809422 
z
" clip-path="url(#p1c2ac3f7da)" style="fill: #020f2c; fill-opacity: 0.04724"/>
   </g>
   <g id="patch_54">
    <path d="M 364.818642 108.584162 
L 277.245494 133.199912 
L 284.752147 137.044352 
L 77.225679 218.217219 
z
" clip-path="url(#p1c2ac3f7da)" style="fill: #d2fcf7"/>
   </g>
   <g id="patch_55">
    <path d="M 74.93594 195.220513 
L 342.348222 33.589832 
L 316.836643 126.732867 
L 419.620121 157.195602 
z
" clip-path="url(#p1c2ac3f7da)" style="fill: #fffff6; fill-opacity: 0.197872"/>
   </g>
   <g id="patch_56">
    <path d="M 61.747256 191.275756 
L 82.508787 207.436732 
L 256.715275 159.583715 
L 68.654926 100.575507 
z
" clip-path="url(#p1c2ac3f7da)" style="fill: #d5bdb0; fill-opacity: 0.657848"/>
   </g>
   <g id="patch_57">
    <path d="M 120.160171 261.876695 
L 274.212212 12.289682 
L 364.973825 177.062547 
L 96.880105 215.929512 
z
" clip-path="url(#p1c2ac3f7da)" style="fill: #f2ceb8; fill-opacity: 0.279698"/>
   </g>
   <g id="patch_58">
    <path d="M 286.99603 262.645291 
L 245.98589 132.78392 
L 30.032371 132.683292 
L 289.576089 105.083801 
z
" clip-path="url(#p1c2ac3f7da)" style="fill: #736b66"/>
   </g>
   <g id="patch_59">
    <path d="M 413.134341 231.02903 
L 366.696864 296.752854 
L 336.647183 110.398246 
z
" clip-path="url(#p1c2ac3f7da)" style="fill: #c2cbd1; fill-opacity: 0.285262"/>
   </g>
   <g id="patch_60">
    <path d="M 91.671299 89.673489 
L 152.458227 13.856297 
L 12.955329 103.559852 
z
" clip-path="url(#p1c2ac3f7da)" style="fill: #c5d2a8; fill-opacity: 0.725808"/>
   </g>
   <g id="patch_61">
    <path d="M 133.123781 121.791146 
L 353.068357 325.445686 
L 297.946586 50.465867 
L 249.838447 285.84113 
z
" clip-path="url(#p1c2ac3f7da)" style="fill: #c7adc8; fill-opacity: 0.123157"/>
   </g>
   <g id="patch_62">
    <path d="M 103.90243 142.819538 
L 385.735791 14.855726 
L 337.862454 97.071643 
L 184.183359 105.686171 
L 98.33654 106.843381 
z
" clip-path="url(#p1c2ac3f7da)" style="fill: #601e19; fill-opacity: 0.385283"/>
   </g>
   <g id="patch_63">
    <path d="M 48.696693 171.792504 
L 75.692746 256.20463 
L 22.422662 301.057965 
L 363.401523 258.576277 
z
" clip-path="url(#p1c2ac3f7da)" style="fill: #d0fef5; fill-opacity: 0.193961"/>
   </g>
   <g id="patch_64">
    <path d="M 141.31271 287.519076 
L 421.188234 94.559133 
L 134.956611 82.680108 
L 44.475287 164.762576 
L 279.569534 282.686497 
z
" clip-path="url(#p1c2ac3f7da)" style="fill: #5a451d; fill-opacity: 0.500791"/>
   </g>
   <g id="patch_65">
    <path d="M 244.469938 182.679408 
L 274.687734 24.828708 
L 183.422071 66.087586 
L 33.989526 28.443819 
L 156.386694 317.632797 
z
" clip-path="url(#p1c2ac3f7da)" style="fill: #bb5628; fill-opacity: 0.233981"/>
   </g>
   <g id="patch_66">
    <path d="M 35.825504 178.39508 
L 123.086995 242.136288 
L 18.766912 218.913623 
z
" clip-path="url(#p1c2ac3f7da)" style="fill: #c8cea4"/>
   </g>
   <g id="patch_67">
    <path d="M 54.653385 129.025993 
L 128.993083 149.147571 
L 320.253717 245.638231 
L 301.142195 166.795181 
z
" clip-path="url(#p1c2ac3f7da)" style="fill: #bec2a6; fill-opacity: 0.134422"/>
   </g>
   <g id="patch_68">
    <path d="M 384.548758 4.67591 
L 162.971464 236.435147 
L 275.832188 286.839407 
L 296.740539 36.590563 
z
" clip-path="url(#p1c2ac3f7da)" style="fill: #7f6547; fill-opacity: 0.806207"/>
   </g>
   <g id="patch_69">
    <path d="M 365.620165 62.437291 
L 160.421523 26.414399 
L 165.226116 28.454346 
L 361.903177 40.401613 
z
" clip-path="url(#p1c2ac3f7da)" style="fill: #bdc04d; fill-opacity: 0.374983"/>
   </g>
   <g id="patch_70">
    <path d="M 371.52913 78.110476 
L 412.672453 141.165373 
L 444.041164 259.9068 
z
" clip-path="url(#p1c2ac3f7da)" style="fill: #a79450; fill-opacity: 0.159307"/>
   </g>
   <g id="patch_71">
    <path d="M 190.382246 127.215768 
L 265.841717 69.231719 
L 58.380737 151.965894 
z
" clip-path="url(#p1c2ac3f7da)" style="fill: #8e8728; fill-opacity: 0.037533"/>
   </g>
   <g id="patch_72">
    <path d="M 88.831472 274.084149 
L 48.276706 218.891827 
L 1.894312 277.655373 
L 124.38644 43.300381 
z
" clip-path="url(#p1c2ac3f7da)" style="fill: #d4bfa6; fill-opacity: 0.75286"/>
   </g>
  </g>
 </g>
 <defs>
  <clipPath id="p1c2ac3f7da">
   <rect x="0" y="0" width="452.16" height="329.76"/>
  </clipPath>
 </defs>
</svg>
