<?xml version="1.0" encoding="utf-8" standalone="no"?>
<!DOCTYPE svg PUBLIC "-//W3C//DTD SVG 1.1//EN"
  "http://www.w3.org/Graphics/SVG/1.1/DTD/svg11.dtd">
<svg xmlns:xlink="http://www.w3.org/1999/xlink" width="452.16pt" height="329.76pt" viewBox="0 0 452.16 329.76" xmlns="http://www.w3.org/2000/svg" version="1.1">
 <metadata>
  <rdf:RDF xmlns:dc="http://purl.org/dc/elements/1.1/" xmlns:cc="http://creativecommons.org/ns#" xmlns:rdf="http://www.w3.org/1999/02/22-rdf-syntax-ns#">
   <cc:Work>
    <dc:type rdf:resource="http://purl.org/dc/dcmitype/StillImage"/>
    <dc:date>2022-05-08T16:11:00.577534</dc:date>
    <dc:format>image/svg+xml</dc:format>
    <dc:creator>
     <cc:Agent>
      <dc:title>Matplotlib v3.5.2, https://matplotlib.org/</dc:title>
     </cc:Agent>
    </dc:creator>
   </cc:Work>
  </rdf:RDF>
 </metadata>
 <defs>
  <style type="text/css">*{stroke-linejoin: round; stroke-linecap: butt}</style>
 </defs>
 <g id="figure_1">
  <g id="patch_1">
   <path d="M 0 329.76 
L 452.16 329.76 
L 452.16 0 
L 0 0 
z
" style="fill: #ffffff"/>
  </g>
  <g id="axes_1">
   <g id="patch_2">
    <path d="M 0 329.76 
L 0 0 
L 452.16 0 
L 452.16 329.76 
z
" clip-path="url(#p16ed96727d)" style="fill: #808080"/>
   </g>
   <g id="patch_3">
    <path d="M 314.169443 87.936035 
L 143.835353 188.530939 
L 354.84512 317.955267 
z
" clip-path="url(#p16ed96727d)" style="fill: #e7f8f4"/>
   </g>
   <g id="patch_4">
    <path d="M 279.384204 9.362843 
L 198.491691 312.438432 
L 284.19118 202.282229 
z
" clip-path="url(#p16ed96727d)" style="fill: #64643b; fill-opacity: 0.445615"/>
   </g>
   <g id="patch_5">
    <path d="M 398.84848 64.866089 
L 72.693027 269.758381 
L 254.725041 50.797068 
L 105.550029 327.79511 
L 194.371763 230.290393 
z
" clip-path="url(#p16ed96727d)" style="fill: #145664; fill-opacity: 0.746795"/>
   </g>
   <g id="patch_6">
    <path d="M 198.954996 257.981219 
L 218.165925 203.663429 
L 262.448971 197.520957 
L 402.371885 267.950329 
z
" clip-path="url(#p16ed96727d)" style="fill: #cdd9af; fill-opacity: 0.601403"/>
   </g>
   <g id="patch_7">
    <path d="M 381.814901 271.808193 
L 14.148365 58.118756 
L 203.326719 210.28604 
L 427.332423 59.296623 
z
" clip-path="url(#p16ed96727d)" style="fill: #4d4f39; fill-opacity: 0.740092"/>
   </g>
   <g id="patch_8">
    <path d="M 248.576327 189.089691 
L 242.551388 166.578485 
L 358.158687 52.413291 
L 285.324768 8.414096 
z
" clip-path="url(#p16ed96727d)" style="fill: #3a7a46; fill-opacity: 0.541021"/>
   </g>
   <g id="patch_9">
    <path d="M 81.593404 190.897796 
L 421.588209 53.020842 
L 295.821534 91.401828 
L 232.063633 120.855069 
L 250.8064 15.77738 
z
" clip-path="url(#p16ed96727d)" style="fill: #fad7c1; fill-opacity: 0.688792"/>
   </g>
   <g id="patch_10">
    <path d="M 71.047975 288.441068 
L 343.578803 326.911293 
L 328.798743 310.3798 
L 115.326562 79.15278 
z
" clip-path="url(#p16ed96727d)" style="fill: #e9ffff; fill-opacity: 0.393017"/>
   </g>
   <g id="patch_11">
    <path d="M 225.020482 286.997937 
L 432.396367 248.648863 
L 399.337371 308.022282 
z
" clip-path="url(#p16ed96727d)" style="fill: #c7ccdb; fill-opacity: 0.712547"/>
   </g>
   <g id="patch_12">
    <path d="M 12.783439 293.54844 
L 92.775297 64.452649 
L 263.03223 17.627423 
L 73.561728 140.567053 
z
" clip-path="url(#p16ed96727d)" style="fill: #3d3623; fill-opacity: 0.296915"/>
   </g>
   <g id="patch_13">
    <path d="M 223.790113 63.604078 
L 435.993048 195.098692 
L 349.514406 311.794281 
z
" clip-path="url(#p16ed96727d)" style="fill: #c560a3; fill-opacity: 0.112522"/>
   </g>
   <g id="patch_14">
    <path d="M 302.568967 64.262521 
L 200.843556 87.103485 
L 162.839753 31.644278 
z
" clip-path="url(#p16ed96727d)" style="fill: #effff2; fill-opacity: 0.358584"/>
   </g>
   <g id="patch_15">
    <path d="M 275.204209 34.405071 
L 140.356799 41.316647 
L 98.270516 15.622912 
z
" clip-path="url(#p16ed96727d)" style="fill: #651200; fill-opacity: 0.655748"/>
   </g>
   <g id="patch_16">
    <path d="M 181.365524 60.343881 
L 137.156235 235.957289 
L 218.168269 242.528951 
z
" clip-path="url(#p16ed96727d)" style="fill: #000552; fill-opacity: 0.695989"/>
   </g>
   <g id="patch_17">
    <path d="M 199.039765 234.504212 
L 320.20101 226.157635 
L 104.044904 116.600944 
L 102.399283 47.110287 
z
" clip-path="url(#p16ed96727d)" style="fill: #aac4fd; fill-opacity: 0.747491"/>
   </g>
   <g id="patch_18">
    <path d="M 16.094202 253.143327 
L 76.558899 296.435028 
L 17.814012 315.315579 
z
" clip-path="url(#p16ed96727d)" style="fill: #e1ecff; fill-opacity: 0.732828"/>
   </g>
   <g id="patch_19">
    <path d="M 240.331306 190.823584 
L 310.408981 106.67159 
L 71.827268 119.81878 
L 85.002714 29.838182 
L 37.571924 7.257667 
z
" clip-path="url(#p16ed96727d)" style="fill: #e2dcae; fill-opacity: 0.648109"/>
   </g>
   <g id="patch_20">
    <path d="M 444.483595 176.239091 
L 310.676132 14.924238 
L 199.953313 163.112201 
z
" clip-path="url(#p16ed96727d)" style="fill: #c0adbd; fill-opacity: 0.159879"/>
   </g>
   <g id="patch_21">
    <path d="M 220.300109 267.466939 
L 117.888254 246.353121 
L 262.996929 229.217547 
L 196.463769 68.992435 
L 387.836848 78.315307 
z
" clip-path="url(#p16ed96727d)" style="fill: #001727; fill-opacity: 0.999883"/>
   </g>
   <g id="patch_22">
    <path d="M 210.270585 62.945823 
L 34.837585 109.889909 
L 248.789928 215.921495 
z
" clip-path="url(#p16ed96727d)" style="fill: #a18a8e"/>
   </g>
   <g id="patch_23">
    <path d="M 337.400066 216.831553 
L 104.324206 306.393589 
L 14.450468 61.871246 
L 107.152314 233.436389 
z
" clip-path="url(#p16ed96727d)" style="fill: #d3e6fb; fill-opacity: 0.774558"/>
   </g>
   <g id="patch_24">
    <path d="M 251.723859 55.461357 
L 377.923294 208.012974 
L 278.991577 91.781922 
z
" clip-path="url(#p16ed96727d)" style="fill: #e7ff00; fill-opacity: 0.726588"/>
   </g>
   <g id="patch_25">
    <path d="M 236.176531 221.224272 
L 312.964401 212.807693 
L 193.602822 140.604194 
L 331.564278 15.760221 
z
" clip-path="url(#p16ed96727d)" style="fill: #e0d63f; fill-opacity: 0.984272"/>
   </g>
   <g id="patch_26">
    <path d="M 309.618915 67.370521 
L 390.806114 326.499956 
L 162.213452 203.022583 
z
" clip-path="url(#p16ed96727d)" style="fill: #c5ebe7; fill-opacity: 0.37965"/>
   </g>
   <g id="patch_27">
    <path d="M 441.815776 307.800958 
L 233.352062 71.459553 
L 184.866877 113.535911 
L 48.040929 88.164375 
z
" clip-path="url(#p16ed96727d)" style="fill: #c1dbeb; fill-opacity: 0.713108"/>
   </g>
   <g id="patch_28">
    <path d="M 22.002385 161.684546 
L 29.76516 326.010104 
L 74.294131 273.950944 
z
" clip-path="url(#p16ed96727d)" style="fill: #cbb7ca; fill-opacity: 0.652874"/>
   </g>
   <g id="patch_29">
    <path d="M 256.610358 247.163727 
L 165.035561 25.858465 
L 293.651305 7.678791 
z
" clip-path="url(#p16ed96727d)" style="fill: #e76e4e; fill-opacity: 0.345841"/>
   </g>
   <g id="patch_30">
    <path d="M 382.487356 38.776477 
L 393.102366 77.783269 
L 238.08785 296.12621 
L 434.512482 7.931423 
z
" clip-path="url(#p16ed96727d)" style="fill: #ee8600; fill-opacity: 0.447166"/>
   </g>
   <g id="patch_31">
    <path d="M 443.36964 326.777138 
L 312.618991 196.787916 
L 13.071025 196.9189 
L 259.275156 43.501644 
z
" clip-path="url(#p16ed96727d)" style="fill: #daccca; fill-opacity: 0.674158"/>
   </g>
   <g id="patch_32">
    <path d="M 378.714393 27.717935 
L 382.767975 96.752902 
L 242.286286 247.321598 
z
" clip-path="url(#p16ed96727d)" style="fill: #8d613c; fill-opacity: 0.649701"/>
   </g>
   <g id="patch_33">
    <path d="M 359.612039 308.776661 
L 158.370282 146.335655 
L 55.252026 69.125348 
L 272.876117 260.10098 
L 278.128344 145.577993 
z
" clip-path="url(#p16ed96727d)" style="fill: #6cb1a3; fill-opacity: 0.153421"/>
   </g>
   <g id="patch_34">
    <path d="M 251.000871 289.684482 
L 159.833559 87.595752 
L 88.927783 122.755695 
L 247.390139 110.183016 
L 210.922325 257.555485 
z
" clip-path="url(#p16ed96727d)" style="fill: #b6a4d8; fill-opacity: 0.258724"/>
   </g>
   <g id="patch_35">
    <path d="M 429.936864 233.607284 
L 189.660186 280.70389 
L 253.796685 99.159702 
L 284.036023 259.08067 
z
" clip-path="url(#p16ed96727d)" style="fill: #6d193f; fill-opacity: 0.528479"/>
   </g>
   <g id="patch_36">
    <path d="M 330.720426 66.431529 
L 310.122818 214.23453 
L 425.709378 88.872189 
z
" clip-path="url(#p16ed96727d)" style="fill: #2b3263; fill-opacity: 0.709639"/>
   </g>
   <g id="patch_37">
    <path d="M 268.626658 87.564465 
L 161.863616 317.760367 
L 247.05663 267.970681 
L 111.222796 252.869947 
z
" clip-path="url(#p16ed96727d)" style="fill: #263c19; fill-opacity: 0.477241"/>
   </g>
   <g id="patch_38">
    <path d="M 206.843215 178.311633 
L 169.247513 173.39254 
L 176.942608 304.698021 
L 231.429368 279.622847 
z
" clip-path="url(#p16ed96727d)" style="fill: #a5767f; fill-opacity: 0.05802"/>
   </g>
   <g id="patch_39">
    <path d="M 254.318005 6.298331 
L 142.533296 245.140994 
L 156.01006 214.730422 
z
" clip-path="url(#p16ed96727d)" style="fill: #cc6257; fill-opacity: 0.231679"/>
   </g>
   <g id="patch_40">
    <path d="M 10.652637 261.379723 
L 305.491389 296.531114 
L 164.554015 291.743972 
L 243.158227 246.487015 
z
" clip-path="url(#p16ed96727d)" style="fill: #6d2d17; fill-opacity: 0.086926"/>
   </g>
   <g id="patch_41">
    <path d="M 2.558419 88.659643 
L 329.83078 150.522504 
L 413.133473 216.825786 
L 209.359876 165.65653 
z
" clip-path="url(#p16ed96727d)" style="fill: #1d0500; fill-opacity: 0.571714"/>
   </g>
   <g id="patch_42">
    <path d="M 365.094989 216.35459 
L 198.384443 75.577043 
L 332.235295 83.631282 
L 110.51636 278.433235 
L 369.028074 190.658479 
L 365.094989 216.35459 
z
" clip-path="url(#p16ed96727d)" style="fill: none"/>
   </g>
   <g id="patch_43">
    <path d="M 132.273754 161.83494 
L 349.220698 71.772285 
L 183.945272 135.635398 
L 121.119615 235.387399 
z
" clip-path="url(#p16ed96727d)" style="fill: #000a2b; fill-opacity: 0.449291"/>
   </g>
   <g id="patch_44">
    <path d="M 146.365449 261.971838 
L 99.748857 129.254477 
L 172.67011 149.916106 
L 46.476574 167.954827 
L 366.313618 284.677157 
z
" clip-path="url(#p16ed96727d)" style="fill: #2d2f5e; fill-opacity: 0.409362"/>
   </g>
   <g id="patch_45">
    <path d="M 170.311027 236.516566 
L 180.816016 177.141163 
L 146.180753 313.69545 
z
" clip-path="url(#p16ed96727d)" style="fill: #4b5143; fill-opacity: 0.515741"/>
   </g>
   <g id="patch_46">
    <path d="M 142.309044 185.170393 
L 200.505777 252.692514 
L 437.964013 307.853899 
z
" clip-path="url(#p16ed96727d)" style="fill: #92abd8; fill-opacity: 0.606636"/>
   </g>
   <g id="patch_47">
    <path d="M 396.442889 253.865091 
L 437.660269 283.300764 
L 409.970309 254.418808 
L 371.288711 185.360581 
z
" clip-path="url(#p16ed96727d)" style="fill: #c4c4fd; fill-opacity: 0.552117"/>
   </g>
   <g id="patch_48">
    <path d="M 14.749076 39.564828 
L 3.190471 323.051041 
L 103.467222 0.998866 
L 289.242349 48.375298 
z
" clip-path="url(#p16ed96727d)" style="fill: #decd9c; fill-opacity: 0.58944"/>
   </g>
   <g id="patch_49">
    <path d="M 365.183211 315.694906 
L 153.568543 309.764204 
L 140.623754 111.869117 
z
" clip-path="url(#p16ed96727d)" style="fill: #35182e; fill-opacity: 0.287156"/>
   </g>
   <g id="patch_50">
    <path d="M 145.514848 175.759854 
L 77.164631 91.355089 
L 38.532442 144.407985 
L 234.306511 168.139121 
z
" clip-path="url(#p16ed96727d)" style="fill: #e3f9b4; fill-opacity: 0.708659"/>
   </g>
   <g id="patch_51">
    <path d="M 112.114568 6.584164 
L 3.487459 324.948296 
L 75.327055 275.619076 
z
" clip-path="url(#p16ed96727d)" style="fill: #cddae7; fill-opacity: 0.805544"/>
   </g>
   <g id="patch_52">
    <path d="M 97.57894 78.47262 
L 297.414935 297.70696 
L 449.318812 128.695958 
L 97.57894 78.47262 
z
" clip-path="url(#p16ed96727d)" style="fill: none"/>
   </g>
   <g id="patch_53">
    <path d="M 117.421763 127.476847 
L 130.117093 243.710683 
L 407.038319 213.494449 
z
" clip-path="url(#p16ed96727d)" style="fill: #d3a787; fill-opacity: 0.053803"/>
   </g>
   <g id="patch_54">
    <path d="M 180.144324 180.740423 
L 396.790616 323.825656 
L 144.444399 12.785827 
L 93.287293 182.815922 
z
" clip-path="url(#p16ed96727d)" style="fill: #95583d; fill-opacity: 0.270432"/>
   </g>
   <g id="patch_55">
    <path d="M 269.702599 306.50966 
L 366.319701 268.10829 
L 47.890234 154.109826 
L 396.650105 144.517397 
z
" clip-path="url(#p16ed96727d)" style="fill: #a1b8bd; fill-opacity: 0.361054"/>
   </g>
   <g id="patch_56">
    <path d="M 70.241183 225.444173 
L 431.329073 8.4787 
L 431.392115 214.630747 
L 38.429298 104.448613 
z
" clip-path="url(#p16ed96727d)" style="fill: #240000; fill-opacity: 0.351465"/>
   </g>
   <g id="patch_57">
    <path d="M 347.38696 11.245042 
L 159.81457 139.901407 
L 4.822169 266.366711 
z
" clip-path="url(#p16ed96727d)" style="fill: #e7b072; fill-opacity: 0.249624"/>
   </g>
   <g id="patch_58">
    <path d="M 96.122862 183.478288 
L 53.145446 148.002529 
L 264.973266 200.662972 
z
" clip-path="url(#p16ed96727d)" style="fill: #eff7ce; fill-opacity: 0.977284"/>
   </g>
   <g id="patch_59">
    <path d="M 235.727062 79.809526 
L 241.471752 319.875453 
L 191.489369 216.390003 
z
" clip-path="url(#p16ed96727d)" style="fill: #6d391f; fill-opacity: 0.752253"/>
   </g>
   <g id="patch_60">
    <path d="M 296.752652 210.594743 
L 51.453275 199.233045 
L 123.225867 280.807248 
L 105.752893 119.484418 
z
" clip-path="url(#p16ed96727d)" style="fill: #9476aa; fill-opacity: 0.631789"/>
   </g>
   <g id="patch_61">
    <path d="M 29.091075 81.967349 
L 438.564378 96.846627 
L 328.895267 24.090632 
z
" clip-path="url(#p16ed96727d)" style="fill: #8a2900; fill-opacity: 0.255458"/>
   </g>
   <g id="patch_62">
    <path d="M 275.477125 309.504747 
L 57.439438 236.799201 
L 360.170422 239.809422 
z
" clip-path="url(#p16ed96727d)" style="fill: #000021; fill-opacity: 0.130507"/>
   </g>
   <g id="patch_63">
    <path d="M 364.818642 108.584162 
L 277.245494 133.199912 
L 284.752147 137.044352 
L 77.225679 218.217219 
z
" clip-path="url(#p16ed96727d)" style="fill: #bcf5da; fill-opacity: 0.900615"/>
   </g>
   <g id="patch_64">
    <path d="M 74.93594 195.220513 
L 342.348222 33.589832 
L 316.836643 126.732867 
L 419.620121 157.195602 
z
" clip-path="url(#p16ed96727d)" style="fill: #ecfff9; fill-opacity: 0.206078"/>
   </g>
   <g id="patch_65">
    <path d="M 432.849891 268.207293 
L 450.064772 195.766974 
L 412.121407 291.187659 
L 287.850726 43.027013 
z
" clip-path="url(#p16ed96727d)" style="fill: #cbf6f5; fill-opacity: 0.102659"/>
   </g>
   <g id="patch_66">
    <path d="M 61.747256 191.275756 
L 82.508787 207.436732 
L 256.715275 159.583715 
L 68.654926 100.575507 
z
" clip-path="url(#p16ed96727d)" style="fill: #d5bdb0; fill-opacity: 0.657848"/>
   </g>
   <g id="patch_67">
    <path d="M 120.160171 261.876695 
L 274.212212 12.289682 
L 364.973825 177.062547 
L 96.880105 215.929512 
z
" clip-path="url(#p16ed96727d)" style="fill: #f2b6cb; fill-opacity: 0.226427"/>
   </g>
   <g id="patch_68">
    <path d="M 286.99603 262.645291 
L 245.98589 132.78392 
L 30.032371 132.683292 
L 289.576089 105.083801 
z
" clip-path="url(#p16ed96727d)" style="fill: #685561; fill-opacity: 0.901555"/>
   </g>
   <g id="patch_69">
    <path d="M 174.574158 261.489943 
L 273.169589 133.643794 
L 108.400314 162.282252 
z
" clip-path="url(#p16ed96727d)" style="fill: #a06635; fill-opacity: 0.139786"/>
   </g>
   <g id="patch_70">
    <path d="M 413.134341 231.02903 
L 366.696864 296.752854 
L 336.647183 110.398246 
z
" clip-path="url(#p16ed96727d)" style="fill: #d4e7f3; fill-opacity: 0.294085"/>
   </g>
   <g id="patch_71">
    <path d="M 91.671299 89.673489 
L 152.458227 13.856297 
L 12.955329 103.559852 
z
" clip-path="url(#p16ed96727d)" style="fill: #c5d2a8; fill-opacity: 0.725808"/>
   </g>
   <g id="patch_72">
    <path d="M 133.123781 121.791146 
L 353.068357 325.445686 
L 297.946586 50.465867 
L 249.838447 285.84113 
z
" clip-path="url(#p16ed96727d)" style="fill: #d2c3e0; fill-opacity: 0.269983"/>
   </g>
   <g id="patch_73">
    <path d="M 103.90243 142.819538 
L 385.735791 14.855726 
L 337.862454 97.071643 
L 184.183359 105.686171 
L 98.33654 106.843381 
z
" clip-path="url(#p16ed96727d)" style="fill: #430400; fill-opacity: 0.298225"/>
   </g>
   <g id="patch_74">
    <path d="M 48.696693 171.792504 
L 75.692746 256.20463 
L 22.422662 301.057965 
L 363.401523 258.576277 
z
" clip-path="url(#p16ed96727d)" style="fill: #d7f2ff; fill-opacity: 0.07588"/>
   </g>
   <g id="patch_75">
    <path d="M 141.31271 287.519076 
L 421.188234 94.559133 
L 134.956611 82.680108 
L 44.475287 164.762576 
L 279.569534 282.686497 
z
" clip-path="url(#p16ed96727d)" style="fill: #503e1a; fill-opacity: 0.400224"/>
   </g>
   <g id="patch_76">
    <path d="M 244.469938 182.679408 
L 274.687734 24.828708 
L 183.422071 66.087586 
L 33.989526 28.443819 
L 156.386694 317.632797 
z
" clip-path="url(#p16ed96727d)" style="fill: #ae5500; fill-opacity: 0.158746"/>
   </g>
   <g id="patch_77">
    <path d="M 35.825504 178.39508 
L 123.086995 242.136288 
L 18.766912 218.913623 
z
" clip-path="url(#p16ed96727d)" style="fill: #c8c0a6; fill-opacity: 0.997021"/>
   </g>
   <g id="patch_78">
    <path d="M 54.653385 129.025993 
L 128.993083 149.147571 
L 320.253717 245.638231 
L 301.142195 166.795181 
z
" clip-path="url(#p16ed96727d)" style="fill: #e1c18a; fill-opacity: 0.027045"/>
   </g>
   <g id="patch_79">
    <path d="M 384.548758 4.67591 
L 162.971464 236.435147 
L 275.832188 286.839407 
L 296.740539 36.590563 
z
" clip-path="url(#p16ed96727d)" style="fill: #7f6547; fill-opacity: 0.806207"/>
   </g>
   <g id="patch_80">
    <path d="M 365.620165 62.437291 
L 160.421523 26.414399 
L 165.226116 28.454346 
L 361.903177 40.401613 
z
" clip-path="url(#p16ed96727d)" style="fill: #b7b23c; fill-opacity: 0.400355"/>
   </g>
   <g id="patch_81">
    <path d="M 371.52913 78.110476 
L 412.672453 141.165373 
L 444.041164 259.9068 
z
" clip-path="url(#p16ed96727d)" style="fill: #98a06b; fill-opacity: 0.250339"/>
   </g>
   <g id="patch_82">
    <path d="M 88.831472 274.084149 
L 48.276706 218.891827 
L 1.894312 277.655373 
L 124.38644 43.300381 
z
" clip-path="url(#p16ed96727d)" style="fill: #d8daaf; fill-opacity: 0.568834"/>
   </g>
  </g>
 </g>
 <defs>
  <clipPath id="p16ed96727d">
   <rect x="0" y="0" width="452.16" height="329.76"/>
  </clipPath>
 </defs>
</svg>
