<?xml version="1.0" encoding="utf-8" standalone="no"?>
<!DOCTYPE svg PUBLIC "-//W3C//DTD SVG 1.1//EN"
  "http://www.w3.org/Graphics/SVG/1.1/DTD/svg11.dtd">
<svg xmlns:xlink="http://www.w3.org/1999/xlink" width="452.16pt" height="329.76pt" viewBox="0 0 452.16 329.76" xmlns="http://www.w3.org/2000/svg" version="1.1">
 <metadata>
  <rdf:RDF xmlns:dc="http://purl.org/dc/elements/1.1/" xmlns:cc="http://creativecommons.org/ns#" xmlns:rdf="http://www.w3.org/1999/02/22-rdf-syntax-ns#">
   <cc:Work>
    <dc:type rdf:resource="http://purl.org/dc/dcmitype/StillImage"/>
    <dc:date>2022-05-09T07:44:40.772209</dc:date>
    <dc:format>image/svg+xml</dc:format>
    <dc:creator>
     <cc:Agent>
      <dc:title>Matplotlib v3.5.2, https://matplotlib.org/</dc:title>
     </cc:Agent>
    </dc:creator>
   </cc:Work>
  </rdf:RDF>
 </metadata>
 <defs>
  <style type="text/css">*{stroke-linejoin: round; stroke-linecap: butt}</style>
 </defs>
 <g id="figure_1">
  <g id="patch_1">
   <path d="M 0 329.76 
L 452.16 329.76 
L 452.16 0 
L 0 0 
z
" style="fill: #ffffff"/>
  </g>
  <g id="axes_1">
   <g id="patch_2">
    <path d="M 0 329.76 
L 0 0 
L 452.16 0 
L 452.16 329.76 
z
" clip-path="url(#p0e41ad6c2c)" style="fill: #808080"/>
   </g>
   <g id="patch_3">
    <path d="M 91.249543 131.974562 
L 237.623672 168.708161 
L 304.399146 3.006649 
L 352.533271 37.025317 
z
" clip-path="url(#p0e41ad6c2c)" style="fill: #ffff10"/>
   </g>
   <g id="patch_4">
    <path d="M 132.578014 253.493163 
L 380.149823 264.495555 
L 177.539567 177.306929 
L 337.316706 130.418544 
z
" clip-path="url(#p0e41ad6c2c)" style="fill: #000080"/>
   </g>
   <g id="patch_5">
    <path d="M 427.057417 231.234223 
L 273.10332 4.505389 
L 365.299767 201.173624 
L 420.055392 89.159904 
z
" clip-path="url(#p0e41ad6c2c)" style="fill: #d5c9cc; fill-opacity: 0.533259"/>
   </g>
   <g id="patch_6">
    <path d="M 347.482123 200.492761 
L 272.316874 231.031236 
L 50.401912 217.270488 
L 430.89826 245.583605 
z
" clip-path="url(#p0e41ad6c2c)" style="fill: #d7d5fd; fill-opacity: 0.995597"/>
   </g>
   <g id="patch_7">
    <path d="M 314.169443 87.936035 
L 130.448411 98.758183 
L 143.835353 188.530939 
L 42.939598 262.367527 
L 354.84512 317.955267 
z
" clip-path="url(#p0e41ad6c2c)" style="fill: #cbccf9"/>
   </g>
   <g id="patch_8">
    <path d="M 152.852559 13.032689 
L 367.124974 147.957178 
L 53.405269 164.997348 
L 328.513428 22.05844 
z
" clip-path="url(#p0e41ad6c2c)" style="fill: #ffaf16; fill-opacity: 0.311071"/>
   </g>
   <g id="patch_9">
    <path d="M 63.928086 247.864225 
L 265.310477 20.818836 
L 88.254155 219.066569 
z
" clip-path="url(#p0e41ad6c2c)" style="fill: #e9effe"/>
   </g>
   <g id="patch_10">
    <path d="M 3.945466 4.191128 
L 266.475858 161.273781 
L 17.580876 106.675383 
z
" clip-path="url(#p0e41ad6c2c)" style="fill: #efebba; fill-opacity: 0.588652"/>
   </g>
   <g id="patch_11">
    <path d="M 32.777487 246.391044 
L 23.143594 273.472227 
L 231.076699 179.502499 
L 335.785223 204.062216 
L 439.219985 55.700836 
z
" clip-path="url(#p0e41ad6c2c)" style="fill: #130d06; fill-opacity: 0.515457"/>
   </g>
   <g id="patch_12">
    <path d="M 355.041046 254.308754 
L 66.667352 267.991256 
L 7.400266 146.30354 
z
" clip-path="url(#p0e41ad6c2c)" style="fill: #e2ffbe; fill-opacity: 0.853917"/>
   </g>
   <g id="patch_13">
    <path d="M 126.782855 7.065294 
L 180.193053 123.388154 
L 47.112169 293.298971 
L 447.789672 170.692695 
z
" clip-path="url(#p0e41ad6c2c)" style="fill: #aa8127; fill-opacity: 0.177134"/>
   </g>
   <g id="patch_14">
    <path d="M 238.033619 224.496961 
L 342.861004 198.518981 
L 318.812283 62.595658 
L 288.218164 3.566717 
L 208.186437 43.642159 
z
" clip-path="url(#p0e41ad6c2c)" style="fill: #27b9ca"/>
   </g>
   <g id="patch_15">
    <path d="M 445.51481 96.089122 
L 275.215352 328.055568 
L 312.747796 168.777307 
L 270.025581 170.082626 
z
" clip-path="url(#p0e41ad6c2c)" style="fill: #d9ecef; fill-opacity: 0.397664"/>
   </g>
   <g id="patch_16">
    <path d="M 23.174289 206.664339 
L 337.963391 44.12113 
L 440.46109 259.710243 
L 284.692101 49.627406 
z
" clip-path="url(#p0e41ad6c2c)" style="fill: #530800; fill-opacity: 0.773528"/>
   </g>
   <g id="patch_17">
    <path d="M 8.146722 282.571775 
L 2.500546 309.124058 
L 143.384684 169.733795 
L 329.809864 321.095774 
L 111.12299 76.402446 
z
" clip-path="url(#p0e41ad6c2c)" style="fill: #b0daff"/>
   </g>
   <g id="patch_18">
    <path d="M 169.287105 41.035964 
L 0.180801 162.459313 
L 72.836688 307.837841 
L 30.364672 218.692839 
z
" clip-path="url(#p0e41ad6c2c)" style="fill: #fffca7; fill-opacity: 0.707391"/>
   </g>
   <g id="patch_19">
    <path d="M 356.612188 259.583014 
L 279.384204 9.362843 
L 198.491691 312.438432 
L 284.19118 202.282229 
z
" clip-path="url(#p0e41ad6c2c)" style="fill: #002763"/>
   </g>
   <g id="patch_20">
    <path d="M 3.954733 272.515912 
L 116.661981 125.621954 
L 373.62344 193.105546 
L 3.058991 147.936442 
z
" clip-path="url(#p0e41ad6c2c)" style="fill: #cae3c1; fill-opacity: 0.414812"/>
   </g>
   <g id="patch_21">
    <path d="M 186.648742 62.013891 
L 22.734299 16.87361 
L 325.126867 238.427483 
z
" clip-path="url(#p0e41ad6c2c)" style="fill: #305500; fill-opacity: 0.345361"/>
   </g>
   <g id="patch_22">
    <path d="M 218.543387 229.786314 
L 78.474478 32.215685 
L 102.718771 279.470254 
L 277.219296 66.198587 
z
" clip-path="url(#p0e41ad6c2c)" style="fill: #fdffcc; fill-opacity: 0.876336"/>
   </g>
   <g id="patch_23">
    <path d="M 181.85076 211.201775 
L 109.691191 215.978846 
L 304.619503 325.47416 
L 28.243908 3.866427 
L 75.139734 285.196976 
z
" clip-path="url(#p0e41ad6c2c)" style="fill: #cbc6a4; fill-opacity: 0.915973"/>
   </g>
   <g id="patch_24">
    <path d="M 362.013607 122.567171 
L 95.039267 114.303247 
L 297.159807 35.346273 
L 47.110433 49.852787 
z
" clip-path="url(#p0e41ad6c2c)" style="fill: #6287a4; fill-opacity: 0.879941"/>
   </g>
   <g id="patch_25">
    <path d="M 151.723425 22.991222 
L 421.590188 122.044329 
L 352.857632 161.264308 
L 245.84815 44.499857 
L 399.997465 81.597378 
z
" clip-path="url(#p0e41ad6c2c)" style="fill: #0e000c; fill-opacity: 0.831283"/>
   </g>
   <g id="patch_26">
    <path d="M 198.937648 19.043177 
L 4.597194 120.818371 
L 325.576116 238.319279 
L 316.328078 213.175432 
L 266.726798 190.094851 
z
" clip-path="url(#p0e41ad6c2c)" style="fill: #0b000e"/>
   </g>
   <g id="patch_27">
    <path d="M 61.197362 177.320009 
L 89.600061 63.033993 
L 110.896998 52.882689 
L 344.517658 308.736643 
L 2.011919 206.216288 
z
" clip-path="url(#p0e41ad6c2c)" style="fill: #f3ee9d; fill-opacity: 0.723785"/>
   </g>
   <g id="patch_28">
    <path d="M 114.866569 39.675516 
L 414.491689 118.989473 
L 247.530246 207.551394 
L 161.16005 135.255686 
L 188.90241 21.674764 
z
" clip-path="url(#p0e41ad6c2c)" style="fill: #271413; fill-opacity: 0.745214"/>
   </g>
   <g id="patch_29">
    <path d="M 284.650841 263.523754 
L 145.001681 160.395247 
L 385.153965 3.257964 
z
" clip-path="url(#p0e41ad6c2c)" style="fill: #ee0b2c; fill-opacity: 0.683032"/>
   </g>
   <g id="patch_30">
    <path d="M 398.84848 64.866089 
L 72.693027 269.758381 
L 254.725041 50.797068 
L 105.550029 327.79511 
z
" clip-path="url(#p0e41ad6c2c)"/>
   </g>
   <g id="patch_31">
    <path d="M 274.648957 28.721318 
L 192.562815 43.084923 
L 345.456439 191.964089 
z
" clip-path="url(#p0e41ad6c2c)" style="fill: #e4d5af; fill-opacity: 0.795876"/>
   </g>
   <g id="patch_32">
    <path d="M 111.839764 305.742943 
L 19.865245 80.264621 
L 427.74473 291.022438 
L 156.203881 261.804522 
L 447.372119 19.741026 
z
" clip-path="url(#p0e41ad6c2c)" style="fill: #506b00; fill-opacity: 0.216292"/>
   </g>
   <g id="patch_33">
    <path d="M 40.850077 119.976261 
L 424.740814 111.681529 
L 356.768886 75.076506 
L 419.693377 13.881145 
L 173.905589 5.870786 
z
" clip-path="url(#p0e41ad6c2c)" style="fill: #ff6900; fill-opacity: 0.127506"/>
   </g>
   <g id="patch_34">
    <path d="M 276.906041 168.043549 
L 103.389025 313.805375 
L 45.56548 273.269286 
L 418.279788 145.727772 
z
" clip-path="url(#p0e41ad6c2c)" style="fill: #ab6c97; fill-opacity: 0.986381"/>
   </g>
   <g id="patch_35">
    <path d="M 296.600455 89.517715 
L 247.671707 156.680307 
L 297.651619 131.113503 
z
" clip-path="url(#p0e41ad6c2c)" style="fill: #bebcbb; fill-opacity: 0.780972"/>
   </g>
   <g id="patch_36">
    <path d="M 349.904921 158.148257 
L 63.10223 253.85141 
L 123.298007 4.279982 
z
" clip-path="url(#p0e41ad6c2c)" style="fill: #d4c0a5"/>
   </g>
   <g id="patch_37">
    <path d="M 308.107741 272.688651 
L 367.013975 140.864487 
L 234.068617 141.396153 
L 141.559556 46.360679 
L 25.716887 212.539749 
z
" clip-path="url(#p0e41ad6c2c)" style="fill: #f7ec0b"/>
   </g>
   <g id="patch_38">
    <path d="M 131.354383 181.013991 
L 401.375913 268.790122 
L 31.724971 2.886338 
z
" clip-path="url(#p0e41ad6c2c)" style="fill: #99a2a0; fill-opacity: 0.672479"/>
   </g>
   <g id="patch_39">
    <path d="M 209.710374 309.192032 
L 180.400468 133.704972 
L 165.232842 284.618414 
L 350.509246 141.983769 
z
" clip-path="url(#p0e41ad6c2c)" style="fill: #697887; fill-opacity: 0.437464"/>
   </g>
   <g id="patch_40">
    <path d="M 444.306245 111.750543 
L 441.225111 174.053235 
L 424.774459 68.071944 
L 173.682871 5.847879 
L 439.968166 30.565057 
z
" clip-path="url(#p0e41ad6c2c)" style="fill: #ff9e0f; fill-opacity: 0.372569"/>
   </g>
   <g id="patch_41">
    <path d="M 451.557627 118.034812 
L 71.224348 179.648982 
L 260.230792 291.086728 
L 268.12414 24.13223 
z
" clip-path="url(#p0e41ad6c2c)" style="fill: #574b34; fill-opacity: 0.970696"/>
   </g>
   <g id="patch_42">
    <path d="M 316.201888 207.402221 
L 164.275758 23.933576 
L 125.087079 66.128898 
L 413.678654 166.482957 
z
" clip-path="url(#p0e41ad6c2c)" style="fill: #000100; fill-opacity: 0.913051"/>
   </g>
   <g id="patch_43">
    <path d="M 89.497135 311.648684 
L 149.781091 292.728515 
L 365.483188 137.600543 
L 203.220954 320.340445 
z
" clip-path="url(#p0e41ad6c2c)" style="fill: #00070d; fill-opacity: 0.220064"/>
   </g>
   <g id="patch_44">
    <path d="M 346.577677 163.52047 
L 27.518147 212.916958 
L 117.645926 49.020247 
L 264.936694 188.657683 
L 359.661682 160.139531 
z
" clip-path="url(#p0e41ad6c2c)" style="fill: #df3b6f; fill-opacity: 0.384915"/>
   </g>
   <g id="patch_45">
    <path d="M 34.032012 217.180667 
L 72.897337 15.131734 
L 412.638688 159.748112 
L 0.958637 188.16743 
z
" clip-path="url(#p0e41ad6c2c)" style="fill: #c5d1a1; fill-opacity: 0.669869"/>
   </g>
   <g id="patch_46">
    <path d="M 173.925453 42.22298 
L 137.489625 49.339196 
L 126.774101 57.067726 
L 383.576322 207.557022 
L 199.579229 317.919026 
z
" clip-path="url(#p0e41ad6c2c)" style="fill: #dfffdc"/>
   </g>
   <g id="patch_47">
    <path d="M 105.117758 206.425865 
L 300.94815 121.745043 
L 410.029496 136.365079 
L 67.30266 261.662627 
L 161.151685 194.692958 
z
" clip-path="url(#p0e41ad6c2c)" style="fill: #ffffff; fill-opacity: 0.65484"/>
   </g>
   <g id="patch_48">
    <path d="M 316.596059 191.364168 
L 426.76233 137.613726 
L 293.637132 281.334744 
L 276.317916 8.626114 
z
" clip-path="url(#p0e41ad6c2c)" style="fill: #62707f; fill-opacity: 0.099775"/>
   </g>
   <g id="patch_49">
    <path d="M 182.82918 129.381612 
L 417.658905 292.170911 
L 91.469601 105.59482 
L 292.388082 261.707605 
L 333.379735 270.497844 
z
" clip-path="url(#p0e41ad6c2c)" style="fill: #a68a36; fill-opacity: 0.823084"/>
   </g>
   <g id="patch_50">
    <path d="M 154.80889 130.870854 
L 251.244578 126.681398 
L 1.954129 35.934137 
L 389.549769 98.879149 
z
" clip-path="url(#p0e41ad6c2c)" style="fill: #d8ffef"/>
   </g>
   <g id="patch_51">
    <path d="M 346.320387 70.665068 
L 110.984609 311.404515 
L 17.258263 74.820061 
z
" clip-path="url(#p0e41ad6c2c)" style="fill: #c8f4ff"/>
   </g>
   <g id="patch_52">
    <path d="M 271.949687 210.207393 
L 226.815607 283.733334 
L 367.572826 114.98122 
L 399.911325 47.527692 
z
" clip-path="url(#p0e41ad6c2c)" style="fill: #d3ffd8; fill-opacity: 0.566766"/>
   </g>
   <g id="patch_53">
    <path d="M 269.086398 288.485823 
L 224.403431 141.767501 
L 310.812889 197.504953 
L 111.904311 196.090577 
L 269.086398 288.485823 
z
" clip-path="url(#p0e41ad6c2c)" style="fill: none"/>
   </g>
   <g id="patch_54">
    <path d="M 357.822923 228.978832 
L 17.266776 168.27347 
L 405.359444 28.820658 
z
" clip-path="url(#p0e41ad6c2c)" style="fill: #a01f28; fill-opacity: 0.706688"/>
   </g>
   <g id="patch_55">
    <path d="M 52.843855 235.93024 
L 182.688312 169.271336 
L 61.969424 309.536995 
L 422.340905 167.56108 
L 266.15331 21.558812 
z
" clip-path="url(#p0e41ad6c2c)" style="fill: #3d1837; fill-opacity: 0.648965"/>
   </g>
   <g id="patch_56">
    <path d="M 20.12688 283.471432 
L 360.735743 121.875248 
L 406.857774 202.623274 
z
" clip-path="url(#p0e41ad6c2c)" style="fill: #26141c; fill-opacity: 0.090919"/>
   </g>
   <g id="patch_57">
    <path d="M 223.28147 255.968985 
L 399.801434 133.039743 
L 99.290011 11.31382 
L 341.554265 46.113547 
z
" clip-path="url(#p0e41ad6c2c)" style="fill: #1e0000; fill-opacity: 0.959"/>
   </g>
   <g id="patch_58">
    <path d="M 277.238318 275.673723 
L 216.523368 221.271277 
L 75.495304 245.232954 
L 229.842336 141.779866 
L 414.779352 109.867436 
z
" clip-path="url(#p0e41ad6c2c)" style="fill: #19082b; fill-opacity: 0.511842"/>
   </g>
   <g id="patch_59">
    <path d="M 182.914409 3.345648 
L 381.010189 4.517715 
L 111.390481 47.621246 
L 152.431835 113.410412 
z
" clip-path="url(#p0e41ad6c2c)" style="fill: #730600; fill-opacity: 0.20441"/>
   </g>
   <g id="patch_60">
    <path d="M 116.642993 170.17188 
L 108.280696 197.875707 
L 334.282579 45.966234 
z
" clip-path="url(#p0e41ad6c2c)" style="fill: #b0fa92; fill-opacity: 0.94215"/>
   </g>
   <g id="patch_61">
    <path d="M 83.104135 193.92142 
L 35.008336 72.11423 
L 274.133981 225.532585 
L 272.287701 8.839251 
z
" clip-path="url(#p0e41ad6c2c)" style="fill: #d7ffff"/>
   </g>
   <g id="patch_62">
    <path d="M 43.190763 326.957328 
L 113.683347 105.068278 
L 162.637689 158.411365 
L 246.29158 61.023649 
L 340.136446 251.193933 
z
" clip-path="url(#p0e41ad6c2c)" style="fill: #ffffff; fill-opacity: 0.370273"/>
   </g>
   <g id="patch_63">
    <path d="M 345.424936 94.075433 
L 368.329457 114.073518 
L 438.330092 25.062823 
L 116.120769 47.118986 
z
" clip-path="url(#p0e41ad6c2c)" style="fill: #3e2e39; fill-opacity: 0.590956"/>
   </g>
   <g id="patch_64">
    <path d="M 8.144917 198.833076 
L 434.649195 188.640797 
L 93.35029 280.823396 
L 375.936094 182.963849 
z
" clip-path="url(#p0e41ad6c2c)" style="fill: #e1e0c3; fill-opacity: 0.728914"/>
   </g>
   <g id="patch_65">
    <path d="M 141.853504 304.791494 
L 92.619089 308.838074 
L 163.052741 239.150983 
L 417.286749 290.357012 
z
" clip-path="url(#p0e41ad6c2c)" style="fill: #000002; fill-opacity: 0.487098"/>
   </g>
   <g id="patch_66">
    <path d="M 231.855667 269.052453 
L 81.882939 103.541887 
L 173.325324 148.806623 
L 257.86544 162.481018 
L 379.318232 22.29606 
z
" clip-path="url(#p0e41ad6c2c)" style="fill: #000001"/>
   </g>
   <g id="patch_67">
    <path d="M 372.024906 98.621584 
L 293.456002 8.676587 
L 112.790273 305.716769 
z
" clip-path="url(#p0e41ad6c2c)" style="fill: #003177; fill-opacity: 0.579783"/>
   </g>
   <g id="patch_68">
    <path d="M 436.759408 126.039043 
L 70.716577 318.120743 
L 139.255473 288.743105 
z
" clip-path="url(#p0e41ad6c2c)" style="fill: #cfcaff; fill-opacity: 0.995436"/>
   </g>
   <g id="patch_69">
    <path d="M 437.772496 279.156692 
L 303.344757 51.557142 
L 32.180592 60.042272 
L 123.594348 10.172853 
L 428.329572 306.078659 
z
" clip-path="url(#p0e41ad6c2c)" style="fill: #daefff; fill-opacity: 0.570815"/>
   </g>
   <g id="patch_70">
    <path d="M 202.905339 189.481752 
L 93.421503 306.486077 
L 69.729613 87.705101 
L 305.717881 181.480373 
z
" clip-path="url(#p0e41ad6c2c)" style="fill: #c1e1e4; fill-opacity: 0.990996"/>
   </g>
   <g id="patch_71">
    <path d="M 85.891905 4.947067 
L 82.324818 237.691856 
L 332.275492 287.000414 
z
" clip-path="url(#p0e41ad6c2c)" style="fill: #d5bc8a; fill-opacity: 0.752428"/>
   </g>
   <g id="patch_72">
    <path d="M 96.032036 101.94898 
L 179.295941 84.895979 
L 330.203405 195.549343 
z
" clip-path="url(#p0e41ad6c2c)" style="fill: #4cc726; fill-opacity: 0.545272"/>
   </g>
   <g id="patch_73">
    <path d="M 11.772572 24.228333 
L 120.013511 298.954684 
L 46.709683 267.979223 
L 349.448091 87.200592 
L 203.87082 48.718249 
z
" clip-path="url(#p0e41ad6c2c)" style="fill: #929474; fill-opacity: 0.624379"/>
   </g>
   <g id="patch_74">
    <path d="M 402.515682 116.675942 
L 58.176303 85.419701 
L 129.567596 202.544726 
z
" clip-path="url(#p0e41ad6c2c)" style="fill: #f3ffde; fill-opacity: 0.730889"/>
   </g>
   <g id="patch_75">
    <path d="M 252.601185 3.603504 
L 148.696946 137.295489 
L 174.828777 162.781116 
L 409.401624 199.093404 
z
" clip-path="url(#p0e41ad6c2c)" style="fill: #4c3e30; fill-opacity: 0.648262"/>
   </g>
   <g id="patch_76">
    <path d="M 192.788233 193.880974 
L 270.510431 189.664067 
L 99.261506 222.146209 
L 408.115557 110.118341 
z
" clip-path="url(#p0e41ad6c2c)" style="fill: #a90000; fill-opacity: 0.494682"/>
   </g>
   <g id="patch_77">
    <path d="M 348.405417 329.08367 
L 98.595025 280.306621 
L 265.601861 51.955682 
L 9.353514 271.724015 
L 340.639697 193.252903 
z
" clip-path="url(#p0e41ad6c2c)" style="fill: #cfc9db; fill-opacity: 0.87413"/>
   </g>
   <g id="patch_78">
    <path d="M 107.43649 17.858342 
L 371.281371 118.719005 
L 197.768337 129.094089 
z
" clip-path="url(#p0e41ad6c2c)" style="fill: #030800; fill-opacity: 0.637866"/>
   </g>
   <g id="patch_79">
    <path d="M 381.814901 271.808193 
L 14.148365 58.118756 
L 203.326719 210.28604 
L 307.473342 100.276814 
L 427.332423 59.296623 
z
" clip-path="url(#p0e41ad6c2c)" style="fill: #020c00; fill-opacity: 0.186124"/>
   </g>
   <g id="patch_80">
    <path d="M 286.614721 84.524538 
L 365.403509 97.643666 
L 151.509664 184.481382 
L 278.664974 147.349651 
L 243.155323 184.974949 
z
" clip-path="url(#p0e41ad6c2c)" style="fill: #284d4d; fill-opacity: 0.657798"/>
   </g>
   <g id="patch_81">
    <path d="M 234.841045 21.557105 
L 196.759871 71.796202 
L 69.192174 70.184707 
L 226.597985 267.659005 
L 194.699332 232.295451 
z
" clip-path="url(#p0e41ad6c2c)" style="fill: #a6a4af; fill-opacity: 0.958151"/>
   </g>
   <g id="patch_82">
    <path d="M 236.59506 71.727431 
L 313.827228 120.91135 
L 219.690886 29.94278 
L 188.432694 71.029108 
z
" clip-path="url(#p0e41ad6c2c)" style="fill: #cda491; fill-opacity: 0.171258"/>
   </g>
   <g id="patch_83">
    <path d="M 335.953816 34.997786 
L 399.98136 301.318651 
L 282.74104 144.959754 
z
" clip-path="url(#p0e41ad6c2c)" style="fill: #10310e; fill-opacity: 0.910093"/>
   </g>
   <g id="patch_84">
    <path d="M 1.77066 72.13624 
L 64.915546 39.087787 
L 296.79635 122.824642 
L 71.964305 313.327542 
L 40.252702 109.986165 
z
" clip-path="url(#p0e41ad6c2c)" style="fill: #cdffe8; fill-opacity: 0.526376"/>
   </g>
   <g id="patch_85">
    <path d="M 8.738438 314.486118 
L 69.765657 7.074789 
L 248.34112 32.069078 
L 236.987988 41.572428 
L 220.043624 195.336965 
z
" clip-path="url(#p0e41ad6c2c)" style="fill: #feffe0; fill-opacity: 0.263686"/>
   </g>
   <g id="patch_86">
    <path d="M 325.352953 238.713219 
L 224.486532 114.211657 
L 382.260183 2.874153 
L 388.983845 260.100257 
z
" clip-path="url(#p0e41ad6c2c)" style="fill: #000c2a; fill-opacity: 0.417061"/>
   </g>
   <g id="patch_87">
    <path d="M 202.226295 54.300116 
L 167.635647 305.778225 
L 172.583404 122.641478 
z
" clip-path="url(#p0e41ad6c2c)" style="fill: #140000"/>
   </g>
   <g id="patch_88">
    <path d="M 48.343581 32.138358 
L 94.904653 7.190971 
L 445.213149 19.564913 
L 32.039045 0.260296 
z
" clip-path="url(#p0e41ad6c2c)" style="fill: #f8e17d; fill-opacity: 0.361877"/>
   </g>
   <g id="patch_89">
    <path d="M 283.041326 258.946951 
L 146.95757 310.303452 
L 376.311518 174.098695 
z
" clip-path="url(#p0e41ad6c2c)" style="fill: #666a67; fill-opacity: 0.520365"/>
   </g>
   <g id="patch_90">
    <path d="M 144.169484 246.638325 
L 362.149414 215.661382 
L 251.869084 329.391432 
L 351.730815 163.432111 
z
" clip-path="url(#p0e41ad6c2c)" style="fill: #23151d; fill-opacity: 0.694938"/>
   </g>
   <g id="patch_91">
    <path d="M 143.481399 122.685564 
L 122.290366 23.010407 
L 101.59974 250.827069 
L 114.083454 163.593332 
z
" clip-path="url(#p0e41ad6c2c)" style="fill: #05504a"/>
   </g>
   <g id="patch_92">
    <path d="M 389.966706 150.507913 
L 322.602583 258.767847 
L 262.905385 125.885181 
z
" clip-path="url(#p0e41ad6c2c)" style="fill: #d7bad1; fill-opacity: 0.533932"/>
   </g>
   <g id="patch_93">
    <path d="M 329.958233 172.059826 
L 15.866044 301.693549 
L 22.608386 328.126208 
L 357.014472 139.445109 
L 408.831087 249.00587 
z
" clip-path="url(#p0e41ad6c2c)" style="fill: #f9fffb; fill-opacity: 0.499895"/>
   </g>
   <g id="patch_94">
    <path d="M 248.576327 189.089691 
L 152.183912 122.665642 
L 358.158687 52.413291 
L 285.324768 8.414096 
z
" clip-path="url(#p0e41ad6c2c)" style="fill: #00ffdb; fill-opacity: 0.177894"/>
   </g>
   <g id="patch_95">
    <path d="M 37.371936 66.753589 
L 79.407434 204.35071 
L 118.750564 37.837659 
L 410.08079 191.220331 
L 199.899219 317.208384 
z
" clip-path="url(#p0e41ad6c2c)" style="fill: #120b0f; fill-opacity: 0.720048"/>
   </g>
   <g id="patch_96">
    <path d="M 363.115461 274.117996 
L 128.627102 141.329146 
L 67.374355 67.605343 
L 48.410281 46.697054 
L 146.338068 187.014214 
z
" clip-path="url(#p0e41ad6c2c)" style="fill: #b868a1; fill-opacity: 0.770617"/>
   </g>
   <g id="patch_97">
    <path d="M 226.007994 45.088725 
L 367.029972 59.682218 
L 421.588209 53.020842 
L 295.821534 91.401828 
z
" clip-path="url(#p0e41ad6c2c)" style="fill: #ffb867"/>
   </g>
   <g id="patch_98">
    <path d="M 284.641657 58.288154 
L 382.029798 207.936626 
L 266.801101 29.64272 
L 69.215979 238.918599 
L 423.974818 265.388078 
z
" clip-path="url(#p0e41ad6c2c)" style="fill: #3a2500; fill-opacity: 0.319249"/>
   </g>
   <g id="patch_99">
    <path d="M 9.890001 247.795488 
L 97.965512 202.369154 
L 195.558632 146.22916 
L 345.224945 1.241153 
L 130.007402 157.707914 
L 9.890001 247.795488 
z
" clip-path="url(#p0e41ad6c2c)" style="fill: none"/>
   </g>
   <g id="patch_100">
    <path d="M 347.740402 151.264227 
L 233.276856 40.558607 
L 151.219 222.017149 
L 412.212586 248.093516 
z
" clip-path="url(#p0e41ad6c2c)" style="fill: #ffffef"/>
   </g>
   <g id="patch_101">
    <path d="M 237.038685 246.37647 
L 413.37331 254.296698 
L 23.792277 47.591057 
z
" clip-path="url(#p0e41ad6c2c)" style="fill: #caffbe; fill-opacity: 0.496515"/>
   </g>
   <g id="patch_102">
    <path d="M 5.237731 165.703015 
L 434.530494 48.454516 
L 127.302223 139.546227 
z
" clip-path="url(#p0e41ad6c2c)" style="fill: #585814; fill-opacity: 0.490306"/>
   </g>
   <g id="patch_103">
    <path d="M 71.047975 288.441068 
L 232.459555 297.50137 
L 76.941673 299.525906 
L 343.578803 326.911293 
L 328.798743 310.3798 
z
" clip-path="url(#p0e41ad6c2c)" style="fill: #add2ce; fill-opacity: 0.247688"/>
   </g>
   <g id="patch_104">
    <path d="M 192.171828 236.992951 
L 208.837237 68.523729 
L 402.974775 329.693247 
L 256.674744 212.058308 
z
" clip-path="url(#p0e41ad6c2c)" style="fill: #b7ccca; fill-opacity: 0.921529"/>
   </g>
   <g id="patch_105">
    <path d="M 437.684901 323.35648 
L 142.18533 300.882502 
L 214.417472 268.678996 
L 234.541896 256.757215 
L 240.136355 118.541292 
z
" clip-path="url(#p0e41ad6c2c)" style="fill: #7faaae; fill-opacity: 0.285986"/>
   </g>
   <g id="patch_106">
    <path d="M 225.020482 286.997937 
L 222.587234 122.137529 
L 432.396367 248.648863 
L 399.337371 308.022282 
z
" clip-path="url(#p0e41ad6c2c)" style="fill: #c3cbda; fill-opacity: 0.613741"/>
   </g>
   <g id="patch_107">
    <path d="M 215.674693 130.564765 
L 9.632103 94.535734 
L 7.564745 242.363844 
L 4.659649 19.381859 
z
" clip-path="url(#p0e41ad6c2c)" style="fill: #c1bfa4; fill-opacity: 0.902354"/>
   </g>
   <g id="patch_108">
    <path d="M 15.166631 63.696177 
L 349.684138 128.158604 
L 149.175693 234.455935 
L 287.606404 68.363262 
z
" clip-path="url(#p0e41ad6c2c)" style="fill: #152e2a; fill-opacity: 0.912481"/>
   </g>
   <g id="patch_109">
    <path d="M 40.49576 198.971866 
L 212.833409 27.625465 
L 300.749782 206.409121 
z
" clip-path="url(#p0e41ad6c2c)" style="fill: #eacad0; fill-opacity: 0.050585"/>
   </g>
   <g id="patch_110">
    <path d="M 95.994535 12.702301 
L 288.062591 143.897559 
L 79.226782 36.136387 
z
" clip-path="url(#p0e41ad6c2c)" style="fill: #e8e3a9; fill-opacity: 0.154366"/>
   </g>
   <g id="patch_111">
    <path d="M 15.279408 58.017715 
L 409.093714 3.17899 
L 403.180534 193.085261 
L 75.570667 151.160249 
L 15.279408 58.017715 
z
" clip-path="url(#p0e41ad6c2c)" style="fill: none"/>
   </g>
   <g id="patch_112">
    <path d="M 322.430519 109.0508 
L 257.335674 273.920862 
L 162.564666 80.299396 
z
" clip-path="url(#p0e41ad6c2c)" style="fill: #fad40f"/>
   </g>
   <g id="patch_113">
    <path d="M 104.043878 233.540362 
L 368.095911 185.703114 
L 132.440643 292.400637 
L 206.302787 94.244318 
z
" clip-path="url(#p0e41ad6c2c)" style="fill: #bbacb5; fill-opacity: 0.993587"/>
   </g>
   <g id="patch_114">
    <path d="M 58.942212 312.536433 
L 291.391201 131.855068 
L 354.599454 118.995033 
L 187.939296 46.690646 
L 21.29387 38.708783 
z
" clip-path="url(#p0e41ad6c2c)" style="fill: #3a6bbd; fill-opacity: 0.035091"/>
   </g>
   <g id="patch_115">
    <path d="M 223.790113 63.604078 
L 435.993048 195.098692 
L 449.039177 238.972079 
z
" clip-path="url(#p0e41ad6c2c)" style="fill: #fffb9e; fill-opacity: 0.073942"/>
   </g>
   <g id="patch_116">
    <path d="M 336.577298 126.652828 
L 197.451115 58.816302 
L 316.939105 266.181699 
z
" clip-path="url(#p0e41ad6c2c)" style="fill: #05110d"/>
   </g>
   <g id="patch_117">
    <path d="M 416.973086 230.028624 
L 40.30591 124.517038 
L 177.710686 322.327551 
z
" clip-path="url(#p0e41ad6c2c)" style="fill: #7b7983; fill-opacity: 0.331951"/>
   </g>
   <g id="patch_118">
    <path d="M 14.756312 0.478183 
L 329.089759 323.725398 
L 212.952138 299.624753 
L 57.990854 88.64285 
z
" clip-path="url(#p0e41ad6c2c)" style="fill: #c6c2b7; fill-opacity: 0.569374"/>
   </g>
   <g id="patch_119">
    <path d="M 413.74798 220.110306 
L 119.425717 205.213859 
L 44.624626 273.24839 
z
" clip-path="url(#p0e41ad6c2c)" style="fill: #a86297; fill-opacity: 0.083165"/>
   </g>
   <g id="patch_120">
    <path d="M 269.763633 282.522593 
L 10.734219 14.837401 
L 419.368604 272.919394 
z
" clip-path="url(#p0e41ad6c2c)" style="fill: #989c7c; fill-opacity: 0.65664"/>
   </g>
   <g id="patch_121">
    <path d="M 275.204209 34.405071 
L 33.899697 251.608355 
L 140.356799 41.316647 
L 98.270516 15.622912 
z
" clip-path="url(#p0e41ad6c2c)" style="fill: #dca135; fill-opacity: 0.218219"/>
   </g>
   <g id="patch_122">
    <path d="M 327.193714 68.626484 
L 83.836006 97.198961 
L 301.564325 42.140367 
L 193.326087 274.087721 
z
" clip-path="url(#p0e41ad6c2c)" style="fill: #b793a6; fill-opacity: 0.18462"/>
   </g>
   <g id="patch_123">
    <path d="M 334.021988 19.989215 
L 377.722635 4.693041 
L 264.55197 1.139706 
z
" clip-path="url(#p0e41ad6c2c)" style="fill: #939a00; fill-opacity: 0.310366"/>
   </g>
   <g id="patch_124">
    <path d="M 224.002001 176.796388 
L 54.09739 51.305876 
L 34.112051 158.430589 
L 210.157277 302.001299 
L 258.313423 138.484206 
z
" clip-path="url(#p0e41ad6c2c)" style="fill: #174225; fill-opacity: 0.99832"/>
   </g>
   <g id="patch_125">
    <path d="M 98.755521 178.671888 
L 403.720635 42.320613 
L 109.652665 226.756232 
z
" clip-path="url(#p0e41ad6c2c)" style="fill: #c9540b; fill-opacity: 0.645039"/>
   </g>
   <g id="patch_126">
    <path d="M 411.479277 256.296354 
L 139.000078 181.62609 
L 207.719243 200.307092 
L 251.397703 135.666712 
z
" clip-path="url(#p0e41ad6c2c)" style="fill: #aec8cc"/>
   </g>
   <g id="patch_127">
    <path d="M 167.39387 170.645523 
L 156.285911 96.611565 
L 111.163463 79.167372 
z
" clip-path="url(#p0e41ad6c2c)"/>
   </g>
   <g id="patch_128">
    <path d="M 199.039765 234.504212 
L 363.140413 232.341865 
L 208.669864 319.891955 
L 320.20101 226.157635 
L 104.044904 116.600944 
z
" clip-path="url(#p0e41ad6c2c)" style="fill: #513c3f; fill-opacity: 0.842328"/>
   </g>
   <g id="patch_129">
    <path d="M 192.246188 144.017877 
L 11.207136 169.044372 
L 173.688614 77.842312 
z
" clip-path="url(#p0e41ad6c2c)" style="fill: #cce9d2"/>
   </g>
   <g id="patch_130">
    <path d="M 275.576344 195.203235 
L 111.217322 168.676771 
L 67.746791 41.267737 
L 157.738599 226.935031 
L 169.931119 287.480081 
z
" clip-path="url(#p0e41ad6c2c)" style="fill: #d883e9; fill-opacity: 0.695549"/>
   </g>
   <g id="patch_131">
    <path d="M 406.069877 320.617505 
L 302.105312 313.657724 
L 224.62848 289.085712 
L 261.885204 182.341692 
L 2.719455 226.051739 
z
" clip-path="url(#p0e41ad6c2c)" style="fill: #e4ffff; fill-opacity: 0.319164"/>
   </g>
   <g id="patch_132">
    <path d="M 31.160414 117.822226 
L 219.808508 245.332393 
L 41.884413 73.022669 
L 95.737786 122.390717 
L 40.855733 4.275995 
z
" clip-path="url(#p0e41ad6c2c)" style="fill: #a3caef; fill-opacity: 0.134257"/>
   </g>
   <g id="patch_133">
    <path d="M 16.094202 253.143327 
L 28.447759 212.139775 
L 124.766657 21.873141 
L 76.558899 296.435028 
L 12.315101 319.726516 
z
" clip-path="url(#p0e41ad6c2c)" style="fill: #b2d2ea; fill-opacity: 0.676141"/>
   </g>
   <g id="patch_134">
    <path d="M 199.943049 126.648881 
L 25.00559 40.065308 
L 192.182203 122.789259 
L 217.77888 188.195668 
z
" clip-path="url(#p0e41ad6c2c)" style="fill: #98e8ab; fill-opacity: 0.6644"/>
   </g>
   <g id="patch_135">
    <path d="M 274.905322 196.903929 
L 247.849372 166.090897 
L 222.387061 68.852418 
L 75.55947 208.838695 
L 167.193255 301.696242 
z
" clip-path="url(#p0e41ad6c2c)" style="fill: #f2ffff; fill-opacity: 0.697412"/>
   </g>
   <g id="patch_136">
    <path d="M 316.616996 61.899517 
L 355.314699 83.478291 
L 201.601088 233.010706 
z
" clip-path="url(#p0e41ad6c2c)" style="fill-opacity: 0.950152"/>
   </g>
   <g id="patch_137">
    <path d="M 283.407163 41.143105 
L 302.625666 319.946518 
L 115.500896 289.705941 
L 221.522801 301.452139 
L 80.47617 148.584841 
z
" clip-path="url(#p0e41ad6c2c)" style="fill: #2a4b73; fill-opacity: 0.224874"/>
   </g>
   <g id="patch_138">
    <path d="M 229.722032 265.158499 
L 368.128809 99.864028 
L 200.881003 10.717733 
z
" clip-path="url(#p0e41ad6c2c)" style="fill: #ffd5aa; fill-opacity: 0.307062"/>
   </g>
   <g id="patch_139">
    <path d="M 135.652608 273.479964 
L 128.537193 110.195461 
L 186.470069 21.19702 
z
" clip-path="url(#p0e41ad6c2c)" style="fill: #523f00; fill-opacity: 0.196699"/>
   </g>
   <g id="patch_140">
    <path d="M 240.331306 190.823584 
L 310.408981 106.67159 
L 71.827268 119.81878 
L 85.002714 29.838182 
L 37.571924 7.257667 
z
" clip-path="url(#p0e41ad6c2c)" style="fill: #febae4; fill-opacity: 0.001398"/>
   </g>
   <g id="patch_141">
    <path d="M 295.087191 211.321657 
L 259.625366 40.786808 
L 260.772177 310.407411 
L 142.863339 255.162972 
z
" clip-path="url(#p0e41ad6c2c)" style="fill: #2e3301; fill-opacity: 0.435261"/>
   </g>
   <g id="patch_142">
    <path d="M 353.008887 223.262186 
L 167.003747 171.040705 
L 422.248136 230.479044 
L 42.160363 293.98793 
z
" clip-path="url(#p0e41ad6c2c)" style="fill: #c8d9d4"/>
   </g>
   <g id="patch_143">
    <path d="M 444.483595 176.239091 
L 310.676132 14.924238 
L 199.953313 163.112201 
z
" clip-path="url(#p0e41ad6c2c)" style="fill: #fff21e; fill-opacity: 0.072511"/>
   </g>
   <g id="patch_144">
    <path d="M 220.300109 267.466939 
L 117.888254 246.353121 
L 262.996929 229.217547 
L 196.463769 68.992435 
L 387.836848 78.315307 
z
" clip-path="url(#p0e41ad6c2c)" style="fill-opacity: 0.904268"/>
   </g>
   <g id="patch_145">
    <path d="M 210.270585 62.945823 
L 34.837585 109.889909 
L 248.789928 215.921495 
z
" clip-path="url(#p0e41ad6c2c)" style="fill: #53582e; fill-opacity: 0.914003"/>
   </g>
   <g id="patch_146">
    <path d="M 6.026509 92.261678 
L 337.400066 216.831553 
L 104.324206 306.393589 
L 14.450468 61.871246 
L 107.152314 233.436389 
z
" clip-path="url(#p0e41ad6c2c)" style="fill: #f2ffff; fill-opacity: 0.74818"/>
   </g>
   <g id="patch_147">
    <path d="M 382.592996 10.530329 
L 68.408625 173.446371 
L 427.216312 10.96429 
z
" clip-path="url(#p0e41ad6c2c)" style="fill: #b6682c; fill-opacity: 0.918321"/>
   </g>
   <g id="patch_148">
    <path d="M 242.773832 126.880918 
L 300.764071 21.497391 
L 448.868385 88.868909 
z
" clip-path="url(#p0e41ad6c2c)" style="fill: #1b2a00; fill-opacity: 0.012765"/>
   </g>
   <g id="patch_149">
    <path d="M 80.370095 188.470899 
L 12.738868 114.020258 
L 315.788506 144.708403 
L 195.455924 316.572506 
z
" clip-path="url(#p0e41ad6c2c)" style="fill: #72725e"/>
   </g>
   <g id="patch_150">
    <path d="M 148.765638 132.220197 
L 7.478822 47.690866 
L 304.612839 188.311592 
L 311.953962 180.395037 
L 330.849986 258.490177 
z
" clip-path="url(#p0e41ad6c2c)" style="fill: #dceaff; fill-opacity: 0.618004"/>
   </g>
   <g id="patch_151">
    <path d="M 238.296182 234.923801 
L 236.176531 221.224272 
L 193.613749 50.584642 
L 193.602822 140.604194 
L 331.564278 15.760221 
z
" clip-path="url(#p0e41ad6c2c)" style="fill: #ddd851"/>
   </g>
   <g id="patch_152">
    <path d="M 449.716585 15.641439 
L 297.359507 87.842734 
L 315.57581 22.298671 
L 195.683227 3.842766 
z
" clip-path="url(#p0e41ad6c2c)" style="fill: #ed8300; fill-opacity: 0.250597"/>
   </g>
   <g id="patch_153">
    <path d="M 243.748247 226.829144 
L 309.618915 67.370521 
L 258.59424 59.730561 
L 390.806114 326.499956 
L 162.213452 203.022583 
z
" clip-path="url(#p0e41ad6c2c)" style="fill: #e4fcff; fill-opacity: 0.088825"/>
   </g>
   <g id="patch_154">
    <path d="M 31.430672 209.071271 
L 314.324921 141.479007 
L 226.086832 315.781034 
L 67.32258 86.926263 
z
" clip-path="url(#p0e41ad6c2c)" style="fill: #635345; fill-opacity: 0.856826"/>
   </g>
   <g id="patch_155">
    <path d="M 441.815776 307.800958 
L 233.352062 71.459553 
L 184.866877 113.535911 
L 85.485975 313.585973 
L 48.040929 88.164375 
z
" clip-path="url(#p0e41ad6c2c)" style="fill: #a0c2e7; fill-opacity: 0.518078"/>
   </g>
   <g id="patch_156">
    <path d="M 445.958256 286.883735 
L 188.383941 13.971804 
L 189.510959 220.10485 
z
" clip-path="url(#p0e41ad6c2c)" style="fill: #fffee7; fill-opacity: 0.27231"/>
   </g>
   <g id="patch_157">
    <path d="M 22.002385 161.684546 
L 29.76516 326.010104 
L 74.294131 273.950944 
z
" clip-path="url(#p0e41ad6c2c)" style="fill: #bac0c4; fill-opacity: 0.77868"/>
   </g>
   <g id="patch_158">
    <path d="M 101.422158 323.998367 
L 390.798616 21.811375 
L 33.669845 124.184661 
L 346.402338 185.167692 
z
" clip-path="url(#p0e41ad6c2c)" style="fill: #000005; fill-opacity: 0.07467"/>
   </g>
   <g id="patch_159">
    <path d="M 256.610358 247.163727 
L 165.035561 25.858465 
L 293.651305 7.678791 
z
" clip-path="url(#p0e41ad6c2c)" style="fill: #c9c095; fill-opacity: 0.306839"/>
   </g>
   <g id="patch_160">
    <path d="M 144.044771 304.584348 
L 405.220811 196.105069 
L 396.259163 15.414697 
L 191.643696 6.287055 
L 451.142183 50.728175 
z
" clip-path="url(#p0e41ad6c2c)" style="fill: #000706; fill-opacity: 0.0736"/>
   </g>
   <g id="patch_161">
    <path d="M 155.087291 192.970986 
L 60.386622 162.768149 
L 67.313362 28.02055 
L 220.237895 302.487523 
z
" clip-path="url(#p0e41ad6c2c)" style="fill: #d2f6c3"/>
   </g>
   <g id="patch_162">
    <path d="M 192.609644 76.57095 
L 123.897353 95.714209 
L 436.034077 76.986959 
z
" clip-path="url(#p0e41ad6c2c)" style="fill: #a25220; fill-opacity: 0.178537"/>
   </g>
   <g id="patch_163">
    <path d="M 120.698813 159.442015 
L 27.012279 213.700285 
L 212.90619 94.644413 
L 199.130853 200.847594 
L 200.777363 291.642747 
z
" clip-path="url(#p0e41ad6c2c)" style="fill: #2c2d14; fill-opacity: 0.90084"/>
   </g>
   <g id="patch_164">
    <path d="M 446.369182 164.534388 
L 382.487356 38.776477 
L 238.08785 296.12621 
L 434.512482 7.931423 
z
" clip-path="url(#p0e41ad6c2c)" style="fill: #8b440b; fill-opacity: 0.414552"/>
   </g>
   <g id="patch_165">
    <path d="M 443.36964 326.777138 
L 353.185028 324.828637 
L 312.618991 196.787916 
L 13.071025 196.9189 
L 259.275156 43.501644 
z
" clip-path="url(#p0e41ad6c2c)" style="fill: #c4c3cf; fill-opacity: 0.451136"/>
   </g>
   <g id="patch_166">
    <path d="M 378.714393 27.717935 
L 382.767975 96.752902 
L 242.286286 247.321598 
z
" clip-path="url(#p0e41ad6c2c)" style="fill: #775e50; fill-opacity: 0.521785"/>
   </g>
   <g id="patch_167">
    <path d="M 92.090935 16.507334 
L 51.755658 12.714584 
L 187.320236 80.928152 
z
" clip-path="url(#p0e41ad6c2c)" style="fill: #bcc28d; fill-opacity: 0.166562"/>
   </g>
   <g id="patch_168">
    <path d="M 54.415457 25.955614 
L 83.46682 16.126722 
L 70.974872 321.177366 
L 119.78215 30.04966 
z
" clip-path="url(#p0e41ad6c2c)" style="fill: #cfd9b3; fill-opacity: 0.843598"/>
   </g>
   <g id="patch_169">
    <path d="M 414.56861 94.95107 
L 161.089015 223.956966 
L 134.377039 221.448001 
L 16.82052 117.90738 
L 271.828793 159.147602 
z
" clip-path="url(#p0e41ad6c2c)" style="fill: #343335; fill-opacity: 0.929646"/>
   </g>
   <g id="patch_170">
    <path d="M 290.127351 144.169866 
L 282.004183 310.606157 
L 260.479011 261.124766 
L 129.594362 146.94385 
z
" clip-path="url(#p0e41ad6c2c)" style="fill: #425345; fill-opacity: 0.483743"/>
   </g>
   <g id="patch_171">
    <path d="M 225.359056 164.760944 
L 137.629452 253.898881 
L 0.098674 329.500182 
L 102.091963 221.655629 
L 96.512571 77.211542 
z
" clip-path="url(#p0e41ad6c2c)" style="fill: #e6f0fa; fill-opacity: 0.267948"/>
   </g>
   <g id="patch_172">
    <path d="M 29.438515 6.025158 
L 82.284626 93.047801 
L 19.594151 76.054466 
L 451.263222 304.215774 
L 29.438515 6.025158 
z
" clip-path="url(#p0e41ad6c2c)" style="fill: none"/>
   </g>
   <g id="patch_173">
    <path d="M 418.285735 134.253937 
L 385.819122 145.287225 
L 269.769999 207.167179 
L 141.670152 293.45999 
z
" clip-path="url(#p0e41ad6c2c)" style="fill: #ebe7dd; fill-opacity: 0.837856"/>
   </g>
   <g id="patch_174">
    <path d="M 182.047778 218.721893 
L 145.262096 164.186505 
L 130.053531 121.277959 
L 260.953804 87.70527 
z
" clip-path="url(#p0e41ad6c2c)" style="fill: #060000; fill-opacity: 0.463155"/>
   </g>
   <g id="patch_175">
    <path d="M 8.925695 98.196641 
L 230.710352 214.858134 
L 254.67562 326.278865 
L 336.109148 153.485916 
z
" clip-path="url(#p0e41ad6c2c)" style="fill: #bfd1e8; fill-opacity: 0.867554"/>
   </g>
   <g id="patch_176">
    <path d="M 85.946619 232.995914 
L 350.573417 14.751789 
L 309.438308 76.62648 
z
" clip-path="url(#p0e41ad6c2c)" style="fill: #ffe96f"/>
   </g>
   <g id="patch_177">
    <path d="M 33.348896 251.814143 
L 69.470995 163.496861 
L 19.099931 48.852504 
L 294.205142 252.341979 
L 87.973311 120.175313 
z
" clip-path="url(#p0e41ad6c2c)" style="fill: #a2c6ad; fill-opacity: 0.673432"/>
   </g>
   <g id="patch_178">
    <path d="M 251.000871 289.684482 
L 159.833559 87.595752 
L 88.927783 122.755695 
L 247.390139 110.183016 
L 91.396377 157.834548 
z
" clip-path="url(#p0e41ad6c2c)" style="fill: #938761; fill-opacity: 0.93469"/>
   </g>
   <g id="patch_179">
    <path d="M 429.936864 233.607284 
L 189.660186 280.70389 
L 253.796685 99.159702 
L 96.179786 147.714503 
L 284.036023 259.08067 
z
" clip-path="url(#p0e41ad6c2c)" style="fill: #000012; fill-opacity: 0.213733"/>
   </g>
   <g id="patch_180">
    <path d="M 228.188853 165.831137 
L 330.56382 125.064108 
L 284.542505 130.639568 
L 311.751412 77.232033 
L 275.476754 278.086378 
z
" clip-path="url(#p0e41ad6c2c)" style="fill: #000000; fill-opacity: 0.979028"/>
   </g>
   <g id="patch_181">
    <path d="M 133.557248 72.445858 
L 87.117033 131.101682 
L 25.049841 35.473734 
L 184.314751 236.639917 
z
" clip-path="url(#p0e41ad6c2c)" style="fill: #000700; fill-opacity: 0.378489"/>
   </g>
   <g id="patch_182">
    <path d="M 330.720426 66.431529 
L 310.122818 214.23453 
L 425.709378 88.872189 
z
" clip-path="url(#p0e41ad6c2c)" style="fill: #1e0723; fill-opacity: 0.238309"/>
   </g>
   <g id="patch_183">
    <path d="M 28.783792 59.604849 
L 144.48528 110.17423 
L 9.047322 70.893865 
L 421.250992 9.532888 
L 269.832819 11.100673 
z
" clip-path="url(#p0e41ad6c2c)" style="fill: #181e4a; fill-opacity: 0.071052"/>
   </g>
   <g id="patch_184">
    <path d="M 8.025132 204.359854 
L 161.863616 317.760367 
L 111.222796 252.869947 
z
" clip-path="url(#p0e41ad6c2c)" style="fill: #42074f; fill-opacity: 0.06381"/>
   </g>
   <g id="patch_185">
    <path d="M 290.833716 222.24559 
L 179.822484 72.476007 
L 254.890808 91.378255 
L 347.560596 167.500882 
z
" clip-path="url(#p0e41ad6c2c)" style="fill: #320100; fill-opacity: 0.322874"/>
   </g>
   <g id="patch_186">
    <path d="M 206.843215 178.311633 
L 169.247513 173.39254 
L 93.530641 119.541542 
L 176.942608 304.698021 
L 265.372748 277.546186 
z
" clip-path="url(#p0e41ad6c2c)" style="fill: #594b44; fill-opacity: 0.793426"/>
   </g>
   <g id="patch_187">
    <path d="M 87.751959 5.834271 
L 95.610582 276.572722 
L 97.162157 142.259754 
L 90.8017 140.754106 
z
" clip-path="url(#p0e41ad6c2c)" style="fill: #8bd2ec; fill-opacity: 0.117158"/>
   </g>
   <g id="patch_188">
    <path d="M 26.043101 182.558421 
L 98.606083 191.179913 
L 427.034564 86.467711 
z
" clip-path="url(#p0e41ad6c2c)" style="fill: #011110; fill-opacity: 0.216612"/>
   </g>
   <g id="patch_189">
    <path d="M 289.034674 121.770429 
L 254.318005 6.298331 
L 142.533296 245.140994 
L 156.01006 214.730422 
z
" clip-path="url(#p0e41ad6c2c)" style="fill: #a57451; fill-opacity: 0.707225"/>
   </g>
   <g id="patch_190">
    <path d="M 226.792377 300.911837 
L 261.770654 123.866067 
L 13.403904 227.278708 
L 332.62011 163.293131 
L 226.792377 300.911837 
z
" clip-path="url(#p0e41ad6c2c)" style="fill: none"/>
   </g>
   <g id="patch_191">
    <path d="M 133.185333 177.118131 
L 239.032778 249.650965 
L 220.577784 119.0248 
L 88.662096 149.267649 
L 417.689169 97.076137 
z
" clip-path="url(#p0e41ad6c2c)" style="fill: #474e46; fill-opacity: 0.994033"/>
   </g>
   <g id="patch_192">
    <path d="M 10.652637 261.379723 
L 305.491389 296.531114 
L 164.554015 291.743972 
L 243.158227 246.487015 
z
" clip-path="url(#p0e41ad6c2c)" style="fill: #00000f; fill-opacity: 0.087821"/>
   </g>
   <g id="patch_193">
    <path d="M 37.943712 154.023968 
L 302.309465 205.455938 
L 218.371436 313.233994 
z
" clip-path="url(#p0e41ad6c2c)" style="fill: #412310; fill-opacity: 0.213849"/>
   </g>
   <g id="patch_194">
    <path d="M 2.558419 88.659643 
L 329.83078 150.522504 
L 413.133473 216.825786 
L 209.359876 165.65653 
z
" clip-path="url(#p0e41ad6c2c)" style="fill: #010000; fill-opacity: 0.632017"/>
   </g>
   <g id="patch_195">
    <path d="M 365.094989 216.35459 
L 198.384443 75.577043 
L 332.235295 83.631282 
L 110.51636 278.433235 
L 369.028074 190.658479 
z
" clip-path="url(#p0e41ad6c2c)" style="fill: #ffe3f4; fill-opacity: 0.060617"/>
   </g>
   <g id="patch_196">
    <path d="M 132.273754 161.83494 
L 349.220698 71.772285 
L 121.119615 235.387399 
z
" clip-path="url(#p0e41ad6c2c)" style="fill-opacity: 0.471046"/>
   </g>
   <g id="patch_197">
    <path d="M 146.365449 261.971838 
L 99.748857 129.254477 
L 172.67011 149.916106 
L 46.476574 167.954827 
L 366.313618 284.677157 
z
" clip-path="url(#p0e41ad6c2c)" style="fill: #43342b"/>
   </g>
   <g id="patch_198">
    <path d="M 277.353384 124.068258 
L 254.025666 101.651496 
L 220.364649 292.591588 
L 260.923184 298.004682 
z
" clip-path="url(#p0e41ad6c2c)" style="fill: #060000; fill-opacity: 0.260005"/>
   </g>
   <g id="patch_199">
    <path d="M 8.654962 325.355824 
L 48.275043 307.320261 
L 130.387327 138.42223 
L 126.742367 324.975228 
z
" clip-path="url(#p0e41ad6c2c)" style="fill: #d0d2da; fill-opacity: 0.523781"/>
   </g>
   <g id="patch_200">
    <path d="M 170.311027 236.516566 
L 260.052689 97.245977 
L 180.816016 177.141163 
L 394.284797 114.818434 
L 146.180753 313.69545 
z
" clip-path="url(#p0e41ad6c2c)" style="fill-opacity: 0.214032"/>
   </g>
   <g id="patch_201">
    <path d="M 142.309044 185.170393 
L 200.505777 252.692514 
L 437.964013 307.853899 
z
" clip-path="url(#p0e41ad6c2c)" style="fill: #abb7c1; fill-opacity: 0.711303"/>
   </g>
   <g id="patch_202">
    <path d="M 121.866556 326.740201 
L 361.793389 134.600021 
L 50.815023 218.503504 
L 309.690532 129.187933 
z
" clip-path="url(#p0e41ad6c2c)" style="fill: #020e0b; fill-opacity: 0.15263"/>
   </g>
   <g id="patch_203">
    <path d="M 396.442889 253.865091 
L 437.660269 283.300764 
L 437.003413 198.070047 
z
" clip-path="url(#p0e41ad6c2c)" style="fill: #c1c2ca; fill-opacity: 0.534636"/>
   </g>
   <g id="patch_204">
    <path d="M 14.749076 39.564828 
L 3.190471 323.051041 
L 103.467222 0.998866 
L 289.242349 48.375298 
z
" clip-path="url(#p0e41ad6c2c)" style="fill: #cab595; fill-opacity: 0.637926"/>
   </g>
   <g id="patch_205">
    <path d="M 269.888077 77.770906 
L 317.343567 125.887566 
L 151.377126 286.71099 
z
" clip-path="url(#p0e41ad6c2c)" style="fill: #bbd3e6; fill-opacity: 0.048358"/>
   </g>
   <g id="patch_206">
    <path d="M 365.183211 315.694906 
L 153.568543 309.764204 
L 140.623754 111.869117 
z
" clip-path="url(#p0e41ad6c2c)" style="fill: #7f3c20; fill-opacity: 0.143905"/>
   </g>
   <g id="patch_207">
    <path d="M 77.361111 157.74878 
L 344.53242 298.917563 
L 321.275376 315.978241 
z
" clip-path="url(#p0e41ad6c2c)" style="fill: #c4e5e4; fill-opacity: 0.185886"/>
   </g>
   <g id="patch_208">
    <path d="M 145.514848 175.759854 
L 77.164631 91.355089 
L 38.532442 144.407985 
L 3.607175 219.873108 
L 234.306511 168.139121 
z
" clip-path="url(#p0e41ad6c2c)" style="fill: #c5c297; fill-opacity: 0.966216"/>
   </g>
   <g id="patch_209">
    <path d="M 112.114568 6.584164 
L 3.487459 324.948296 
L 75.327055 275.619076 
z
" clip-path="url(#p0e41ad6c2c)" style="fill: #cbd1d0; fill-opacity: 0.82178"/>
   </g>
   <g id="patch_210">
    <path d="M 180.144324 180.740423 
L 396.790616 323.825656 
L 144.444399 12.785827 
L 93.287293 182.815922 
z
" clip-path="url(#p0e41ad6c2c)" style="fill: #3d233b; fill-opacity: 0.119506"/>
   </g>
   <g id="patch_211">
    <path d="M 287.675237 241.365133 
L 269.702599 306.50966 
L 281.778732 189.189201 
L 47.890234 154.109826 
L 396.650105 144.517397 
z
" clip-path="url(#p0e41ad6c2c)" style="fill: #fff9f0; fill-opacity: 0.235253"/>
   </g>
   <g id="patch_212">
    <path d="M 70.241183 225.444173 
L 431.329073 8.4787 
L 431.392115 214.630747 
L 38.429298 104.448613 
z
" clip-path="url(#p0e41ad6c2c)" style="fill: #002d00; fill-opacity: 0.039656"/>
   </g>
   <g id="patch_213">
    <path d="M 198.040303 257.773852 
L 347.14809 4.174644 
L 432.666865 80.778431 
L 270.471506 160.069375 
L 422.813029 20.361742 
z
" clip-path="url(#p0e41ad6c2c)" style="fill: #2c444b; fill-opacity: 0.137777"/>
   </g>
   <g id="patch_214">
    <path d="M 347.38696 11.245042 
L 159.81457 139.901407 
L 286.5299 116.450618 
L 289.507327 10.151531 
L 4.822169 266.366711 
z
" clip-path="url(#p0e41ad6c2c)" style="fill: #240000; fill-opacity: 0.093714"/>
   </g>
   <g id="patch_215">
    <path d="M 96.122862 183.478288 
L 53.145446 148.002529 
L 264.973266 200.662972 
z
" clip-path="url(#p0e41ad6c2c)" style="fill: #ffffb9"/>
   </g>
   <g id="patch_216">
    <path d="M 203.215685 2.712982 
L 220.66335 150.225059 
L 107.10929 157.05656 
L 237.836922 290.64455 
z
" clip-path="url(#p0e41ad6c2c)" style="fill: #ff8d4d; fill-opacity: 0.753798"/>
   </g>
   <g id="patch_217">
    <path d="M 235.727062 79.809526 
L 241.471752 319.875453 
L 78.400929 143.260826 
L 222.549829 135.585031 
L 191.489369 216.390003 
z
" clip-path="url(#p0e41ad6c2c)" style="fill: #66513e; fill-opacity: 0.960649"/>
   </g>
   <g id="patch_218">
    <path d="M 33.777245 45.513548 
L 123.270886 142.365135 
L 320.372912 221.169309 
z
" clip-path="url(#p0e41ad6c2c)" style="fill: #d3b477; fill-opacity: 0.306461"/>
   </g>
   <g id="patch_219">
    <path d="M 296.752652 210.594743 
L 51.453275 199.233045 
L 105.752893 119.484418 
z
" clip-path="url(#p0e41ad6c2c)" style="fill: #1b0028; fill-opacity: 0.164059"/>
   </g>
   <g id="patch_220">
    <path d="M 189.342811 5.500429 
L 29.091075 81.967349 
L 438.564378 96.846627 
L 364.116888 118.137493 
L 328.895267 24.090632 
z
" clip-path="url(#p0e41ad6c2c)" style="fill: #600a00; fill-opacity: 0.138855"/>
   </g>
   <g id="patch_221">
    <path d="M 294.166476 185.938833 
L 352.199638 227.601707 
L 219.768211 7.635259 
L 282.13639 140.575061 
z
" clip-path="url(#p0e41ad6c2c)" style="fill: #fcbda3; fill-opacity: 0.372997"/>
   </g>
   <g id="patch_222">
    <path d="M 275.477125 309.504747 
L 57.439438 236.799201 
L 360.170422 239.809422 
z
" clip-path="url(#p0e41ad6c2c)" style="fill: #000015; fill-opacity: 0.105943"/>
   </g>
   <g id="patch_223">
    <path d="M 25.426452 233.519595 
L 435.720642 238.710754 
L 33.962519 194.262371 
z
" clip-path="url(#p0e41ad6c2c)" style="fill: #926053; fill-opacity: 0.074589"/>
   </g>
   <g id="patch_224">
    <path d="M 364.818642 108.584162 
L 277.245494 133.199912 
L 284.752147 137.044352 
L 77.225679 218.217219 
z
" clip-path="url(#p0e41ad6c2c)" style="fill: #9b917e; fill-opacity: 0.874323"/>
   </g>
   <g id="patch_225">
    <path d="M 84.195178 202.685713 
L 91.416729 137.04644 
L 62.988431 176.821356 
L 119.000106 36.699705 
z
" clip-path="url(#p0e41ad6c2c)" style="fill: #cfd7b3; fill-opacity: 0.981466"/>
   </g>
   <g id="patch_226">
    <path d="M 74.93594 195.220513 
L 342.348222 33.589832 
L 230.414753 211.935683 
L 316.836643 126.732867 
L 419.620121 157.195602 
z
" clip-path="url(#p0e41ad6c2c)" style="fill: #f4ffff; fill-opacity: 0.034278"/>
   </g>
   <g id="patch_227">
    <path d="M 432.849891 268.207293 
L 412.121407 291.187659 
L 256.771602 55.468877 
z
" clip-path="url(#p0e41ad6c2c)" style="fill: #9197c0; fill-opacity: 0.211431"/>
   </g>
   <g id="patch_228">
    <path d="M 233.193501 170.523765 
L 167.273639 91.194075 
L 124.038652 103.015126 
L 14.77535 234.298714 
z
" clip-path="url(#p0e41ad6c2c)" style="fill: #82763d; fill-opacity: 0.228929"/>
   </g>
   <g id="patch_229">
    <path d="M 212.877258 256.108553 
L 179.963707 222.030149 
L 291.054746 223.703865 
z
" clip-path="url(#p0e41ad6c2c)" style="fill: #fbd197; fill-opacity: 0.462813"/>
   </g>
   <g id="patch_230">
    <path d="M 244.885615 206.72641 
L 346.328014 195.188128 
L 156.251485 161.90128 
L 33.562739 220.855346 
L 53.354209 200.368003 
z
" clip-path="url(#p0e41ad6c2c)" style="fill: #0e0007; fill-opacity: 0.111702"/>
   </g>
   <g id="patch_231">
    <path d="M 61.747256 191.275756 
L 82.508787 207.436732 
L 256.715275 159.583715 
L 68.654926 100.575507 
z
" clip-path="url(#p0e41ad6c2c)" style="fill: #f9ad5b; fill-opacity: 0.180383"/>
   </g>
   <g id="patch_232">
    <path d="M 120.160171 261.876695 
L 274.212212 12.289682 
L 364.973825 177.062547 
L 96.880105 215.929512 
z
" clip-path="url(#p0e41ad6c2c)" style="fill: #fbfdec; fill-opacity: 0.058266"/>
   </g>
   <g id="patch_233">
    <path d="M 189.060699 313.295884 
L 286.99603 262.645291 
L 245.98589 132.78392 
L 30.032371 132.683292 
L 289.576089 105.083801 
z
" clip-path="url(#p0e41ad6c2c)" style="fill: #00000e; fill-opacity: 0.197538"/>
   </g>
   <g id="patch_234">
    <path d="M 97.601882 22.272085 
L 422.240679 223.610987 
L 424.787887 41.549629 
z
" clip-path="url(#p0e41ad6c2c)" style="fill: #1c0026; fill-opacity: 0.038879"/>
   </g>
   <g id="patch_235">
    <path d="M 140.085195 232.779943 
L 75.625065 127.55679 
L 206.645718 184.602607 
z
" clip-path="url(#p0e41ad6c2c)" style="fill: #5d6c59; fill-opacity: 0.246441"/>
   </g>
   <g id="patch_236">
    <path d="M 450.493057 171.437181 
L 423.170115 233.615726 
L 451.421264 228.936553 
z
" clip-path="url(#p0e41ad6c2c)" style="fill: #a07037; fill-opacity: 0.938452"/>
   </g>
   <g id="patch_237">
    <path d="M 174.574158 261.489943 
L 273.169589 133.643794 
L 108.400314 162.282252 
z
" clip-path="url(#p0e41ad6c2c)" style="fill: #d87c4c; fill-opacity: 0.163171"/>
   </g>
   <g id="patch_238">
    <path d="M 111.338845 53.382322 
L 99.670448 48.518283 
L 285.880154 130.220294 
z
" clip-path="url(#p0e41ad6c2c)" style="fill: #fdf091; fill-opacity: 0.703937"/>
   </g>
   <g id="patch_239">
    <path d="M 442.173942 119.024834 
L 403.214852 184.006357 
L 93.303065 53.600751 
L 103.546819 268.708834 
z
" clip-path="url(#p0e41ad6c2c)" style="fill: #1d5d19; fill-opacity: 0.000702"/>
   </g>
   <g id="patch_240">
    <path d="M 413.134341 231.02903 
L 256.649971 209.072558 
L 366.696864 296.752854 
L 336.647183 110.398246 
z
" clip-path="url(#p0e41ad6c2c)" style="fill: #ffffff; fill-opacity: 0.07257"/>
   </g>
   <g id="patch_241">
    <path d="M 91.671299 89.673489 
L 152.458227 13.856297 
L 12.955329 103.559852 
z
" clip-path="url(#p0e41ad6c2c)" style="fill: #efffd2; fill-opacity: 0.163632"/>
   </g>
   <g id="patch_242">
    <path d="M 353.068357 325.445686 
L 297.946586 50.465867 
L 249.838447 285.84113 
z
" clip-path="url(#p0e41ad6c2c)" style="fill: #afcfe7; fill-opacity: 0.153914"/>
   </g>
   <g id="patch_243">
    <path d="M 395.178685 134.255809 
L 56.971355 191.22142 
L 267.626136 5.956026 
L 22.561076 323.258137 
L 278.766539 25.484545 
z
" clip-path="url(#p0e41ad6c2c)" style="fill: #794baf; fill-opacity: 0.022191"/>
   </g>
   <g id="patch_244">
    <path d="M 103.90243 142.819538 
L 385.735791 14.855726 
L 337.862454 97.071643 
L 98.33654 106.843381 
z
" clip-path="url(#p0e41ad6c2c)" style="fill: #442932; fill-opacity: 0.373487"/>
   </g>
   <g id="patch_245">
    <path d="M 48.696693 171.792504 
L 75.692746 256.20463 
L 22.422662 301.057965 
L 363.401523 258.576277 
z
" clip-path="url(#p0e41ad6c2c)" style="fill: #4d639c; fill-opacity: 0.074797"/>
   </g>
   <g id="patch_246">
    <path d="M 65.502398 31.298429 
L 47.296556 170.771834 
L 58.047556 292.967928 
z
" clip-path="url(#p0e41ad6c2c)" style="fill: #503020; fill-opacity: 0.117562"/>
   </g>
   <g id="patch_247">
    <path d="M 141.31271 287.519076 
L 421.188234 94.559133 
L 134.956611 82.680108 
L 44.475287 164.762576 
L 279.569534 282.686497 
z
" clip-path="url(#p0e41ad6c2c)" style="fill: #cc3b00; fill-opacity: 0.024042"/>
   </g>
   <g id="patch_248">
    <path d="M 262.850756 101.699817 
L 372.523876 112.119885 
L 54.95686 95.495768 
L 271.741197 22.555978 
z
" clip-path="url(#p0e41ad6c2c)" style="fill: #f08f7b; fill-opacity: 0.241913"/>
   </g>
   <g id="patch_249">
    <path d="M 244.469938 182.679408 
L 274.687734 24.828708 
L 183.422071 66.087586 
L 413.634342 13.57477 
L 33.989526 28.443819 
z
" clip-path="url(#p0e41ad6c2c)" style="fill: #ff863a; fill-opacity: 0.131582"/>
   </g>
   <g id="patch_250">
    <path d="M 98.621324 123.639949 
L 35.825504 178.39508 
L 123.086995 242.136288 
z
" clip-path="url(#p0e41ad6c2c)" style="fill: #c1c7a7; fill-opacity: 0.720387"/>
   </g>
   <g id="patch_251">
    <path d="M 339.488159 216.745805 
L 159.857402 44.844662 
L 310.547349 176.732419 
z
" clip-path="url(#p0e41ad6c2c)" style="fill: #ffe7b2; fill-opacity: 0.120976"/>
   </g>
   <g id="patch_252">
    <path d="M 128.993083 149.147571 
L 230.379196 135.320623 
L 320.253717 245.638231 
L 301.142195 166.795181 
z
" clip-path="url(#p0e41ad6c2c)" style="fill: #dfafac; fill-opacity: 0.193897"/>
   </g>
   <g id="patch_253">
    <path d="M 402.153557 195.505802 
L 411.840252 125.857675 
L 423.246106 215.399132 
z
" clip-path="url(#p0e41ad6c2c)" style="fill: #2f1810; fill-opacity: 0.741943"/>
   </g>
   <g id="patch_254">
    <path d="M 384.548758 4.67591 
L 162.971464 236.435147 
L 275.832188 286.839407 
L 296.740539 36.590563 
z
" clip-path="url(#p0e41ad6c2c)" style="fill: #80614a; fill-opacity: 0.715686"/>
   </g>
   <g id="patch_255">
    <path d="M 365.620165 62.437291 
L 160.421523 26.414399 
L 361.903177 40.401613 
z
" clip-path="url(#p0e41ad6c2c)" style="fill: #e9d64d; fill-opacity: 0.259936"/>
   </g>
   <g id="patch_256">
    <path d="M 124.906303 5.876792 
L 204.358923 111.149679 
L 386.303122 276.16833 
z
" clip-path="url(#p0e41ad6c2c)" style="fill: #ffbb8e; fill-opacity: 0.140981"/>
   </g>
   <g id="patch_257">
    <path d="M 158.784685 105.072479 
L 328.351661 116.157485 
L 394.986636 136.938224 
L 268.419478 60.954863 
z
" clip-path="url(#p0e41ad6c2c)" style="fill: #ffd492; fill-opacity: 0.092676"/>
   </g>
   <g id="patch_258">
    <path d="M 341.589806 128.879727 
L 98.707392 127.105826 
L 268.798056 188.689496 
L 314.454011 164.835832 
L 141.841413 24.631737 
z
" clip-path="url(#p0e41ad6c2c)" style="fill: #ffab7a; fill-opacity: 0.130807"/>
   </g>
   <g id="patch_259">
    <path d="M 88.831472 274.084149 
L 48.276706 218.891827 
L 15.355108 294.239213 
L 1.894312 277.655373 
L 124.38644 43.300381 
z
" clip-path="url(#p0e41ad6c2c)" style="fill: #ffffcc; fill-opacity: 0.202365"/>
   </g>
  </g>
 </g>
 <defs>
  <clipPath id="p0e41ad6c2c">
   <rect x="0" y="0" width="452.16" height="329.76"/>
  </clipPath>
 </defs>
</svg>
