<?xml version="1.0" encoding="utf-8" standalone="no"?>
<!DOCTYPE svg PUBLIC "-//W3C//DTD SVG 1.1//EN"
  "http://www.w3.org/Graphics/SVG/1.1/DTD/svg11.dtd">
<svg xmlns:xlink="http://www.w3.org/1999/xlink" width="452.16pt" height="329.76pt" viewBox="0 0 452.16 329.76" xmlns="http://www.w3.org/2000/svg" version="1.1">
 <metadata>
  <rdf:RDF xmlns:dc="http://purl.org/dc/elements/1.1/" xmlns:cc="http://creativecommons.org/ns#" xmlns:rdf="http://www.w3.org/1999/02/22-rdf-syntax-ns#">
   <cc:Work>
    <dc:type rdf:resource="http://purl.org/dc/dcmitype/StillImage"/>
    <dc:date>2022-05-08T21:19:07.259206</dc:date>
    <dc:format>image/svg+xml</dc:format>
    <dc:creator>
     <cc:Agent>
      <dc:title>Matplotlib v3.5.2, https://matplotlib.org/</dc:title>
     </cc:Agent>
    </dc:creator>
   </cc:Work>
  </rdf:RDF>
 </metadata>
 <defs>
  <style type="text/css">*{stroke-linejoin: round; stroke-linecap: butt}</style>
 </defs>
 <g id="figure_1">
  <g id="patch_1">
   <path d="M 0 329.76 
L 452.16 329.76 
L 452.16 0 
L 0 0 
z
" style="fill: #ffffff"/>
  </g>
  <g id="axes_1">
   <g id="patch_2">
    <path d="M 0 329.76 
L 0 0 
L 452.16 0 
L 452.16 329.76 
z
" clip-path="url(#pfd29954ce9)" style="fill: #808080"/>
   </g>
   <g id="patch_3">
    <path d="M 314.169443 87.936035 
L 130.448411 98.758183 
L 143.835353 188.530939 
L 42.939598 262.367527 
L 354.84512 317.955267 
z
" clip-path="url(#pfd29954ce9)" style="fill: #ccebff"/>
   </g>
   <g id="patch_4">
    <path d="M 289.605979 152.782143 
L 56.17807 264.345911 
L 116.59316 173.957646 
L 110.559791 252.43083 
z
" clip-path="url(#pfd29954ce9)" style="fill: #27fdbc; fill-opacity: 0.859019"/>
   </g>
   <g id="patch_5">
    <path d="M 412.679016 275.384468 
L 63.928086 247.864225 
L 265.310477 20.818836 
L 88.254155 219.066569 
z
" clip-path="url(#pfd29954ce9)" style="fill: #d1ee87; fill-opacity: 0.259545"/>
   </g>
   <g id="patch_6">
    <path d="M 96.604367 64.583153 
L 3.945466 4.191128 
L 266.475858 161.273781 
L 17.580876 106.675383 
z
" clip-path="url(#pfd29954ce9)" style="fill: #b0a3b0; fill-opacity: 0.448272"/>
   </g>
   <g id="patch_7">
    <path d="M 23.174289 206.664339 
L 337.963391 44.12113 
L 440.46109 259.710243 
L 284.692101 49.627406 
z
" clip-path="url(#pfd29954ce9)" style="fill: #4a0901; fill-opacity: 0.673421"/>
   </g>
   <g id="patch_8">
    <path d="M 169.287105 41.035964 
L 0.180801 162.459313 
L 30.364672 218.692839 
z
" clip-path="url(#pfd29954ce9)" style="fill: #f0ffac; fill-opacity: 0.794801"/>
   </g>
   <g id="patch_9">
    <path d="M 356.612188 259.583014 
L 279.384204 9.362843 
L 198.491691 312.438432 
L 284.19118 202.282229 
z
" clip-path="url(#pfd29954ce9)" style="fill: #000759"/>
   </g>
   <g id="patch_10">
    <path d="M 218.543387 229.786314 
L 102.718771 279.470254 
L 277.219296 66.198587 
L 240.520584 31.300114 
z
" clip-path="url(#pfd29954ce9)" style="fill: #54c7ff"/>
   </g>
   <g id="patch_11">
    <path d="M 109.691191 215.978846 
L 304.619503 325.47416 
L 28.243908 3.866427 
L 75.139734 285.196976 
z
" clip-path="url(#pfd29954ce9)" style="fill: #cde583; fill-opacity: 0.832388"/>
   </g>
   <g id="patch_12">
    <path d="M 206.663495 179.641239 
L 148.324278 248.316672 
L 87.535057 104.81839 
L 274.273693 233.567676 
z
" clip-path="url(#pfd29954ce9)" style="fill: #3b6f51; fill-opacity: 0.095942"/>
   </g>
   <g id="patch_13">
    <path d="M 414.491689 118.989473 
L 322.930551 162.015393 
L 152.787319 315.987364 
L 247.530246 207.551394 
L 188.90241 21.674764 
L 414.491689 118.989473 
z
" clip-path="url(#pfd29954ce9)" style="fill: none"/>
   </g>
   <g id="patch_14">
    <path d="M 364.383087 174.733587 
L 105.911284 126.780065 
L 332.250887 285.154952 
z
" clip-path="url(#pfd29954ce9)" style="fill: #cc815d"/>
   </g>
   <g id="patch_15">
    <path d="M 398.84848 64.866089 
L 72.693027 269.758381 
L 254.725041 50.797068 
L 105.550029 327.79511 
L 366.603268 65.376064 
z
" clip-path="url(#pfd29954ce9)" style="fill: #000b0d"/>
   </g>
   <g id="patch_16">
    <path d="M 196.677117 52.483831 
L 40.850077 119.976261 
L 356.768886 75.076506 
L 173.905589 5.870786 
L 229.307243 250.23162 
z
" clip-path="url(#pfd29954ce9)" style="fill: #ec772d; fill-opacity: 0.383963"/>
   </g>
   <g id="patch_17">
    <path d="M 451.557627 118.034812 
L 71.224348 179.648982 
L 260.230792 291.086728 
L 268.12414 24.13223 
z
" clip-path="url(#pfd29954ce9)" style="fill: #4b4553; fill-opacity: 0.710183"/>
   </g>
   <g id="patch_18">
    <path d="M 316.201888 207.402221 
L 125.087079 66.128898 
L 413.678654 166.482957 
z
" clip-path="url(#pfd29954ce9)" style="fill: #002b65; fill-opacity: 0.503746"/>
   </g>
   <g id="patch_19">
    <path d="M 89.497135 311.648684 
L 149.781091 292.728515 
L 365.483188 137.600543 
L 203.220954 320.340445 
z
" clip-path="url(#pfd29954ce9)" style="fill: #000900; fill-opacity: 0.333468"/>
   </g>
   <g id="patch_20">
    <path d="M 173.925453 42.22298 
L 137.489625 49.339196 
L 150.535415 294.3503 
L 45.271887 255.655994 
z
" clip-path="url(#pfd29954ce9)" style="fill: #ffe2f3; fill-opacity: 0.862731"/>
   </g>
   <g id="patch_21">
    <path d="M 16.073443 42.936168 
L 251.244578 126.681398 
L 1.954129 35.934137 
L 389.549769 98.879149 
z
" clip-path="url(#pfd29954ce9)" style="fill: #7fc8b7; fill-opacity: 0.885824"/>
   </g>
   <g id="patch_22">
    <path d="M 346.320387 70.665068 
L 110.984609 311.404515 
L 133.34545 171.449522 
L 17.258263 74.820061 
z
" clip-path="url(#pfd29954ce9)" style="fill: #d7eaff"/>
   </g>
   <g id="patch_23">
    <path d="M 269.086398 288.485823 
L 224.403431 141.767501 
L 111.904311 196.090577 
z
" clip-path="url(#pfd29954ce9)" style="fill: #ffff63; fill-opacity: 0.246179"/>
   </g>
   <g id="patch_24">
    <path d="M 357.822923 228.978832 
L 17.266776 168.27347 
L 405.359444 28.820658 
z
" clip-path="url(#pfd29954ce9)" style="fill: #612044; fill-opacity: 0.687681"/>
   </g>
   <g id="patch_25">
    <path d="M 182.688312 169.271336 
L 61.969424 309.536995 
L 422.340905 167.56108 
L 266.15331 21.558812 
L 393.379293 25.34237 
z
" clip-path="url(#pfd29954ce9)" style="fill: #060d10; fill-opacity: 0.328671"/>
   </g>
   <g id="patch_26">
    <path d="M 399.801434 133.039743 
L 99.290011 11.31382 
L 341.554265 46.113547 
z
" clip-path="url(#pfd29954ce9)" style="fill: #510c06; fill-opacity: 0.930905"/>
   </g>
   <g id="patch_27">
    <path d="M 216.523368 221.271277 
L 75.495304 245.232954 
L 414.779352 109.867436 
z
" clip-path="url(#pfd29954ce9)" style="fill: #500e05; fill-opacity: 0.371606"/>
   </g>
   <g id="patch_28">
    <path d="M 83.104135 193.92142 
L 35.008336 72.11423 
L 274.133981 225.532585 
L 272.287701 8.839251 
z
" clip-path="url(#pfd29954ce9)" style="fill: #a8d5c1; fill-opacity: 0.576231"/>
   </g>
   <g id="patch_29">
    <path d="M 43.190763 326.957328 
L 113.683347 105.068278 
L 162.637689 158.411365 
L 246.29158 61.023649 
L 340.136446 251.193933 
z
" clip-path="url(#pfd29954ce9)" style="fill: #f3fdff; fill-opacity: 0.600203"/>
   </g>
   <g id="patch_30">
    <path d="M 9.664626 325.14483 
L 438.330092 25.062823 
L 116.120769 47.118986 
z
" clip-path="url(#pfd29954ce9)" style="fill: #680504; fill-opacity: 0.253901"/>
   </g>
   <g id="patch_31">
    <path d="M 141.853504 304.791494 
L 92.619089 308.838074 
L 163.052741 239.150983 
L 417.286749 290.357012 
z
" clip-path="url(#pfd29954ce9)" style="fill: #050911; fill-opacity: 0.782958"/>
   </g>
   <g id="patch_32">
    <path d="M 372.024906 98.621584 
L 293.456002 8.676587 
L 112.790273 305.716769 
z
" clip-path="url(#pfd29954ce9)" style="fill: #108699; fill-opacity: 0.816615"/>
   </g>
   <g id="patch_33">
    <path d="M 437.772496 279.156692 
L 303.344757 51.557142 
L 32.180592 60.042272 
L 428.329572 306.078659 
z
" clip-path="url(#pfd29954ce9)" style="fill: #d6ddfe; fill-opacity: 0.491759"/>
   </g>
   <g id="patch_34">
    <path d="M 11.772572 24.228333 
L 120.013511 298.954684 
L 46.709683 267.979223 
L 203.87082 48.718249 
z
" clip-path="url(#pfd29954ce9)" style="fill: #bcdaa5; fill-opacity: 0.162788"/>
   </g>
   <g id="patch_35">
    <path d="M 402.515682 116.675942 
L 58.176303 85.419701 
L 129.567596 202.544726 
z
" clip-path="url(#pfd29954ce9)" style="fill: #f6d4d8; fill-opacity: 0.872705"/>
   </g>
   <g id="patch_36">
    <path d="M 348.405417 329.08367 
L 98.595025 280.306621 
L 265.601861 51.955682 
L 9.353514 271.724015 
L 340.639697 193.252903 
z
" clip-path="url(#pfd29954ce9)" style="fill: #c7d6da; fill-opacity: 0.808137"/>
   </g>
   <g id="patch_37">
    <path d="M 107.43649 17.858342 
L 371.281371 118.719005 
L 197.768337 129.094089 
z
" clip-path="url(#pfd29954ce9)" style="fill: #2a2212; fill-opacity: 0.718914"/>
   </g>
   <g id="patch_38">
    <path d="M 381.814901 271.808193 
L 14.148365 58.118756 
L 203.326719 210.28604 
L 427.332423 59.296623 
z
" clip-path="url(#pfd29954ce9)" style="fill: #030000; fill-opacity: 0.510287"/>
   </g>
   <g id="patch_39">
    <path d="M 286.614721 84.524538 
L 365.403509 97.643666 
L 266.734236 270.391995 
z
" clip-path="url(#pfd29954ce9)" style="fill: #6d79cc; fill-opacity: 0.901188"/>
   </g>
   <g id="patch_40">
    <path d="M 234.841045 21.557105 
L 196.759871 71.796202 
L 69.192174 70.184707 
L 226.597985 267.659005 
L 194.699332 232.295451 
z
" clip-path="url(#pfd29954ce9)" style="fill: #ffc6d7"/>
   </g>
   <g id="patch_41">
    <path d="M 1.77066 72.13624 
L 296.79635 122.824642 
L 71.964305 313.327542 
L 40.252702 109.986165 
z
" clip-path="url(#pfd29954ce9)" style="fill: #958cbc; fill-opacity: 0.280125"/>
   </g>
   <g id="patch_42">
    <path d="M 8.738438 314.486118 
L 69.765657 7.074789 
L 236.987988 41.572428 
L 196.921054 100.104305 
L 352.111445 310.92713 
z
" clip-path="url(#pfd29954ce9)" style="fill: #ffffee; fill-opacity: 0.212561"/>
   </g>
   <g id="patch_43">
    <path d="M 224.486532 114.211657 
L 382.260183 2.874153 
L 388.983845 260.100257 
z
" clip-path="url(#pfd29954ce9)" style="fill: #000a00; fill-opacity: 0.338964"/>
   </g>
   <g id="patch_44">
    <path d="M 202.226295 54.300116 
L 167.635647 305.778225 
L 172.583404 122.641478 
z
" clip-path="url(#pfd29954ce9)" style="fill: #000f16; fill-opacity: 0.989911"/>
   </g>
   <g id="patch_45">
    <path d="M 48.343581 32.138358 
L 94.904653 7.190971 
L 294.199676 39.185487 
L 365.274906 53.370003 
z
" clip-path="url(#pfd29954ce9)" style="fill: #c1cac1; fill-opacity: 0.442056"/>
   </g>
   <g id="patch_46">
    <path d="M 143.481399 122.685564 
L 122.290366 23.010407 
L 101.59974 250.827069 
L 114.083454 163.593332 
z
" clip-path="url(#pfd29954ce9)" style="fill: #057ea8; fill-opacity: 0.714132"/>
   </g>
   <g id="patch_47">
    <path d="M 389.966706 150.507913 
L 322.602583 258.767847 
L 262.905385 125.885181 
z
" clip-path="url(#pfd29954ce9)" style="fill: #a8cce6; fill-opacity: 0.481001"/>
   </g>
   <g id="patch_48">
    <path d="M 329.958233 172.059826 
L 15.866044 301.693549 
L 22.608386 328.126208 
L 357.014472 139.445109 
L 408.831087 249.00587 
z
" clip-path="url(#pfd29954ce9)" style="fill: #cadacf; fill-opacity: 0.926733"/>
   </g>
   <g id="patch_49">
    <path d="M 248.576327 189.089691 
L 358.158687 52.413291 
L 285.324768 8.414096 
z
" clip-path="url(#pfd29954ce9)" style="fill: #0070c7; fill-opacity: 0.981979"/>
   </g>
   <g id="patch_50">
    <path d="M 37.371936 66.753589 
L 79.407434 204.35071 
L 118.750564 37.837659 
L 410.08079 191.220331 
L 199.899219 317.208384 
z
" clip-path="url(#pfd29954ce9)" style="fill: #22292f; fill-opacity: 0.918352"/>
   </g>
   <g id="patch_51">
    <path d="M 81.593404 190.897796 
L 226.007994 45.088725 
L 367.029972 59.682218 
L 421.588209 53.020842 
L 295.821534 91.401828 
z
" clip-path="url(#pfd29954ce9)" style="fill: #f1c472"/>
   </g>
   <g id="patch_52">
    <path d="M 284.641657 58.288154 
L 382.029798 207.936626 
L 266.801101 29.64272 
L 69.215979 238.918599 
L 423.974818 265.388078 
z
" clip-path="url(#pfd29954ce9)" style="fill: #093b32; fill-opacity: 0.478357"/>
   </g>
   <g id="patch_53">
    <path d="M 97.965512 202.369154 
L 195.558632 146.22916 
L 345.224945 1.241153 
L 130.007402 157.707914 
z
" clip-path="url(#pfd29954ce9)" style="fill: #c28c17; fill-opacity: 0.500111"/>
   </g>
   <g id="patch_54">
    <path d="M 347.740402 151.264227 
L 233.276856 40.558607 
L 151.219 222.017149 
L 412.212586 248.093516 
z
" clip-path="url(#pfd29954ce9)" style="fill: #d3f9ff"/>
   </g>
   <g id="patch_55">
    <path d="M 430.898192 88.285598 
L 5.237731 165.703015 
L 434.530494 48.454516 
L 127.302223 139.546227 
z
" clip-path="url(#pfd29954ce9)" style="fill: #4e192d; fill-opacity: 0.599329"/>
   </g>
   <g id="patch_56">
    <path d="M 71.047975 288.441068 
L 232.459555 297.50137 
L 76.941673 299.525906 
L 343.578803 326.911293 
L 328.798743 310.3798 
z
" clip-path="url(#pfd29954ce9)" style="fill: #b9bfd5; fill-opacity: 0.186192"/>
   </g>
   <g id="patch_57">
    <path d="M 437.684901 323.35648 
L 234.541896 256.757215 
L 240.136355 118.541292 
z
" clip-path="url(#pfd29954ce9)" style="fill: #8288b9; fill-opacity: 0.504371"/>
   </g>
   <g id="patch_58">
    <path d="M 225.020482 286.997937 
L 222.587234 122.137529 
L 432.396367 248.648863 
L 399.337371 308.022282 
z
" clip-path="url(#pfd29954ce9)" style="fill: #b4cedd; fill-opacity: 0.660679"/>
   </g>
   <g id="patch_59">
    <path d="M 215.674693 130.564765 
L 9.632103 94.535734 
L 7.564745 242.363844 
L 4.659649 19.381859 
z
" clip-path="url(#pfd29954ce9)" style="fill: #c1bfa4; fill-opacity: 0.902354"/>
   </g>
   <g id="patch_60">
    <path d="M 15.166631 63.696177 
L 349.684138 128.158604 
L 149.175693 234.455935 
L 287.606404 68.363262 
z
" clip-path="url(#pfd29954ce9)" style="fill: #005350; fill-opacity: 0.352411"/>
   </g>
   <g id="patch_61">
    <path d="M 95.994535 12.702301 
L 288.062591 143.897559 
L 79.226782 36.136387 
z
" clip-path="url(#pfd29954ce9)" style="fill: #e3e3ea; fill-opacity: 0.091639"/>
   </g>
   <g id="patch_62">
    <path d="M 12.783439 293.54844 
L 92.775297 64.452649 
L 263.03223 17.627423 
L 73.561728 140.567053 
L 12.783439 293.54844 
z
" clip-path="url(#pfd29954ce9)" style="fill: none"/>
   </g>
   <g id="patch_63">
    <path d="M 15.279408 58.017715 
L 409.093714 3.17899 
L 403.180534 193.085261 
L 75.570667 151.160249 
z
" clip-path="url(#pfd29954ce9)" style="fill: #962525; fill-opacity: 0.004618"/>
   </g>
   <g id="patch_64">
    <path d="M 322.430519 109.0508 
L 257.335674 273.920862 
L 162.564666 80.299396 
z
" clip-path="url(#pfd29954ce9)" style="fill: #dfe037; fill-opacity: 0.809035"/>
   </g>
   <g id="patch_65">
    <path d="M 58.942212 312.536433 
L 291.391201 131.855068 
L 354.599454 118.995033 
L 187.939296 46.690646 
L 21.29387 38.708783 
L 58.942212 312.536433 
z
" clip-path="url(#pfd29954ce9)" style="fill: none"/>
   </g>
   <g id="patch_66">
    <path d="M 223.790113 63.604078 
L 435.993048 195.098692 
L 449.039177 238.972079 
L 349.514406 311.794281 
z
" clip-path="url(#pfd29954ce9)" style="fill: #f6846b; fill-opacity: 0.082375"/>
   </g>
   <g id="patch_67">
    <path d="M 336.577298 126.652828 
L 197.451115 58.816302 
L 316.939105 266.181699 
z
" clip-path="url(#pfd29954ce9)" style="fill: #001220"/>
   </g>
   <g id="patch_68">
    <path d="M 14.756312 0.478183 
L 329.089759 323.725398 
L 212.952138 299.624753 
L 57.990854 88.64285 
z
" clip-path="url(#pfd29954ce9)" style="fill: #c8c9cf; fill-opacity: 0.634139"/>
   </g>
   <g id="patch_69">
    <path d="M 269.763633 282.522593 
L 10.734219 14.837401 
L 419.368604 272.919394 
z
" clip-path="url(#pfd29954ce9)" style="fill: #948e98; fill-opacity: 0.551529"/>
   </g>
   <g id="patch_70">
    <path d="M 275.204209 34.405071 
L 33.899697 251.608355 
L 140.356799 41.316647 
L 98.270516 15.622912 
z
" clip-path="url(#pfd29954ce9)" style="fill: #7f8313; fill-opacity: 0.198615"/>
   </g>
   <g id="patch_71">
    <path d="M 334.021988 19.989215 
L 377.722635 4.693041 
L 264.55197 1.139706 
L 114.740255 131.332471 
z
" clip-path="url(#pfd29954ce9)" style="fill: #bbaa00; fill-opacity: 0.250379"/>
   </g>
   <g id="patch_72">
    <path d="M 224.002001 176.796388 
L 54.09739 51.305876 
L 34.112051 158.430589 
L 210.157277 302.001299 
L 339.198665 105.520802 
z
" clip-path="url(#pfd29954ce9)" style="fill: #4c5200; fill-opacity: 0.601691"/>
   </g>
   <g id="patch_73">
    <path d="M 411.479277 256.296354 
L 139.000078 181.62609 
L 251.397703 135.666712 
z
" clip-path="url(#pfd29954ce9)" style="fill: #a8b3cc; fill-opacity: 0.889169"/>
   </g>
   <g id="patch_74">
    <path d="M 167.39387 170.645523 
L 156.285911 96.611565 
L 111.163463 79.167372 
z
" clip-path="url(#pfd29954ce9)"/>
   </g>
   <g id="patch_75">
    <path d="M 199.039765 234.504212 
L 208.669864 319.891955 
L 320.20101 226.157635 
L 104.044904 116.600944 
L 18.86571 118.561849 
z
" clip-path="url(#pfd29954ce9)" style="fill: #79f8b4; fill-opacity: 0.051929"/>
   </g>
   <g id="patch_76">
    <path d="M 192.246188 144.017877 
L 11.207136 169.044372 
L 173.688614 77.842312 
z
" clip-path="url(#pfd29954ce9)" style="fill: #ccf493"/>
   </g>
   <g id="patch_77">
    <path d="M 275.576344 195.203235 
L 111.217322 168.676771 
L 67.746791 41.267737 
L 169.931119 287.480081 
z
" clip-path="url(#pfd29954ce9)" style="fill: #c7ebe3"/>
   </g>
   <g id="patch_78">
    <path d="M 406.069877 320.617505 
L 302.105312 313.657724 
L 224.62848 289.085712 
L 261.885204 182.341692 
L 2.719455 226.051739 
z
" clip-path="url(#pfd29954ce9)" style="fill: #e9eeff; fill-opacity: 0.517615"/>
   </g>
   <g id="patch_79">
    <path d="M 16.094202 253.143327 
L 28.447759 212.139775 
L 76.558899 296.435028 
L 17.814012 315.315579 
z
" clip-path="url(#pfd29954ce9)" style="fill: #b2cae7; fill-opacity: 0.907424"/>
   </g>
   <g id="patch_80">
    <path d="M 199.943049 126.648881 
L 192.182203 122.789259 
L 78.352402 259.271179 
L 217.77888 188.195668 
L 199.943049 126.648881 
z
" clip-path="url(#pfd29954ce9)" style="fill: none"/>
   </g>
   <g id="patch_81">
    <path d="M 247.849372 166.090897 
L 222.387061 68.852418 
L 75.55947 208.838695 
L 167.193255 301.696242 
z
" clip-path="url(#pfd29954ce9)" style="fill: #e9ffff; fill-opacity: 0.7201"/>
   </g>
   <g id="patch_82">
    <path d="M 283.407163 41.143105 
L 302.625666 319.946518 
L 221.522801 301.452139 
L 80.47617 148.584841 
z
" clip-path="url(#pfd29954ce9)" style="fill: #627889; fill-opacity: 0.213829"/>
   </g>
   <g id="patch_83">
    <path d="M 240.331306 190.823584 
L 310.408981 106.67159 
L 71.827268 119.81878 
L 85.002714 29.838182 
L 37.571924 7.257667 
z
" clip-path="url(#pfd29954ce9)" style="fill: #faffa7; fill-opacity: 0.167047"/>
   </g>
   <g id="patch_84">
    <path d="M 295.087191 211.321657 
L 259.625366 40.786808 
L 142.863339 255.162972 
z
" clip-path="url(#pfd29954ce9)" style="fill: #237832; fill-opacity: 0.467846"/>
   </g>
   <g id="patch_85">
    <path d="M 353.008887 223.262186 
L 167.003747 171.040705 
L 422.248136 230.479044 
L 42.160363 293.98793 
z
" clip-path="url(#pfd29954ce9)" style="fill: #b9c2d5"/>
   </g>
   <g id="patch_86">
    <path d="M 444.483595 176.239091 
L 310.676132 14.924238 
L 199.953313 163.112201 
z
" clip-path="url(#pfd29954ce9)" style="fill: #fffd8b; fill-opacity: 0.154256"/>
   </g>
   <g id="patch_87">
    <path d="M 220.300109 267.466939 
L 117.888254 246.353121 
L 262.996929 229.217547 
L 196.463769 68.992435 
L 387.836848 78.315307 
z
" clip-path="url(#pfd29954ce9)" style="fill-opacity: 0.893013"/>
   </g>
   <g id="patch_88">
    <path d="M 210.270585 62.945823 
L 34.837585 109.889909 
L 248.789928 215.921495 
z
" clip-path="url(#pfd29954ce9)" style="fill: #53492c; fill-opacity: 0.8824"/>
   </g>
   <g id="patch_89">
    <path d="M 6.026509 92.261678 
L 337.400066 216.831553 
L 104.324206 306.393589 
L 14.450468 61.871246 
L 107.152314 233.436389 
z
" clip-path="url(#pfd29954ce9)" style="fill: #feffff; fill-opacity: 0.722413"/>
   </g>
   <g id="patch_90">
    <path d="M 382.592996 10.530329 
L 68.408625 173.446371 
L 427.216312 10.96429 
z
" clip-path="url(#pfd29954ce9)" style="fill: #c66d1e; fill-opacity: 0.669729"/>
   </g>
   <g id="patch_91">
    <path d="M 242.773832 126.880918 
L 300.764071 21.497391 
L 448.868385 88.868909 
z
" clip-path="url(#pfd29954ce9)" style="fill: #00000a; fill-opacity: 0.225379"/>
   </g>
   <g id="patch_92">
    <path d="M 80.370095 188.470899 
L 24.663879 72.877211 
L 12.738868 114.020258 
L 315.788506 144.708403 
L 195.455924 316.572506 
z
" clip-path="url(#pfd29954ce9)" style="fill: #898e94"/>
   </g>
   <g id="patch_93">
    <path d="M 148.765638 132.220197 
L 7.478822 47.690866 
L 304.612839 188.311592 
L 311.953962 180.395037 
L 330.849986 258.490177 
z
" clip-path="url(#pfd29954ce9)" style="fill: #e9f9ff; fill-opacity: 0.670757"/>
   </g>
   <g id="patch_94">
    <path d="M 236.176531 221.224272 
L 193.613749 50.584642 
L 312.964401 212.807693 
L 193.602822 140.604194 
L 331.564278 15.760221 
z
" clip-path="url(#pfd29954ce9)" style="fill: #c2c751"/>
   </g>
   <g id="patch_95">
    <path d="M 449.716585 15.641439 
L 297.359507 87.842734 
L 315.57581 22.298671 
L 195.683227 3.842766 
z
" clip-path="url(#pfd29954ce9)" style="fill: #be6f00; fill-opacity: 0.438291"/>
   </g>
   <g id="patch_96">
    <path d="M 309.618915 67.370521 
L 258.59424 59.730561 
L 390.806114 326.499956 
L 162.213452 203.022583 
z
" clip-path="url(#pfd29954ce9)" style="fill: #e3f9ff; fill-opacity: 0.285032"/>
   </g>
   <g id="patch_97">
    <path d="M 441.815776 307.800958 
L 233.352062 71.459553 
L 184.866877 113.535911 
L 85.485975 313.585973 
L 48.040929 88.164375 
z
" clip-path="url(#pfd29954ce9)" style="fill: #c7dcfa; fill-opacity: 0.338155"/>
   </g>
   <g id="patch_98">
    <path d="M 445.958256 286.883735 
L 188.383941 13.971804 
L 189.510959 220.10485 
z
" clip-path="url(#pfd29954ce9)" style="fill: #f2ecf7; fill-opacity: 0.232852"/>
   </g>
   <g id="patch_99">
    <path d="M 22.002385 161.684546 
L 29.76516 326.010104 
L 74.294131 273.950944 
z
" clip-path="url(#pfd29954ce9)" style="fill: #c3cad3; fill-opacity: 0.925691"/>
   </g>
   <g id="patch_100">
    <path d="M 101.422158 323.998367 
L 390.798616 21.811375 
L 33.669845 124.184661 
L 346.402338 185.167692 
z
" clip-path="url(#pfd29954ce9)" style="fill: #001112; fill-opacity: 0.113926"/>
   </g>
   <g id="patch_101">
    <path d="M 256.610358 247.163727 
L 165.035561 25.858465 
L 293.651305 7.678791 
z
" clip-path="url(#pfd29954ce9)" style="fill: #df9dc6; fill-opacity: 0.32543"/>
   </g>
   <g id="patch_102">
    <path d="M 144.044771 304.584348 
L 405.220811 196.105069 
L 396.259163 15.414697 
L 191.643696 6.287055 
L 451.142183 50.728175 
z
" clip-path="url(#pfd29954ce9)" style="fill: #180d0e; fill-opacity: 0.083528"/>
   </g>
   <g id="patch_103">
    <path d="M 155.087291 192.970986 
L 60.386622 162.768149 
L 67.313362 28.02055 
L 220.237895 302.487523 
z
" clip-path="url(#pfd29954ce9)" style="fill: #ebebb8; fill-opacity: 0.905638"/>
   </g>
   <g id="patch_104">
    <path d="M 120.698813 159.442015 
L 212.90619 94.644413 
L 200.777363 291.642747 
L 237.254843 303.303529 
z
" clip-path="url(#pfd29954ce9)" style="fill: #110000; fill-opacity: 0.731445"/>
   </g>
   <g id="patch_105">
    <path d="M 446.369182 164.534388 
L 382.487356 38.776477 
L 238.08785 296.12621 
L 434.512482 7.931423 
z
" clip-path="url(#pfd29954ce9)" style="fill: #985000; fill-opacity: 0.510352"/>
   </g>
   <g id="patch_106">
    <path d="M 443.36964 326.777138 
L 353.185028 324.828637 
L 312.618991 196.787916 
L 13.071025 196.9189 
L 259.275156 43.501644 
z
" clip-path="url(#pfd29954ce9)" style="fill: #bec4ca; fill-opacity: 0.369188"/>
   </g>
   <g id="patch_107">
    <path d="M 378.714393 27.717935 
L 382.767975 96.752902 
L 242.286286 247.321598 
z
" clip-path="url(#pfd29954ce9)" style="fill: #5a4364; fill-opacity: 0.450062"/>
   </g>
   <g id="patch_108">
    <path d="M 92.090935 16.507334 
L 51.755658 12.714584 
L 187.320236 80.928152 
z
" clip-path="url(#pfd29954ce9)" style="fill: #fffa8b; fill-opacity: 0.26091"/>
   </g>
   <g id="patch_109">
    <path d="M 54.415457 25.955614 
L 83.46682 16.126722 
L 70.974872 321.177366 
L 119.78215 30.04966 
z
" clip-path="url(#pfd29954ce9)" style="fill: #e6ffc4; fill-opacity: 0.49908"/>
   </g>
   <g id="patch_110">
    <path d="M 414.56861 94.95107 
L 161.089015 223.956966 
L 134.377039 221.448001 
L 16.82052 117.90738 
L 271.828793 159.147602 
z
" clip-path="url(#pfd29954ce9)" style="fill: #282312; fill-opacity: 0.987242"/>
   </g>
   <g id="patch_111">
    <path d="M 290.127351 144.169866 
L 282.004183 310.606157 
L 260.479011 261.124766 
L 129.594362 146.94385 
z
" clip-path="url(#pfd29954ce9)" style="fill: #42708b; fill-opacity: 0.486971"/>
   </g>
   <g id="patch_112">
    <path d="M 29.438515 6.025158 
L 82.284626 93.047801 
L 19.594151 76.054466 
L 451.263222 304.215774 
L 29.438515 6.025158 
z
" clip-path="url(#pfd29954ce9)" style="fill: none"/>
   </g>
   <g id="patch_113">
    <path d="M 418.285735 134.253937 
L 385.819122 145.287225 
L 269.769999 207.167179 
L 141.670152 293.45999 
z
" clip-path="url(#pfd29954ce9)" style="fill: #d8f0e4; fill-opacity: 0.960055"/>
   </g>
   <g id="patch_114">
    <path d="M 8.925695 98.196641 
L 254.67562 326.278865 
L 336.109148 153.485916 
z
" clip-path="url(#pfd29954ce9)" style="fill: #b3cddb; fill-opacity: 0.551156"/>
   </g>
   <g id="patch_115">
    <path d="M 85.946619 232.995914 
L 350.573417 14.751789 
L 309.438308 76.62648 
z
" clip-path="url(#pfd29954ce9)" style="fill: #ffe36d; fill-opacity: 0.931191"/>
   </g>
   <g id="patch_116">
    <path d="M 69.470995 163.496861 
L 19.099931 48.852504 
L 294.205142 252.341979 
L 87.973311 120.175313 
z
" clip-path="url(#pfd29954ce9)" style="fill: #327788; fill-opacity: 0.388"/>
   </g>
   <g id="patch_117">
    <path d="M 251.000871 289.684482 
L 159.833559 87.595752 
L 88.927783 122.755695 
L 247.390139 110.183016 
L 210.922325 257.555485 
z
" clip-path="url(#pfd29954ce9)" style="fill: #8b7656"/>
   </g>
   <g id="patch_118">
    <path d="M 429.936864 233.607284 
L 189.660186 280.70389 
L 253.796685 99.159702 
L 96.179786 147.714503 
L 284.036023 259.08067 
z
" clip-path="url(#pfd29954ce9)" style="fill: #303939; fill-opacity: 0.296871"/>
   </g>
   <g id="patch_119">
    <path d="M 228.188853 165.831137 
L 284.542505 130.639568 
L 311.751412 77.232033 
L 275.476754 278.086378 
z
" clip-path="url(#pfd29954ce9)" style="fill-opacity: 0.977336"/>
   </g>
   <g id="patch_120">
    <path d="M 133.557248 72.445858 
L 87.117033 131.101682 
L 25.049841 35.473734 
L 184.314751 236.639917 
z
" clip-path="url(#pfd29954ce9)" style="fill: #000200; fill-opacity: 0.307808"/>
   </g>
   <g id="patch_121">
    <path d="M 330.720426 66.431529 
L 310.122818 214.23453 
L 425.709378 88.872189 
z
" clip-path="url(#pfd29954ce9)" style="fill: #0a2d47; fill-opacity: 0.27367"/>
   </g>
   <g id="patch_122">
    <path d="M 8.025132 204.359854 
L 161.863616 317.760367 
L 247.05663 267.970681 
L 111.222796 252.869947 
L 8.025132 204.359854 
z
" clip-path="url(#pfd29954ce9)" style="fill: none"/>
   </g>
   <g id="patch_123">
    <path d="M 206.843215 178.311633 
L 169.247513 173.39254 
L 93.530641 119.541542 
L 176.942608 304.698021 
L 265.372748 277.546186 
z
" clip-path="url(#pfd29954ce9)" style="fill: #5b584f; fill-opacity: 0.983342"/>
   </g>
   <g id="patch_124">
    <path d="M 87.751959 5.834271 
L 95.610582 276.572722 
L 97.162157 142.259754 
L 90.8017 140.754106 
z
" clip-path="url(#pfd29954ce9)" style="fill: #cfc5ff; fill-opacity: 0.663951"/>
   </g>
   <g id="patch_125">
    <path d="M 289.034674 121.770429 
L 254.318005 6.298331 
L 142.533296 245.140994 
L 156.01006 214.730422 
z
" clip-path="url(#pfd29954ce9)" style="fill: #924133; fill-opacity: 0.363499"/>
   </g>
   <g id="patch_126">
    <path d="M 340.29836 146.445617 
L 226.792377 300.911837 
L 261.770654 123.866067 
L 13.403904 227.278708 
L 332.62011 163.293131 
z
" clip-path="url(#pfd29954ce9)" style="fill: #2d0000; fill-opacity: 0.176247"/>
   </g>
   <g id="patch_127">
    <path d="M 133.185333 177.118131 
L 239.032778 249.650965 
L 220.577784 119.0248 
L 88.662096 149.267649 
L 417.689169 97.076137 
z
" clip-path="url(#pfd29954ce9)" style="fill: #474e46; fill-opacity: 0.994033"/>
   </g>
   <g id="patch_128">
    <path d="M 10.652637 261.379723 
L 305.491389 296.531114 
L 164.554015 291.743972 
L 243.158227 246.487015 
z
" clip-path="url(#pfd29954ce9)" style="fill: #050000; fill-opacity: 0.114827"/>
   </g>
   <g id="patch_129">
    <path d="M 37.943712 154.023968 
L 302.309465 205.455938 
L 218.371436 313.233994 
z
" clip-path="url(#pfd29954ce9)" style="fill: #3e3938; fill-opacity: 0.412258"/>
   </g>
   <g id="patch_130">
    <path d="M 2.558419 88.659643 
L 329.83078 150.522504 
L 413.133473 216.825786 
L 209.359876 165.65653 
z
" clip-path="url(#pfd29954ce9)" style="fill: #0e0000; fill-opacity: 0.630125"/>
   </g>
   <g id="patch_131">
    <path d="M 365.094989 216.35459 
L 198.384443 75.577043 
L 332.235295 83.631282 
L 110.51636 278.433235 
L 369.028074 190.658479 
z
" clip-path="url(#pfd29954ce9)" style="fill: #ffddeb; fill-opacity: 0.186752"/>
   </g>
   <g id="patch_132">
    <path d="M 132.273754 161.83494 
L 349.220698 71.772285 
L 121.119615 235.387399 
z
" clip-path="url(#pfd29954ce9)" style="fill: #000300; fill-opacity: 0.503326"/>
   </g>
   <g id="patch_133">
    <path d="M 146.365449 261.971838 
L 99.748857 129.254477 
L 172.67011 149.916106 
L 46.476574 167.954827 
L 366.313618 284.677157 
z
" clip-path="url(#pfd29954ce9)" style="fill: #423726"/>
   </g>
   <g id="patch_134">
    <path d="M 277.353384 124.068258 
L 254.025666 101.651496 
L 220.364649 292.591588 
L 260.923184 298.004682 
z
" clip-path="url(#pfd29954ce9)" style="fill: #000900; fill-opacity: 0.353014"/>
   </g>
   <g id="patch_135">
    <path d="M 48.275043 307.320261 
L 130.387327 138.42223 
L 126.742367 324.975228 
z
" clip-path="url(#pfd29954ce9)" style="fill: #c6bed5; fill-opacity: 0.470359"/>
   </g>
   <g id="patch_136">
    <path d="M 170.311027 236.516566 
L 180.816016 177.141163 
L 394.284797 114.818434 
L 146.180753 313.69545 
z
" clip-path="url(#pfd29954ce9)" style="fill: #000017; fill-opacity: 0.188766"/>
   </g>
   <g id="patch_137">
    <path d="M 142.309044 185.170393 
L 200.505777 252.692514 
L 437.964013 307.853899 
z
" clip-path="url(#pfd29954ce9)" style="fill: #a9b0ba; fill-opacity: 0.965675"/>
   </g>
   <g id="patch_138">
    <path d="M 121.866556 326.740201 
L 361.793389 134.600021 
L 50.815023 218.503504 
L 309.690532 129.187933 
z
" clip-path="url(#pfd29954ce9)" style="fill: #361838; fill-opacity: 0.157102"/>
   </g>
   <g id="patch_139">
    <path d="M 396.442889 253.865091 
L 437.660269 283.300764 
L 437.003413 198.070047 
z
" clip-path="url(#pfd29954ce9)" style="fill: #d3c5d4; fill-opacity: 0.474418"/>
   </g>
   <g id="patch_140">
    <path d="M 14.749076 39.564828 
L 3.190471 323.051041 
L 103.467222 0.998866 
L 289.242349 48.375298 
z
" clip-path="url(#pfd29954ce9)" style="fill: #c8bb9d; fill-opacity: 0.733212"/>
   </g>
   <g id="patch_141">
    <path d="M 365.183211 315.694906 
L 153.568543 309.764204 
L 140.623754 111.869117 
z
" clip-path="url(#pfd29954ce9)" style="fill: #532910; fill-opacity: 0.205697"/>
   </g>
   <g id="patch_142">
    <path d="M 77.361111 157.74878 
L 344.53242 298.917563 
L 321.275376 315.978241 
z
" clip-path="url(#pfd29954ce9)" style="fill: #c6b2e2; fill-opacity: 0.141649"/>
   </g>
   <g id="patch_143">
    <path d="M 145.514848 175.759854 
L 77.164631 91.355089 
L 38.532442 144.407985 
L 3.607175 219.873108 
L 234.306511 168.139121 
z
" clip-path="url(#pfd29954ce9)" style="fill: #cbc198; fill-opacity: 0.87869"/>
   </g>
   <g id="patch_144">
    <path d="M 112.114568 6.584164 
L 3.487459 324.948296 
L 75.327055 275.619076 
z
" clip-path="url(#pfd29954ce9)" style="fill: #cbd1d0; fill-opacity: 0.82178"/>
   </g>
   <g id="patch_145">
    <path d="M 180.144324 180.740423 
L 396.790616 323.825656 
L 144.444399 12.785827 
L 93.287293 182.815922 
z
" clip-path="url(#pfd29954ce9)" style="fill: #66302d; fill-opacity: 0.128261"/>
   </g>
   <g id="patch_146">
    <path d="M 269.702599 306.50966 
L 281.778732 189.189201 
L 47.890234 154.109826 
L 396.650105 144.517397 
z
" clip-path="url(#pfd29954ce9)" style="fill: #d7b1bc; fill-opacity: 0.276017"/>
   </g>
   <g id="patch_147">
    <path d="M 70.241183 225.444173 
L 431.329073 8.4787 
L 431.392115 214.630747 
L 38.429298 104.448613 
z
" clip-path="url(#pfd29954ce9)" style="fill: #160200; fill-opacity: 0.054928"/>
   </g>
   <g id="patch_148">
    <path d="M 347.38696 11.245042 
L 159.81457 139.901407 
L 286.5299 116.450618 
L 289.507327 10.151531 
L 4.822169 266.366711 
z
" clip-path="url(#pfd29954ce9)" style="fill: #403100; fill-opacity: 0.124268"/>
   </g>
   <g id="patch_149">
    <path d="M 96.122862 183.478288 
L 53.145446 148.002529 
L 264.973266 200.662972 
z
" clip-path="url(#pfd29954ce9)" style="fill: #dbfcb3"/>
   </g>
   <g id="patch_150">
    <path d="M 203.215685 2.712982 
L 220.66335 150.225059 
L 107.10929 157.05656 
L 237.836922 290.64455 
z
" clip-path="url(#pfd29954ce9)" style="fill: #1e0c66; fill-opacity: 0.89131"/>
   </g>
   <g id="patch_151">
    <path d="M 235.727062 79.809526 
L 241.471752 319.875453 
L 78.400929 143.260826 
L 222.549829 135.585031 
L 191.489369 216.390003 
z
" clip-path="url(#pfd29954ce9)" style="fill: #66513e; fill-opacity: 0.960649"/>
   </g>
   <g id="patch_152">
    <path d="M 201.926012 110.601215 
L 189.463398 272.821744 
L 136.457391 165.124805 
z
" clip-path="url(#pfd29954ce9)" style="fill: #6e5144; fill-opacity: 0.907757"/>
   </g>
   <g id="patch_153">
    <path d="M 33.777245 45.513548 
L 123.270886 142.365135 
L 320.372912 221.169309 
z
" clip-path="url(#pfd29954ce9)" style="fill: #cdae7c; fill-opacity: 0.407092"/>
   </g>
   <g id="patch_154">
    <path d="M 296.752652 210.594743 
L 51.453275 199.233045 
L 123.225867 280.807248 
L 105.752893 119.484418 
z
" clip-path="url(#pfd29954ce9)" style="fill: #0c2e45; fill-opacity: 0.026854"/>
   </g>
   <g id="patch_155">
    <path d="M 189.342811 5.500429 
L 29.091075 81.967349 
L 438.564378 96.846627 
L 328.895267 24.090632 
z
" clip-path="url(#pfd29954ce9)" style="fill: #834109; fill-opacity: 0.236974"/>
   </g>
   <g id="patch_156">
    <path d="M 352.199638 227.601707 
L 219.768211 7.635259 
L 282.13639 140.575061 
z
" clip-path="url(#pfd29954ce9)" style="fill: #e2b27f; fill-opacity: 0.312117"/>
   </g>
   <g id="patch_157">
    <path d="M 275.477125 309.504747 
L 57.439438 236.799201 
L 360.170422 239.809422 
z
" clip-path="url(#pfd29954ce9)" style="fill: #150000; fill-opacity: 0.144479"/>
   </g>
   <g id="patch_158">
    <path d="M 25.426452 233.519595 
L 435.720642 238.710754 
L 33.962519 194.262371 
z
" clip-path="url(#pfd29954ce9)" style="fill: #757d35; fill-opacity: 0.098414"/>
   </g>
   <g id="patch_159">
    <path d="M 364.818642 108.584162 
L 277.245494 133.199912 
L 284.752147 137.044352 
L 77.225679 218.217219 
z
" clip-path="url(#pfd29954ce9)" style="fill: #c0bfa1; fill-opacity: 0.51307"/>
   </g>
   <g id="patch_160">
    <path d="M 74.93594 195.220513 
L 342.348222 33.589832 
L 230.414753 211.935683 
L 316.836643 126.732867 
L 419.620121 157.195602 
z
" clip-path="url(#pfd29954ce9)" style="fill: #fff9ff; fill-opacity: 0.04693"/>
   </g>
   <g id="patch_161">
    <path d="M 432.849891 268.207293 
L 412.121407 291.187659 
L 256.771602 55.468877 
L 287.850726 43.027013 
z
" clip-path="url(#pfd29954ce9)" style="fill: #f2eaff; fill-opacity: 0.023682"/>
   </g>
   <g id="patch_162">
    <path d="M 346.328014 195.188128 
L 156.251485 161.90128 
L 33.562739 220.855346 
L 53.354209 200.368003 
z
" clip-path="url(#pfd29954ce9)" style="fill: #260100; fill-opacity: 0.183591"/>
   </g>
   <g id="patch_163">
    <path d="M 61.747256 191.275756 
L 82.508787 207.436732 
L 256.715275 159.583715 
L 68.654926 100.575507 
z
" clip-path="url(#pfd29954ce9)" style="fill: #ffd76b; fill-opacity: 0.13559"/>
   </g>
   <g id="patch_164">
    <path d="M 120.160171 261.876695 
L 274.212212 12.289682 
L 364.973825 177.062547 
L 96.880105 215.929512 
z
" clip-path="url(#pfd29954ce9)" style="fill: #ffe9ff; fill-opacity: 0.092356"/>
   </g>
   <g id="patch_165">
    <path d="M 189.060699 313.295884 
L 286.99603 262.645291 
L 245.98589 132.78392 
L 30.032371 132.683292 
L 289.576089 105.083801 
z
" clip-path="url(#pfd29954ce9)" style="fill: #001821; fill-opacity: 0.215738"/>
   </g>
   <g id="patch_166">
    <path d="M 97.601882 22.272085 
L 422.240679 223.610987 
L 424.787887 41.549629 
z
" clip-path="url(#pfd29954ce9)" style="fill: #3c0609; fill-opacity: 0.023051"/>
   </g>
   <g id="patch_167">
    <path d="M 450.493057 171.437181 
L 423.170115 233.615726 
L 451.421264 228.936553 
z
" clip-path="url(#pfd29954ce9)" style="fill: #8c645b; fill-opacity: 0.973273"/>
   </g>
   <g id="patch_168">
    <path d="M 174.574158 261.489943 
L 273.169589 133.643794 
L 108.400314 162.282252 
z
" clip-path="url(#pfd29954ce9)" style="fill: #c88e59; fill-opacity: 0.174167"/>
   </g>
   <g id="patch_169">
    <path d="M 135.616949 157.616052 
L 32.807914 66.422192 
L 373.42625 107.185512 
L 18.614728 255.596784 
L 135.616949 157.616052 
z
" clip-path="url(#pfd29954ce9)" style="fill: none"/>
   </g>
   <g id="patch_170">
    <path d="M 403.214852 184.006357 
L 93.303065 53.600751 
L 103.546819 268.708834 
L 403.214852 184.006357 
z
" clip-path="url(#pfd29954ce9)" style="fill: none"/>
   </g>
   <g id="patch_171">
    <path d="M 413.134341 231.02903 
L 366.696864 296.752854 
L 336.647183 110.398246 
z
" clip-path="url(#pfd29954ce9)" style="fill: #d3fae2; fill-opacity: 0.073998"/>
   </g>
   <g id="patch_172">
    <path d="M 91.671299 89.673489 
L 152.458227 13.856297 
L 12.955329 103.559852 
z
" clip-path="url(#pfd29954ce9)" style="fill: #c1cbad; fill-opacity: 0.537102"/>
   </g>
   <g id="patch_173">
    <path d="M 353.068357 325.445686 
L 297.946586 50.465867 
L 249.838447 285.84113 
z
" clip-path="url(#pfd29954ce9)" style="fill: #b5dee1; fill-opacity: 0.189837"/>
   </g>
   <g id="patch_174">
    <path d="M 395.178685 134.255809 
L 56.971355 191.22142 
L 267.626136 5.956026 
L 22.561076 323.258137 
L 278.766539 25.484545 
z
" clip-path="url(#pfd29954ce9)" style="fill: #8c37aa; fill-opacity: 0.021798"/>
   </g>
   <g id="patch_175">
    <path d="M 103.90243 142.819538 
L 385.735791 14.855726 
L 337.862454 97.071643 
L 98.33654 106.843381 
z
" clip-path="url(#pfd29954ce9)" style="fill: #392d23; fill-opacity: 0.318247"/>
   </g>
   <g id="patch_176">
    <path d="M 48.696693 171.792504 
L 75.692746 256.20463 
L 22.422662 301.057965 
L 363.401523 258.576277 
z
" clip-path="url(#pfd29954ce9)" style="fill: #598fc7; fill-opacity: 0.079346"/>
   </g>
   <g id="patch_177">
    <path d="M 141.31271 287.519076 
L 421.188234 94.559133 
L 134.956611 82.680108 
L 44.475287 164.762576 
L 279.569534 282.686497 
z
" clip-path="url(#pfd29954ce9)" style="fill: #a73408; fill-opacity: 0.068921"/>
   </g>
   <g id="patch_178">
    <path d="M 262.850756 101.699817 
L 372.523876 112.119885 
L 54.95686 95.495768 
L 271.741197 22.555978 
z
" clip-path="url(#pfd29954ce9)" style="fill: #ffad84; fill-opacity: 0.200358"/>
   </g>
   <g id="patch_179">
    <path d="M 244.469938 182.679408 
L 274.687734 24.828708 
L 183.422071 66.087586 
L 413.634342 13.57477 
L 33.989526 28.443819 
z
" clip-path="url(#pfd29954ce9)" style="fill: #ff863a; fill-opacity: 0.131582"/>
   </g>
   <g id="patch_180">
    <path d="M 98.621324 123.639949 
L 35.825504 178.39508 
L 123.086995 242.136288 
z
" clip-path="url(#pfd29954ce9)" style="fill: #c5bfa1; fill-opacity: 0.840611"/>
   </g>
   <g id="patch_181">
    <path d="M 339.488159 216.745805 
L 159.857402 44.844662 
L 310.547349 176.732419 
z
" clip-path="url(#pfd29954ce9)" style="fill: #ffc67e; fill-opacity: 0.193936"/>
   </g>
   <g id="patch_182">
    <path d="M 54.653385 129.025993 
L 128.993083 149.147571 
L 230.379196 135.320623 
L 320.253717 245.638231 
L 301.142195 166.795181 
z
" clip-path="url(#pfd29954ce9)" style="fill: #ff91b9; fill-opacity: 0.060493"/>
   </g>
   <g id="patch_183">
    <path d="M 402.153557 195.505802 
L 411.840252 125.857675 
L 423.246106 215.399132 
z
" clip-path="url(#pfd29954ce9)" style="fill: #412d28; fill-opacity: 0.952182"/>
   </g>
   <g id="patch_184">
    <path d="M 384.548758 4.67591 
L 162.971464 236.435147 
L 275.832188 286.839407 
L 296.740539 36.590563 
z
" clip-path="url(#pfd29954ce9)" style="fill: #7f6547; fill-opacity: 0.806207"/>
   </g>
   <g id="patch_185">
    <path d="M 365.620165 62.437291 
L 160.421523 26.414399 
L 361.903177 40.401613 
z
" clip-path="url(#pfd29954ce9)" style="fill: #cca95c; fill-opacity: 0.357504"/>
   </g>
   <g id="patch_186">
    <path d="M 371.52913 78.110476 
L 412.672453 141.165373 
L 444.041164 259.9068 
z
" clip-path="url(#pfd29954ce9)" style="fill: #f1f9d4; fill-opacity: 0.079151"/>
   </g>
   <g id="patch_187">
    <path d="M 341.589806 128.879727 
L 98.707392 127.105826 
L 314.454011 164.835832 
L 141.841413 24.631737 
z
" clip-path="url(#pfd29954ce9)" style="fill: #f4b37a; fill-opacity: 0.138571"/>
   </g>
   <g id="patch_188">
    <path d="M 88.831472 274.084149 
L 48.276706 218.891827 
L 15.355108 294.239213 
L 1.894312 277.655373 
L 124.38644 43.300381 
z
" clip-path="url(#pfd29954ce9)" style="fill: #ffffcd; fill-opacity: 0.193725"/>
   </g>
  </g>
 </g>
 <defs>
  <clipPath id="pfd29954ce9">
   <rect x="0" y="0" width="452.16" height="329.76"/>
  </clipPath>
 </defs>
</svg>
