<?xml version="1.0" encoding="utf-8" standalone="no"?>
<!DOCTYPE svg PUBLIC "-//W3C//DTD SVG 1.1//EN"
  "http://www.w3.org/Graphics/SVG/1.1/DTD/svg11.dtd">
<svg xmlns:xlink="http://www.w3.org/1999/xlink" width="216pt" height="288pt" viewBox="0 0 216 288" xmlns="http://www.w3.org/2000/svg" version="1.1">
 <metadata>
  <rdf:RDF xmlns:dc="http://purl.org/dc/elements/1.1/" xmlns:cc="http://creativecommons.org/ns#" xmlns:rdf="http://www.w3.org/1999/02/22-rdf-syntax-ns#">
   <cc:Work>
    <dc:type rdf:resource="http://purl.org/dc/dcmitype/StillImage"/>
    <dc:date>2022-05-08T15:33:29.811277</dc:date>
    <dc:format>image/svg+xml</dc:format>
    <dc:creator>
     <cc:Agent>
      <dc:title>Matplotlib v3.5.2, https://matplotlib.org/</dc:title>
     </cc:Agent>
    </dc:creator>
   </cc:Work>
  </rdf:RDF>
 </metadata>
 <defs>
  <style type="text/css">*{stroke-linejoin: round; stroke-linecap: butt}</style>
 </defs>
 <g id="figure_1">
  <g id="patch_1">
   <path d="M 0 288 
L 216 288 
L 216 0 
L 0 0 
z
" style="fill: #ffffff"/>
  </g>
  <g id="axes_1">
   <g id="patch_2">
    <path d="M 0 288 
L 0 0 
L 216 0 
L 216 288 
z
" clip-path="url(#p3181cdb994)" style="fill: #808080"/>
   </g>
   <g id="patch_3">
    <path d="M 26.652905 31.010185 
L 47.171385 74.42059 
L 184.297984 18.046211 
z
" clip-path="url(#p3181cdb994)" style="fill: #4d6a68; fill-opacity: 0.288827"/>
   </g>
   <g id="patch_4">
    <path d="M 209.890544 165.156877 
L 33.286506 83.227289 
L 143.946143 240.252229 
z
" clip-path="url(#p3181cdb994)" style="fill: #4d492e; fill-opacity: 0.054304"/>
   </g>
   <g id="patch_5">
    <path d="M 129.721569 136.754676 
L 175.381497 239.036941 
L 46.332665 229.728851 
L 178.456287 132.179084 
z
" clip-path="url(#p3181cdb994)" style="fill: #597465; fill-opacity: 0.198054"/>
   </g>
   <g id="patch_6">
    <path d="M 176.867952 218.062591 
L 25.981693 187.845424 
L 38.875434 4.558054 
L 158.505441 286.136395 
z
" clip-path="url(#p3181cdb994)" style="fill: #7da6aa; fill-opacity: 0.715026"/>
   </g>
   <g id="patch_7">
    <path d="M 67.042162 270.82765 
L 50.397679 127.074634 
L 17.499627 99.516052 
L 174.202132 197.916698 
z
" clip-path="url(#p3181cdb994)" style="fill: #905129; fill-opacity: 0.614251"/>
   </g>
   <g id="patch_8">
    <path d="M 43.432703 188.300265 
L 131.813487 100.947626 
L 20.861605 199.909477 
L 88.512644 178.229989 
z
" clip-path="url(#p3181cdb994)" style="fill: #acc7c0; fill-opacity: 0.22843"/>
   </g>
   <g id="patch_9">
    <path d="M 193.188265 72.506998 
L 99.536739 158.857561 
L 31.503062 265.122164 
z
" clip-path="url(#p3181cdb994)" style="fill: #ca91cd; fill-opacity: 0.464198"/>
   </g>
  </g>
 </g>
 <defs>
  <clipPath id="p3181cdb994">
   <rect x="0" y="0" width="216" height="288"/>
  </clipPath>
 </defs>
</svg>
