<?xml version="1.0" encoding="utf-8" standalone="no"?>
<!DOCTYPE svg PUBLIC "-//W3C//DTD SVG 1.1//EN"
  "http://www.w3.org/Graphics/SVG/1.1/DTD/svg11.dtd">
<svg xmlns:xlink="http://www.w3.org/1999/xlink" width="216pt" height="288pt" viewBox="0 0 216 288" xmlns="http://www.w3.org/2000/svg" version="1.1">
 <metadata>
  <rdf:RDF xmlns:dc="http://purl.org/dc/elements/1.1/" xmlns:cc="http://creativecommons.org/ns#" xmlns:rdf="http://www.w3.org/1999/02/22-rdf-syntax-ns#">
   <cc:Work>
    <dc:type rdf:resource="http://purl.org/dc/dcmitype/StillImage"/>
    <dc:date>2022-05-08T18:27:17.511838</dc:date>
    <dc:format>image/svg+xml</dc:format>
    <dc:creator>
     <cc:Agent>
      <dc:title>Matplotlib v3.5.2, https://matplotlib.org/</dc:title>
     </cc:Agent>
    </dc:creator>
   </cc:Work>
  </rdf:RDF>
 </metadata>
 <defs>
  <style type="text/css">*{stroke-linejoin: round; stroke-linecap: butt}</style>
 </defs>
 <g id="figure_1">
  <g id="patch_1">
   <path d="M 0 288 
L 216 288 
L 216 0 
L 0 0 
z
" style="fill: #ffffff"/>
  </g>
  <g id="axes_1">
   <g id="patch_2">
    <path d="M 0 288 
L 0 0 
L 216 0 
L 216 288 
z
" clip-path="url(#p11cfb682dc)" style="fill: #808080"/>
   </g>
   <g id="patch_3">
    <path d="M 26.403179 208.623394 
L 146.039937 256.107582 
L 28.307289 44.964927 
z
" clip-path="url(#p11cfb682dc)" style="fill: #1f1f29; fill-opacity: 0.254489"/>
   </g>
   <g id="patch_4">
    <path d="M 147.848155 6.194477 
L 82.972471 188.502252 
L 140.225131 56.48498 
z
" clip-path="url(#p11cfb682dc)" style="fill: #93c1f0; fill-opacity: 0.837162"/>
   </g>
   <g id="patch_5">
    <path d="M 113.454599 243.14236 
L 127.614944 238.844229 
L 160.701062 57.500386 
L 197.024678 117.159572 
z
" clip-path="url(#p11cfb682dc)" style="fill: #fffffd; fill-opacity: 0.959119"/>
   </g>
   <g id="patch_6">
    <path d="M 111.151133 32.447646 
L 206.477454 105.088754 
L 192.620938 90.656911 
L 112.770856 225.768041 
L 11.494481 9.148355 
z
" clip-path="url(#p11cfb682dc)" style="fill: #00353c; fill-opacity: 0.33436"/>
   </g>
   <g id="patch_7">
    <path d="M 7.316682 83.063581 
L 30.944987 32.241058 
L 188.138656 9.055289 
L 50.809747 201.84343 
L 11.605197 133.143284 
z
" clip-path="url(#p11cfb682dc)" style="fill: #a8f8e9; fill-opacity: 0.368753"/>
   </g>
   <g id="patch_8">
    <path d="M 185.370857 271.34286 
L 169.94084 257.094361 
L 52.335878 4.58107 
z
" clip-path="url(#p11cfb682dc)" style="fill: #cabeec; fill-opacity: 0.525428"/>
   </g>
   <g id="patch_9">
    <path d="M 161.984621 253.85353 
L 160.805363 255.746563 
L 211.745883 244.030379 
L 189.080258 179.104961 
L 28.93626 138.365985 
z
" clip-path="url(#p11cfb682dc)" style="fill: #205b25; fill-opacity: 0.007787"/>
   </g>
   <g id="patch_10">
    <path d="M 170.084412 225.070042 
L 199.1552 157.137207 
L 38.702327 79.665313 
L 62.049694 141.504672 
z
" clip-path="url(#p11cfb682dc)" style="fill: #d3ffb8; fill-opacity: 0.231559"/>
   </g>
   <g id="patch_11">
    <path d="M 105.117609 239.495154 
L 190.514819 279.450497 
L 126.203492 117.826644 
L 2.804066 257.515869 
z
" clip-path="url(#p11cfb682dc)" style="fill: #d2fce9; fill-opacity: 0.686655"/>
   </g>
   <g id="patch_12">
    <path d="M 138.643546 38.805132 
L 184.822005 151.234101 
L 63.024859 45.971867 
L 127.914617 189.127197 
z
" clip-path="url(#p11cfb682dc)" style="fill: #fffffc; fill-opacity: 0.964177"/>
   </g>
   <g id="patch_13">
    <path d="M 158.632201 214.922557 
L 63.924629 155.113985 
L 25.493963 255.470494 
z
" clip-path="url(#p11cfb682dc)" style="fill: #ffeeed"/>
   </g>
   <g id="patch_14">
    <path d="M 4.01943 264.154686 
L 174.868571 25.445162 
L 139.076244 18.038147 
z
" clip-path="url(#p11cfb682dc)" style="fill: #3a3f38; fill-opacity: 0.649461"/>
   </g>
   <g id="patch_15">
    <path d="M 167.583691 101.167071 
L 185.859575 283.607112 
L 73.37194 226.245026 
L 175.71664 167.203335 
L 168.369162 50.585841 
z
" clip-path="url(#p11cfb682dc)" style="fill: #d6f0e9; fill-opacity: 0.784966"/>
   </g>
   <g id="patch_16">
    <path d="M 153.840919 24.105501 
L 170.187892 183.468809 
L 103.647214 174.983406 
z
" clip-path="url(#p11cfb682dc)" style="fill: #061e79; fill-opacity: 0.954691"/>
   </g>
   <g id="patch_17">
    <path d="M 92.043383 10.47008 
L 0.080549 176.981976 
L 118.198126 240.047251 
z
" clip-path="url(#p11cfb682dc)" style="fill: #68b0bb; fill-opacity: 0.453237"/>
   </g>
   <g id="patch_18">
    <path d="M 170.867392 45.470129 
L 59.33993 42.967878 
L 190.784446 86.796058 
L 119.806418 22.181286 
z
" clip-path="url(#p11cfb682dc)" style="fill: #3c5c68; fill-opacity: 0.710053"/>
   </g>
   <g id="patch_19">
    <path d="M 63.428512 283.678625 
L 50.50289 282.023348 
L 127.800993 10.317664 
L 196.411484 171.307365 
L 101.96532 239.404633 
z
" clip-path="url(#p11cfb682dc)" style="fill: #c1dfbc; fill-opacity: 0.61017"/>
   </g>
   <g id="patch_20">
    <path d="M 165.042923 172.018486 
L 194.182252 193.415112 
L 193.470431 122.132921 
L 143.879371 138.158972 
L 49.423174 57.068866 
z
" clip-path="url(#p11cfb682dc)" style="fill: #040431; fill-opacity: 0.292687"/>
   </g>
   <g id="patch_21">
    <path d="M 186.554856 22.171639 
L 184.402976 131.161805 
L 137.364987 32.59078 
z
" clip-path="url(#p11cfb682dc)" style="fill: #003a49; fill-opacity: 0.321665"/>
   </g>
   <g id="patch_22">
    <path d="M 210.398842 267.261397 
L 122.777705 238.32953 
L 66.814731 127.208057 
z
" clip-path="url(#p11cfb682dc)" style="fill: #edfffb; fill-opacity: 0.471822"/>
   </g>
   <g id="patch_23">
    <path d="M 16.827841 281.195939 
L 0.787912 166.776781 
L 32.039714 222.468419 
L 117.981442 20.70358 
L 153.658916 182.679866 
z
" clip-path="url(#p11cfb682dc)" style="fill: #d4f9e5; fill-opacity: 0.911246"/>
   </g>
   <g id="patch_24">
    <path d="M 117.831545 83.056787 
L 174.415042 225.877308 
L 87.127243 272.962358 
L 33.693361 100.928006 
z
" clip-path="url(#p11cfb682dc)" style="fill: #250f00"/>
   </g>
   <g id="patch_25">
    <path d="M 82.05916 173.305548 
L 90.503414 117.936099 
L 9.313116 223.935631 
z
" clip-path="url(#p11cfb682dc)" style="fill: #f0e8db; fill-opacity: 0.936944"/>
   </g>
   <g id="patch_26">
    <path d="M 60.246159 55.723369 
L 121.653152 169.273157 
L 82.744912 166.597636 
L 121.721625 77.693784 
z
" clip-path="url(#p11cfb682dc)" style="fill: #96cac0; fill-opacity: 0.463875"/>
   </g>
   <g id="patch_27">
    <path d="M 156.894302 246.217976 
L 23.847326 193.362866 
L 132.339565 212.261906 
L 10.722302 188.156701 
L 99.244537 198.13209 
z
" clip-path="url(#p11cfb682dc)" style="fill: #780035; fill-opacity: 0.003119"/>
   </g>
   <g id="patch_28">
    <path d="M 51.383953 6.417059 
L 149.281656 162.578115 
L 107.600666 103.898981 
L 86.912965 58.709316 
z
" clip-path="url(#p11cfb682dc)" style="fill: #0b2c32; fill-opacity: 0.966432"/>
   </g>
   <g id="patch_29">
    <path d="M 14.148473 242.432871 
L 54.764216 158.681541 
L 126.706406 123.231982 
L 142.350439 5.25317 
z
" clip-path="url(#p11cfb682dc)" style="fill: #84a2a0; fill-opacity: 0.828611"/>
   </g>
   <g id="patch_30">
    <path d="M 147.474381 119.002169 
L 145.800383 238.267104 
L 141.309254 74.523762 
L 109.117072 101.413788 
L 121.604169 184.44809 
z
" clip-path="url(#p11cfb682dc)" style="fill: #081263; fill-opacity: 0.926111"/>
   </g>
   <g id="patch_31">
    <path d="M 85.045057 148.906163 
L 124.267429 186.493437 
L 91.494033 57.197533 
L 160.498731 201.961942 
L 154.154839 280.1109 
z
" clip-path="url(#p11cfb682dc)" style="fill: #115177"/>
   </g>
   <g id="patch_32">
    <path d="M 127.541739 106.957904 
L 111.339143 284.285299 
L 164.09088 129.953688 
z
" clip-path="url(#p11cfb682dc)" style="fill: #5c3100; fill-opacity: 0.225171"/>
   </g>
   <g id="patch_33">
    <path d="M 0.80607 220.152242 
L 99.709239 205.616471 
L 149.784463 7.561977 
z
" clip-path="url(#p11cfb682dc)" style="fill: #e2f0ff; fill-opacity: 0.596817"/>
   </g>
   <g id="patch_34">
    <path d="M 78.20963 256.62693 
L 95.267939 31.134215 
L 164.738598 202.652401 
L 6.698962 154.634826 
L 147.800849 93.327521 
z
" clip-path="url(#p11cfb682dc)" style="fill: #0047b1; fill-opacity: 0.529613"/>
   </g>
   <g id="patch_35">
    <path d="M 116.731022 79.27474 
L 175.584983 103.466935 
L 177.437696 242.575907 
L 170.006274 153.998524 
L 197.206342 101.649332 
z
" clip-path="url(#p11cfb682dc)" style="fill: #f4f8fe; fill-opacity: 0.921658"/>
   </g>
   <g id="patch_36">
    <path d="M 5.632292 260.913372 
L 54.701223 243.073267 
L 31.460117 189.472745 
z
" clip-path="url(#p11cfb682dc)" style="fill: #e6ffef"/>
   </g>
   <g id="patch_37">
    <path d="M 85.095028 150.392933 
L 31.22773 277.031805 
L 204.101624 265.223354 
L 100.242438 188.811958 
L 3.750056 112.88275 
z
" clip-path="url(#p11cfb682dc)" style="fill: #5e7053; fill-opacity: 0.215323"/>
   </g>
   <g id="patch_38">
    <path d="M 125.148485 102.115994 
L 3.10771 223.940477 
L 58.678178 159.359245 
L 199.487003 286.068764 
L 61.889072 89.820216 
z
" clip-path="url(#p11cfb682dc)" style="fill: #c9efce"/>
   </g>
   <g id="patch_39">
    <path d="M 193.225311 48.134442 
L 171.785659 46.362836 
L 75.925048 234.954904 
L 26.918791 246.990153 
z
" clip-path="url(#p11cfb682dc)" style="fill: #36414e; fill-opacity: 0.497508"/>
   </g>
   <g id="patch_40">
    <path d="M 181.199623 27.181826 
L 170.269128 167.332648 
L 210.8298 37.42802 
L 56.492426 221.986658 
L 212.325199 134.518143 
z
" clip-path="url(#p11cfb682dc)" style="fill: #126542; fill-opacity: 0.274529"/>
   </g>
   <g id="patch_41">
    <path d="M 127.285727 219.083055 
L 86.972273 13.587579 
L 179.342137 44.239803 
L 85.924081 286.315895 
L 146.979563 266.022055 
z
" clip-path="url(#p11cfb682dc)" style="fill: #001200; fill-opacity: 0.284984"/>
   </g>
   <g id="patch_42">
    <path d="M 62.36256 124.289018 
L 53.80787 235.572867 
L 7.888997 201.456426 
L 196.385304 85.978595 
L 69.23227 53.750003 
z
" clip-path="url(#p11cfb682dc)" style="fill: #83ffff; fill-opacity: 0.063819"/>
   </g>
   <g id="patch_43">
    <path d="M 20.834197 108.741443 
L 62.927351 152.691111 
L 70.266015 174.505986 
z
" clip-path="url(#p11cfb682dc)" style="fill: #a2739a; fill-opacity: 0.833942"/>
   </g>
   <g id="patch_44">
    <path d="M 200.14507 226.155777 
L 91.870483 277.876592 
L 78.572602 219.134637 
L 51.734527 245.530053 
z
" clip-path="url(#p11cfb682dc)" style="fill: #750000; fill-opacity: 0.559838"/>
   </g>
   <g id="patch_45">
    <path d="M 187.355995 100.991115 
L 34.071952 207.811201 
L 27.313444 117.005222 
L 81.064168 163.063902 
L 113.834811 84.773804 
z
" clip-path="url(#p11cfb682dc)" style="fill: #d2eedb"/>
   </g>
   <g id="patch_46">
    <path d="M 140.576532 195.867638 
L 55.985085 180.018415 
L 6.18779 89.742058 
z
" clip-path="url(#p11cfb682dc)" style="fill: #eebf9c; fill-opacity: 0.953337"/>
   </g>
   <g id="patch_47">
    <path d="M 3.488744 199.422821 
L 138.119923 185.372479 
L 3.195382 78.225837 
z
" clip-path="url(#p11cfb682dc)" style="fill: #f3ffff; fill-opacity: 0.852425"/>
   </g>
   <g id="patch_48">
    <path d="M 200.939865 245.405607 
L 39.798977 197.814957 
L 212.362547 141.444971 
L 166.999249 188.133823 
z
" clip-path="url(#p11cfb682dc)" style="fill: #092f2a; fill-opacity: 0.288485"/>
   </g>
   <g id="patch_49">
    <path d="M 63.011981 192.349602 
L 73.483632 263.11979 
L 164.461691 276.624828 
z
" clip-path="url(#p11cfb682dc)" style="fill: #172914; fill-opacity: 0.311521"/>
   </g>
   <g id="patch_50">
    <path d="M 106.02134 183.557088 
L 179.820815 229.056707 
L 160.410503 196.151987 
L 117.989522 148.324104 
L 152.989364 22.623569 
z
" clip-path="url(#p11cfb682dc)" style="fill: #0c4d29; fill-opacity: 0.872211"/>
   </g>
   <g id="patch_51">
    <path d="M 96.663838 44.48515 
L 132.585791 215.213102 
L 71.982335 188.653767 
z
" clip-path="url(#p11cfb682dc)" style="fill: #bbf8ff"/>
   </g>
   <g id="patch_52">
    <path d="M 170.224735 261.54881 
L 109.012957 262.754733 
L 116.506499 8.440856 
z
" clip-path="url(#p11cfb682dc)" style="fill: #8d6b51; fill-opacity: 0.58761"/>
   </g>
   <g id="patch_53">
    <path d="M 94.261322 277.061034 
L 69.851053 138.247425 
L 116.876872 166.598092 
L 180.542329 119.51447 
z
" clip-path="url(#p11cfb682dc)" style="fill: #007633; fill-opacity: 0.341655"/>
   </g>
   <g id="patch_54">
    <path d="M 55.202852 128.541551 
L 33.063253 262.923464 
L 100.426387 188.018604 
L 6.179932 197.866799 
L 79.85905 198.505539 
z
" clip-path="url(#p11cfb682dc)"/>
   </g>
   <g id="patch_55">
    <path d="M 64.088962 38.768599 
L 201.281005 210.517482 
L 120.731504 71.983577 
L 79.58302 184.044393 
L 214.34899 165.674201 
z
" clip-path="url(#p11cfb682dc)" style="fill: #3e0a00; fill-opacity: 0.462274"/>
   </g>
   <g id="patch_56">
    <path d="M 30.119906 137.403102 
L 156.515471 2.42809 
L 174.795692 262.26814 
L 2.89513 101.681417 
L 155.916635 15.086133 
z
" clip-path="url(#p11cfb682dc)" style="fill: #cbdccc; fill-opacity: 0.35394"/>
   </g>
   <g id="patch_57">
    <path d="M 197.166073 246.361998 
L 148.110244 234.838474 
L 140.859858 208.279004 
z
" clip-path="url(#p11cfb682dc)" style="fill: #feffff"/>
   </g>
   <g id="patch_58">
    <path d="M 131.693262 169.279325 
L 146.708734 164.409102 
L 8.689377 180.59242 
L 24.501027 214.706203 
L 143.198331 172.78838 
z
" clip-path="url(#p11cfb682dc)" style="fill: #e0dae3; fill-opacity: 0.982786"/>
   </g>
   <g id="patch_59">
    <path d="M 149.623242 121.144523 
L 164.782841 181.507221 
L 93.357765 141.86786 
z
" clip-path="url(#p11cfb682dc)" style="fill: #008c00; fill-opacity: 0.513869"/>
   </g>
   <g id="patch_60">
    <path d="M 136.420292 29.765869 
L 41.665419 59.805865 
L 183.72717 81.606911 
L 214.4372 110.798505 
z
" clip-path="url(#p11cfb682dc)" style="fill: #3c5767; fill-opacity: 0.861576"/>
   </g>
   <g id="patch_61">
    <path d="M 186.516972 95.237337 
L 201.51579 196.272591 
L 138.788304 140.303701 
L 196.484459 104.958802 
z
" clip-path="url(#p11cfb682dc)" style="fill: #457454; fill-opacity: 0.105867"/>
   </g>
   <g id="patch_62">
    <path d="M 0.564239 209.784701 
L 209.069238 161.705704 
L 83.92653 211.833856 
L 191.136375 77.822633 
z
" clip-path="url(#p11cfb682dc)" style="fill: #a2ddff; fill-opacity: 0.102219"/>
   </g>
   <g id="patch_63">
    <path d="M 124.956044 216.242163 
L 167.93947 159.07102 
L 118.855096 116.483715 
L 94.107456 197.277665 
z
" clip-path="url(#p11cfb682dc)" style="fill: #220a00"/>
   </g>
   <g id="patch_64">
    <path d="M 26.652905 31.010185 
L 47.171385 74.42059 
L 184.297984 18.046211 
z
" clip-path="url(#p11cfb682dc)" style="fill: #5f7677; fill-opacity: 0.83719"/>
   </g>
   <g id="patch_65">
    <path d="M 156.514415 231.370667 
L 98.732456 255.009714 
L 6.735051 128.707773 
L 25.035377 119.325158 
L 184.877325 90.307551 
z
" clip-path="url(#p11cfb682dc)" style="fill: #ebffff; fill-opacity: 0.335957"/>
   </g>
   <g id="patch_66">
    <path d="M 1.642991 273.500377 
L 92.040336 60.6315 
L 196.50686 175.447434 
L 189.387551 269.849289 
z
" clip-path="url(#p11cfb682dc)" style="fill: #ffffff; fill-opacity: 0.303064"/>
   </g>
   <g id="patch_67">
    <path d="M 79.042092 261.238625 
L 205.253632 145.054787 
L 213.040697 240.198344 
z
" clip-path="url(#p11cfb682dc)" style="fill: #007e60; fill-opacity: 0.192856"/>
   </g>
   <g id="patch_68">
    <path d="M 70.912738 96.995066 
L 109.501142 95.844138 
L 102.742931 206.961486 
L 75.833727 167.581624 
z
" clip-path="url(#p11cfb682dc)" style="fill: #f0ffff"/>
   </g>
   <g id="patch_69">
    <path d="M 163.058724 214.469468 
L 122.962048 250.65019 
L 114.150114 243.445988 
L 120.736646 264.888492 
z
" clip-path="url(#p11cfb682dc)" style="fill: #7a5914; fill-opacity: 0.415351"/>
   </g>
   <g id="patch_70">
    <path d="M 212.290175 207.379007 
L 185.019267 134.89571 
L 119.406111 260.124764 
L 52.081613 62.715259 
z
" clip-path="url(#p11cfb682dc)" style="fill: #5c6c61; fill-opacity: 0.774185"/>
   </g>
   <g id="patch_71">
    <path d="M 145.068178 222.691341 
L 177.731286 114.964795 
L 6.817817 162.169606 
L 145.068178 222.691341 
z
" clip-path="url(#p11cfb682dc)" style="fill: none"/>
   </g>
   <g id="patch_72">
    <path d="M 27.862738 287.790088 
L 130.163111 228.29024 
L 42.866161 196.094735 
L 62.67256 239.130528 
L 2.867986 152.920129 
z
" clip-path="url(#p11cfb682dc)" style="fill: #e4f1ef; fill-opacity: 0.953485"/>
   </g>
   <g id="patch_73">
    <path d="M 201.626711 253.325316 
L 118.748339 166.311238 
L 159.303537 166.14687 
z
" clip-path="url(#p11cfb682dc)" style="fill: #343424; fill-opacity: 0.810054"/>
   </g>
   <g id="patch_74">
    <path d="M 49.64539 184.278658 
L 132.428421 263.343494 
L 192.632301 160.610084 
L 158.887773 239.341755 
z
" clip-path="url(#p11cfb682dc)" style="fill: #e8c28f; fill-opacity: 0.569354"/>
   </g>
   <g id="patch_75">
    <path d="M 198.739328 286.383859 
L 174.633792 243.400804 
L 93.088269 110.406818 
z
" clip-path="url(#p11cfb682dc)" style="fill: #ffffff"/>
   </g>
   <g id="patch_76">
    <path d="M 13.757776 15.059227 
L 199.087387 216.84135 
L 110.149083 243.164947 
L 136.615419 32.58119 
z
" clip-path="url(#p11cfb682dc)" style="fill: #4e6a6d; fill-opacity: 0.292166"/>
   </g>
   <g id="patch_77">
    <path d="M 168.718782 94.07652 
L 12.103361 218.592261 
L 30.953051 186.65902 
L 38.030845 207.03648 
L 120.068611 95.365261 
z
" clip-path="url(#p11cfb682dc)" style="fill: #cbfbff; fill-opacity: 0.837211"/>
   </g>
   <g id="patch_78">
    <path d="M 100.124785 45.183613 
L 131.768096 159.276855 
L 120.300473 221.062891 
z
" clip-path="url(#p11cfb682dc)" style="fill: #718d71; fill-opacity: 0.378558"/>
   </g>
   <g id="patch_79">
    <path d="M 17.270282 219.664545 
L 186.620733 119.44893 
L 155.210455 105.712994 
z
" clip-path="url(#p11cfb682dc)" style="fill: #e4ffff; fill-opacity: 0.409885"/>
   </g>
   <g id="patch_80">
    <path d="M 79.008937 267.647082 
L 73.690088 240.207525 
L 143.053636 50.878628 
L 135.338509 94.149912 
z
" clip-path="url(#p11cfb682dc)" style="fill: #524c39"/>
   </g>
   <g id="patch_81">
    <path d="M 149.348073 248.235774 
L 126.422752 94.906736 
L 208.911833 30.720049 
L 101.021942 253.513763 
z
" clip-path="url(#p11cfb682dc)" style="fill: #000025; fill-opacity: 0.09279"/>
   </g>
   <g id="patch_82">
    <path d="M 21.391222 90.088435 
L 197.903034 87.916859 
L 169.299868 154.006453 
L 193.608167 41.947856 
z
" clip-path="url(#p11cfb682dc)" style="fill: #8bc3be; fill-opacity: 0.100249"/>
   </g>
   <g id="patch_83">
    <path d="M 17.226762 115.851984 
L 181.835307 158.193132 
L 207.958713 283.319224 
z
" clip-path="url(#p11cfb682dc)" style="fill: #f5ffff; fill-opacity: 0.454206"/>
   </g>
   <g id="patch_84">
    <path d="M 103.725331 88.912185 
L 8.619364 283.949382 
L 97.624783 126.975541 
L 76.328293 174.784895 
z
" clip-path="url(#p11cfb682dc)" style="fill: #e6ffff"/>
   </g>
   <g id="patch_85">
    <path d="M 142.792246 287.179856 
L 171.499387 105.02472 
L 106.184406 275.191141 
z
" clip-path="url(#p11cfb682dc)" style="fill: #062100; fill-opacity: 0.227302"/>
   </g>
   <g id="patch_86">
    <path d="M 196.051075 20.964574 
L 71.899299 101.52772 
L 105.098927 126.024497 
z
" clip-path="url(#p11cfb682dc)" style="fill: #8f9282; fill-opacity: 0.105135"/>
   </g>
   <g id="patch_87">
    <path d="M 189.267611 120.551188 
L 163.652331 146.411186 
L 54.07471 245.436962 
z
" clip-path="url(#p11cfb682dc)" style="fill: #747c16; fill-opacity: 0.305357"/>
   </g>
   <g id="patch_88">
    <path d="M 69.177573 50.421162 
L 68.760773 182.234981 
L 116.946934 218.345302 
z
" clip-path="url(#p11cfb682dc)" style="fill: #6f7776; fill-opacity: 0.756837"/>
   </g>
   <g id="patch_89">
    <path d="M 191.471858 28.186159 
L 85.732408 32.257903 
L 111.762085 25.15065 
z
" clip-path="url(#p11cfb682dc)" style="fill: #415762; fill-opacity: 0.203391"/>
   </g>
   <g id="patch_90">
    <path d="M 110.737418 138.621059 
L 99.058645 227.330615 
L 48.996557 137.571395 
L 150.996065 121.408265 
z
" clip-path="url(#p11cfb682dc)" style="fill: #70b8ce"/>
   </g>
   <g id="patch_91">
    <path d="M 109.913033 277.50289 
L 131.685494 152.428227 
L 140.448239 38.283763 
z
" clip-path="url(#p11cfb682dc)" style="fill: #5ad6ff; fill-opacity: 0.254769"/>
   </g>
   <g id="patch_92">
    <path d="M 177.364946 173.489845 
L 118.265099 118.980375 
L 139.067417 146.958155 
L 57.057945 252.468174 
z
" clip-path="url(#p11cfb682dc)" style="fill: #ed3f06; fill-opacity: 0.134027"/>
   </g>
   <g id="patch_93">
    <path d="M 113.194678 60.301421 
L 136.83205 218.574589 
L 166.528405 146.173734 
L 137.193228 271.251624 
z
" clip-path="url(#p11cfb682dc)" style="fill: #a60700; fill-opacity: 0.294862"/>
   </g>
   <g id="patch_94">
    <path d="M 15.872334 184.943885 
L 2.273398 194.228436 
L 97.412071 122.66744 
L 82.272858 126.176625 
z
" clip-path="url(#p11cfb682dc)" style="fill: #588988; fill-opacity: 0.178846"/>
   </g>
   <g id="patch_95">
    <path d="M 202.687469 252.321407 
L 39.182779 144.999875 
L 161.993681 203.163897 
z
" clip-path="url(#p11cfb682dc)" style="fill: #006395; fill-opacity: 0.097357"/>
   </g>
   <g id="patch_96">
    <path d="M 94.928806 37.067193 
L 91.068119 15.963039 
L 37.478756 235.306232 
L 137.639004 187.612567 
z
" clip-path="url(#p11cfb682dc)" style="fill: #affff1; fill-opacity: 0.155458"/>
   </g>
   <g id="patch_97">
    <path d="M 170.539396 177.459088 
L 43.179399 43.281415 
L 55.682417 71.267967 
L 63.636487 225.22686 
z
" clip-path="url(#p11cfb682dc)" style="fill: #80869a; fill-opacity: 0.39301"/>
   </g>
   <g id="patch_98">
    <path d="M 146.210765 283.47892 
L 99.77871 23.690582 
L 152.138256 17.677508 
z
" clip-path="url(#p11cfb682dc)" style="fill: #000705; fill-opacity: 0.04559"/>
   </g>
   <g id="patch_99">
    <path d="M 83.049796 98.84973 
L 41.108251 20.518253 
L 176.393865 115.148462 
z
" clip-path="url(#p11cfb682dc)" style="fill: #d4ffff; fill-opacity: 0.051948"/>
   </g>
   <g id="patch_100">
    <path d="M 185.440153 227.615454 
L 54.087549 177.280718 
L 94.17637 274.122764 
L 137.703509 183.575807 
L 30.059862 221.909072 
z
" clip-path="url(#p11cfb682dc)" style="fill: #351b13; fill-opacity: 0.58413"/>
   </g>
   <g id="patch_101">
    <path d="M 98.882091 252.792655 
L 130.216527 205.930721 
L 2.931124 194.764931 
z
" clip-path="url(#p11cfb682dc)" style="fill: #e8f0ef; fill-opacity: 0.978286"/>
   </g>
   <g id="patch_102">
    <path d="M 184.4863 194.162328 
L 21.835719 27.617442 
L 62.212521 96.656506 
z
" clip-path="url(#p11cfb682dc)" style="fill: #89aac0; fill-opacity: 0.162751"/>
   </g>
   <g id="patch_103">
    <path d="M 27.238107 146.564345 
L 109.2179 231.794553 
L 38.537329 251.627004 
L 7.72862 186.260707 
z
" clip-path="url(#p11cfb682dc)" style="fill: #dcf2ef; fill-opacity: 0.743783"/>
   </g>
   <g id="patch_104">
    <path d="M 108.039608 189.457178 
L 105.081537 270.813316 
L 79.11933 264.800591 
L 201.614552 201.763357 
L 131.468954 248.377653 
z
" clip-path="url(#p11cfb682dc)" style="fill: #513815; fill-opacity: 0.466595"/>
   </g>
   <g id="patch_105">
    <path d="M 210.508791 203.575061 
L 43.575024 276.483676 
L 52.738059 203.209994 
L 178.753811 208.669408 
z
" clip-path="url(#p11cfb682dc)" style="fill: #43133c; fill-opacity: 0.064226"/>
   </g>
   <g id="patch_106">
    <path d="M 203.100213 198.077301 
L 133.030658 283.387499 
L 99.457842 175.987149 
L 207.484684 271.161322 
z
" clip-path="url(#p11cfb682dc)" style="fill: #5d8468; fill-opacity: 0.249946"/>
   </g>
   <g id="patch_107">
    <path d="M 171.742353 230.774876 
L 154.053386 198.676728 
L 110.879656 156.5046 
z
" clip-path="url(#p11cfb682dc)" style="fill: #74755f"/>
   </g>
   <g id="patch_108">
    <path d="M 132.832752 183.537434 
L 117.522175 73.071203 
L 69.380177 155.816605 
L 132.832752 183.537434 
z
" clip-path="url(#p11cfb682dc)" style="fill: none"/>
   </g>
   <g id="patch_109">
    <path d="M 100.645154 130.223381 
L 71.019883 212.357644 
L 63.304391 287.149663 
L 39.699156 179.664842 
z
" clip-path="url(#p11cfb682dc)" style="fill: #c9bc9c; fill-opacity: 0.849218"/>
   </g>
   <g id="patch_110">
    <path d="M 75.568659 265.557797 
L 42.368851 177.887923 
L 203.452846 21.542573 
L 74.575485 156.487285 
z
" clip-path="url(#p11cfb682dc)" style="fill: #5c4c50; fill-opacity: 0.857751"/>
   </g>
   <g id="patch_111">
    <path d="M 69.477181 284.168884 
L 18.77313 257.876078 
L 71.43451 81.812842 
L 130.361106 169.529282 
z
" clip-path="url(#p11cfb682dc)" style="fill: #ffffcb; fill-opacity: 0.066725"/>
   </g>
   <g id="patch_112">
    <path d="M 198.866963 227.362313 
L 20.629264 178.033886 
L 17.783902 102.207692 
z
" clip-path="url(#p11cfb682dc)" style="fill: #a6885e; fill-opacity: 0.055849"/>
   </g>
   <g id="patch_113">
    <path d="M 131.947338 187.88694 
L 191.221169 146.675304 
L 96.716724 286.029418 
L 34.99028 48.986084 
z
" clip-path="url(#p11cfb682dc)" style="fill: #6b3600; fill-opacity: 0.070792"/>
   </g>
   <g id="patch_114">
    <path d="M 24.261741 228.038159 
L 129.982217 230.310721 
L 58.202522 228.509919 
z
" clip-path="url(#p11cfb682dc)" style="fill: #080008; fill-opacity: 0.884345"/>
   </g>
   <g id="patch_115">
    <path d="M 89.426468 49.126516 
L 119.308787 145.777419 
L 66.519389 155.52873 
L 202.976277 204.12551 
z
" clip-path="url(#p11cfb682dc)" style="fill: #083807; fill-opacity: 0.155129"/>
   </g>
   <g id="patch_116">
    <path d="M 85.274609 209.305701 
L 159.586563 213.606449 
L 45.640399 221.611306 
L 74.432791 116.619301 
L 135.865943 102.601867 
z
" clip-path="url(#p11cfb682dc)" style="fill: #5f3d2b; fill-opacity: 0.513917"/>
   </g>
   <g id="patch_117">
    <path d="M 188.509145 231.614037 
L 174.478645 185.090953 
L 156.623875 56.530689 
z
" clip-path="url(#p11cfb682dc)" style="fill: #75bdb9; fill-opacity: 0.203483"/>
   </g>
   <g id="patch_118">
    <path d="M 74.068233 167.010791 
L 24.41898 185.301735 
L 80.983121 189.20011 
z
" clip-path="url(#p11cfb682dc)" style="fill: #d8dbc6; fill-opacity: 0.01298"/>
   </g>
   <g id="patch_119">
    <path d="M 68.076012 232.798454 
L 161.312073 264.89759 
L 157.227303 236.953438 
L 62.538668 126.276282 
L 30.712416 144.057618 
z
" clip-path="url(#p11cfb682dc)" style="fill: #670008; fill-opacity: 0.127616"/>
   </g>
   <g id="patch_120">
    <path d="M 67.954939 283.071877 
L 139.656742 96.975252 
L 173.395599 7.667275 
L 43.273991 119.238182 
z
" clip-path="url(#p11cfb682dc)" style="fill: #005f00; fill-opacity: 0.027175"/>
   </g>
   <g id="patch_121">
    <path d="M 109.954311 207.401308 
L 34.221632 69.570053 
L 171.392132 213.729227 
L 105.88704 222.66161 
L 151.916989 129.668836 
z
" clip-path="url(#p11cfb682dc)" style="fill: #4a2500; fill-opacity: 0.153931"/>
   </g>
   <g id="patch_122">
    <path d="M 209.999337 41.747232 
L 209.890544 165.156877 
L 33.286506 83.227289 
L 143.946143 240.252229 
z
" clip-path="url(#p11cfb682dc)" style="fill: #466132; fill-opacity: 0.144397"/>
   </g>
   <g id="patch_123">
    <path d="M 215.019247 121.957356 
L 194.842506 31.597351 
L 28.217953 197.876698 
L 51.261894 182.916467 
L 212.518001 23.951315 
z
" clip-path="url(#p11cfb682dc)" style="fill: #004c59; fill-opacity: 0.263888"/>
   </g>
   <g id="patch_124">
    <path d="M 131.085509 284.000495 
L 53.986151 221.890853 
L 119.451118 126.563682 
z
" clip-path="url(#p11cfb682dc)" style="fill: #715830; fill-opacity: 0.85605"/>
   </g>
   <g id="patch_125">
    <path d="M 35.008327 259.259638 
L 44.453929 203.092866 
L 97.597478 79.683997 
z
" clip-path="url(#p11cfb682dc)" style="fill: #5dbc43; fill-opacity: 0.004826"/>
   </g>
   <g id="patch_126">
    <path d="M 122.739792 285.689064 
L 109.366879 77.460829 
L 209.782795 239.622414 
z
" clip-path="url(#p11cfb682dc)" style="fill: #032100; fill-opacity: 0.113199"/>
   </g>
   <g id="patch_127">
    <path d="M 20.01258 132.680686 
L 106.887464 84.79809 
L 117.861542 189.911624 
L 71.292225 73.639862 
z
" clip-path="url(#p11cfb682dc)" style="fill: #e1fffe; fill-opacity: 0.127936"/>
   </g>
   <g id="patch_128">
    <path d="M 129.721569 136.754676 
L 175.381497 239.036941 
L 46.332665 229.728851 
L 178.456287 132.179084 
z
" clip-path="url(#p11cfb682dc)" style="fill: #ea2606; fill-opacity: 0.073398"/>
   </g>
   <g id="patch_129">
    <path d="M 159.247636 158.187597 
L 138.272137 110.318384 
L 169.412642 72.953468 
z
" clip-path="url(#p11cfb682dc)" style="fill: #b0ffdf; fill-opacity: 0.273786"/>
   </g>
   <g id="patch_130">
    <path d="M 167.775164 208.374804 
L 64.573983 204.810891 
L 149.377633 134.706145 
z
" clip-path="url(#p11cfb682dc)" style="fill: #795132; fill-opacity: 0.864738"/>
   </g>
   <g id="patch_131">
    <path d="M 138.390464 86.252349 
L 57.451104 115.026023 
L 85.601319 181.742642 
z
" clip-path="url(#p11cfb682dc)" style="fill: #301a02; fill-opacity: 0.202151"/>
   </g>
   <g id="patch_132">
    <path d="M 176.867952 218.062591 
L 25.981693 187.845424 
L 38.875434 4.558054 
L 158.505441 286.136395 
z
" clip-path="url(#p11cfb682dc)" style="fill: #008e44; fill-opacity: 0.058791"/>
   </g>
   <g id="patch_133">
    <path d="M 76.330302 100.710316 
L 33.645637 212.504556 
L 110.740109 167.887141 
L 48.860746 92.729865 
L 87.89933 169.44067 
z
" clip-path="url(#p11cfb682dc)" style="fill: #1a1400; fill-opacity: 0.18268"/>
   </g>
   <g id="patch_134">
    <path d="M 132.755093 243.696177 
L 22.542574 191.183513 
L 128.593082 278.302791 
z
" clip-path="url(#p11cfb682dc)" style="fill: #0c0000; fill-opacity: 0.091292"/>
   </g>
   <g id="patch_135">
    <path d="M 107.990251 110.860324 
L 121.239171 113.878623 
L 170.811326 229.180842 
L 38.835222 184.0513 
z
" clip-path="url(#p11cfb682dc)" style="fill: #fdd57e; fill-opacity: 0.275932"/>
   </g>
   <g id="patch_136">
    <path d="M 141.338648 197.58594 
L 189.62474 36.069002 
L 139.269998 200.793629 
L 8.919711 171.83026 
L 9.370035 173.034154 
z
" clip-path="url(#p11cfb682dc)" style="fill: #7f3605; fill-opacity: 0.191628"/>
   </g>
   <g id="patch_137">
    <path d="M 67.042162 270.82765 
L 50.397679 127.074634 
L 17.499627 99.516052 
L 174.202132 197.916698 
z
" clip-path="url(#p11cfb682dc)" style="fill: #785643; fill-opacity: 0.427774"/>
   </g>
   <g id="patch_138">
    <path d="M 133.490646 252.945443 
L 82.465429 262.543008 
L 53.198202 103.612452 
L 28.165851 214.368234 
z
" clip-path="url(#p11cfb682dc)" style="fill: #555141; fill-opacity: 0.001969"/>
   </g>
   <g id="patch_139">
    <path d="M 187.765774 84.113701 
L 70.461594 74.689543 
L 99.063938 200.819695 
z
" clip-path="url(#p11cfb682dc)" style="fill: #ffffec; fill-opacity: 0.327907"/>
   </g>
   <g id="patch_140">
    <path d="M 184.211336 242.679096 
L 58.228597 270.531401 
L 16.325165 100.18498 
L 199.660892 136.434109 
L 206.561181 32.796777 
L 184.211336 242.679096 
z
" clip-path="url(#p11cfb682dc)" style="fill: none"/>
   </g>
   <g id="patch_141">
    <path d="M 136.370008 114.77399 
L 187.092142 120.676468 
L 65.091118 217.179676 
L 82.193388 120.552944 
L 67.317543 125.423546 
z
" clip-path="url(#p11cfb682dc)" style="fill: #9a6f50; fill-opacity: 0.557214"/>
   </g>
   <g id="patch_142">
    <path d="M 13.10054 246.43233 
L 71.684616 98.916347 
L 93.982538 167.653009 
L 13.10054 246.43233 
z
" clip-path="url(#p11cfb682dc)" style="fill: none"/>
   </g>
   <g id="patch_143">
    <path d="M 69.521029 225.558536 
L 31.977122 241.249312 
L 97.228491 167.308001 
L 130.993145 39.627913 
z
" clip-path="url(#p11cfb682dc)" style="fill: #4d4048; fill-opacity: 0.112319"/>
   </g>
   <g id="patch_144">
    <path d="M 0.63265 207.912877 
L 86.796626 120.197959 
L 44.501529 82.452229 
L 28.046395 263.955821 
z
" clip-path="url(#p11cfb682dc)" style="fill: #e7efe3; fill-opacity: 0.407871"/>
   </g>
   <g id="patch_145">
    <path d="M 193.188265 72.506998 
L 99.536739 158.857561 
L 69.577022 143.586972 
L 31.503062 265.122164 
z
" clip-path="url(#p11cfb682dc)" style="fill: #f1ff4d; fill-opacity: 0.016677"/>
   </g>
  </g>
 </g>
 <defs>
  <clipPath id="p11cfb682dc">
   <rect x="0" y="0" width="216" height="288"/>
  </clipPath>
 </defs>
</svg>
