<?xml version="1.0" encoding="utf-8" standalone="no"?>
<!DOCTYPE svg PUBLIC "-//W3C//DTD SVG 1.1//EN"
  "http://www.w3.org/Graphics/SVG/1.1/DTD/svg11.dtd">
<svg xmlns:xlink="http://www.w3.org/1999/xlink" width="216pt" height="288pt" viewBox="0 0 216 288" xmlns="http://www.w3.org/2000/svg" version="1.1">
 <metadata>
  <rdf:RDF xmlns:dc="http://purl.org/dc/elements/1.1/" xmlns:cc="http://creativecommons.org/ns#" xmlns:rdf="http://www.w3.org/1999/02/22-rdf-syntax-ns#">
   <cc:Work>
    <dc:type rdf:resource="http://purl.org/dc/dcmitype/StillImage"/>
    <dc:date>2022-05-08T15:47:13.600488</dc:date>
    <dc:format>image/svg+xml</dc:format>
    <dc:creator>
     <cc:Agent>
      <dc:title>Matplotlib v3.5.2, https://matplotlib.org/</dc:title>
     </cc:Agent>
    </dc:creator>
   </cc:Work>
  </rdf:RDF>
 </metadata>
 <defs>
  <style type="text/css">*{stroke-linejoin: round; stroke-linecap: butt}</style>
 </defs>
 <g id="figure_1">
  <g id="patch_1">
   <path d="M 0 288 
L 216 288 
L 216 0 
L 0 0 
z
" style="fill: #ffffff"/>
  </g>
  <g id="axes_1">
   <g id="patch_2">
    <path d="M 0 288 
L 0 0 
L 216 0 
L 216 288 
z
" clip-path="url(#p3f85ec66ca)" style="fill: #808080"/>
   </g>
   <g id="patch_3">
    <path d="M 111.151133 32.447646 
L 206.477454 105.088754 
L 100.694931 37.875655 
L 81.515277 123.248222 
z
" clip-path="url(#p3f85ec66ca)" style="fill: #01262c; fill-opacity: 0.36005"/>
   </g>
   <g id="patch_4">
    <path d="M 92.043383 10.47008 
L 0.080549 176.981976 
L 118.198126 240.047251 
L 22.145654 24.348199 
z
" clip-path="url(#p3f85ec66ca)" style="fill: #92ccbf; fill-opacity: 0.661932"/>
   </g>
   <g id="patch_5">
    <path d="M 117.831545 83.056787 
L 174.415042 225.877308 
L 210.804455 271.0564 
L 33.693361 100.928006 
z
" clip-path="url(#p3f85ec66ca)" style="fill: #506e4d; fill-opacity: 0.922135"/>
   </g>
   <g id="patch_6">
    <path d="M 175.584983 103.466935 
L 177.437696 242.575907 
L 170.006274 153.998524 
L 197.206342 101.649332 
L 39.012727 143.865135 
z
" clip-path="url(#p3f85ec66ca)" style="fill: #defde0; fill-opacity: 0.657823"/>
   </g>
   <g id="patch_7">
    <path d="M 200.14507 226.155777 
L 78.572602 219.134637 
L 51.734527 245.530053 
z
" clip-path="url(#p3f85ec66ca)" style="fill: #005c29; fill-opacity: 0.768232"/>
   </g>
   <g id="patch_8">
    <path d="M 63.011981 192.349602 
L 73.483632 263.11979 
L 164.461691 276.624828 
z
" clip-path="url(#p3f85ec66ca)" style="fill: #502700; fill-opacity: 0.742929"/>
   </g>
   <g id="patch_9">
    <path d="M 106.02134 183.557088 
L 117.989522 148.324104 
L 152.989364 22.623569 
z
" clip-path="url(#p3f85ec66ca)" style="fill: #4f462d; fill-opacity: 0.896905"/>
   </g>
   <g id="patch_10">
    <path d="M 64.088962 38.768599 
L 79.58302 184.044393 
L 214.34899 165.674201 
z
" clip-path="url(#p3f85ec66ca)" style="fill: #45555e; fill-opacity: 0.670758"/>
   </g>
   <g id="patch_11">
    <path d="M 168.56929 268.218 
L 102.521368 268.126658 
L 53.983527 206.512414 
L 115.087839 0.621115 
L 20.435266 276.818936 
z
" clip-path="url(#p3f85ec66ca)" style="fill: #b6ebb5; fill-opacity: 0.247912"/>
   </g>
   <g id="patch_12">
    <path d="M 30.119906 137.403102 
L 156.515471 2.42809 
L 174.795692 262.26814 
L 2.89513 101.681417 
L 155.916635 15.086133 
z
" clip-path="url(#p3f85ec66ca)" style="fill: #c3e8d0; fill-opacity: 0.645623"/>
   </g>
   <g id="patch_13">
    <path d="M 136.420292 29.765869 
L 41.665419 59.805865 
L 183.72717 81.606911 
L 214.4372 110.798505 
z
" clip-path="url(#p3f85ec66ca)" style="fill: #52736e; fill-opacity: 0.586083"/>
   </g>
   <g id="patch_14">
    <path d="M 209.069238 161.705704 
L 83.92653 211.833856 
L 191.136375 77.822633 
L 131.330532 222.288016 
z
" clip-path="url(#p3f85ec66ca)" style="fill: #bfdfd3; fill-opacity: 0.373929"/>
   </g>
   <g id="patch_15">
    <path d="M 167.22767 239.372627 
L 167.93947 159.07102 
L 118.855096 116.483715 
L 94.107456 197.277665 
z
" clip-path="url(#p3f85ec66ca)" style="fill: #9b6554; fill-opacity: 0.668859"/>
   </g>
   <g id="patch_16">
    <path d="M 26.652905 31.010185 
L 47.171385 74.42059 
L 184.297984 18.046211 
z
" clip-path="url(#p3f85ec66ca)" style="fill: #516a8a; fill-opacity: 0.655611"/>
   </g>
   <g id="patch_17">
    <path d="M 156.514415 231.370667 
L 98.732456 255.009714 
L 6.735051 128.707773 
L 184.877325 90.307551 
z
" clip-path="url(#p3f85ec66ca)" style="fill: #a8cd9d; fill-opacity: 0.157172"/>
   </g>
   <g id="patch_18">
    <path d="M 1.642991 273.500377 
L 92.040336 60.6315 
L 196.50686 175.447434 
L 189.387551 269.849289 
z
" clip-path="url(#p3f85ec66ca)" style="fill: #b8b3ae; fill-opacity: 0.552681"/>
   </g>
   <g id="patch_19">
    <path d="M 79.042092 261.238625 
L 205.253632 145.054787 
L 213.040697 240.198344 
L 35.107932 137.836673 
z
" clip-path="url(#p3f85ec66ca)" style="fill: #00565b; fill-opacity: 0.28438"/>
   </g>
   <g id="patch_20">
    <path d="M 101.761143 230.497646 
L 165.567321 158.01024 
L 162.414981 52.698184 
z
" clip-path="url(#p3f85ec66ca)" style="fill: #8d8db2; fill-opacity: 0.030445"/>
   </g>
   <g id="patch_21">
    <path d="M 17.270282 219.664545 
L 186.620733 119.44893 
L 155.210455 105.712994 
z
" clip-path="url(#p3f85ec66ca)" style="fill: #d4fb5c; fill-opacity: 0.114386"/>
   </g>
   <g id="patch_22">
    <path d="M 79.008937 267.647082 
L 73.690088 240.207525 
L 143.053636 50.878628 
L 135.338509 94.149912 
z
" clip-path="url(#p3f85ec66ca)" style="fill: #6f0b2f; fill-opacity: 0.433564"/>
   </g>
   <g id="patch_23">
    <path d="M 17.226762 115.851984 
L 181.835307 158.193132 
L 207.958713 283.319224 
z
" clip-path="url(#p3f85ec66ca)" style="fill: #b4eacf; fill-opacity: 0.497548"/>
   </g>
   <g id="patch_24">
    <path d="M 72.595951 130.205933 
L 118.76737 180.218813 
L 20.781747 128.620155 
z
" clip-path="url(#p3f85ec66ca)" style="fill: #f7ffff; fill-opacity: 0.987729"/>
   </g>
   <g id="patch_25">
    <path d="M 69.177573 50.421162 
L 68.760773 182.234981 
L 116.946934 218.345302 
z
" clip-path="url(#p3f85ec66ca)" style="fill: #588e91; fill-opacity: 0.550505"/>
   </g>
   <g id="patch_26">
    <path d="M 117.851052 143.468175 
L 29.524157 164.94795 
L 35.564713 124.913696 
L 70.370858 123.212422 
z
" clip-path="url(#p3f85ec66ca)" style="fill: #dfffff"/>
   </g>
   <g id="patch_27">
    <path d="M 109.913033 277.50289 
L 131.685494 152.428227 
L 140.448239 38.283763 
z
" clip-path="url(#p3f85ec66ca)" style="fill: #491a5b; fill-opacity: 0.106852"/>
   </g>
   <g id="patch_28">
    <path d="M 177.364946 173.489845 
L 139.067417 146.958155 
L 57.057945 252.468174 
z
" clip-path="url(#p3f85ec66ca)" style="fill: #955725; fill-opacity: 0.396398"/>
   </g>
   <g id="patch_29">
    <path d="M 113.194678 60.301421 
L 136.83205 218.574589 
L 137.193228 271.251624 
z
" clip-path="url(#p3f85ec66ca)" style="fill: #906348; fill-opacity: 0.974815"/>
   </g>
   <g id="patch_30">
    <path d="M 99.77871 23.690582 
L 152.138256 17.677508 
L 140.069022 202.063621 
z
" clip-path="url(#p3f85ec66ca)" style="fill: #586b4b; fill-opacity: 0.515574"/>
   </g>
   <g id="patch_31">
    <path d="M 184.4863 194.162328 
L 21.835719 27.617442 
L 62.212521 96.656506 
z
" clip-path="url(#p3f85ec66ca)" style="fill: #407a67; fill-opacity: 0.282148"/>
   </g>
   <g id="patch_32">
    <path d="M 27.238107 146.564345 
L 109.2179 231.794553 
L 38.537329 251.627004 
L 7.72862 186.260707 
z
" clip-path="url(#p3f85ec66ca)" style="fill: #ffffff; fill-opacity: 0.72988"/>
   </g>
   <g id="patch_33">
    <path d="M 108.039608 189.457178 
L 105.081537 270.813316 
L 201.614552 201.763357 
L 71.65867 228.351739 
z
" clip-path="url(#p3f85ec66ca)" style="fill: #182014; fill-opacity: 0.546073"/>
   </g>
   <g id="patch_34">
    <path d="M 210.508791 203.575061 
L 43.575024 276.483676 
L 52.738059 203.209994 
L 178.753811 208.669408 
z
" clip-path="url(#p3f85ec66ca)" style="fill: #ab1200; fill-opacity: 0.045475"/>
   </g>
   <g id="patch_35">
    <path d="M 100.645154 130.223381 
L 63.304391 287.149663 
L 39.699156 179.664842 
z
" clip-path="url(#p3f85ec66ca)" style="fill: #7c803c; fill-opacity: 0.717595"/>
   </g>
   <g id="patch_36">
    <path d="M 42.368851 177.887923 
L 203.452846 21.542573 
L 74.575485 156.487285 
z
" clip-path="url(#p3f85ec66ca)" style="fill: #467250; fill-opacity: 0.953196"/>
   </g>
   <g id="patch_37">
    <path d="M 69.477181 284.168884 
L 18.77313 257.876078 
L 71.43451 81.812842 
L 130.361106 169.529282 
z
" clip-path="url(#p3f85ec66ca)" style="fill: #c8dbe3; fill-opacity: 0.786567"/>
   </g>
   <g id="patch_38">
    <path d="M 188.509145 231.614037 
L 174.478645 185.090953 
L 156.623875 56.530689 
z
" clip-path="url(#p3f85ec66ca)" style="fill: #aaf7c6; fill-opacity: 0.484862"/>
   </g>
   <g id="patch_39">
    <path d="M 74.068233 167.010791 
L 24.41898 185.301735 
L 80.983121 189.20011 
z
" clip-path="url(#p3f85ec66ca)" style="fill: #a97f80; fill-opacity: 0.66137"/>
   </g>
   <g id="patch_40">
    <path d="M 209.890544 165.156877 
L 33.286506 83.227289 
L 143.946143 240.252229 
z
" clip-path="url(#p3f85ec66ca)" style="fill: #806239; fill-opacity: 0.443662"/>
   </g>
   <g id="patch_41">
    <path d="M 194.842506 31.597351 
L 28.217953 197.876698 
L 51.261894 182.916467 
L 212.518001 23.951315 
z
" clip-path="url(#p3f85ec66ca)" style="fill: #1a272f; fill-opacity: 0.289976"/>
   </g>
   <g id="patch_42">
    <path d="M 35.008327 259.259638 
L 44.453929 203.092866 
L 97.597478 79.683997 
L 71.39429 279.887269 
z
" clip-path="url(#p3f85ec66ca)" style="fill: #8a7605; fill-opacity: 0.087449"/>
   </g>
   <g id="patch_43">
    <path d="M 129.721569 136.754676 
L 175.381497 239.036941 
L 46.332665 229.728851 
L 178.456287 132.179084 
z
" clip-path="url(#p3f85ec66ca)" style="fill: #ae7f27; fill-opacity: 0.333649"/>
   </g>
   <g id="patch_44">
    <path d="M 155.170881 114.405001 
L 138.390464 86.252349 
L 120.869848 99.086955 
L 57.451104 115.026023 
L 85.601319 181.742642 
z
" clip-path="url(#p3f85ec66ca)" style="fill: #ccc091; fill-opacity: 0.427498"/>
   </g>
   <g id="patch_45">
    <path d="M 176.867952 218.062591 
L 25.981693 187.845424 
L 38.875434 4.558054 
L 158.505441 286.136395 
z
" clip-path="url(#p3f85ec66ca)" style="fill: #7a808f; fill-opacity: 0.271398"/>
   </g>
   <g id="patch_46">
    <path d="M 76.330302 100.710316 
L 110.740109 167.887141 
L 48.860746 92.729865 
L 87.89933 169.44067 
z
" clip-path="url(#p3f85ec66ca)" style="fill: #7d634e; fill-opacity: 0.570639"/>
   </g>
   <g id="patch_47">
    <path d="M 132.755093 243.696177 
L 22.542574 191.183513 
L 128.593082 278.302791 
z
" clip-path="url(#p3f85ec66ca)" style="fill: #5d776e; fill-opacity: 0.346191"/>
   </g>
   <g id="patch_48">
    <path d="M 67.042162 270.82765 
L 50.397679 127.074634 
L 17.499627 99.516052 
L 174.202132 197.916698 
z
" clip-path="url(#p3f85ec66ca)" style="fill: #745741; fill-opacity: 0.799446"/>
   </g>
   <g id="patch_49">
    <path d="M 184.211336 242.679096 
L 58.228597 270.531401 
L 16.325165 100.18498 
L 206.561181 32.796777 
L 184.211336 242.679096 
z
" clip-path="url(#p3f85ec66ca)" style="fill: none"/>
   </g>
   <g id="patch_50">
    <path d="M 0.63265 207.912877 
L 86.796626 120.197959 
L 44.501529 82.452229 
L 28.046395 263.955821 
z
" clip-path="url(#p3f85ec66ca)" style="fill: #dcfbf3; fill-opacity: 0.540503"/>
   </g>
   <g id="patch_51">
    <path d="M 193.188265 72.506998 
L 99.536739 158.857561 
L 31.503062 265.122164 
z
" clip-path="url(#p3f85ec66ca)" style="fill: #ffe385; fill-opacity: 0.085253"/>
   </g>
  </g>
 </g>
 <defs>
  <clipPath id="p3f85ec66ca">
   <rect x="0" y="0" width="216" height="288"/>
  </clipPath>
 </defs>
</svg>
