<?xml version="1.0" encoding="utf-8" standalone="no"?>
<!DOCTYPE svg PUBLIC "-//W3C//DTD SVG 1.1//EN"
  "http://www.w3.org/Graphics/SVG/1.1/DTD/svg11.dtd">
<svg xmlns:xlink="http://www.w3.org/1999/xlink" width="576pt" height="682.56pt" viewBox="0 0 576 682.56" xmlns="http://www.w3.org/2000/svg" version="1.1">
 <metadata>
  <rdf:RDF xmlns:dc="http://purl.org/dc/elements/1.1/" xmlns:cc="http://creativecommons.org/ns#" xmlns:rdf="http://www.w3.org/1999/02/22-rdf-syntax-ns#">
   <cc:Work>
    <dc:type rdf:resource="http://purl.org/dc/dcmitype/StillImage"/>
    <dc:date>2022-05-09T02:36:49.051223</dc:date>
    <dc:format>image/svg+xml</dc:format>
    <dc:creator>
     <cc:Agent>
      <dc:title>Matplotlib v3.5.2, https://matplotlib.org/</dc:title>
     </cc:Agent>
    </dc:creator>
   </cc:Work>
  </rdf:RDF>
 </metadata>
 <defs>
  <style type="text/css">*{stroke-linejoin: round; stroke-linecap: butt}</style>
 </defs>
 <g id="figure_1">
  <g id="patch_1">
   <path d="M 0 682.56 
L 576 682.56 
L 576 0 
L 0 0 
z
" style="fill: #ffffff"/>
  </g>
  <g id="axes_1">
   <g id="patch_2">
    <path d="M 0 682.56 
L 0 0 
L 576 0 
L 576 682.56 
z
" clip-path="url(#p3353d05bc1)" style="fill: #808080"/>
   </g>
   <g id="patch_3">
    <path d="M 561.91053 461.894819 
L 30.248103 660.473209 
L 66.181381 671.966927 
L 374.5717 425.026456 
L 311.927399 9.789122 
z
" clip-path="url(#p3353d05bc1)" style="fill: #0e0800; fill-opacity: 0.974556"/>
   </g>
   <g id="patch_4">
    <path d="M 283.339428 365.852619 
L 62.689579 207.86058 
L 416.594158 623.833372 
L 349.97368 318.98529 
L 97.06986 537.793607 
z
" clip-path="url(#p3353d05bc1)" style="fill: #391a82; fill-opacity: 0.815774"/>
   </g>
   <g id="patch_5">
    <path d="M 210.908075 583.728224 
L 152.595263 41.536669 
L 494.08717 469.941111 
L 380.901709 526.451689 
z
" clip-path="url(#p3353d05bc1)" style="fill: #40002c; fill-opacity: 0.180324"/>
   </g>
   <g id="patch_6">
    <path d="M 133.986955 666.458782 
L 205.472998 501.621693 
L 570.219626 597.4268 
z
" clip-path="url(#p3353d05bc1)" style="fill: #8d0000; fill-opacity: 0.955493"/>
   </g>
   <g id="patch_7">
    <path d="M 571.781531 177.666884 
L 320.309087 624.067553 
L 572.392479 596.479798 
z
" clip-path="url(#p3353d05bc1)" style="fill: #2f1500; fill-opacity: 0.994013"/>
   </g>
   <g id="patch_8">
    <path d="M 554.640629 680.555179 
L 189.011038 285.286195 
L 219.326521 202.328151 
L 278.255706 195.989121 
z
" clip-path="url(#p3353d05bc1)" style="fill: #3a2900; fill-opacity: 0.85395"/>
   </g>
   <g id="patch_9">
    <path d="M 463.247843 552.068 
L 45.347659 643.98665 
L 342.747304 394.214861 
z
" clip-path="url(#p3353d05bc1)" style="fill: #2a1030; fill-opacity: 0.849124"/>
   </g>
   <g id="patch_10">
    <path d="M 198.778284 161.756476 
L 336.144075 98.738615 
L 154.562519 409.227924 
L 149.543814 583.47041 
z
" clip-path="url(#p3353d05bc1)" style="fill: #383600; fill-opacity: 0.023676"/>
   </g>
   <g id="patch_11">
    <path d="M 370.653149 183.304488 
L 368.317683 667.141668 
L 437.613433 151.234784 
z
" clip-path="url(#p3353d05bc1)" style="fill: #0e677e; fill-opacity: 0.970706"/>
   </g>
   <g id="patch_12">
    <path d="M 540.541172 436.511275 
L 108.698232 360.008939 
L 307.918924 452.069183 
L 375.561416 206.767214 
L 76.063879 672.004336 
z
" clip-path="url(#p3353d05bc1)" style="fill: #001e88; fill-opacity: 0.697408"/>
   </g>
   <g id="patch_13">
    <path d="M 133.908311 329.111193 
L 187.898832 594.753957 
L 192.539574 651.874871 
L 573.182175 214.325118 
z
" clip-path="url(#p3353d05bc1)" style="fill: #6f2535; fill-opacity: 0.579118"/>
   </g>
   <g id="patch_14">
    <path d="M 248.144879 367.615843 
L 3.996196 483.0808 
L 6.033577 310.27576 
L 401.025568 594.855221 
z
" clip-path="url(#p3353d05bc1)" style="fill: #001c00; fill-opacity: 0.995499"/>
   </g>
   <g id="patch_15">
    <path d="M 33.480436 181.502645 
L 93.201226 68.724007 
L 296.695558 209.47498 
L 538.403774 345.855567 
L 539.681567 166.560025 
z
" clip-path="url(#p3353d05bc1)" style="fill: #069a30; fill-opacity: 0.156707"/>
   </g>
   <g id="patch_16">
    <path d="M 326.628761 657.390673 
L 2.724592 576.100205 
L 11.326448 431.341378 
L 166.818046 156.65154 
z
" clip-path="url(#p3353d05bc1)"/>
   </g>
   <g id="patch_17">
    <path d="M 167.633039 375.224396 
L 548.018754 489.978507 
L 408.39739 634.086083 
L 147.988821 80.676613 
L 450.124131 321.531645 
z
" clip-path="url(#p3353d05bc1)" style="fill: #ff9c2c; fill-opacity: 0.952593"/>
   </g>
   <g id="patch_18">
    <path d="M 215.943055 623.095686 
L 538.34249 58.678398 
L 393.159712 370.63597 
L 52.088046 432.70253 
z
" clip-path="url(#p3353d05bc1)" style="fill: #165b36; fill-opacity: 0.706804"/>
   </g>
   <g id="patch_19">
    <path d="M 82.674903 38.06796 
L 402.030768 476.586104 
L 447.805877 276.879253 
L 286.164066 424.328765 
L 301.790127 528.698892 
z
" clip-path="url(#p3353d05bc1)" style="fill: #1c0d47; fill-opacity: 0.286028"/>
   </g>
   <g id="patch_20">
    <path d="M 365.201712 321.543608 
L 575.99794 108.578382 
L 506.308396 281.868893 
L 418.666343 20.419 
z
" clip-path="url(#p3353d05bc1)" style="fill-opacity: 0.929971"/>
   </g>
   <g id="patch_21">
    <path d="M 417.622227 147.329738 
L 493.366882 59.908637 
L 509.234169 625.513473 
z
" clip-path="url(#p3353d05bc1)" style="fill: #3cf7f8; fill-opacity: 0.798104"/>
   </g>
   <g id="patch_22">
    <path d="M 287.754345 204.498324 
L 55.594847 435.485497 
L 489.488684 661.048177 
L 509.513246 2.887405 
z
" clip-path="url(#p3353d05bc1)" style="fill: #00080f"/>
   </g>
   <g id="patch_23">
    <path d="M 238.70773 557.2186 
L 291.834106 498.596884 
L 211.643094 65.70662 
L 120.315746 658.451661 
L 86.810346 167.773384 
z
" clip-path="url(#p3353d05bc1)" style="fill: #cf4055; fill-opacity: 0.577617"/>
   </g>
   <g id="patch_24">
    <path d="M 553.973323 455.481317 
L 295.773154 515.065616 
L 149.307813 616.487136 
L 505.317613 345.888531 
z
" clip-path="url(#p3353d05bc1)" style="fill: #0044af; fill-opacity: 0.765384"/>
   </g>
   <g id="patch_25">
    <path d="M 415.280778 552.03169 
L 491.487497 11.603291 
L 460.42794 503.591171 
L 161.038519 677.202324 
L 170.722413 246.545439 
z
" clip-path="url(#p3353d05bc1)" style="fill: #040000; fill-opacity: 0.847095"/>
   </g>
   <g id="patch_26">
    <path d="M 268.567539 263.219934 
L 483.583588 503.113672 
L 42.138169 427.382965 
L 558.787981 348.800858 
L 570.021103 145.227169 
z
" clip-path="url(#p3353d05bc1)" style="fill: #9e6ea4; fill-opacity: 0.070483"/>
   </g>
   <g id="patch_27">
    <path d="M 3.329294 50.684334 
L 210.793161 532.852977 
L 228.162674 107.0662 
L 58.949321 153.312468 
L 400.175203 48.014735 
z
" clip-path="url(#p3353d05bc1)" style="fill: #3e1b00"/>
   </g>
   <g id="patch_28">
    <path d="M 41.267067 474.232012 
L 349.886237 362.033837 
L 163.613928 595.30758 
L 341.881368 363.94353 
L 548.227864 592.250514 
L 41.267067 474.232012 
z
" clip-path="url(#p3353d05bc1)" style="fill: none"/>
   </g>
   <g id="patch_29">
    <path d="M 472.288312 621.672306 
L 77.027306 460.012928 
L 390.257578 344.007723 
z
" clip-path="url(#p3353d05bc1)" style="fill: #aca68a; fill-opacity: 0.380932"/>
   </g>
   <g id="patch_30">
    <path d="M 427.360848 637.703691 
L 240.502368 501.880392 
L 573.358469 168.466635 
L 575.986555 526.989115 
L 320.016497 623.304818 
z
" clip-path="url(#p3353d05bc1)" style="fill: #1b1700"/>
   </g>
   <g id="patch_31">
    <path d="M 451.51409 586.525186 
L 539.860677 39.665897 
L 24.043298 46.400663 
L 315.650914 598.544798 
L 131.300867 105.784161 
z
" clip-path="url(#p3353d05bc1)" style="fill: #4119ff"/>
   </g>
   <g id="patch_32">
    <path d="M 571.050392 357.167721 
L 424.99638 566.875866 
L 265.456082 590.404871 
L 456.506683 207.480993 
L 496.399826 152.674267 
z
" clip-path="url(#p3353d05bc1)" style="fill: #ac3c41; fill-opacity: 0.29801"/>
   </g>
   <g id="patch_33">
    <path d="M 435.296045 83.574577 
L 1.873339 668.136819 
L 404.233798 197.547818 
z
" clip-path="url(#p3353d05bc1)" style="fill: #0f0805; fill-opacity: 0.996084"/>
   </g>
   <g id="patch_34">
    <path d="M 391.324709 194.658798 
L 18.685115 564.893194 
L 24.920752 199.624487 
L 139.381954 298.948298 
z
" clip-path="url(#p3353d05bc1)" style="fill: #dd1800; fill-opacity: 0.295645"/>
   </g>
   <g id="patch_35">
    <path d="M 125.475578 455.660608 
L 387.908421 213.381426 
L 218.518789 611.547796 
z
" clip-path="url(#p3353d05bc1)" style="fill: #513700; fill-opacity: 0.720797"/>
   </g>
   <g id="patch_36">
    <path d="M 433.169313 116.54422 
L 543.389346 677.250916 
L 217.966719 522.808604 
L 423.51272 299.233046 
z
" clip-path="url(#p3353d05bc1)" style="fill: #000900; fill-opacity: 0.776952"/>
   </g>
   <g id="patch_37">
    <path d="M 263.23372 429.523927 
L 173.20916 382.242644 
L 506.755463 458.598922 
L 263.220997 156.157082 
z
" clip-path="url(#p3353d05bc1)" style="fill: #83c636; fill-opacity: 0.930419"/>
   </g>
   <g id="patch_38">
    <path d="M 83.584979 181.183934 
L 193.795993 212.666263 
L 200.780224 234.258392 
z
" clip-path="url(#p3353d05bc1)" style="fill: #a9921e; fill-opacity: 0.727593"/>
   </g>
   <g id="patch_39">
    <path d="M 136.183017 368.144756 
L 481.93962 655.714649 
L 156.954154 599.766027 
L 516.644997 680.4644 
L 403.34106 257.429739 
z
" clip-path="url(#p3353d05bc1)" style="fill: #000505; fill-opacity: 0.935205"/>
   </g>
   <g id="patch_40">
    <path d="M 40.85955 188.114501 
L 440.781024 552.300508 
L 325.899265 678.70627 
z
" clip-path="url(#p3353d05bc1)" style="fill: #173311; fill-opacity: 0.526752"/>
   </g>
   <g id="patch_41">
    <path d="M 414.130226 678.606939 
L 71.457045 246.55649 
L 86.127833 61.109114 
L 171.954396 398.191814 
z
" clip-path="url(#p3353d05bc1)" style="fill: #000c08; fill-opacity: 0.998876"/>
   </g>
   <g id="patch_42">
    <path d="M 124.315452 603.117152 
L 451.034315 334.357861 
L 166.106645 81.781035 
L 363.139632 61.887067 
L 331.425481 187.159163 
z
" clip-path="url(#p3353d05bc1)" style="fill: #99c0c0; fill-opacity: 0.193198"/>
   </g>
   <g id="patch_43">
    <path d="M 67.704646 628.516732 
L 404.846095 436.154344 
L 306.969104 280.215167 
L 520.44953 34.478568 
L 233.687901 38.345985 
z
" clip-path="url(#p3353d05bc1)" style="fill: #83030b; fill-opacity: 0.603393"/>
   </g>
   <g id="patch_44">
    <path d="M 236.71092 405.477643 
L 252.989183 26.983046 
L 257.711807 35.179192 
L 488.52783 680.76132 
z
" clip-path="url(#p3353d05bc1)" style="fill: #241c0f; fill-opacity: 0.573057"/>
   </g>
   <g id="patch_45">
    <path d="M 451.272151 280.145544 
L 512.275204 53.051852 
L 332.754373 572.909953 
L 84.657163 363.51218 
z
" clip-path="url(#p3353d05bc1)" style="fill: #dc5f94; fill-opacity: 0.731374"/>
   </g>
   <g id="patch_46">
    <path d="M 465.911945 489.36937 
L 193.328331 260.267928 
L 542.060825 146.639114 
L 142.519244 418.827305 
L 255.539122 227.874528 
z
" clip-path="url(#p3353d05bc1)" style="fill: #388ec6; fill-opacity: 0.873313"/>
   </g>
   <g id="patch_47">
    <path d="M 526.477017 579.902042 
L 389.797712 110.874791 
L 555.478759 161.992689 
z
" clip-path="url(#p3353d05bc1)" style="fill: #ffffff"/>
   </g>
   <g id="patch_48">
    <path d="M 434.259835 556.765887 
L 546.822134 180.754708 
L 458.901862 114.328379 
L 509.613173 377.835375 
z
" clip-path="url(#p3353d05bc1)" style="fill: #550000; fill-opacity: 0.665805"/>
   </g>
   <g id="patch_49">
    <path d="M 78.682497 304.408571 
L 571.903203 135.403859 
L 571.664974 382.445494 
L 149.675442 162.106445 
L 564.967702 178.853048 
z
" clip-path="url(#p3353d05bc1)" style="fill: #1c170a; fill-opacity: 0.970704"/>
   </g>
   <g id="patch_50">
    <path d="M 266.143738 339.866907 
L 413.655048 296.840965 
L 243.503167 642.511973 
z
" clip-path="url(#p3353d05bc1)" style="fill: #ffb2b0; fill-opacity: 0.01649"/>
   </g>
   <g id="patch_51">
    <path d="M 450.042343 418.702542 
L 527.354401 221.239131 
L 163.11853 26.52854 
z
" clip-path="url(#p3353d05bc1)" style="fill: #055e28; fill-opacity: 0.976613"/>
   </g>
   <g id="patch_52">
    <path d="M 192.952869 458.058856 
L 13.230792 216.269639 
L 78.932463 620.851452 
L 241.376693 374.360976 
z
" clip-path="url(#p3353d05bc1)" style="fill: #a14f25; fill-opacity: 0.995111"/>
   </g>
   <g id="patch_53">
    <path d="M 222.732513 680.83494 
L 387.009378 560.761976 
L 334.432877 260.181313 
z
" clip-path="url(#p3353d05bc1)" style="fill: #d8cc7f; fill-opacity: 0.618235"/>
   </g>
   <g id="patch_54">
    <path d="M 478.661126 253.616031 
L 2.312147 547.727837 
L 472.295745 226.151727 
L 301.640359 176.417571 
L 70.151684 38.916381 
z
" clip-path="url(#p3353d05bc1)" style="fill: #3d07c8; fill-opacity: 0.714401"/>
   </g>
   <g id="patch_55">
    <path d="M 509.599557 189.721743 
L 178.078429 146.541799 
L 444.935675 358.643101 
L 564.923912 671.04443 
L 119.897184 448.768283 
z
" clip-path="url(#p3353d05bc1)" style="fill: #16140f; fill-opacity: 0.998495"/>
   </g>
   <g id="patch_56">
    <path d="M 308.023719 158.199606 
L 102.077247 352.913079 
L 312.365296 429.785271 
L 264.219202 538.761637 
L 567.100012 660.779046 
z
" clip-path="url(#p3353d05bc1)" style="fill: #1e0008; fill-opacity: 0.913444"/>
   </g>
   <g id="patch_57">
    <path d="M 564.405001 224.104986 
L 571.24819 75.079197 
L 14.762497 3.032418 
L 284.14936 179.740775 
z
" clip-path="url(#p3353d05bc1)" style="fill: #1f100a"/>
   </g>
   <g id="patch_58">
    <path d="M 507.877545 283.587255 
L 421.332179 284.185448 
L 575.754381 470.762312 
z
" clip-path="url(#p3353d05bc1)" style="fill: #3f201f; fill-opacity: 0.77913"/>
   </g>
   <g id="patch_59">
    <path d="M 430.485009 608.400141 
L 575.774781 305.200926 
L 267.337591 128.835776 
L 506.643975 5.33767 
z
" clip-path="url(#p3353d05bc1)" style="fill: #001908"/>
   </g>
   <g id="patch_60">
    <path d="M 353.924753 435.857389 
L 75.493053 21.321751 
L 254.141896 351.003589 
L 57.091027 189.660984 
L 262.064028 286.102335 
z
" clip-path="url(#p3353d05bc1)" style="fill: #786b1d; fill-opacity: 0.346559"/>
   </g>
   <g id="patch_61">
    <path d="M 327.856977 493.545735 
L 490.692228 140.543942 
L 410.652312 94.643737 
L 327.856977 493.545735 
z
" clip-path="url(#p3353d05bc1)" style="fill: none"/>
   </g>
   <g id="patch_62">
    <path d="M 509.087391 504.618861 
L 108.676947 559.473653 
L 355.589457 651.10226 
z
" clip-path="url(#p3353d05bc1)" style="fill: #d3d064"/>
   </g>
   <g id="patch_63">
    <path d="M 237.129164 58.566472 
L 570.834292 153.808982 
L 568.265025 287.481559 
L 548.391373 583.73613 
z
" clip-path="url(#p3353d05bc1)" style="fill: #3f16ce; fill-opacity: 0.023112"/>
   </g>
   <g id="patch_64">
    <path d="M 73.226862 25.057624 
L 97.067686 557.40465 
L 258.761573 43.876218 
L 310.484961 597.352988 
L 85.887078 670.420005 
z
" clip-path="url(#p3353d05bc1)" style="fill: #1766ef"/>
   </g>
   <g id="patch_65">
    <path d="M 298.057697 561.215817 
L 164.615169 427.886418 
L 428.577998 123.524712 
L 455.523971 319.720468 
z
" clip-path="url(#p3353d05bc1)" style="fill: #24330e; fill-opacity: 0.675573"/>
   </g>
   <g id="patch_66">
    <path d="M 554.645448 207.343332 
L 429.045568 218.301931 
L 11.53737 364.570777 
L 22.660301 263.869899 
L 322.101485 467.585687 
z
" clip-path="url(#p3353d05bc1)" style="fill-opacity: 0.899509"/>
   </g>
   <g id="patch_67">
    <path d="M 455.082595 660.460604 
L 126.552638 141.569822 
L 168.542147 101.154494 
L 143.664021 98.397965 
L 475.95137 2.816278 
z
" clip-path="url(#p3353d05bc1)" style="fill: #235700"/>
   </g>
   <g id="patch_68">
    <path d="M 550.870972 663.862582 
L 91.039735 175.961145 
L 254.604583 439.785509 
L 475.30318 550.22154 
z
" clip-path="url(#p3353d05bc1)" style="fill: #3a0012; fill-opacity: 0.905329"/>
   </g>
   <g id="patch_69">
    <path d="M 430.099817 304.261746 
L 1.69306 55.107289 
L 0.846497 471.319189 
z
" clip-path="url(#p3353d05bc1)" style="fill: #1b1000; fill-opacity: 0.955831"/>
   </g>
   <g id="patch_70">
    <path d="M 479.509778 134.797571 
L 452.025432 558.009501 
L 405.371737 176.160801 
z
" clip-path="url(#p3353d05bc1)" style="fill: #161917; fill-opacity: 0.140031"/>
   </g>
   <g id="patch_71">
    <path d="M 147.176551 145.510155 
L 187.709099 141.019162 
L 518.904483 553.844216 
L 338.483313 80.779394 
z
" clip-path="url(#p3353d05bc1)" style="fill: #6e553b; fill-opacity: 0.609139"/>
   </g>
   <g id="patch_72">
    <path d="M 49.10073 597.847701 
L 256.80757 237.230205 
L 184.512037 109.167622 
L 331.392164 593.945038 
L 8.895261 520.655666 
z
" clip-path="url(#p3353d05bc1)" style="fill: #757e7f; fill-opacity: 0.474699"/>
   </g>
   <g id="patch_73">
    <path d="M 512.815127 677.695383 
L 527.544743 651.058152 
L 254.70788 51.528224 
z
" clip-path="url(#p3353d05bc1)" style="fill: #191a13; fill-opacity: 0.636278"/>
   </g>
   <g id="patch_74">
    <path d="M 426.143474 386.847613 
L 363.913122 341.265187 
L 92.350497 518.111514 
L 425.102681 147.621778 
z
" clip-path="url(#p3353d05bc1)" style="fill: #6d5164; fill-opacity: 0.509195"/>
   </g>
   <g id="patch_75">
    <path d="M 4.812228 17.624394 
L 4.870497 601.302531 
L 387.010119 337.197227 
L 74.832085 432.476178 
z
" clip-path="url(#p3353d05bc1)" style="fill: #1e1c14; fill-opacity: 0.877785"/>
   </g>
   <g id="patch_76">
    <path d="M 145.972558 228.051946 
L 60.435232 97.959049 
L 575.156296 11.893851 
L 524.806917 232.097142 
z
" clip-path="url(#p3353d05bc1)" style="fill: #1e1100"/>
   </g>
   <g id="patch_77">
    <path d="M 11.738007 669.958417 
L 253.678145 252.701717 
L 249.355794 280.782213 
L 415.072011 265.297141 
L 32.208292 353.490667 
z
" clip-path="url(#p3353d05bc1)" style="fill: #0e0018"/>
   </g>
   <g id="patch_78">
    <path d="M 276.934157 455.43601 
L 12.493645 23.531615 
L 8.47815 605.307903 
L 548.008945 402.471575 
z
" clip-path="url(#p3353d05bc1)" style="fill: #301511; fill-opacity: 0.946111"/>
   </g>
   <g id="patch_79">
    <path d="M 415.108419 385.65138 
L 526.251582 613.991247 
L 71.219012 257.172793 
L 39.204439 66.378086 
z
" clip-path="url(#p3353d05bc1)" style="fill: #0c00d0; fill-opacity: 0.675599"/>
   </g>
   <g id="patch_80">
    <path d="M 482.896572 485.234964 
L 55.992593 130.764325 
L 295.943661 30.072593 
L 113.135614 292.278797 
z
" clip-path="url(#p3353d05bc1)" style="fill: #62102b; fill-opacity: 0.44208"/>
   </g>
   <g id="patch_81">
    <path d="M 410.123176 145.901291 
L 575.518121 39.277089 
L 57.338134 461.797426 
z
" clip-path="url(#p3353d05bc1)" style="fill: #0e1300; fill-opacity: 0.872928"/>
   </g>
   <g id="patch_82">
    <path d="M 46.96149 299.664768 
L 243.024244 155.857265 
L 9.66891 407.440826 
L 113.762819 196.714866 
z
" clip-path="url(#p3353d05bc1)" style="fill: #fd432d; fill-opacity: 0.237792"/>
   </g>
   <g id="patch_83">
    <path d="M 479.876839 538.466008 
L 513.931152 624.034387 
L 259.19284 333.730421 
L 18.544607 102.823002 
z
" clip-path="url(#p3353d05bc1)" style="fill: #360938; fill-opacity: 0.928321"/>
   </g>
   <g id="patch_84">
    <path d="M 14.985931 441.153308 
L 105.436176 191.976497 
L 531.205951 396.368906 
L 1.687418 617.517669 
z
" clip-path="url(#p3353d05bc1)" style="fill: #251400"/>
   </g>
   <g id="patch_85">
    <path d="M 317.831928 200.02534 
L 121.757394 433.718108 
L 89.391821 55.153226 
L 402.345734 478.435676 
z
" clip-path="url(#p3353d05bc1)" style="fill: #ff6cf2; fill-opacity: 0.160244"/>
   </g>
   <g id="patch_86">
    <path d="M 209.317733 143.951149 
L 36.546973 402.014852 
L 390.273409 164.114293 
L 546.713451 112.775762 
L 490.060626 1.143774 
z
" clip-path="url(#p3353d05bc1)" style="fill: #3d1316; fill-opacity: 0.94051"/>
   </g>
   <g id="patch_87">
    <path d="M 138.749026 229.896305 
L 484.422004 577.433134 
L 229.757633 664.530589 
z
" clip-path="url(#p3353d05bc1)" style="fill: #eccca3; fill-opacity: 0.451046"/>
   </g>
   <g id="patch_88">
    <path d="M 529.231228 530.33581 
L 95.696431 295.241743 
L 359.712388 598.93448 
L 296.927313 238.783606 
z
" clip-path="url(#p3353d05bc1)" style="fill: #6e0014; fill-opacity: 0.904258"/>
   </g>
   <g id="patch_89">
    <path d="M 261.842384 82.748994 
L 0.04406 331.739771 
L 415.90828 399.57903 
L 571.544531 633.800166 
L 340.099041 662.364011 
z
" clip-path="url(#p3353d05bc1)" style="fill: #111713; fill-opacity: 0.923282"/>
   </g>
   <g id="patch_90">
    <path d="M 209.398559 336.751302 
L 147.262705 156.004014 
L 164.132749 658.426851 
L 121.960284 324.346589 
L 443.859423 578.913001 
z
" clip-path="url(#p3353d05bc1)" style="fill: #272614"/>
   </g>
   <g id="patch_91">
    <path d="M 423.235546 646.936449 
L 194.856033 252.114201 
L 315.146274 41.586931 
z
" clip-path="url(#p3353d05bc1)" style="fill: #d60d00; fill-opacity: 0.568774"/>
   </g>
   <g id="patch_92">
    <path d="M 153.7359 586.584195 
L 336.942313 335.569529 
L 417.717551 515.837355 
L 193.21654 471.200707 
z
" clip-path="url(#p3353d05bc1)" style="fill: #090020; fill-opacity: 0.747576"/>
   </g>
   <g id="patch_93">
    <path d="M 541.192383 442.354746 
L 154.50407 382.155635 
L 474.525009 160.277254 
L 347.930001 582.689096 
z
" clip-path="url(#p3353d05bc1)" style="fill: #5bd5ff; fill-opacity: 0.76806"/>
   </g>
   <g id="patch_94">
    <path d="M 40.013508 485.308039 
L 154.318533 310.550297 
L 153.782328 28.359803 
L 315.890131 108.177741 
L 115.09609 9.011993 
z
" clip-path="url(#p3353d05bc1)" style="fill: #371506; fill-opacity: 0.745698"/>
   </g>
   <g id="patch_95">
    <path d="M 246.542442 648.704324 
L 514.698098 679.192361 
L 397.801927 486.21514 
z
" clip-path="url(#p3353d05bc1)" style="fill: #3f3326"/>
   </g>
   <g id="patch_96">
    <path d="M 7.5297 48.293058 
L 362.297355 588.923211 
L 322.703323 396.649193 
L 113.057581 596.887163 
z
" clip-path="url(#p3353d05bc1)" style="fill: #202530; fill-opacity: 0.52147"/>
   </g>
   <g id="patch_97">
    <path d="M 298.009851 505.851369 
L 310.471686 2.543816 
L 510.811616 15.594735 
z
" clip-path="url(#p3353d05bc1)" style="fill: #39172d; fill-opacity: 0.045165"/>
   </g>
   <g id="patch_98">
    <path d="M 49.551925 68.714406 
L 566.243912 569.131548 
L 154.297056 630.76125 
L 534.34883 559.764753 
z
" clip-path="url(#p3353d05bc1)" style="fill: #e9bc43; fill-opacity: 0.966988"/>
   </g>
   <g id="patch_99">
    <path d="M 350.898699 55.871707 
L 572.00925 65.958495 
L 494.498136 651.065713 
L 198.374245 181.605502 
z
" clip-path="url(#p3353d05bc1)" style="fill: #170f00; fill-opacity: 0.858981"/>
   </g>
   <g id="patch_100">
    <path d="M 283.061029 403.271331 
L 281.534168 6.323699 
L 130.625466 321.388679 
L 107.224088 260.249152 
L 252.073268 602.836955 
z
" clip-path="url(#p3353d05bc1)" style="fill: #cddd44; fill-opacity: 0.651222"/>
   </g>
   <g id="patch_101">
    <path d="M 53.172527 127.670843 
L 360.924908 323.919573 
L 40.22905 137.985174 
L 121.917289 44.699405 
L 69.504166 109.408196 
z
" clip-path="url(#p3353d05bc1)" style="fill: #c31932; fill-opacity: 0.482796"/>
   </g>
   <g id="patch_102">
    <path d="M 1.428556 135.366928 
L 412.654079 13.914429 
L 396.607129 663.036967 
L 12.928885 220.473036 
z
" clip-path="url(#p3353d05bc1)" style="fill: #293517; fill-opacity: 0.915307"/>
   </g>
   <g id="patch_103">
    <path d="M 386.941021 489.086349 
L 317.412729 13.570801 
L 309.638788 290.058596 
L 45.23892 100.04568 
L 486.496508 390.3439 
z
" clip-path="url(#p3353d05bc1)" style="fill: #4e9978"/>
   </g>
   <g id="patch_104">
    <path d="M 460.480697 254.4889 
L 142.342337 140.32069 
L 383.009869 572.838872 
L 450.623206 8.620237 
L 407.558859 21.7329 
z
" clip-path="url(#p3353d05bc1)" style="fill: #403009; fill-opacity: 0.770108"/>
   </g>
   <g id="patch_105">
    <path d="M 351.768067 288.913292 
L 273.506488 234.90745 
L 473.28911 418.905726 
z
" clip-path="url(#p3353d05bc1)" style="fill: #0a3a52; fill-opacity: 0.390817"/>
   </g>
   <g id="patch_106">
    <path d="M 110.311694 299.277042 
L 74.056538 459.453047 
L 180.73079 614.714948 
L 453.189411 496.314262 
L 95.031557 344.363759 
z
" clip-path="url(#p3353d05bc1)" style="fill: #74d50e; fill-opacity: 0.424031"/>
   </g>
   <g id="patch_107">
    <path d="M 77.575687 314.139592 
L 455.066015 3.391619 
L 255.85231 0.040495 
L 8.801087 75.463122 
z
" clip-path="url(#p3353d05bc1)"/>
   </g>
   <g id="patch_108">
    <path d="M 28.772312 225.831177 
L 572.776784 670.8838 
L 511.132871 12.800482 
L 323.283691 624.119468 
z
" clip-path="url(#p3353d05bc1)" style="fill: #271504; fill-opacity: 0.776367"/>
   </g>
   <g id="patch_109">
    <path d="M 508.521777 406.72042 
L 162.180818 641.931931 
L 455.653776 677.948354 
L 473.850376 472.663934 
z
" clip-path="url(#p3353d05bc1)" style="fill: #68634c"/>
   </g>
   <g id="patch_110">
    <path d="M 478.508489 489.733811 
L 240.467303 151.476901 
L 255.522203 346.338037 
z
" clip-path="url(#p3353d05bc1)" style="fill: #0e0420; fill-opacity: 0.768771"/>
   </g>
   <g id="patch_111">
    <path d="M 390.273549 600.21091 
L 382.999632 15.039527 
L 322.113728 123.52746 
L 549.737436 9.290289 
L 498.108916 202.473269 
z
" clip-path="url(#p3353d05bc1)" style="fill: #0b0000; fill-opacity: 0.938049"/>
   </g>
   <g id="patch_112">
    <path d="M 20.803814 232.510623 
L 425.907524 62.923823 
L 229.75793 537.563805 
L 105.450936 42.973614 
L 400.891915 474.231352 
z
" clip-path="url(#p3353d05bc1)" style="fill: #173b56; fill-opacity: 0.242544"/>
   </g>
   <g id="patch_113">
    <path d="M 260.593625 128.591401 
L 470.16091 232.984113 
L 151.74627 103.181154 
L 160.641951 660.167831 
L 27.561759 603.976797 
z
" clip-path="url(#p3353d05bc1)" style="fill: #0053a0; fill-opacity: 0.727746"/>
   </g>
   <g id="patch_114">
    <path d="M 288.862148 78.528022 
L 90.786262 126.628531 
L 96.795105 641.31482 
z
" clip-path="url(#p3353d05bc1)" style="fill: #d70bc7; fill-opacity: 0.115183"/>
   </g>
   <g id="patch_115">
    <path d="M 416.942815 434.167129 
L 452.980545 414.131376 
L 296.424223 622.622833 
L 424.582394 680.067384 
L 48.344279 199.67528 
z
" clip-path="url(#p3353d05bc1)" style="fill: #6e592d; fill-opacity: 0.66056"/>
   </g>
   <g id="patch_116">
    <path d="M 186.772521 665.220542 
L 360.016997 122.60608 
L 262.621409 647.247558 
z
" clip-path="url(#p3353d05bc1)" style="fill: #c76847; fill-opacity: 0.294973"/>
   </g>
   <g id="patch_117">
    <path d="M 514.250548 478.983911 
L 101.226441 359.305357 
L 33.034341 643.167305 
L 114.018231 96.482974 
L 199.156701 16.014365 
z
" clip-path="url(#p3353d05bc1)" style="fill: #7fa5b0; fill-opacity: 0.608481"/>
   </g>
   <g id="patch_118">
    <path d="M 560.100999 680.55793 
L 126.296715 615.526933 
L 21.150162 620.469201 
L 530.733082 668.021589 
L 385.366496 331.845179 
z
" clip-path="url(#p3353d05bc1)" style="fill: #241d12"/>
   </g>
   <g id="patch_119">
    <path d="M 330.739856 386.177075 
L 148.592109 451.498573 
L 355.897916 628.866082 
z
" clip-path="url(#p3353d05bc1)" style="fill: #f1e21b; fill-opacity: 0.347041"/>
   </g>
   <g id="patch_120">
    <path d="M 113.831352 101.316564 
L 119.040846 53.562233 
L 421.09479 306.04303 
L 340.976932 78.365179 
z
" clip-path="url(#p3353d05bc1)" style="fill: #90deee; fill-opacity: 0.591615"/>
   </g>
   <g id="patch_121">
    <path d="M 435.530231 509.268548 
L 446.571665 26.341404 
L 402.439511 0.932009 
L 194.668645 93.255361 
L 10.03422 438.659976 
z
" clip-path="url(#p3353d05bc1)" style="fill: #1c730f"/>
   </g>
   <g id="patch_122">
    <path d="M 31.043168 17.03449 
L 58.305451 438.749076 
L 404.733102 113.559946 
L 297.244975 409.502233 
z
" clip-path="url(#p3353d05bc1)" style="fill: #4ed76b; fill-opacity: 0.275708"/>
   </g>
   <g id="patch_123">
    <path d="M 481.863194 61.733513 
L 168.485266 336.629025 
L 377.275606 558.255992 
z
" clip-path="url(#p3353d05bc1)" style="fill: #750417; fill-opacity: 0.019224"/>
   </g>
   <g id="patch_124">
    <path d="M 364.753922 498.06069 
L 45.721396 177.891159 
L 148.879644 675.910599 
z
" clip-path="url(#p3353d05bc1)" style="fill: #000001"/>
   </g>
   <g id="patch_125">
    <path d="M 522.013664 396.106794 
L 461.310569 617.750071 
L 536.931411 94.255097 
L 444.931585 225.389477 
z
" clip-path="url(#p3353d05bc1)" style="fill: #9adeee"/>
   </g>
   <g id="patch_126">
    <path d="M 92.777491 681.695218 
L 565.685374 65.939051 
L 50.79395 117.356774 
L 556.052494 102.013172 
L 41.020831 442.341192 
z
" clip-path="url(#p3353d05bc1)" style="fill: #1d0a15; fill-opacity: 0.993939"/>
   </g>
   <g id="patch_127">
    <path d="M 462.864653 133.440393 
L 307.941979 678.123182 
L 67.975417 323.542936 
L 497.49643 482.481215 
L 403.027182 21.285534 
z
" clip-path="url(#p3353d05bc1)" style="fill: #3f7b8d; fill-opacity: 0.453336"/>
   </g>
   <g id="patch_128">
    <path d="M 342.27414 641.95193 
L 558.336861 90.297934 
L 409.083408 338.553112 
L 500.103385 234.477813 
z
" clip-path="url(#p3353d05bc1)" style="fill: #8d5143; fill-opacity: 0.621402"/>
   </g>
   <g id="patch_129">
    <path d="M 44.206895 374.845622 
L 376.461174 481.967313 
L 13.364274 663.793244 
L 559.526626 6.802434 
z
" clip-path="url(#p3353d05bc1)" style="fill: #000200; fill-opacity: 0.933064"/>
   </g>
   <g id="patch_130">
    <path d="M 45.149932 372.679551 
L 381.0404 358.602433 
L 568.689543 569.141521 
L 388.813087 593.988649 
z
" clip-path="url(#p3353d05bc1)" style="fill: #14090f; fill-opacity: 0.932634"/>
   </g>
   <g id="patch_131">
    <path d="M 557.296224 311.894433 
L 65.334489 108.006924 
L 26.394761 661.611191 
L 319.501276 565.138307 
L 520.875938 63.506327 
z
" clip-path="url(#p3353d05bc1)" style="fill-opacity: 0.893086"/>
   </g>
   <g id="patch_132">
    <path d="M 128.062849 236.412426 
L 333.366052 590.628895 
L 7.209607 474.428123 
L 29.564155 71.078963 
z
" clip-path="url(#p3353d05bc1)" style="fill: #290000; fill-opacity: 0.952785"/>
   </g>
   <g id="patch_133">
    <path d="M 128.940404 656.176033 
L 33.912158 62.155608 
L 465.742322 346.905723 
L 228.491149 229.935637 
L 345.49636 307.080342 
z
" clip-path="url(#p3353d05bc1)" style="fill: #268cfa; fill-opacity: 0.303774"/>
   </g>
   <g id="patch_134">
    <path d="M 202.973932 278.053245 
L 362.122176 335.61242 
L 25.917309 579.112416 
L 65.074842 561.581829 
L 267.353697 12.729271 
z
" clip-path="url(#p3353d05bc1)" style="fill: #ab9128; fill-opacity: 0.691823"/>
   </g>
   <g id="patch_135">
    <path d="M 281.3714 112.655924 
L 449.688911 567.682038 
L 327.562064 315.982164 
L 378.774009 509.965519 
z
" clip-path="url(#p3353d05bc1)" style="fill: #9692ff; fill-opacity: 0.516901"/>
   </g>
   <g id="patch_136">
    <path d="M 571.392313 586.834225 
L 549.730511 615.728615 
L 378.10264 375.621371 
L 370.563911 575.642437 
z
" clip-path="url(#p3353d05bc1)" style="fill: #1b130f; fill-opacity: 0.6662"/>
   </g>
   <g id="patch_137">
    <path d="M 202.296342 482.160285 
L 421.093512 342.178871 
L 444.073141 37.045832 
L 239.039941 590.822034 
z
" clip-path="url(#p3353d05bc1)" style="fill: #093133; fill-opacity: 0.786392"/>
   </g>
   <g id="patch_138">
    <path d="M 266.331834 17.6198 
L 223.622375 41.634327 
L 66.28748 112.684876 
z
" clip-path="url(#p3353d05bc1)" style="fill: #59c243; fill-opacity: 0.14808"/>
   </g>
   <g id="patch_139">
    <path d="M 450.837185 626.248567 
L 529.082191 449.923111 
L 346.673921 195.436857 
L 522.414996 13.755747 
L 244.16229 136.754755 
z
" clip-path="url(#p3353d05bc1)" style="fill: #6f8b96"/>
   </g>
   <g id="patch_140">
    <path d="M 237.295046 116.786994 
L 184.609694 105.217625 
L 489.456326 493.163143 
L 465.247326 38.256769 
L 128.577889 442.479111 
z
" clip-path="url(#p3353d05bc1)" style="fill: #fffff9"/>
   </g>
   <g id="patch_141">
    <path d="M 161.570267 290.318806 
L 260.089742 417.599373 
L 467.528799 282.364856 
L 501.098013 122.163758 
z
" clip-path="url(#p3353d05bc1)" style="fill: #252925; fill-opacity: 0.222429"/>
   </g>
   <g id="patch_142">
    <path d="M 332.590155 271.267845 
L 349.819634 536.889372 
L 62.300688 57.676427 
z
" clip-path="url(#p3353d05bc1)" style="fill: #16bbec; fill-opacity: 0.379211"/>
   </g>
   <g id="patch_143">
    <path d="M 68.197529 87.815658 
L 548.772253 145.812691 
L 181.124692 206.950611 
L 412.251493 323.831187 
z
" clip-path="url(#p3353d05bc1)" style="fill: #830bf4; fill-opacity: 0.288623"/>
   </g>
   <g id="patch_144">
    <path d="M 182.025102 175.475568 
L 519.333763 282.686377 
L 520.673969 304.095947 
L 179.032646 366.087095 
L 323.902398 481.609525 
z
" clip-path="url(#p3353d05bc1)" style="fill: #5c1501; fill-opacity: 0.911109"/>
   </g>
   <g id="patch_145">
    <path d="M 100.431197 679.125347 
L 346.146934 171.609764 
L 450.000671 84.125789 
L 199.714217 654.716028 
z
" clip-path="url(#p3353d05bc1)" style="fill: #323236; fill-opacity: 0.70062"/>
   </g>
   <g id="patch_146">
    <path d="M 115.944509 397.621001 
L 73.621968 215.163916 
L 73.841304 192.901511 
L 485.162311 364.540657 
L 392.067972 242.743479 
z
" clip-path="url(#p3353d05bc1)" style="fill: #dcc5fd; fill-opacity: 0.099636"/>
   </g>
   <g id="patch_147">
    <path d="M 338.839552 327.706011 
L 210.039616 66.471433 
L 238.036163 608.784921 
L 213.492304 322.892722 
z
" clip-path="url(#p3353d05bc1)" style="fill: #04854b; fill-opacity: 0.981449"/>
   </g>
   <g id="patch_148">
    <path d="M 414.242892 370.751765 
L 298.493596 640.117451 
L 26.657549 72.20536 
L 91.630355 321.273208 
L 563.76995 58.648106 
z
" clip-path="url(#p3353d05bc1)" style="fill: #522c00; fill-opacity: 0.512824"/>
   </g>
   <g id="patch_149">
    <path d="M 145.452501 65.786837 
L 108.060043 22.304302 
L 130.366775 6.549397 
L 131.277272 488.354528 
L 466.653544 155.761102 
z
" clip-path="url(#p3353d05bc1)" style="fill: #ed00c1; fill-opacity: 0.35166"/>
   </g>
   <g id="patch_150">
    <path d="M 546.150169 484.060776 
L 472.464326 527.434544 
L 20.625701 630.813895 
L 169.461674 53.945896 
L 354.874911 113.774642 
z
" clip-path="url(#p3353d05bc1)" style="fill: #bab99b; fill-opacity: 0.917308"/>
   </g>
   <g id="patch_151">
    <path d="M 450.308242 396.53848 
L 568.74524 80.435097 
L 507.156262 78.858891 
L 298.625268 391.927145 
L 354.427028 330.422106 
z
" clip-path="url(#p3353d05bc1)" style="fill: #232600; fill-opacity: 0.867677"/>
   </g>
   <g id="patch_152">
    <path d="M 356.812273 560.473804 
L 128.100071 522.309794 
L 76.330403 429.300295 
L 19.229401 224.66268 
L 573.939178 433.413082 
z
" clip-path="url(#p3353d05bc1)" style="fill: #656f45; fill-opacity: 0.396407"/>
   </g>
   <g id="patch_153">
    <path d="M 146.670525 22.715342 
L 314.9949 253.591844 
L 386.673234 169.618111 
L 9.082824 609.342067 
L 56.735909 666.196901 
z
" clip-path="url(#p3353d05bc1)" style="fill: #270e12; fill-opacity: 0.45656"/>
   </g>
   <g id="patch_154">
    <path d="M 430.177151 617.678373 
L 574.25559 478.095935 
L 112.33766 336.816498 
L 493.828849 249.24504 
z
" clip-path="url(#p3353d05bc1)" style="fill: #e6fffc; fill-opacity: 0.325684"/>
   </g>
   <g id="patch_155">
    <path d="M 342.227361 99.34438 
L 404.595117 270.742688 
L 559.01532 133.978618 
L 95.934226 226.994435 
z
" clip-path="url(#p3353d05bc1)" style="fill: #150900; fill-opacity: 0.895934"/>
   </g>
   <g id="patch_156">
    <path d="M 575.628167 177.135505 
L 284.735855 360.031284 
L 117.252074 132.060444 
z
" clip-path="url(#p3353d05bc1)" style="fill-opacity: 0.893121"/>
   </g>
   <g id="patch_157">
    <path d="M 302.339542 500.41579 
L 44.897321 1.021644 
L 487.6588 431.700747 
L 394.627641 204.134658 
z
" clip-path="url(#p3353d05bc1)" style="fill: #a24900; fill-opacity: 0.784015"/>
   </g>
   <g id="patch_158">
    <path d="M 165.215264 46.149445 
L 484.07374 649.203772 
L 158.091483 399.136709 
z
" clip-path="url(#p3353d05bc1)" style="fill: #ffd375; fill-opacity: 0.341666"/>
   </g>
   <g id="patch_159">
    <path d="M 153.621761 634.464628 
L 35.201455 226.334454 
L 220.937515 629.084883 
z
" clip-path="url(#p3353d05bc1)" style="fill: #ff49ee; fill-opacity: 0.747057"/>
   </g>
   <g id="patch_160">
    <path d="M 538.914623 3.322791 
L 346.128548 344.436775 
L 14.988879 62.033445 
L 27.079854 92.725317 
z
" clip-path="url(#p3353d05bc1)" style="fill: #291b02; fill-opacity: 0.972609"/>
   </g>
   <g id="patch_161">
    <path d="M 165.593891 324.57583 
L 29.586637 203.961695 
L 94.860709 305.434467 
L 310.836314 607.22628 
z
" clip-path="url(#p3353d05bc1)" style="fill: #045e65; fill-opacity: 0.968445"/>
   </g>
   <g id="patch_162">
    <path d="M 1.786152 2.662528 
L 37.335778 588.779839 
L 75.1705 647.387874 
L 327.406097 116.333999 
L 575.133803 27.320211 
z
" clip-path="url(#p3353d05bc1)" style="fill: #242510; fill-opacity: 0.992344"/>
   </g>
   <g id="patch_163">
    <path d="M 479.012291 241.840049 
L 294.644843 559.531814 
L 386.493072 184.71421 
z
" clip-path="url(#p3353d05bc1)" style="fill: #a18fa8"/>
   </g>
   <g id="patch_164">
    <path d="M 521.983447 678.284818 
L 165.491098 355.905881 
L 506.021758 616.128234 
L 382.323947 54.941556 
z
" clip-path="url(#p3353d05bc1)" style="fill: #e672e4; fill-opacity: 0.0058"/>
   </g>
   <g id="patch_165">
    <path d="M 553.566072 461.211735 
L 272.903833 197.726566 
L 201.803023 223.372464 
L 208.304761 609.337503 
z
" clip-path="url(#p3353d05bc1)" style="fill: #e7b185; fill-opacity: 0.581902"/>
   </g>
   <g id="patch_166">
    <path d="M 445.653037 464.349779 
L 564.372856 681.918096 
L 14.837676 296.670401 
L 101.486821 345.676545 
z
" clip-path="url(#p3353d05bc1)" style="fill-opacity: 0.197706"/>
   </g>
   <g id="patch_167">
    <path d="M 32.95131 501.248938 
L 207.36036 27.875559 
L 486.202059 594.417347 
z
" clip-path="url(#p3353d05bc1)" style="fill: #040008"/>
   </g>
   <g id="patch_168">
    <path d="M 169.143649 225.123893 
L 70.809139 246.099867 
L 487.276281 18.578117 
L 87.679745 644.263592 
L 76.706818 24.153525 
z
" clip-path="url(#p3353d05bc1)" style="fill: #34074b; fill-opacity: 0.050539"/>
   </g>
   <g id="patch_169">
    <path d="M 222.69053 632.17833 
L 119.583324 641.655053 
L 389.353347 358.183535 
z
" clip-path="url(#p3353d05bc1)" style="fill: #4b38b5; fill-opacity: 0.455485"/>
   </g>
   <g id="patch_170">
    <path d="M 466.62795 217.212153 
L 434.810244 62.611609 
L 558.261918 28.109284 
L 289.784265 305.762615 
z
" clip-path="url(#p3353d05bc1)" style="fill: #ff007f; fill-opacity: 0.529603"/>
   </g>
   <g id="patch_171">
    <path d="M 270.068526 630.067213 
L 241.894799 17.725658 
L 348.919064 606.169783 
z
" clip-path="url(#p3353d05bc1)" style="fill: #78ab10; fill-opacity: 0.434072"/>
   </g>
   <g id="patch_172">
    <path d="M 41.198558 327.595959 
L 303.455711 162.363007 
L 509.499061 263.615934 
z
" clip-path="url(#p3353d05bc1)" style="fill: #077820; fill-opacity: 0.169102"/>
   </g>
   <g id="patch_173">
    <path d="M 466.883987 137.574453 
L 405.239211 541.595116 
L 222.482243 258.169345 
L 108.851371 539.097017 
z
" clip-path="url(#p3353d05bc1)" style="fill: #20001f; fill-opacity: 0.674764"/>
   </g>
   <g id="patch_174">
    <path d="M 97.179583 676.803965 
L 9.807494 372.78633 
L 210.204767 420.038221 
L 281.594141 548.91635 
z
" clip-path="url(#p3353d05bc1)" style="fill: #1f64ae; fill-opacity: 0.939323"/>
   </g>
   <g id="patch_175">
    <path d="M 255.523369 653.081262 
L 185.668193 144.142247 
L 70.402531 682.212654 
z
" clip-path="url(#p3353d05bc1)" style="fill: #231c00; fill-opacity: 0.955287"/>
   </g>
   <g id="patch_176">
    <path d="M 509.100029 570.68663 
L 232.635525 566.15028 
L 102.792491 330.029827 
z
" clip-path="url(#p3353d05bc1)" style="fill: #000009"/>
   </g>
   <g id="patch_177">
    <path d="M 456.092544 92.343234 
L 255.010989 11.035099 
L 62.169397 204.510123 
L 222.26511 216.430461 
L 329.482199 359.205923 
z
" clip-path="url(#p3353d05bc1)" style="fill: #974e56; fill-opacity: 0.433207"/>
   </g>
   <g id="patch_178">
    <path d="M 124.7762 597.803917 
L 413.109265 141.941379 
L 406.567969 428.817683 
L 52.873697 291.703522 
z
" clip-path="url(#p3353d05bc1)" style="fill: #412300; fill-opacity: 0.793424"/>
   </g>
   <g id="patch_179">
    <path d="M 18.788832 63.958868 
L 41.631587 184.446446 
L 190.618753 369.14493 
L 407.220138 110.33774 
z
" clip-path="url(#p3353d05bc1)" style="fill: #4f366f; fill-opacity: 0.125002"/>
   </g>
   <g id="patch_180">
    <path d="M 23.755393 393.227853 
L 39.62737 190.165239 
L 455.413018 231.48809 
L 338.324913 408.889647 
z
" clip-path="url(#p3353d05bc1)" style="fill: #a0dfaf; fill-opacity: 0.701902"/>
   </g>
   <g id="patch_181">
    <path d="M 35.713748 281.842636 
L 18.344574 239.231758 
L 174.916565 559.096859 
L 308.835298 207.76694 
L 35.713748 281.842636 
z
" clip-path="url(#p3353d05bc1)" style="fill: none"/>
   </g>
   <g id="patch_182">
    <path d="M 249.315417 645.986228 
L 33.610064 189.378691 
L 560.424492 217.844485 
L 249.315417 645.986228 
z
" clip-path="url(#p3353d05bc1)" style="fill: none"/>
   </g>
   <g id="patch_183">
    <path d="M 433.457513 312.160724 
L 473.703246 67.892641 
L 18.109578 582.406304 
L 64.365683 586.022177 
L 379.273494 242.776654 
z
" clip-path="url(#p3353d05bc1)" style="fill: #200021"/>
   </g>
   <g id="patch_184">
    <path d="M 493.225167 35.931341 
L 266.54355 195.501836 
L 42.592455 172.207755 
L 423.41327 595.858162 
z
" clip-path="url(#p3353d05bc1)" style="fill: #000215"/>
   </g>
   <g id="patch_185">
    <path d="M 486.686482 549.917867 
L 33.914263 659.900002 
L 33.053098 556.971277 
L 8.291578 681.023831 
z
" clip-path="url(#p3353d05bc1)" style="fill: #1f0b00"/>
   </g>
   <g id="patch_186">
    <path d="M 499.199862 630.328989 
L 201.659217 625.707782 
L 346.784977 33.690301 
L 119.265923 408.880565 
L 430.426238 527.606582 
z
" clip-path="url(#p3353d05bc1)" style="fill: #e1af61; fill-opacity: 0.52205"/>
   </g>
   <g id="patch_187">
    <path d="M 62.33316 321.37551 
L 334.137728 319.293215 
L 238.227876 657.136771 
L 54.747625 633.055545 
L 312.245898 610.496544 
z
" clip-path="url(#p3353d05bc1)" style="fill: #ffa540; fill-opacity: 0.578028"/>
   </g>
   <g id="patch_188">
    <path d="M 5.780684 285.068305 
L 418.989692 401.615006 
L 452.383621 230.103038 
L 0.401767 440.211118 
z
" clip-path="url(#p3353d05bc1)" style="fill: #2a2315; fill-opacity: 0.511629"/>
   </g>
   <g id="patch_189">
    <path d="M 349.272579 337.039207 
L 442.471355 547.145168 
L 384.277125 137.917916 
L 105.199825 596.120488 
L 349.272579 337.039207 
z
" clip-path="url(#p3353d05bc1)" style="fill: none"/>
   </g>
   <g id="patch_190">
    <path d="M 180.883421 132.424034 
L 542.736139 1.981482 
L 76.59513 1.110284 
L 469.595767 495.725029 
z
" clip-path="url(#p3353d05bc1)" style="fill: #1f110b; fill-opacity: 0.947065"/>
   </g>
   <g id="patch_191">
    <path d="M 399.285811 637.321429 
L 20.858101 127.218404 
L 312.966769 298.035426 
L 363.100133 153.717626 
z
" clip-path="url(#p3353d05bc1)" style="fill: #000023; fill-opacity: 0.869412"/>
   </g>
   <g id="patch_192">
    <path d="M 480.192272 605.145496 
L 212.604718 533.010444 
L 404.723483 308.287363 
L 17.730461 131.059239 
z
" clip-path="url(#p3353d05bc1)" style="fill: #ffbc57; fill-opacity: 0.788884"/>
   </g>
   <g id="patch_193">
    <path d="M 466.196502 45.916997 
L 19.448364 548.16282 
L 356.880819 667.966263 
L 294.09689 678.956305 
L 251.631093 553.281339 
z
" clip-path="url(#p3353d05bc1)" style="fill: #8a6a3c; fill-opacity: 0.521298"/>
   </g>
   <g id="patch_194">
    <path d="M 236.883895 268.470784 
L 247.143491 247.575698 
L 270.408197 501.19473 
z
" clip-path="url(#p3353d05bc1)" style="fill-opacity: 0.093909"/>
   </g>
   <g id="patch_195">
    <path d="M 454.353561 498.037245 
L 188.823303 480.410342 
L 51.269174 175.300533 
L 6.541499 646.252917 
L 226.705282 30.195134 
z
" clip-path="url(#p3353d05bc1)" style="fill: #000000; fill-opacity: 0.795593"/>
   </g>
   <g id="patch_196">
    <path d="M 370.66065 24.272819 
L 318.901927 284.261993 
L 359.097185 51.844831 
z
" clip-path="url(#p3353d05bc1)" style="fill: #693500; fill-opacity: 0.696597"/>
   </g>
   <g id="patch_197">
    <path d="M 550.88393 263.167661 
L 213.210011 580.397611 
L 432.250516 312.521268 
L 122.626778 103.689047 
L 275.095869 224.701818 
z
" clip-path="url(#p3353d05bc1)" style="fill: #000003"/>
   </g>
   <g id="patch_198">
    <path d="M 18.531002 584.030167 
L 201.52513 369.579525 
L 178.260845 479.700164 
z
" clip-path="url(#p3353d05bc1)" style="fill: #43291b; fill-opacity: 0.699402"/>
   </g>
   <g id="patch_199">
    <path d="M 367.691741 459.728296 
L 440.610526 144.935256 
L 14.947669 1.414599 
z
" clip-path="url(#p3353d05bc1)" style="fill: #1b171b; fill-opacity: 0.303069"/>
   </g>
   <g id="patch_200">
    <path d="M 106.567141 20.643868 
L 231.37207 544.747109 
L 371.39617 404.539054 
z
" clip-path="url(#p3353d05bc1)" style="fill: #00040e; fill-opacity: 0.130858"/>
   </g>
   <g id="patch_201">
    <path d="M 60.835678 105.865927 
L 349.888753 271.611979 
L 247.778387 62.598386 
L 383.591454 682.387039 
L 519.746748 654.978966 
z
" clip-path="url(#p3353d05bc1)" style="fill: #383526; fill-opacity: 0.718801"/>
   </g>
   <g id="patch_202">
    <path d="M 329.878382 649.279065 
L 470.53224 68.928243 
L 549.909232 663.341792 
L 459.694238 582.93273 
z
" clip-path="url(#p3353d05bc1)" style="fill: #009955; fill-opacity: 0.018695"/>
   </g>
   <g id="patch_203">
    <path d="M 113.572419 646.205422 
L 32.076858 660.333555 
L 258.217164 162.978371 
z
" clip-path="url(#p3353d05bc1)" style="fill: #179311; fill-opacity: 0.886959"/>
   </g>
   <g id="patch_204">
    <path d="M 130.837384 655.605732 
L 204.166484 74.373709 
L 210.161616 264.687266 
L 3.145069 681.380292 
L 386.227108 333.014024 
z
" clip-path="url(#p3353d05bc1)" style="fill: #132b00; fill-opacity: 0.93418"/>
   </g>
   <g id="patch_205">
    <path d="M 442.500239 288.855105 
L 500.969941 285.661433 
L 61.17834 106.285017 
L 571.195994 16.544315 
z
" clip-path="url(#p3353d05bc1)" style="fill: #272318; fill-opacity: 0.821934"/>
   </g>
   <g id="patch_206">
    <path d="M 406.401737 231.82175 
L 395.971088 446.894601 
L 421.302515 144.199636 
L 18.315172 552.723272 
L 381.838949 409.960452 
z
" clip-path="url(#p3353d05bc1)" style="fill: #ffffff"/>
   </g>
   <g id="patch_207">
    <path d="M 147.169194 561.203061 
L 553.394818 575.490569 
L 103.786903 399.778895 
z
" clip-path="url(#p3353d05bc1)" style="fill: #321717; fill-opacity: 0.328015"/>
   </g>
   <g id="patch_208">
    <path d="M 461.656221 468.327648 
L 94.147105 631.600445 
L 2.752006 172.964998 
L 80.866374 210.493305 
L 269.23622 442.923781 
z
" clip-path="url(#p3353d05bc1)" style="fill: #050017; fill-opacity: 0.1736"/>
   </g>
   <g id="patch_209">
    <path d="M 16.346838 112.337227 
L 139.328958 480.918146 
L 77.502836 482.43894 
L 2.969351 141.970827 
z
" clip-path="url(#p3353d05bc1)" style="fill: #231f1a"/>
   </g>
   <g id="patch_210">
    <path d="M 44.665697 373.006074 
L 507.123547 191.225293 
L 11.466207 476.437729 
L 394.823951 29.355441 
L 44.665697 373.006074 
z
" clip-path="url(#p3353d05bc1)" style="fill: none"/>
   </g>
   <g id="patch_211">
    <path d="M 349.679166 656.83989 
L 74.540946 549.356185 
L 131.569866 219.411915 
L 247.375506 508.478594 
L 502.515368 501.917622 
z
" clip-path="url(#p3353d05bc1)" style="fill: #93b0b5; fill-opacity: 0.303894"/>
   </g>
   <g id="patch_212">
    <path d="M 330.83949 209.515944 
L 220.092484 241.759925 
L 230.756896 502.155102 
L 489.134436 667.262416 
L 330.83949 209.515944 
z
" clip-path="url(#p3353d05bc1)" style="fill: none"/>
   </g>
   <g id="patch_213">
    <path d="M 116.020098 400.001069 
L 127.401288 223.653907 
L 481.051643 60.253749 
L 114.526665 25.722181 
z
" clip-path="url(#p3353d05bc1)" style="fill: #005271; fill-opacity: 0.210919"/>
   </g>
   <g id="patch_214">
    <path d="M 245.130124 394.298554 
L 395.68375 200.497741 
L 112.963351 482.632318 
L 12.456599 92.226926 
L 120.058279 136.208748 
z
" clip-path="url(#p3353d05bc1)" style="fill: #353335; fill-opacity: 0.449564"/>
   </g>
   <g id="patch_215">
    <path d="M 252.658407 57.432714 
L 353.838142 133.210037 
L 262.508153 309.356395 
L 104.559748 74.820098 
z
" clip-path="url(#p3353d05bc1)" style="fill: #3e271e; fill-opacity: 0.054822"/>
   </g>
   <g id="patch_216">
    <path d="M 142.086073 679.101528 
L 193.698461 649.11048 
L 107.666213 93.289338 
z
" clip-path="url(#p3353d05bc1)" style="fill: #22170b"/>
   </g>
   <g id="patch_217">
    <path d="M 142.945222 233.924142 
L 346.802762 194.233279 
L 322.126866 549.342223 
L 249.352933 431.569518 
z
" clip-path="url(#p3353d05bc1)" style="fill: #1e193e"/>
   </g>
   <g id="patch_218">
    <path d="M 285.993666 420.421337 
L 174.997839 666.350938 
L 250.669573 653.726985 
L 465.900247 397.777276 
L 194.752435 92.289584 
z
" clip-path="url(#p3353d05bc1)" style="fill: #ffffdb; fill-opacity: 0.514266"/>
   </g>
   <g id="patch_219">
    <path d="M 50.053511 530.597264 
L 303.930026 656.395589 
L 279.865651 438.463228 
z
" clip-path="url(#p3353d05bc1)" style="fill: #af9765; fill-opacity: 0.973772"/>
   </g>
   <g id="patch_220">
    <path d="M 83.524291 337.974182 
L 263.289626 488.463024 
L 502.157757 60.957744 
L 226.222876 316.575329 
z
" clip-path="url(#p3353d05bc1)" style="fill: #29a225"/>
   </g>
   <g id="patch_221">
    <path d="M 254.036991 324.780665 
L 565.831235 57.835826 
L 124.88088 5.510867 
L 174.752274 122.389358 
L 452.259614 242.702459 
z
" clip-path="url(#p3353d05bc1)" style="fill: #261814; fill-opacity: 0.981955"/>
   </g>
   <g id="patch_222">
    <path d="M 566.632232 10.905662 
L 53.895278 151.135885 
L 383.065815 333.485095 
z
" clip-path="url(#p3353d05bc1)" style="fill: #181e0b; fill-opacity: 0.785359"/>
   </g>
   <g id="patch_223">
    <path d="M 145.706743 266.369171 
L 6.224405 267.501865 
L 86.22404 479.248558 
L 424.069066 378.858447 
L 493.602171 105.990084 
z
" clip-path="url(#p3353d05bc1)" style="fill: #1e1200; fill-opacity: 0.659757"/>
   </g>
   <g id="patch_224">
    <path d="M 16.932275 169.854663 
L 395.354596 115.853952 
L 228.109278 624.271915 
z
" clip-path="url(#p3353d05bc1)" style="fill: #bfb6af; fill-opacity: 0.555675"/>
   </g>
   <g id="patch_225">
    <path d="M 483.824262 586.22179 
L 564.082956 365.278666 
L 144.823717 10.507565 
L 485.652804 473.568753 
z
" clip-path="url(#p3353d05bc1)" style="fill: #10200e; fill-opacity: 0.22904"/>
   </g>
   <g id="patch_226">
    <path d="M 357.736247 64.130621 
L 260.40495 369.348766 
L 337.399071 44.325419 
z
" clip-path="url(#p3353d05bc1)" style="fill: #ff7fde; fill-opacity: 0.126768"/>
   </g>
   <g id="patch_227">
    <path d="M 359.176485 361.062509 
L 389.549021 95.620717 
L 192.278297 340.617047 
z
" clip-path="url(#p3353d05bc1)"/>
   </g>
   <g id="patch_228">
    <path d="M 423.980423 656.805727 
L 234.619361 217.687704 
L 246.614344 5.913186 
L 0.546712 557.588394 
L 19.190447 78.78227 
z
" clip-path="url(#p3353d05bc1)" style="fill: #242b19; fill-opacity: 0.907854"/>
   </g>
   <g id="patch_229">
    <path d="M 423.45972 362.984206 
L 320.761147 348.578661 
L 560.016009 647.275302 
L 164.52333 545.466387 
z
" clip-path="url(#p3353d05bc1)" style="fill: #32392d; fill-opacity: 0.535853"/>
   </g>
   <g id="patch_230">
    <path d="M 298.271105 648.120999 
L 355.502204 510.595483 
L 539.12896 66.94164 
L 61.289094 296.380721 
L 410.095801 309.412806 
z
" clip-path="url(#p3353d05bc1)" style="fill: #152426"/>
   </g>
   <g id="patch_231">
    <path d="M 195.170456 124.16277 
L 309.716996 119.352243 
L 351.804321 630.339217 
L 116.221644 592.249485 
L 126.122117 515.514212 
z
" clip-path="url(#p3353d05bc1)" style="fill: #bfa67d"/>
   </g>
   <g id="patch_232">
    <path d="M 431.898406 132.177329 
L 538.754421 384.83402 
L 5.978884 536.600311 
z
" clip-path="url(#p3353d05bc1)" style="fill: #ffffff; fill-opacity: 0.189603"/>
   </g>
   <g id="patch_233">
    <path d="M 532.752267 284.793684 
L 548.739561 614.427082 
L 444.121295 328.867791 
L 488.810141 179.644339 
z
" clip-path="url(#p3353d05bc1)" style="fill: #dcffff; fill-opacity: 0.067768"/>
   </g>
   <g id="patch_234">
    <path d="M 12.080633 372.764305 
L 210.461395 587.39722 
L 177.671825 209.637164 
z
" clip-path="url(#p3353d05bc1)" style="fill: #2a271e; fill-opacity: 0.903742"/>
   </g>
   <g id="patch_235">
    <path d="M 189.846404 659.172045 
L 396.20783 422.852411 
L 510.155707 125.419931 
L 486.279585 517.394144 
z
" clip-path="url(#p3353d05bc1)" style="fill: #f3ff5f; fill-opacity: 0.002531"/>
   </g>
   <g id="patch_236">
    <path d="M 399.380045 266.537955 
L 294.408384 377.932032 
L 246.003648 162.223485 
z
" clip-path="url(#p3353d05bc1)" style="fill: #402f00; fill-opacity: 0.871074"/>
   </g>
   <g id="patch_237">
    <path d="M 291.554926 372.226099 
L 186.917962 58.585981 
L 430.656311 317.328264 
L 306.006869 164.789595 
L 503.048329 154.900243 
z
" clip-path="url(#p3353d05bc1)" style="fill: #9affb4; fill-opacity: 0.197739"/>
   </g>
   <g id="patch_238">
    <path d="M 287.636086 44.10234 
L 116.449328 410.120742 
L 335.070019 223.258082 
L 524.644692 263.862926 
L 465.416685 592.31538 
z
" clip-path="url(#p3353d05bc1)" style="fill: #fbeef8; fill-opacity: 0.151866"/>
   </g>
   <g id="patch_239">
    <path d="M 25.247558 467.269176 
L 236.848604 365.25857 
L 43.951309 574.670836 
L 132.034212 672.121562 
L 276.137679 469.280553 
z
" clip-path="url(#p3353d05bc1)" style="fill: #251c1b; fill-opacity: 0.505681"/>
   </g>
   <g id="patch_240">
    <path d="M 266.85559 245.725687 
L 457.210552 186.696389 
L 177.011446 332.690782 
z
" clip-path="url(#p3353d05bc1)" style="fill: #700000; fill-opacity: 0.253924"/>
   </g>
   <g id="patch_241">
    <path d="M 66.304127 292.545569 
L 3.605703 618.225693 
L 20.676121 670.336225 
L 130.8106 649.040178 
L 187.666955 250.936591 
z
" clip-path="url(#p3353d05bc1)" style="fill: #201c10"/>
   </g>
   <g id="patch_242">
    <path d="M 458.752811 282.163516 
L 496.445883 128.634786 
L 145.817878 592.080768 
L 309.842108 0.806515 
z
" clip-path="url(#p3353d05bc1)" style="fill: #460000; fill-opacity: 0.253295"/>
   </g>
   <g id="patch_243">
    <path d="M 10.626133 677.204927 
L 131.738593 77.899975 
L 515.312571 197.671246 
z
" clip-path="url(#p3353d05bc1)" style="fill: #aa13d0; fill-opacity: 0.029193"/>
   </g>
   <g id="patch_244">
    <path d="M 242.127782 86.772441 
L 372.785149 77.546087 
L 294.740485 266.626785 
L 48.729528 293.352172 
z
" clip-path="url(#p3353d05bc1)" style="fill: #4594ff; fill-opacity: 0.221284"/>
   </g>
   <g id="patch_245">
    <path d="M 353.359604 366.001925 
L 305.424697 60.950434 
L 473.783952 109.813119 
z
" clip-path="url(#p3353d05bc1)" style="fill: #969b8d"/>
   </g>
   <g id="patch_246">
    <path d="M 318.622068 88.513068 
L 368.744571 366.528564 
L 177.149541 477.222416 
z
" clip-path="url(#p3353d05bc1)" style="fill: #928282; fill-opacity: 0.55815"/>
   </g>
   <g id="patch_247">
    <path d="M 27.739793 678.649188 
L 286.22075 657.377118 
L 131.6316 479.017104 
L 32.012175 33.994276 
z
" clip-path="url(#p3353d05bc1)" style="fill: #330500; fill-opacity: 0.118106"/>
   </g>
   <g id="patch_248">
    <path d="M 31.390077 665.947023 
L 5.913022 373.485895 
L 214.751218 550.722935 
L 74.735043 623.874934 
L 332.86748 96.043963 
z
" clip-path="url(#p3353d05bc1)" style="fill: #240d17; fill-opacity: 0.292234"/>
   </g>
   <g id="patch_249">
    <path d="M 275.476371 508.942198 
L 504.532136 318.249375 
L 119.498061 662.290943 
z
" clip-path="url(#p3353d05bc1)" style="fill: #001103; fill-opacity: 0.17414"/>
   </g>
   <g id="patch_250">
    <path d="M 473.493318 264.291046 
L 411.622816 555.771658 
L 404.852799 221.403118 
z
" clip-path="url(#p3353d05bc1)" style="fill: #263f5d; fill-opacity: 0.905982"/>
   </g>
   <g id="patch_251">
    <path d="M 329.968488 335.880865 
L 417.361671 434.228121 
L 499.25404 43.788105 
z
" clip-path="url(#p3353d05bc1)" style="fill: #292f00; fill-opacity: 0.176963"/>
   </g>
   <g id="patch_252">
    <path d="M 279.832928 403.518422 
L 161.696488 404.186489 
L 128.824206 624.247336 
L 319.535656 492.958285 
L 10.466962 613.729882 
z
" clip-path="url(#p3353d05bc1)" style="fill: #0c0900; fill-opacity: 0.485106"/>
   </g>
   <g id="patch_253">
    <path d="M 340.285217 77.140766 
L 140.702011 164.890295 
L 302.3244 401.387346 
L 296.530045 189.8028 
z
" clip-path="url(#p3353d05bc1)" style="fill: #ded8cd; fill-opacity: 0.460351"/>
   </g>
   <g id="patch_254">
    <path d="M 210.780804 472.672375 
L 45.406562 619.113104 
L 9.971455 530.374135 
L 147.221131 13.368724 
z
" clip-path="url(#p3353d05bc1)" style="fill: #0e1f00; fill-opacity: 0.339723"/>
   </g>
   <g id="patch_255">
    <path d="M 522.838524 333.47629 
L 562.472404 154.911567 
L 452.05393 216.109368 
z
" clip-path="url(#p3353d05bc1)" style="fill: #000d00; fill-opacity: 0.927487"/>
   </g>
   <g id="patch_256">
    <path d="M 130.503385 453.438367 
L 323.928382 459.848057 
L 2.215708 548.960197 
L 11.83547 186.241021 
L 130.503385 453.438367 
z
" clip-path="url(#p3353d05bc1)" style="fill: none"/>
   </g>
   <g id="patch_257">
    <path d="M 24.661799 334.989869 
L 264.742304 443.629979 
L 208.617684 504.716606 
z
" clip-path="url(#p3353d05bc1)" style="fill: #1e1e0b"/>
   </g>
   <g id="patch_258">
    <path d="M 329.51126 530.688978 
L 351.66659 439.865198 
L 354.427764 640.312051 
L 226.357031 502.013969 
z
" clip-path="url(#p3353d05bc1)" style="fill: #989d77; fill-opacity: 0.635832"/>
   </g>
   <g id="patch_259">
    <path d="M 506.689093 99.831342 
L 91.509626 21.806907 
L 132.029483 169.877039 
L 354.380337 77.443149 
L 437.856487 537.296695 
z
" clip-path="url(#p3353d05bc1)" style="fill: #502900; fill-opacity: 0.356638"/>
   </g>
   <g id="patch_260">
    <path d="M 122.865046 74.729909 
L 69.354788 635.83361 
L 252.673004 36.128823 
z
" clip-path="url(#p3353d05bc1)" style="fill: #000033; fill-opacity: 0.178139"/>
   </g>
   <g id="patch_261">
    <path d="M 416.270504 484.319502 
L 236.42392 509.34192 
L 475.043892 503.363241 
z
" clip-path="url(#p3353d05bc1)" style="fill: #003d9c; fill-opacity: 0.040826"/>
   </g>
   <g id="patch_262">
    <path d="M 92.060481 431.736358 
L 120.382229 599.38585 
L 3.11746 645.073644 
z
" clip-path="url(#p3353d05bc1)" style="fill: #251b0d; fill-opacity: 0.993715"/>
   </g>
   <g id="patch_263">
    <path d="M 414.654143 389.861043 
L 351.813798 423.554472 
L 69.815868 609.439099 
z
" clip-path="url(#p3353d05bc1)" style="fill: #885410; fill-opacity: 0.297167"/>
   </g>
   <g id="patch_264">
    <path d="M 340.989373 59.377663 
L 466.925251 397.110621 
L 444.694609 280.22805 
L 488.623469 389.581431 
z
" clip-path="url(#p3353d05bc1)" style="fill: #b09c7d"/>
   </g>
   <g id="patch_265">
    <path d="M 384.759852 426.591379 
L 293.15436 203.591509 
L 467.057777 195.925966 
z
" clip-path="url(#p3353d05bc1)" style="fill: #2b4250"/>
   </g>
   <g id="patch_266">
    <path d="M 155.910275 58.608659 
L 383.32939 584.161737 
L 128.867849 392.782567 
L 150.738508 555.386382 
z
" clip-path="url(#p3353d05bc1)" style="fill: #ffd27d; fill-opacity: 0.204129"/>
   </g>
   <g id="patch_267">
    <path d="M 221.669233 602.654081 
L 242.151709 547.3691 
L 178.164216 664.862424 
L 262.692785 298.229051 
z
" clip-path="url(#p3353d05bc1)" style="fill: #001100; fill-opacity: 0.218902"/>
   </g>
   <g id="patch_268">
    <path d="M 417.894733 105.739376 
L 220.958357 335.606502 
L 472.084472 25.932605 
L 177.650101 254.264179 
L 202.594321 200.932128 
z
" clip-path="url(#p3353d05bc1)" style="fill: #ffffff; fill-opacity: 0.12192"/>
   </g>
   <g id="patch_269">
    <path d="M 283.008433 358.014101 
L 213.917096 638.462346 
L 144.256674 595.192196 
z
" clip-path="url(#p3353d05bc1)" style="fill: #0f0003; fill-opacity: 0.493313"/>
   </g>
   <g id="patch_270">
    <path d="M 128.23621 247.973632 
L 52.548466 249.46412 
L 431.310269 23.973321 
L 231.587621 11.989026 
L 87.634745 131.608877 
z
" clip-path="url(#p3353d05bc1)" style="fill: #17150d; fill-opacity: 0.597054"/>
   </g>
   <g id="patch_271">
    <path d="M 188.342086 520.493451 
L 57.717811 115.702922 
L 300.559117 529.555777 
z
" clip-path="url(#p3353d05bc1)" style="fill: #010000; fill-opacity: 0.160116"/>
   </g>
   <g id="patch_272">
    <path d="M 44.615485 427.658439 
L 217.044874 477.789081 
L 184.406115 196.099833 
L 44.615485 427.658439 
z
" clip-path="url(#p3353d05bc1)" style="fill: none"/>
   </g>
   <g id="patch_273">
    <path d="M 215.784958 528.755884 
L 28.444195 294.209441 
L 220.520803 495.475079 
z
" clip-path="url(#p3353d05bc1)" style="fill: #1f1201; fill-opacity: 0.972578"/>
   </g>
   <g id="patch_274">
    <path d="M 203.411553 682.549166 
L 544.859999 92.670076 
L 406.60251 648.941034 
z
" clip-path="url(#p3353d05bc1)" style="fill: #976b3c; fill-opacity: 0.409266"/>
   </g>
   <g id="patch_275">
    <path d="M 194.37197 457.464498 
L 112.617303 629.694538 
L 87.654563 216.158069 
z
" clip-path="url(#p3353d05bc1)" style="fill: #272111; fill-opacity: 0.798045"/>
   </g>
   <g id="patch_276">
    <path d="M 173.455647 671.220766 
L 197.790483 522.745547 
L 478.580533 360.622834 
L 511.39351 239.537258 
z
" clip-path="url(#p3353d05bc1)" style="fill: #ffd286; fill-opacity: 0.134912"/>
   </g>
   <g id="patch_277">
    <path d="M 229.042681 591.307592 
L 85.596226 546.579965 
L 244.399862 288.549378 
z
" clip-path="url(#p3353d05bc1)" style="fill: #170009; fill-opacity: 0.107844"/>
   </g>
   <g id="patch_278">
    <path d="M 21.281974 407.951924 
L 10.113577 262.492383 
L 217.43697 102.567159 
L 92.314219 467.018484 
L 116.16327 51.327554 
z
" clip-path="url(#p3353d05bc1)" style="fill: #242119"/>
   </g>
   <g id="patch_279">
    <path d="M 364.497534 58.625154 
L 8.75267 543.413689 
L 465.949621 79.481457 
z
" clip-path="url(#p3353d05bc1)" style="fill: #b4d4ef; fill-opacity: 0.058194"/>
   </g>
   <g id="patch_280">
    <path d="M 531.679934 478.688709 
L 393.920266 191.839116 
L 259.19095 555.698269 
L 274.434182 178.564851 
L 557.896225 189.433156 
z
" clip-path="url(#p3353d05bc1)" style="fill: #75706d; fill-opacity: 0.249114"/>
   </g>
   <g id="patch_281">
    <path d="M 556.336742 148.760317 
L 575.612243 319.968421 
L 335.122988 229.662902 
z
" clip-path="url(#p3353d05bc1)" style="fill: #d75d47; fill-opacity: 0.13146"/>
   </g>
   <g id="patch_282">
    <path d="M 363.415806 572.598415 
L 486.082838 353.180853 
L 543.210033 331.827175 
L 388.823422 138.062783 
L 286.045697 520.03146 
z
" clip-path="url(#p3353d05bc1)" style="fill: #aaffa0; fill-opacity: 0.06028"/>
   </g>
   <g id="patch_283">
    <path d="M 473.449729 636.196688 
L 369.154066 668.722265 
L 354.398681 598.5983 
L 464.232152 466.620993 
z
" clip-path="url(#p3353d05bc1)" style="fill: #68777e; fill-opacity: 0.061756"/>
   </g>
   <g id="patch_284">
    <path d="M 4.526626 385.885766 
L 147.573935 348.18465 
L 46.236741 56.949576 
z
" clip-path="url(#p3353d05bc1)" style="fill: #271d1a; fill-opacity: 0.275932"/>
   </g>
   <g id="patch_285">
    <path d="M 89.386145 271.470995 
L 30.547674 464.274165 
L 361.730628 458.030705 
L 254.752769 198.87853 
L 469.075369 681.472524 
z
" clip-path="url(#p3353d05bc1)" style="fill: #421604; fill-opacity: 0.073955"/>
   </g>
   <g id="patch_286">
    <path d="M 305.771431 584.164088 
L 39.53418 84.734884 
L 145.645849 497.582662 
z
" clip-path="url(#p3353d05bc1)" style="fill: #3d1631; fill-opacity: 0.002702"/>
   </g>
   <g id="patch_287">
    <path d="M 35.848949 315.034304 
L 257.811315 614.913599 
L 255.914355 593.480592 
L 94.470045 87.155778 
z
" clip-path="url(#p3353d05bc1)" style="fill: #251c10; fill-opacity: 0.222386"/>
   </g>
   <g id="patch_288">
    <path d="M 574.820768 635.474316 
L 554.109224 19.296728 
L 500.915239 149.637601 
L 426.823163 89.710129 
z
" clip-path="url(#p3353d05bc1)" style="fill: #1a140f; fill-opacity: 0.483238"/>
   </g>
   <g id="patch_289">
    <path d="M 229.252804 483.599264 
L 67.444336 275.038162 
L 6.993317 635.688056 
L 241.651987 46.817382 
L 95.100801 498.676285 
z
" clip-path="url(#p3353d05bc1)" style="fill: #291e18; fill-opacity: 0.76203"/>
   </g>
   <g id="patch_290">
    <path d="M 243.093766 265.255129 
L 462.74688 196.415191 
L 243.190106 264.464558 
L 366.67416 446.92629 
L 463.389333 280.719535 
z
" clip-path="url(#p3353d05bc1)" style="fill: #a30000; fill-opacity: 0.132863"/>
   </g>
   <g id="patch_291">
    <path d="M 318.906945 580.260899 
L 408.948797 70.89562 
L 215.835267 555.471691 
L 395.749383 175.146889 
L 355.404305 149.531229 
z
" clip-path="url(#p3353d05bc1)" style="fill: #283733; fill-opacity: 0.237842"/>
   </g>
   <g id="patch_292">
    <path d="M 122.834649 179.22758 
L 174.146757 670.534283 
L 88.840813 378.98519 
z
" clip-path="url(#p3353d05bc1)" style="fill: #272017; fill-opacity: 0.832115"/>
   </g>
   <g id="patch_293">
    <path d="M 486.631094 143.157872 
L 499.209948 96.607767 
L 313.238375 291.307105 
L 564.865698 7.005454 
L 507.167254 612.983248 
z
" clip-path="url(#p3353d05bc1)" style="fill: #1e1216; fill-opacity: 0.338474"/>
   </g>
   <g id="patch_294">
    <path d="M 369.158174 180.083448 
L 385.849936 591.178807 
L 455.580132 535.101426 
z
" clip-path="url(#p3353d05bc1)" style="fill: #353e2b; fill-opacity: 0.579468"/>
   </g>
  </g>
 </g>
 <defs>
  <clipPath id="p3353d05bc1">
   <rect x="0" y="0" width="576" height="682.56"/>
  </clipPath>
 </defs>
</svg>
