<?xml version="1.0" encoding="utf-8" standalone="no"?>
<!DOCTYPE svg PUBLIC "-//W3C//DTD SVG 1.1//EN"
  "http://www.w3.org/Graphics/SVG/1.1/DTD/svg11.dtd">
<svg xmlns:xlink="http://www.w3.org/1999/xlink" width="576pt" height="682.56pt" viewBox="0 0 576 682.56" xmlns="http://www.w3.org/2000/svg" version="1.1">
 <metadata>
  <rdf:RDF xmlns:dc="http://purl.org/dc/elements/1.1/" xmlns:cc="http://creativecommons.org/ns#" xmlns:rdf="http://www.w3.org/1999/02/22-rdf-syntax-ns#">
   <cc:Work>
    <dc:type rdf:resource="http://purl.org/dc/dcmitype/StillImage"/>
    <dc:date>2022-05-08T16:00:06.967215</dc:date>
    <dc:format>image/svg+xml</dc:format>
    <dc:creator>
     <cc:Agent>
      <dc:title>Matplotlib v3.5.2, https://matplotlib.org/</dc:title>
     </cc:Agent>
    </dc:creator>
   </cc:Work>
  </rdf:RDF>
 </metadata>
 <defs>
  <style type="text/css">*{stroke-linejoin: round; stroke-linecap: butt}</style>
 </defs>
 <g id="figure_1">
  <g id="patch_1">
   <path d="M 0 682.56 
L 576 682.56 
L 576 0 
L 0 0 
z
" style="fill: #ffffff"/>
  </g>
  <g id="axes_1">
   <g id="patch_2">
    <path d="M 0 682.56 
L 0 0 
L 576 0 
L 576 682.56 
z
" clip-path="url(#pf4b4827de2)" style="fill: #808080"/>
   </g>
   <g id="patch_3">
    <path d="M 3.329294 50.684334 
L 210.793161 532.852977 
L 228.162674 107.0662 
L 400.175203 48.014735 
z
" clip-path="url(#pf4b4827de2)" style="fill: #132b31; fill-opacity: 0.971198"/>
   </g>
   <g id="patch_4">
    <path d="M 451.51409 586.525186 
L 539.860677 39.665897 
L 413.069116 14.421255 
L 386.634758 100.635876 
z
" clip-path="url(#pf4b4827de2)" style="fill: #000b01; fill-opacity: 0.766494"/>
   </g>
   <g id="patch_5">
    <path d="M 192.952869 458.058856 
L 81.270188 255.638463 
L 78.932463 620.851452 
L 241.376693 374.360976 
z
" clip-path="url(#pf4b4827de2)" style="fill: #170066; fill-opacity: 0.055645"/>
   </g>
   <g id="patch_6">
    <path d="M 133.131099 168.910586 
L 171.763695 216.948605 
L 101.714758 318.120256 
z
" clip-path="url(#pf4b4827de2)" style="fill: #060b12; fill-opacity: 0.750923"/>
   </g>
   <g id="patch_7">
    <path d="M 102.077247 352.913079 
L 264.219202 538.761637 
L 567.100012 660.779046 
L 255.876054 264.288184 
z
" clip-path="url(#pf4b4827de2)" style="fill: #191802; fill-opacity: 0.842055"/>
   </g>
   <g id="patch_8">
    <path d="M 147.262705 156.004014 
L 294.653872 184.940743 
L 164.132749 658.426851 
L 443.859423 578.913001 
z
" clip-path="url(#pf4b4827de2)" style="fill: #daac9c; fill-opacity: 0.629579"/>
   </g>
   <g id="patch_9">
    <path d="M 77.575687 314.139592 
L 455.066015 3.391619 
L 160.015492 78.328416 
L 184.713886 568.667457 
z
" clip-path="url(#pf4b4827de2)" style="fill: #120000; fill-opacity: 0.890475"/>
   </g>
   <g id="patch_10">
    <path d="M 113.831352 101.316564 
L 241.016542 62.948716 
L 488.260594 422.77975 
L 340.976932 78.365179 
z
" clip-path="url(#pf4b4827de2)" style="fill: #ffc0d8; fill-opacity: 0.735361"/>
   </g>
   <g id="patch_11">
    <path d="M 364.753922 498.06069 
L 45.721396 177.891159 
L 148.879644 675.910599 
z
" clip-path="url(#pf4b4827de2)" style="fill: #1b0022; fill-opacity: 0.692444"/>
   </g>
   <g id="patch_12">
    <path d="M 522.013664 396.106794 
L 461.310569 617.750071 
L 536.931411 94.255097 
L 12.506728 180.149096 
z
" clip-path="url(#pf4b4827de2)" style="fill: #46c505; fill-opacity: 0.117827"/>
   </g>
   <g id="patch_13">
    <path d="M 381.0404 358.602433 
L 568.689543 569.141521 
L 388.813087 593.988649 
z
" clip-path="url(#pf4b4827de2)" style="fill: #4e4c57; fill-opacity: 0.933654"/>
   </g>
   <g id="patch_14">
    <path d="M 333.366052 590.628895 
L 7.209607 474.428123 
L 29.564155 71.078963 
z
" clip-path="url(#pf4b4827de2)" style="fill: #1e250f; fill-opacity: 0.916863"/>
   </g>
   <g id="patch_15">
    <path d="M 25.917309 579.112416 
L 65.074842 561.581829 
L 267.353697 12.729271 
z
" clip-path="url(#pf4b4827de2)" style="fill: #02001d; fill-opacity: 0.648649"/>
   </g>
   <g id="patch_16">
    <path d="M 281.3714 112.655924 
L 45.757303 203.99669 
L 378.774009 509.965519 
L 203.599453 120.70241 
z
" clip-path="url(#pf4b4827de2)" style="fill: #4a2610; fill-opacity: 0.210336"/>
   </g>
   <g id="patch_17">
    <path d="M 549.730511 615.728615 
L 378.10264 375.621371 
L 370.563911 575.642437 
z
" clip-path="url(#pf4b4827de2)" style="fill: #446241; fill-opacity: 0.522737"/>
   </g>
   <g id="patch_18">
    <path d="M 279.646733 207.764972 
L 396.638674 278.971031 
L 412.59021 661.884039 
L 546.945848 165.174559 
z
" clip-path="url(#pf4b4827de2)" style="fill: #456339; fill-opacity: 0.713832"/>
   </g>
   <g id="patch_19">
    <path d="M 94.940887 202.660268 
L 574.136854 360.078245 
L 447.079257 355.705977 
z
" clip-path="url(#pf4b4827de2)" style="fill: #bd501c; fill-opacity: 0.242128"/>
   </g>
   <g id="patch_20">
    <path d="M 182.025102 175.475568 
L 519.333763 282.686377 
L 179.032646 366.087095 
L 323.902398 481.609525 
z
" clip-path="url(#pf4b4827de2)" style="fill: #002630; fill-opacity: 0.939547"/>
   </g>
   <g id="patch_21">
    <path d="M 115.944509 397.621001 
L 73.621968 215.163916 
L 73.841304 192.901511 
L 392.067972 242.743479 
z
" clip-path="url(#pf4b4827de2)" style="fill: #ff8b91; fill-opacity: 0.5916"/>
   </g>
   <g id="patch_22">
    <path d="M 145.452501 65.786837 
L 155.963138 377.01067 
L 305.99186 595.549145 
L 484.512316 578.767436 
z
" clip-path="url(#pf4b4827de2)" style="fill: #57606e; fill-opacity: 0.514412"/>
   </g>
   <g id="patch_23">
    <path d="M 249.289924 284.292094 
L 254.919952 77.310148 
L 242.591573 21.964746 
z
" clip-path="url(#pf4b4827de2)" style="fill: #430000; fill-opacity: 0.857951"/>
   </g>
   <g id="patch_24">
    <path d="M 314.9949 253.591844 
L 386.673234 169.618111 
L 177.487226 638.699058 
z
" clip-path="url(#pf4b4827de2)" style="fill: #00001a"/>
   </g>
   <g id="patch_25">
    <path d="M 91.711543 85.870584 
L 112.33766 336.816498 
L 493.828849 249.24504 
L 46.189064 32.555949 
z
" clip-path="url(#pf4b4827de2)" style="fill: #241f0e; fill-opacity: 0.980729"/>
   </g>
   <g id="patch_26">
    <path d="M 37.335778 588.779839 
L 75.1705 647.387874 
L 575.133803 27.320211 
L 507.132295 45.484157 
L 389.941511 299.217596 
z
" clip-path="url(#pf4b4827de2)" style="fill: #181200; fill-opacity: 0.808919"/>
   </g>
   <g id="patch_27">
    <path d="M 553.566072 461.211735 
L 272.903833 197.726566 
L 201.803023 223.372464 
L 208.304761 609.337503 
z
" clip-path="url(#pf4b4827de2)" style="fill: #bda98e"/>
   </g>
   <g id="patch_28">
    <path d="M 169.143649 225.123893 
L 342.310493 251.827825 
L 87.679745 644.263592 
L 76.706818 24.153525 
z
" clip-path="url(#pf4b4827de2)" style="fill: #373122; fill-opacity: 0.767462"/>
   </g>
   <g id="patch_29">
    <path d="M 210.161616 264.687266 
L 386.227108 333.014024 
L 94.937659 529.827784 
L 164.861257 157.707376 
z
" clip-path="url(#pf4b4827de2)" style="fill: #380300; fill-opacity: 0.724025"/>
   </g>
   <g id="patch_30">
    <path d="M 406.401737 231.82175 
L 421.302515 144.199636 
L 381.838949 409.960452 
L 530.524651 305.895494 
L 50.109781 451.041571 
z
" clip-path="url(#pf4b4827de2)" style="fill: #681546; fill-opacity: 0.50312"/>
   </g>
   <g id="patch_31">
    <path d="M 44.665697 373.006074 
L 11.466207 476.437729 
L 250.958578 191.348809 
z
" clip-path="url(#pf4b4827de2)" style="fill: #205132; fill-opacity: 0.412907"/>
   </g>
   <g id="patch_32">
    <path d="M 12.456599 92.226926 
L 145.344436 622.836916 
L 120.058279 136.208748 
L 326.328804 303.721517 
L 67.590193 180.722903 
z
" clip-path="url(#pf4b4827de2)" style="fill: #0c3d35; fill-opacity: 0.758803"/>
   </g>
   <g id="patch_33">
    <path d="M 254.036991 324.780665 
L 56.404593 663.025384 
L 124.88088 5.510867 
L 452.259614 242.702459 
z
" clip-path="url(#pf4b4827de2)" style="fill: #26231c; fill-opacity: 0.973871"/>
   </g>
   <g id="patch_34">
    <path d="M 230.207411 367.805229 
L 193.147229 154.127456 
L 256.364598 109.156111 
L 24.780428 399.93774 
z
" clip-path="url(#pf4b4827de2)" style="fill: #395741; fill-opacity: 0.028753"/>
   </g>
   <g id="patch_35">
    <path d="M 423.980423 656.805727 
L 234.619361 217.687704 
L 246.614344 5.913186 
L 19.190447 78.78227 
z
" clip-path="url(#pf4b4827de2)" style="fill: #290615; fill-opacity: 0.700672"/>
   </g>
   <g id="patch_36">
    <path d="M 423.45972 362.984206 
L 320.761147 348.578661 
L 560.016009 647.275302 
L 164.52333 545.466387 
z
" clip-path="url(#pf4b4827de2)" style="fill: #3d2c22; fill-opacity: 0.323458"/>
   </g>
   <g id="patch_37">
    <path d="M 355.502204 510.595483 
L 410.095801 309.412806 
L 382.049258 481.096964 
L 461.930287 143.702355 
z
" clip-path="url(#pf4b4827de2)" style="fill: #00000f"/>
   </g>
   <g id="patch_38">
    <path d="M 431.898406 132.177329 
L 538.754421 384.83402 
L 5.978884 536.600311 
z
" clip-path="url(#pf4b4827de2)" style="fill: #b79780; fill-opacity: 0.925686"/>
   </g>
   <g id="patch_39">
    <path d="M 210.461395 587.39722 
L 177.671825 209.637164 
L 515.577831 13.780542 
z
" clip-path="url(#pf4b4827de2)" style="fill: #31281b; fill-opacity: 0.775984"/>
   </g>
   <g id="patch_40">
    <path d="M 92.884546 562.264545 
L 430.656311 317.328264 
L 293.360997 167.394518 
L 262.200567 55.041851 
z
" clip-path="url(#pf4b4827de2)" style="fill: #a55d44"/>
   </g>
   <g id="patch_41">
    <path d="M 43.951309 574.670836 
L 132.034212 672.121562 
L 154.432606 77.892226 
z
" clip-path="url(#pf4b4827de2)" style="fill: #19000d; fill-opacity: 0.880182"/>
   </g>
   <g id="patch_42">
    <path d="M 84.913392 149.305931 
L 260.982522 491.212999 
L 176.574337 240.388836 
L 526.149429 609.577338 
z
" clip-path="url(#pf4b4827de2)" style="fill: #d989db; fill-opacity: 0.108435"/>
   </g>
   <g id="patch_43">
    <path d="M 344.595812 82.008927 
L 458.752811 282.163516 
L 145.817878 592.080768 
L 309.842108 0.806515 
z
" clip-path="url(#pf4b4827de2)" style="fill: #795e29; fill-opacity: 0.646023"/>
   </g>
   <g id="patch_44">
    <path d="M 10.626133 677.204927 
L 131.738593 77.899975 
L 515.312571 197.671246 
z
" clip-path="url(#pf4b4827de2)" style="fill: #9ca8a3; fill-opacity: 0.866123"/>
   </g>
   <g id="patch_45">
    <path d="M 353.359604 366.001925 
L 305.424697 60.950434 
L 473.783952 109.813119 
z
" clip-path="url(#pf4b4827de2)" style="fill: #43445c; fill-opacity: 0.202188"/>
   </g>
   <g id="patch_46">
    <path d="M 27.739793 678.649188 
L 286.22075 657.377118 
L 131.6316 479.017104 
L 32.012175 33.994276 
z
" clip-path="url(#pf4b4827de2)" style="fill: #291d00; fill-opacity: 0.607161"/>
   </g>
   <g id="patch_47">
    <path d="M 31.390077 665.947023 
L 5.913022 373.485895 
L 74.735043 623.874934 
L 332.86748 96.043963 
z
" clip-path="url(#pf4b4827de2)" style="fill: #150000; fill-opacity: 0.315397"/>
   </g>
   <g id="patch_48">
    <path d="M 473.493318 264.291046 
L 411.622816 555.771658 
L 404.852799 221.403118 
z
" clip-path="url(#pf4b4827de2)" style="fill: #160711; fill-opacity: 0.700935"/>
   </g>
   <g id="patch_49">
    <path d="M 279.832928 403.518422 
L 161.696488 404.186489 
L 319.535656 492.958285 
L 10.466962 613.729882 
z
" clip-path="url(#pf4b4827de2)" style="fill: #301718; fill-opacity: 0.880138"/>
   </g>
   <g id="patch_50">
    <path d="M 0.079825 440.727094 
L 340.285217 77.140766 
L 302.3244 401.387346 
L 296.530045 189.8028 
L 101.697525 579.796789 
z
" clip-path="url(#pf4b4827de2)" style="fill: #b3b0c2; fill-opacity: 0.230314"/>
   </g>
   <g id="patch_51">
    <path d="M 45.406562 619.113104 
L 9.971455 530.374135 
L 147.221131 13.368724 
L 290.938727 372.997688 
z
" clip-path="url(#pf4b4827de2)" style="fill: #1f0000; fill-opacity: 0.544725"/>
   </g>
   <g id="patch_52">
    <path d="M 506.689093 99.831342 
L 91.509626 21.806907 
L 132.029483 169.877039 
L 354.380337 77.443149 
L 437.856487 537.296695 
z
" clip-path="url(#pf4b4827de2)" style="fill: #37200d; fill-opacity: 0.614892"/>
   </g>
   <g id="patch_53">
    <path d="M 416.270504 484.319502 
L 236.42392 509.34192 
L 475.043892 503.363241 
z
" clip-path="url(#pf4b4827de2)" style="fill: #4e4e36; fill-opacity: 0.829838"/>
   </g>
   <g id="patch_54">
    <path d="M 92.060481 431.736358 
L 120.382229 599.38585 
L 3.11746 645.073644 
z
" clip-path="url(#pf4b4827de2)" style="fill: #291300; fill-opacity: 0.91581"/>
   </g>
   <g id="patch_55">
    <path d="M 340.989373 59.377663 
L 466.925251 397.110621 
L 444.694609 280.22805 
L 488.623469 389.581431 
z
" clip-path="url(#pf4b4827de2)" style="fill: #beb099; fill-opacity: 0.495293"/>
   </g>
   <g id="patch_56">
    <path d="M 155.910275 58.608659 
L 383.32939 584.161737 
L 128.867849 392.782567 
L 150.738508 555.386382 
z
" clip-path="url(#pf4b4827de2)" style="fill: #e6cca7; fill-opacity: 0.732012"/>
   </g>
   <g id="patch_57">
    <path d="M 417.894733 105.739376 
L 220.958357 335.606502 
L 472.084472 25.932605 
L 202.594321 200.932128 
z
" clip-path="url(#pf4b4827de2)" style="fill: #909b91; fill-opacity: 0.846281"/>
   </g>
   <g id="patch_58">
    <path d="M 283.008433 358.014101 
L 213.917096 638.462346 
L 144.256674 595.192196 
z
" clip-path="url(#pf4b4827de2)" style="fill: #1b121a; fill-opacity: 0.751622"/>
   </g>
   <g id="patch_59">
    <path d="M 128.23621 247.973632 
L 431.310269 23.973321 
L 87.634745 131.608877 
z
" clip-path="url(#pf4b4827de2)" style="fill: #32342d; fill-opacity: 0.661645"/>
   </g>
   <g id="patch_60">
    <path d="M 217.044874 477.789081 
L 184.406115 196.099833 
L 9.701537 150.113798 
z
" clip-path="url(#pf4b4827de2)" style="fill: #1a191a; fill-opacity: 0.566168"/>
   </g>
   <g id="patch_61">
    <path d="M 203.411553 682.549166 
L 544.859999 92.670076 
L 406.60251 648.941034 
z
" clip-path="url(#pf4b4827de2)" style="fill: #a27830; fill-opacity: 0.455499"/>
   </g>
   <g id="patch_62">
    <path d="M 194.37197 457.464498 
L 112.617303 629.694538 
L 87.654563 216.158069 
z
" clip-path="url(#pf4b4827de2)" style="fill: #262118; fill-opacity: 0.920205"/>
   </g>
   <g id="patch_63">
    <path d="M 173.455647 671.220766 
L 197.790483 522.745547 
L 478.580533 360.622834 
L 511.39351 239.537258 
z
" clip-path="url(#pf4b4827de2)" style="fill: #fdf265; fill-opacity: 0.245036"/>
   </g>
   <g id="patch_64">
    <path d="M 229.042681 591.307592 
L 85.596226 546.579965 
L 244.399862 288.549378 
L 440.398684 1.565358 
z
" clip-path="url(#pf4b4827de2)" style="fill: #302200; fill-opacity: 0.143904"/>
   </g>
   <g id="patch_65">
    <path d="M 393.920266 191.839116 
L 259.19095 555.698269 
L 274.434182 178.564851 
L 557.896225 189.433156 
z
" clip-path="url(#pf4b4827de2)" style="fill: #37150c; fill-opacity: 0.141663"/>
   </g>
   <g id="patch_66">
    <path d="M 363.415806 572.598415 
L 543.210033 331.827175 
L 388.823422 138.062783 
L 367.610148 599.415094 
z
" clip-path="url(#pf4b4827de2)" style="fill: #666d6b; fill-opacity: 0.401747"/>
   </g>
   <g id="patch_67">
    <path d="M 89.386145 271.470995 
L 30.547674 464.274165 
L 361.730628 458.030705 
L 469.075369 681.472524 
z
" clip-path="url(#pf4b4827de2)" style="fill: #291b00; fill-opacity: 0.282993"/>
   </g>
   <g id="patch_68">
    <path d="M 305.771431 584.164088 
L 39.53418 84.734884 
L 145.645849 497.582662 
z
" clip-path="url(#pf4b4827de2)" style="fill: #260f05; fill-opacity: 0.161375"/>
   </g>
   <g id="patch_69">
    <path d="M 506.552993 490.602045 
L 500.915239 149.637601 
L 438.550771 169.210612 
L 426.823163 89.710129 
z
" clip-path="url(#pf4b4827de2)" style="fill: #333834; fill-opacity: 0.483211"/>
   </g>
   <g id="patch_70">
    <path d="M 318.906945 580.260899 
L 408.948797 70.89562 
L 215.835267 555.471691 
L 395.749383 175.146889 
L 355.404305 149.531229 
z
" clip-path="url(#pf4b4827de2)" style="fill: #524f50; fill-opacity: 0.690785"/>
   </g>
   <g id="patch_71">
    <path d="M 486.631094 143.157872 
L 499.209948 96.607767 
L 564.865698 7.005454 
L 507.167254 612.983248 
z
" clip-path="url(#pf4b4827de2)" style="fill: #241917; fill-opacity: 0.797606"/>
   </g>
   <g id="patch_72">
    <path d="M 369.158174 180.083448 
L 385.849936 591.178807 
L 455.580132 535.101426 
L 463.989979 677.995279 
z
" clip-path="url(#pf4b4827de2)" style="fill: #4c4836; fill-opacity: 0.981243"/>
   </g>
  </g>
 </g>
 <defs>
  <clipPath id="pf4b4827de2">
   <rect x="0" y="0" width="576" height="682.56"/>
  </clipPath>
 </defs>
</svg>
