<?xml version="1.0" encoding="utf-8" standalone="no"?>
<!DOCTYPE svg PUBLIC "-//W3C//DTD SVG 1.1//EN"
  "http://www.w3.org/Graphics/SVG/1.1/DTD/svg11.dtd">
<svg xmlns:xlink="http://www.w3.org/1999/xlink" width="576pt" height="682.56pt" viewBox="0 0 576 682.56" xmlns="http://www.w3.org/2000/svg" version="1.1">
 <metadata>
  <rdf:RDF xmlns:dc="http://purl.org/dc/elements/1.1/" xmlns:cc="http://creativecommons.org/ns#" xmlns:rdf="http://www.w3.org/1999/02/22-rdf-syntax-ns#">
   <cc:Work>
    <dc:type rdf:resource="http://purl.org/dc/dcmitype/StillImage"/>
    <dc:date>2022-05-09T16:27:34.189233</dc:date>
    <dc:format>image/svg+xml</dc:format>
    <dc:creator>
     <cc:Agent>
      <dc:title>Matplotlib v3.5.2, https://matplotlib.org/</dc:title>
     </cc:Agent>
    </dc:creator>
   </cc:Work>
  </rdf:RDF>
 </metadata>
 <defs>
  <style type="text/css">*{stroke-linejoin: round; stroke-linecap: butt}</style>
 </defs>
 <g id="figure_1">
  <g id="patch_1">
   <path d="M 0 682.56 
L 576 682.56 
L 576 0 
L 0 0 
z
" style="fill: #ffffff"/>
  </g>
  <g id="axes_1">
   <g id="patch_2">
    <path d="M 0 682.56 
L 0 0 
L 576 0 
L 576 682.56 
z
" clip-path="url(#p53791e70cf)" style="fill: #808080"/>
   </g>
   <g id="patch_3">
    <path d="M 561.91053 461.894819 
L 30.248103 660.473209 
L 66.181381 671.966927 
L 374.5717 425.026456 
L 311.927399 9.789122 
z
" clip-path="url(#p53791e70cf)" style="fill: #150e23; fill-opacity: 0.957435"/>
   </g>
   <g id="patch_4">
    <path d="M 283.339428 365.852619 
L 62.689579 207.86058 
L 538.867245 242.694644 
L 8.056283 45.754368 
L 416.594158 623.833372 
z
" clip-path="url(#p53791e70cf)" style="fill: #8c047c; fill-opacity: 0.293091"/>
   </g>
   <g id="patch_5">
    <path d="M 210.908075 583.728224 
L 152.595263 41.536669 
L 494.08717 469.941111 
L 380.901709 526.451689 
z
" clip-path="url(#p53791e70cf)" style="fill: #0167ff; fill-opacity: 0.774781"/>
   </g>
   <g id="patch_6">
    <path d="M 367.163033 346.232481 
L 27.243161 667.95019 
L 77.686809 677.29973 
L 276.696108 223.091443 
L 286.066394 374.365931 
z
" clip-path="url(#p53791e70cf)" style="fill: #13001b"/>
   </g>
   <g id="patch_7">
    <path d="M 133.986955 666.458782 
L 468.923517 597.320823 
L 205.472998 501.621693 
L 570.219626 597.4268 
z
" clip-path="url(#p53791e70cf)" style="fill: #d28f55; fill-opacity: 0.774273"/>
   </g>
   <g id="patch_8">
    <path d="M 571.781531 177.666884 
L 320.309087 624.067553 
L 572.392479 596.479798 
z
" clip-path="url(#p53791e70cf)" style="fill: #7d3a33; fill-opacity: 0.892019"/>
   </g>
   <g id="patch_9">
    <path d="M 554.640629 680.555179 
L 71.240298 209.820199 
L 189.011038 285.286195 
L 219.326521 202.328151 
L 278.255706 195.989121 
z
" clip-path="url(#p53791e70cf)" style="fill: #0a2612; fill-opacity: 0.849841"/>
   </g>
   <g id="patch_10">
    <path d="M 463.247843 552.068 
L 345.631932 338.334433 
L 45.347659 643.98665 
L 342.747304 394.214861 
z
" clip-path="url(#p53791e70cf)" style="fill: #1d187b; fill-opacity: 0.191369"/>
   </g>
   <g id="patch_11">
    <path d="M 198.778284 161.756476 
L 336.144075 98.738615 
L 304.42124 284.392689 
L 154.562519 409.227924 
z
" clip-path="url(#p53791e70cf)" style="fill: #e30052; fill-opacity: 0.162641"/>
   </g>
   <g id="patch_12">
    <path d="M 370.653149 183.304488 
L 172.450555 347.750831 
L 368.317683 667.141668 
L 437.613433 151.234784 
z
" clip-path="url(#p53791e70cf)" style="fill: #4538b8"/>
   </g>
   <g id="patch_13">
    <path d="M 540.541172 436.511275 
L 108.698232 360.008939 
L 307.918924 452.069183 
L 375.561416 206.767214 
L 76.063879 672.004336 
z
" clip-path="url(#p53791e70cf)" style="fill: #211a3a; fill-opacity: 0.881397"/>
   </g>
   <g id="patch_14">
    <path d="M 133.908311 329.111193 
L 187.898832 594.753957 
L 192.539574 651.874871 
z
" clip-path="url(#p53791e70cf)" style="fill: #2c3e37; fill-opacity: 0.256444"/>
   </g>
   <g id="patch_15">
    <path d="M 446.045972 669.328496 
L 465.492722 117.453358 
L 358.181852 70.828405 
L 382.467619 467.839502 
z
" clip-path="url(#p53791e70cf)" style="fill: #56326a; fill-opacity: 0.800068"/>
   </g>
   <g id="patch_16">
    <path d="M 248.144879 367.615843 
L 3.996196 483.0808 
L 6.033577 310.27576 
L 401.025568 594.855221 
z
" clip-path="url(#p53791e70cf)" style="fill: #050000"/>
   </g>
   <g id="patch_17">
    <path d="M 415.527772 373.369491 
L 33.480436 181.502645 
L 93.201226 68.724007 
L 296.695558 209.47498 
L 538.403774 345.855567 
z
" clip-path="url(#p53791e70cf)" style="fill: #e6a709; fill-opacity: 0.477675"/>
   </g>
   <g id="patch_18">
    <path d="M 326.628761 657.390673 
L 2.724592 576.100205 
L 11.326448 431.341378 
L 166.818046 156.65154 
z
" clip-path="url(#p53791e70cf)" style="fill: #070000"/>
   </g>
   <g id="patch_19">
    <path d="M 167.633039 375.224396 
L 548.018754 489.978507 
L 408.39739 634.086083 
L 147.988821 80.676613 
L 450.124131 321.531645 
L 167.633039 375.224396 
z
" clip-path="url(#p53791e70cf)" style="fill: none"/>
   </g>
   <g id="patch_20">
    <path d="M 565.758482 63.302622 
L 215.943055 623.095686 
L 538.34249 58.678398 
L 301.528203 111.512938 
z
" clip-path="url(#p53791e70cf)" style="fill: #3d0519"/>
   </g>
   <g id="patch_21">
    <path d="M 82.674903 38.06796 
L 402.030768 476.586104 
L 447.805877 276.879253 
L 286.164066 424.328765 
L 245.58725 53.272659 
z
" clip-path="url(#p53791e70cf)" style="fill: #3e763d; fill-opacity: 0.084757"/>
   </g>
   <g id="patch_22">
    <path d="M 365.201712 321.543608 
L 476.9692 505.489035 
L 575.99794 108.578382 
L 114.946976 311.158685 
L 116.411805 506.195348 
z
" clip-path="url(#p53791e70cf)" style="fill: #081e00; fill-opacity: 0.967279"/>
   </g>
   <g id="patch_23">
    <path d="M 570.345615 513.157349 
L 417.622227 147.329738 
L 493.366882 59.908637 
L 457.801319 464.877388 
L 509.234169 625.513473 
z
" clip-path="url(#p53791e70cf)" style="fill: #7bf499; fill-opacity: 0.878655"/>
   </g>
   <g id="patch_24">
    <path d="M 287.754345 204.498324 
L 55.594847 435.485497 
L 489.488684 661.048177 
L 509.513246 2.887405 
z
" clip-path="url(#p53791e70cf)" style="fill: #055d00; fill-opacity: 0.959459"/>
   </g>
   <g id="patch_25">
    <path d="M 131.51165 174.089914 
L 447.543934 574.896423 
L 63.178222 494.613516 
L 481.116481 467.051727 
L 0.310406 560.476739 
z
" clip-path="url(#p53791e70cf)" style="fill: #191900"/>
   </g>
   <g id="patch_26">
    <path d="M 238.70773 557.2186 
L 291.834106 498.596884 
L 65.761082 143.969566 
L 211.643094 65.70662 
L 120.315746 658.451661 
z
" clip-path="url(#p53791e70cf)" style="fill: #afbd63; fill-opacity: 0.466983"/>
   </g>
   <g id="patch_27">
    <path d="M 238.650489 662.322698 
L 167.067391 449.674977 
L 288.238912 201.367472 
L 213.919026 145.598412 
z
" clip-path="url(#p53791e70cf)" style="fill: #7d78cd; fill-opacity: 0.615912"/>
   </g>
   <g id="patch_28">
    <path d="M 417.147616 145.359876 
L 393.047515 588.634126 
L 536.025903 373.087458 
z
" clip-path="url(#p53791e70cf)" style="fill: #f5503f; fill-opacity: 0.319869"/>
   </g>
   <g id="patch_29">
    <path d="M 553.973323 455.481317 
L 295.773154 515.065616 
L 149.307813 616.487136 
L 319.205537 149.756944 
L 505.317613 345.888531 
z
" clip-path="url(#p53791e70cf)" style="fill: #fd197f; fill-opacity: 0.05462"/>
   </g>
   <g id="patch_30">
    <path d="M 363.435923 623.656572 
L 519.662507 225.714529 
L 200.001481 0.045922 
L 408.722002 429.082604 
z
" clip-path="url(#p53791e70cf)" style="fill: #3e1c02; fill-opacity: 0.985209"/>
   </g>
   <g id="patch_31">
    <path d="M 415.280778 552.03169 
L 491.487497 11.603291 
L 460.42794 503.591171 
L 161.038519 677.202324 
L 170.722413 246.545439 
z
" clip-path="url(#p53791e70cf)" style="fill: #0f0900; fill-opacity: 0.883474"/>
   </g>
   <g id="patch_32">
    <path d="M 268.567539 263.219934 
L 483.583588 503.113672 
L 42.138169 427.382965 
L 558.787981 348.800858 
L 570.021103 145.227169 
z
" clip-path="url(#p53791e70cf)" style="fill: #f3be00; fill-opacity: 0.30221"/>
   </g>
   <g id="patch_33">
    <path d="M 3.329294 50.684334 
L 210.793161 532.852977 
L 228.162674 107.0662 
L 58.949321 153.312468 
L 400.175203 48.014735 
z
" clip-path="url(#p53791e70cf)" style="fill: #00000d; fill-opacity: 0.953079"/>
   </g>
   <g id="patch_34">
    <path d="M 41.267067 474.232012 
L 349.886237 362.033837 
L 95.745034 260.368713 
L 163.613928 595.30758 
L 341.881368 363.94353 
z
" clip-path="url(#p53791e70cf)" style="fill: #c17bdb; fill-opacity: 0.758228"/>
   </g>
   <g id="patch_35">
    <path d="M 472.288312 621.672306 
L 77.027306 460.012928 
L 390.257578 344.007723 
z
" clip-path="url(#p53791e70cf)" style="fill: #15c8c6; fill-opacity: 0.560648"/>
   </g>
   <g id="patch_36">
    <path d="M 287.37481 439.087131 
L 94.343171 316.485766 
L 511.945888 679.607309 
L 249.55128 438.911586 
z
" clip-path="url(#p53791e70cf)" style="fill: #461d3a; fill-opacity: 0.89187"/>
   </g>
   <g id="patch_37">
    <path d="M 493.769504 655.501125 
L 474.116108 629.54292 
L 278.272655 23.855553 
L 312.996802 503.231796 
z
" clip-path="url(#p53791e70cf)" style="fill: #482013; fill-opacity: 0.823001"/>
   </g>
   <g id="patch_38">
    <path d="M 427.360848 637.703691 
L 240.502368 501.880392 
L 573.358469 168.466635 
L 575.986555 526.989115 
L 320.016497 623.304818 
z
" clip-path="url(#p53791e70cf)" style="fill: #1d1200"/>
   </g>
   <g id="patch_39">
    <path d="M 179.429267 338.588418 
L 379.504904 517.55273 
L 58.925769 3.431827 
L 534.328975 401.287881 
z
" clip-path="url(#p53791e70cf)" style="fill: #000007"/>
   </g>
   <g id="patch_40">
    <path d="M 397.842314 360.50913 
L 301.496736 490.448059 
L 529.831974 53.018817 
L 36.570959 190.06564 
z
" clip-path="url(#p53791e70cf)" style="fill: #0093d4; fill-opacity: 0.134654"/>
   </g>
   <g id="patch_41">
    <path d="M 451.51409 586.525186 
L 177.497791 475.168395 
L 539.860677 39.665897 
L 24.043298 46.400663 
L 315.650914 598.544798 
z
" clip-path="url(#p53791e70cf)" style="fill: #7021ff; fill-opacity: 0.855661"/>
   </g>
   <g id="patch_42">
    <path d="M 571.050392 357.167721 
L 424.99638 566.875866 
L 265.456082 590.404871 
L 231.348586 512.23116 
L 456.506683 207.480993 
z
" clip-path="url(#p53791e70cf)" style="fill: #cc90a6; fill-opacity: 0.308748"/>
   </g>
   <g id="patch_43">
    <path d="M 435.296045 83.574577 
L 1.873339 668.136819 
L 115.575721 34.349252 
L 397.049789 499.67344 
z
" clip-path="url(#p53791e70cf)" style="fill: #151000"/>
   </g>
   <g id="patch_44">
    <path d="M 391.324709 194.658798 
L 18.685115 564.893194 
L 24.920752 199.624487 
L 139.381954 298.948298 
z
" clip-path="url(#p53791e70cf)" style="fill: #de2230; fill-opacity: 0.44575"/>
   </g>
   <g id="patch_45">
    <path d="M 528.546428 626.154801 
L 281.996299 34.62904 
L 557.491687 422.531732 
z
" clip-path="url(#p53791e70cf)" style="fill: #54ffff"/>
   </g>
   <g id="patch_46">
    <path d="M 192.020515 350.943816 
L 354.879831 181.873062 
L 533.426265 85.001645 
L 212.415236 607.206264 
L 269.825772 43.778657 
z
" clip-path="url(#p53791e70cf)" style="fill: #6cd063; fill-opacity: 0.52553"/>
   </g>
   <g id="patch_47">
    <path d="M 550.591307 483.335843 
L 198.018049 496.33676 
L 235.618074 642.711993 
L 301.065275 580.805952 
z
" clip-path="url(#p53791e70cf)" style="fill: #934d3d; fill-opacity: 0.550309"/>
   </g>
   <g id="patch_48">
    <path d="M 125.475578 455.660608 
L 387.908421 213.381426 
L 335.598085 540.403923 
L 218.518789 611.547796 
z
" clip-path="url(#p53791e70cf)" style="fill: #c2c100; fill-opacity: 0.02169"/>
   </g>
   <g id="patch_49">
    <path d="M 433.169313 116.54422 
L 543.389346 677.250916 
L 29.917963 553.10754 
L 217.966719 522.808604 
L 423.51272 299.233046 
z
" clip-path="url(#p53791e70cf)" style="fill: #110500; fill-opacity: 0.856567"/>
   </g>
   <g id="patch_50">
    <path d="M 417.199387 515.979776 
L 271.983661 582.790756 
L 227.854166 561.920394 
L 528.436166 248.114544 
z
" clip-path="url(#p53791e70cf)" style="fill: #2e2280; fill-opacity: 0.581122"/>
   </g>
   <g id="patch_51">
    <path d="M 263.23372 429.523927 
L 292.521642 148.667021 
L 173.20916 382.242644 
L 273.910926 0.508154 
L 506.755463 458.598922 
z
" clip-path="url(#p53791e70cf)" style="fill: #b49bb4; fill-opacity: 0.100728"/>
   </g>
   <g id="patch_52">
    <path d="M 370.110941 668.661132 
L 445.904065 462.161662 
L 289.994009 605.109542 
z
" clip-path="url(#p53791e70cf)" style="fill: #3b9d20; fill-opacity: 0.748332"/>
   </g>
   <g id="patch_53">
    <path d="M 356.039951 625.047164 
L 508.742439 126.722018 
L 512.575696 268.918871 
z
" clip-path="url(#p53791e70cf)" style="fill: #6e833d; fill-opacity: 0.783969"/>
   </g>
   <g id="patch_54">
    <path d="M 532.739961 568.250138 
L 136.183017 368.144756 
L 481.93962 655.714649 
L 156.954154 599.766027 
L 516.644997 680.4644 
z
" clip-path="url(#p53791e70cf)" style="fill: #0e0d11"/>
   </g>
   <g id="patch_55">
    <path d="M 169.839398 629.964103 
L 327.796579 127.292015 
L 189.654162 471.974836 
L 428.408945 678.694505 
z
" clip-path="url(#p53791e70cf)" style="fill: #1e2603; fill-opacity: 0.902441"/>
   </g>
   <g id="patch_56">
    <path d="M 437.079973 422.024671 
L 400.306784 348.094017 
L 425.686283 200.074815 
L 171.762117 263.532944 
z
" clip-path="url(#p53791e70cf)" style="fill: #503a1d; fill-opacity: 0.630948"/>
   </g>
   <g id="patch_57">
    <path d="M 40.85955 188.114501 
L 272.050981 416.668987 
L 440.781024 552.300508 
L 325.899265 678.70627 
z
" clip-path="url(#p53791e70cf)" style="fill: #0c1114; fill-opacity: 0.53308"/>
   </g>
   <g id="patch_58">
    <path d="M 510.476577 530.710216 
L 414.130226 678.606939 
L 125.777628 428.242076 
L 259.726142 294.18232 
L 71.457045 246.55649 
z
" clip-path="url(#p53791e70cf)" style="fill: #8a8c54; fill-opacity: 0.983738"/>
   </g>
   <g id="patch_59">
    <path d="M 236.71092 405.477643 
L 150.456505 478.426779 
L 257.711807 35.179192 
L 488.52783 680.76132 
z
" clip-path="url(#p53791e70cf)" style="fill: #1c1100"/>
   </g>
   <g id="patch_60">
    <path d="M 44.322657 547.304264 
L 20.362015 503.963215 
L 86.093993 509.070623 
L 267.54015 442.299166 
z
" clip-path="url(#p53791e70cf)" style="fill: #55545c; fill-opacity: 0.753736"/>
   </g>
   <g id="patch_61">
    <path d="M 354.700173 481.890136 
L 465.911945 489.36937 
L 193.328331 260.267928 
L 74.806552 400.265707 
L 542.060825 146.639114 
z
" clip-path="url(#p53791e70cf)" style="fill: #00d7e6; fill-opacity: 0.8881"/>
   </g>
   <g id="patch_62">
    <path d="M 526.477017 579.902042 
L 389.797712 110.874791 
L 555.478759 161.992689 
z
" clip-path="url(#p53791e70cf)" style="fill: #372ae3; fill-opacity: 0.439485"/>
   </g>
   <g id="patch_63">
    <path d="M 434.259835 556.765887 
L 60.358006 266.739936 
L 546.822134 180.754708 
L 458.901862 114.328379 
L 509.613173 377.835375 
z
" clip-path="url(#p53791e70cf)" style="fill: #a525c3; fill-opacity: 0.274963"/>
   </g>
   <g id="patch_64">
    <path d="M 574.224293 31.844642 
L 137.228043 454.417849 
L 350.349642 271.544015 
L 488.187347 453.794573 
z
" clip-path="url(#p53791e70cf)" style="fill: #171500; fill-opacity: 0.993478"/>
   </g>
   <g id="patch_65">
    <path d="M 78.682497 304.408571 
L 571.903203 135.403859 
L 571.664974 382.445494 
L 149.675442 162.106445 
L 564.967702 178.853048 
z
" clip-path="url(#p53791e70cf)" style="fill: #1c170a; fill-opacity: 0.970704"/>
   </g>
   <g id="patch_66">
    <path d="M 310.055002 237.312596 
L 553.058312 382.979379 
L 414.168906 396.819138 
z
" clip-path="url(#p53791e70cf)" style="fill: #3d3f00; fill-opacity: 0.90641"/>
   </g>
   <g id="patch_67">
    <path d="M 26.127711 190.955022 
L 384.855908 680.52128 
L 569.279917 528.606369 
L 67.078897 297.207873 
z
" clip-path="url(#p53791e70cf)" style="fill: #221c0e; fill-opacity: 0.74834"/>
   </g>
   <g id="patch_68">
    <path d="M 191.861456 2.895715 
L 258.492586 227.94881 
L 76.478155 113.479045 
L 101.388162 555.603794 
z
" clip-path="url(#p53791e70cf)" style="fill: #001c3c; fill-opacity: 0.800455"/>
   </g>
   <g id="patch_69">
    <path d="M 266.143738 339.866907 
L 413.655048 296.840965 
L 43.218619 640.338489 
L 89.246938 200.91308 
L 243.503167 642.511973 
z
" clip-path="url(#p53791e70cf)" style="fill: #c7e7c6; fill-opacity: 0.155162"/>
   </g>
   <g id="patch_70">
    <path d="M 450.042343 418.702542 
L 527.354401 221.239131 
L 264.041303 680.755915 
L 163.11853 26.52854 
z
" clip-path="url(#p53791e70cf)" style="fill: #4b5f34; fill-opacity: 0.837427"/>
   </g>
   <g id="patch_71">
    <path d="M 247.605756 320.544565 
L 493.767081 383.318011 
L 427.281063 12.617774 
L 321.370223 269.489272 
z
" clip-path="url(#p53791e70cf)" style="fill: #272030; fill-opacity: 0.901533"/>
   </g>
   <g id="patch_72">
    <path d="M 192.952869 458.058856 
L 13.230792 216.269639 
L 78.932463 620.851452 
L 241.376693 374.360976 
z
" clip-path="url(#p53791e70cf)" style="fill: #40725d; fill-opacity: 0.502216"/>
   </g>
   <g id="patch_73">
    <path d="M 222.732513 680.83494 
L 11.951011 3.916839 
L 387.009378 560.761976 
L 334.432877 260.181313 
z
" clip-path="url(#p53791e70cf)" style="fill: #ffd35a; fill-opacity: 0.835127"/>
   </g>
   <g id="patch_74">
    <path d="M 478.661126 253.616031 
L 276.553763 548.239793 
L 336.862371 358.118148 
L 2.312147 547.727837 
L 472.295745 226.151727 
z
" clip-path="url(#p53791e70cf)" style="fill: #098893; fill-opacity: 0.214098"/>
   </g>
   <g id="patch_75">
    <path d="M 509.599557 189.721743 
L 178.078429 146.541799 
L 444.935675 358.643101 
L 564.923912 671.04443 
L 119.897184 448.768283 
z
" clip-path="url(#p53791e70cf)" style="fill: #241107"/>
   </g>
   <g id="patch_76">
    <path d="M 308.023719 158.199606 
L 102.077247 352.913079 
L 312.365296 429.785271 
L 264.219202 538.761637 
L 567.100012 660.779046 
z
" clip-path="url(#p53791e70cf)" style="fill: #212501"/>
   </g>
   <g id="patch_77">
    <path d="M 564.405001 224.104986 
L 571.24819 75.079197 
L 14.762497 3.032418 
L 284.14936 179.740775 
z
" clip-path="url(#p53791e70cf)" style="fill: #2a1e0e"/>
   </g>
   <g id="patch_78">
    <path d="M 507.877545 283.587255 
L 421.332179 284.185448 
L 575.754381 470.762312 
z
" clip-path="url(#p53791e70cf)" style="fill: #3b3f26"/>
   </g>
   <g id="patch_79">
    <path d="M 526.512105 653.181393 
L 249.644728 176.774713 
L 398.530139 674.256916 
L 150.978163 30.661068 
z
" clip-path="url(#p53791e70cf)" style="fill: #939c98; fill-opacity: 0.595319"/>
   </g>
   <g id="patch_80">
    <path d="M 325.680119 221.742402 
L 430.485009 608.400141 
L 575.774781 305.200926 
L 267.337591 128.835776 
L 202.144567 252.569764 
z
" clip-path="url(#p53791e70cf)" style="fill: #1a1000"/>
   </g>
   <g id="patch_81">
    <path d="M 68.282562 681.278106 
L 379.308537 479.72134 
L 18.210533 414.874075 
z
" clip-path="url(#p53791e70cf)" style="fill: #05000c; fill-opacity: 0.481548"/>
   </g>
   <g id="patch_82">
    <path d="M 187.86626 462.661249 
L 159.912703 672.094168 
L 25.840558 320.705515 
L 496.545866 147.501702 
z
" clip-path="url(#p53791e70cf)" style="fill: #000700"/>
   </g>
   <g id="patch_83">
    <path d="M 181.246393 51.5602 
L 143.536486 3.978586 
L 475.564591 146.49496 
z
" clip-path="url(#p53791e70cf)" style="fill: #001a00; fill-opacity: 0.903273"/>
   </g>
   <g id="patch_84">
    <path d="M 75.493053 21.321751 
L 57.091027 189.660984 
L 262.064028 286.102335 
z
" clip-path="url(#p53791e70cf)" style="fill: #674a77; fill-opacity: 0.198101"/>
   </g>
   <g id="patch_85">
    <path d="M 48.536198 570.760462 
L 306.4609 177.548531 
L 224.907171 664.205324 
L 352.843083 601.685807 
L 249.272108 414.214653 
z
" clip-path="url(#p53791e70cf)" style="fill: #ffdba3; fill-opacity: 0.356595"/>
   </g>
   <g id="patch_86">
    <path d="M 146.617123 493.915798 
L 478.777222 613.78525 
L 403.983763 567.999941 
L 377.154386 77.993501 
z
" clip-path="url(#p53791e70cf)" style="fill: #1a1121; fill-opacity: 0.478602"/>
   </g>
   <g id="patch_87">
    <path d="M 198.235486 134.296785 
L 320.935691 286.69938 
L 509.087391 504.618861 
L 108.676947 559.473653 
L 355.589457 651.10226 
z
" clip-path="url(#p53791e70cf)" style="fill: #ffd933; fill-opacity: 0.904858"/>
   </g>
   <g id="patch_88">
    <path d="M 237.129164 58.566472 
L 570.834292 153.808982 
L 568.265025 287.481559 
L 548.391373 583.73613 
z
" clip-path="url(#p53791e70cf)" style="fill: #1a1269; fill-opacity: 0.018933"/>
   </g>
   <g id="patch_89">
    <path d="M 422.091239 65.45201 
L 242.678415 608.126732 
L 498.130769 153.506538 
L 477.45281 587.569862 
z
" clip-path="url(#p53791e70cf)" style="fill: #7c0000; fill-opacity: 0.717895"/>
   </g>
   <g id="patch_90">
    <path d="M 73.226862 25.057624 
L 97.067686 557.40465 
L 258.761573 43.876218 
L 310.484961 597.352988 
L 85.887078 670.420005 
z
" clip-path="url(#p53791e70cf)" style="fill: #1b0026; fill-opacity: 0.858975"/>
   </g>
   <g id="patch_91">
    <path d="M 298.057697 561.215817 
L 329.023607 628.905031 
L 164.615169 427.886418 
L 428.577998 123.524712 
L 455.523971 319.720468 
z
" clip-path="url(#p53791e70cf)" style="fill: #92463a; fill-opacity: 0.566811"/>
   </g>
   <g id="patch_92">
    <path d="M 43.05593 680.325888 
L 573.060521 464.784327 
L 69.770068 431.717737 
L 49.537868 380.710913 
z
" clip-path="url(#p53791e70cf)" style="fill: #150505; fill-opacity: 0.950774"/>
   </g>
   <g id="patch_93">
    <path d="M 455.082595 660.460604 
L 126.552638 141.569822 
L 250.139532 66.61759 
L 143.664021 98.397965 
L 475.95137 2.816278 
z
" clip-path="url(#p53791e70cf)" style="fill: #166d02"/>
   </g>
   <g id="patch_94">
    <path d="M 430.099817 304.261746 
L 1.69306 55.107289 
L 0.846497 471.319189 
z
" clip-path="url(#p53791e70cf)" style="fill: #191107; fill-opacity: 0.976035"/>
   </g>
   <g id="patch_95">
    <path d="M 398.884014 125.041991 
L 556.752994 128.093117 
L 16.175851 279.637775 
L 473.337139 525.074801 
z
" clip-path="url(#p53791e70cf)" style="fill: #b69663; fill-opacity: 0.461369"/>
   </g>
   <g id="patch_96">
    <path d="M 479.509778 134.797571 
L 452.025432 558.009501 
L 405.371737 176.160801 
z
" clip-path="url(#p53791e70cf)" style="fill: #3f0b50; fill-opacity: 0.925151"/>
   </g>
   <g id="patch_97">
    <path d="M 147.176551 145.510155 
L 187.709099 141.019162 
L 518.904483 553.844216 
L 338.483313 80.779394 
z
" clip-path="url(#p53791e70cf)" style="fill: #c72d84; fill-opacity: 0.918268"/>
   </g>
   <g id="patch_98">
    <path d="M 568.044714 520.228296 
L 470.424282 536.7568 
L 56.363444 167.233587 
L 78.423721 92.394624 
z
" clip-path="url(#p53791e70cf)" style="fill: #fffcfc; fill-opacity: 0.628695"/>
   </g>
   <g id="patch_99">
    <path d="M 316.671563 666.786541 
L 520.247823 35.023486 
L 504.672448 321.326134 
z
" clip-path="url(#p53791e70cf)" style="fill: #003e4e"/>
   </g>
   <g id="patch_100">
    <path d="M 49.10073 597.847701 
L 256.80757 237.230205 
L 184.512037 109.167622 
L 31.422448 259.189892 
L 481.69634 682.24628 
z
" clip-path="url(#p53791e70cf)" style="fill: #37250f; fill-opacity: 0.856095"/>
   </g>
   <g id="patch_101">
    <path d="M 512.815127 677.695383 
L 527.544743 651.058152 
L 254.70788 51.528224 
z
" clip-path="url(#p53791e70cf)" style="fill: #14171b; fill-opacity: 0.972343"/>
   </g>
   <g id="patch_102">
    <path d="M 174.223337 535.621671 
L 426.143474 386.847613 
L 363.913122 341.265187 
L 425.102681 147.621778 
z
" clip-path="url(#p53791e70cf)" style="fill: #5b679c; fill-opacity: 0.826972"/>
   </g>
   <g id="patch_103">
    <path d="M 159.743231 175.888253 
L 492.846381 197.969336 
L 33.332101 56.785268 
z
" clip-path="url(#p53791e70cf)" style="fill: #372c56; fill-opacity: 0.229748"/>
   </g>
   <g id="patch_104">
    <path d="M 4.812228 17.624394 
L 4.870497 601.302531 
L 387.010119 337.197227 
L 74.832085 432.476178 
z
" clip-path="url(#p53791e70cf)" style="fill: #1e1c14; fill-opacity: 0.877785"/>
   </g>
   <g id="patch_105">
    <path d="M 295.865857 126.320474 
L 55.964363 679.948982 
L 518.339641 328.927648 
L 475.187828 560.497618 
z
" clip-path="url(#p53791e70cf)" style="fill: #100000; fill-opacity: 0.976946"/>
   </g>
   <g id="patch_106">
    <path d="M 396.888749 682.551155 
L 337.989273 529.869463 
L 504.07367 439.889718 
L 518.026591 631.505484 
L 555.590613 648.081254 
z
" clip-path="url(#p53791e70cf)" style="fill: #160b00; fill-opacity: 0.708012"/>
   </g>
   <g id="patch_107">
    <path d="M 145.972558 228.051946 
L 60.435232 97.959049 
L 575.156296 11.893851 
L 524.806917 232.097142 
z
" clip-path="url(#p53791e70cf)" style="fill: #1c0b00"/>
   </g>
   <g id="patch_108">
    <path d="M 253.678145 252.701717 
L 249.355794 280.782213 
L 415.072011 265.297141 
L 32.208292 353.490667 
z
" clip-path="url(#p53791e70cf)" style="fill: #884817; fill-opacity: 0.881459"/>
   </g>
   <g id="patch_109">
    <path d="M 457.006395 427.811434 
L 415.108419 385.65138 
L 526.251582 613.991247 
L 71.219012 257.172793 
L 302.035434 154.862906 
z
" clip-path="url(#p53791e70cf)" style="fill: #002f3f; fill-opacity: 0.017644"/>
   </g>
   <g id="patch_110">
    <path d="M 482.896572 485.234964 
L 55.992593 130.764325 
L 295.943661 30.072593 
L 113.135614 292.278797 
z
" clip-path="url(#p53791e70cf)" style="fill: #79415f; fill-opacity: 0.623549"/>
   </g>
   <g id="patch_111">
    <path d="M 331.875665 624.577506 
L 410.123176 145.901291 
L 575.518121 39.277089 
z
" clip-path="url(#p53791e70cf)" style="fill: #1b0e12; fill-opacity: 0.979472"/>
   </g>
   <g id="patch_112">
    <path d="M 368.790917 304.395032 
L 387.800209 274.734772 
L 57.882246 389.037152 
L 413.969298 478.680046 
z
" clip-path="url(#p53791e70cf)" style="fill: #000001; fill-opacity: 0.937663"/>
   </g>
   <g id="patch_113">
    <path d="M 531.512333 618.584008 
L 83.332546 549.100397 
L 106.349242 651.56336 
z
" clip-path="url(#p53791e70cf)" style="fill: #001a1a; fill-opacity: 0.117919"/>
   </g>
   <g id="patch_114">
    <path d="M 46.96149 299.664768 
L 243.024244 155.857265 
L 9.66891 407.440826 
L 113.762819 196.714866 
z
" clip-path="url(#p53791e70cf)" style="fill: #fc61b7; fill-opacity: 0.960275"/>
   </g>
   <g id="patch_115">
    <path d="M 479.876839 538.466008 
L 513.931152 624.034387 
L 259.19284 333.730421 
z
" clip-path="url(#p53791e70cf)" style="fill: #141d75; fill-opacity: 0.780178"/>
   </g>
   <g id="patch_116">
    <path d="M 14.985931 441.153308 
L 105.436176 191.976497 
L 531.205951 396.368906 
L 1.687418 617.517669 
z
" clip-path="url(#p53791e70cf)" style="fill: #181207"/>
   </g>
   <g id="patch_117">
    <path d="M 317.831928 200.02534 
L 121.757394 433.718108 
L 402.345734 478.435676 
z
" clip-path="url(#p53791e70cf)" style="fill: #92ff34; fill-opacity: 0.67699"/>
   </g>
   <g id="patch_118">
    <path d="M 358.156005 411.142932 
L 432.488819 117.767343 
L 357.388026 19.626394 
L 126.759975 644.340138 
z
" clip-path="url(#p53791e70cf)" style="fill: #45af4a; fill-opacity: 0.3432"/>
   </g>
   <g id="patch_119">
    <path d="M 209.317733 143.951149 
L 36.546973 402.014852 
L 390.273409 164.114293 
L 546.713451 112.775762 
L 490.060626 1.143774 
z
" clip-path="url(#p53791e70cf)" style="fill: #174800; fill-opacity: 0.991209"/>
   </g>
   <g id="patch_120">
    <path d="M 138.749026 229.896305 
L 538.244542 496.390125 
L 422.668073 480.711744 
L 484.422004 577.433134 
L 229.757633 664.530589 
z
" clip-path="url(#p53791e70cf)" style="fill: #e6d978; fill-opacity: 0.457897"/>
   </g>
   <g id="patch_121">
    <path d="M 529.231228 530.33581 
L 95.696431 295.241743 
L 359.712388 598.93448 
L 296.927313 238.783606 
z
" clip-path="url(#p53791e70cf)" style="fill: #2d4804; fill-opacity: 0.889027"/>
   </g>
   <g id="patch_122">
    <path d="M 574.925311 421.802239 
L 367.417134 380.489534 
L 250.062714 209.043102 
L 572.72315 650.415971 
z
" clip-path="url(#p53791e70cf)" style="fill: #2e1800; fill-opacity: 0.910117"/>
   </g>
   <g id="patch_123">
    <path d="M 261.842384 82.748994 
L 0.04406 331.739771 
L 415.90828 399.57903 
L 571.544531 633.800166 
L 340.099041 662.364011 
z
" clip-path="url(#p53791e70cf)" style="fill: #1f1915"/>
   </g>
   <g id="patch_124">
    <path d="M 209.398559 336.751302 
L 147.262705 156.004014 
L 164.132749 658.426851 
L 121.960284 324.346589 
L 443.859423 578.913001 
z
" clip-path="url(#p53791e70cf)" style="fill: #585230; fill-opacity: 0.864233"/>
   </g>
   <g id="patch_125">
    <path d="M 423.235546 646.936449 
L 194.856033 252.114201 
L 315.146274 41.586931 
z
" clip-path="url(#p53791e70cf)" style="fill: #b945ff; fill-opacity: 0.260008"/>
   </g>
   <g id="patch_126">
    <path d="M 72.041958 619.810353 
L 353.08736 307.091665 
L 48.454361 651.285275 
z
" clip-path="url(#p53791e70cf)" style="fill: #afadd9; fill-opacity: 0.266797"/>
   </g>
   <g id="patch_127">
    <path d="M 153.7359 586.584195 
L 336.942313 335.569529 
L 417.717551 515.837355 
L 331.591713 552.478689 
L 193.21654 471.200707 
z
" clip-path="url(#p53791e70cf)" style="fill: #0021f2; fill-opacity: 0.605979"/>
   </g>
   <g id="patch_128">
    <path d="M 511.563116 226.582104 
L 541.192383 442.354746 
L 154.50407 382.155635 
L 278.878539 193.5189 
L 474.525009 160.277254 
z
" clip-path="url(#p53791e70cf)" style="fill: #43bed7; fill-opacity: 0.837385"/>
   </g>
   <g id="patch_129">
    <path d="M 40.013508 485.308039 
L 154.318533 310.550297 
L 153.782328 28.359803 
L 361.590344 350.008272 
L 315.890131 108.177741 
z
" clip-path="url(#p53791e70cf)" style="fill: #386b6d"/>
   </g>
   <g id="patch_130">
    <path d="M 131.561838 358.66371 
L 320.281921 331.823712 
L 234.413413 291.647126 
L 23.00029 237.167198 
z
" clip-path="url(#p53791e70cf)" style="fill: #180621; fill-opacity: 0.38581"/>
   </g>
   <g id="patch_131">
    <path d="M 246.542442 648.704324 
L 514.698098 679.192361 
L 397.801927 486.21514 
z
" clip-path="url(#p53791e70cf)" style="fill: #403428"/>
   </g>
   <g id="patch_132">
    <path d="M 7.5297 48.293058 
L 85.502377 252.080438 
L 362.297355 588.923211 
L 322.703323 396.649193 
z
" clip-path="url(#p53791e70cf)" style="fill: #4f0597; fill-opacity: 0.753549"/>
   </g>
   <g id="patch_133">
    <path d="M 298.009851 505.851369 
L 310.471686 2.543816 
L 510.811616 15.594735 
z
" clip-path="url(#p53791e70cf)" style="fill: #001129; fill-opacity: 0.628344"/>
   </g>
   <g id="patch_134">
    <path d="M 49.551925 68.714406 
L 566.243912 569.131548 
L 154.297056 630.76125 
L 534.34883 559.764753 
z
" clip-path="url(#p53791e70cf)" style="fill: #ccfc8f; fill-opacity: 0.873493"/>
   </g>
   <g id="patch_135">
    <path d="M 517.832145 527.197255 
L 90.098801 370.33583 
L 415.243252 487.417799 
L 335.707384 574.742039 
L 449.645445 43.553533 
z
" clip-path="url(#p53791e70cf)" style="fill: #00004b; fill-opacity: 0.615535"/>
   </g>
   <g id="patch_136">
    <path d="M 95.076335 379.64044 
L 29.69503 237.468392 
L 353.975036 522.658036 
L 293.76803 311.519412 
L 445.70981 191.517115 
z
" clip-path="url(#p53791e70cf)" style="fill: #ebfff0; fill-opacity: 0.556341"/>
   </g>
   <g id="patch_137">
    <path d="M 350.898699 55.871707 
L 572.00925 65.958495 
L 494.498136 651.065713 
L 198.374245 181.605502 
z
" clip-path="url(#p53791e70cf)" style="fill: #1a0906; fill-opacity: 0.944133"/>
   </g>
   <g id="patch_138">
    <path d="M 283.061029 403.271331 
L 281.534168 6.323699 
L 130.625466 321.388679 
L 107.224088 260.249152 
L 252.073268 602.836955 
z
" clip-path="url(#p53791e70cf)" style="fill: #b3c11f; fill-opacity: 0.392233"/>
   </g>
   <g id="patch_139">
    <path d="M 53.172527 127.670843 
L 360.924908 323.919573 
L 121.917289 44.699405 
L 69.504166 109.408196 
z
" clip-path="url(#p53791e70cf)" style="fill: #6b4b3a; fill-opacity: 0.437784"/>
   </g>
   <g id="patch_140">
    <path d="M 1.428556 135.366928 
L 412.654079 13.914429 
L 396.607129 663.036967 
L 12.928885 220.473036 
z
" clip-path="url(#p53791e70cf)" style="fill: #323419; fill-opacity: 0.503815"/>
   </g>
   <g id="patch_141">
    <path d="M 386.941021 489.086349 
L 317.412729 13.570801 
L 309.638788 290.058596 
L 45.23892 100.04568 
L 486.496508 390.3439 
z
" clip-path="url(#p53791e70cf)" style="fill: #12dfaf; fill-opacity: 0.895355"/>
   </g>
   <g id="patch_142">
    <path d="M 506.303775 455.697561 
L 460.480697 254.4889 
L 142.342337 140.32069 
L 170.876243 280.722717 
L 383.009869 572.838872 
z
" clip-path="url(#p53791e70cf)" style="fill: #4f7931; fill-opacity: 0.032757"/>
   </g>
   <g id="patch_143">
    <path d="M 351.768067 288.913292 
L 273.506488 234.90745 
L 65.203912 636.60701 
L 473.28911 418.905726 
L 351.768067 288.913292 
z
" clip-path="url(#p53791e70cf)" style="fill: none"/>
   </g>
   <g id="patch_144">
    <path d="M 110.311694 299.277042 
L 180.73079 614.714948 
L 453.189411 496.314262 
L 95.031557 344.363759 
z
" clip-path="url(#p53791e70cf)" style="fill: #f7cf65; fill-opacity: 0.725252"/>
   </g>
   <g id="patch_145">
    <path d="M 77.575687 314.139592 
L 455.066015 3.391619 
L 255.85231 0.040495 
L 8.801087 75.463122 
z
" clip-path="url(#p53791e70cf)" style="fill-opacity: 0.994107"/>
   </g>
   <g id="patch_146">
    <path d="M 431.936403 193.67853 
L 4.204141 634.368442 
L 323.115183 569.646393 
L 502.091883 626.699381 
z
" clip-path="url(#p53791e70cf)" style="fill: #00000f; fill-opacity: 0.953518"/>
   </g>
   <g id="patch_147">
    <path d="M 28.772312 225.831177 
L 572.776784 670.8838 
L 511.132871 12.800482 
L 323.283691 624.119468 
z
" clip-path="url(#p53791e70cf)" style="fill: #271504; fill-opacity: 0.776367"/>
   </g>
   <g id="patch_148">
    <path d="M 508.521777 406.72042 
L 162.180818 641.931931 
L 455.653776 677.948354 
L 473.850376 472.663934 
z
" clip-path="url(#p53791e70cf)" style="fill: #6f5e40; fill-opacity: 0.999745"/>
   </g>
   <g id="patch_149">
    <path d="M 22.207729 220.338602 
L 478.508489 489.733811 
L 240.467303 151.476901 
L 59.160637 277.14533 
L 255.522203 346.338037 
z
" clip-path="url(#p53791e70cf)" style="fill: #b330d2; fill-opacity: 0.599763"/>
   </g>
   <g id="patch_150">
    <path d="M 87.076269 195.186241 
L 86.603744 440.741855 
L 44.703296 459.245939 
z
" clip-path="url(#p53791e70cf)" style="fill: #483000; fill-opacity: 0.152558"/>
   </g>
   <g id="patch_151">
    <path d="M 390.273549 600.21091 
L 382.999632 15.039527 
L 322.113728 123.52746 
L 549.737436 9.290289 
L 498.108916 202.473269 
z
" clip-path="url(#p53791e70cf)" style="fill: #e05b30; fill-opacity: 0.915326"/>
   </g>
   <g id="patch_152">
    <path d="M 20.803814 232.510623 
L 425.907524 62.923823 
L 229.75793 537.563805 
L 105.450936 42.973614 
z
" clip-path="url(#p53791e70cf)" style="fill: #44de4c; fill-opacity: 0.231875"/>
   </g>
   <g id="patch_153">
    <path d="M 443.981236 220.941486 
L 456.738891 145.997334 
L 409.107262 89.595326 
z
" clip-path="url(#p53791e70cf)" style="fill: #28c93d; fill-opacity: 0.77903"/>
   </g>
   <g id="patch_154">
    <path d="M 260.593625 128.591401 
L 470.16091 232.984113 
L 209.746442 578.770155 
L 151.74627 103.181154 
L 160.641951 660.167831 
z
" clip-path="url(#p53791e70cf)" style="fill: #7933e0; fill-opacity: 0.064833"/>
   </g>
   <g id="patch_155">
    <path d="M 288.862148 78.528022 
L 90.786262 126.628531 
L 96.795105 641.31482 
z
" clip-path="url(#p53791e70cf)" style="fill: #ade12c; fill-opacity: 0.340105"/>
   </g>
   <g id="patch_156">
    <path d="M 416.942815 434.167129 
L 452.980545 414.131376 
L 296.424223 622.622833 
L 424.582394 680.067384 
z
" clip-path="url(#p53791e70cf)" style="fill: #76352b; fill-opacity: 0.521922"/>
   </g>
   <g id="patch_157">
    <path d="M 186.772521 665.220542 
L 360.016997 122.60608 
L 262.621409 647.247558 
z
" clip-path="url(#p53791e70cf)" style="fill: #fff83e; fill-opacity: 0.546093"/>
   </g>
   <g id="patch_158">
    <path d="M 560.100999 680.55793 
L 126.296715 615.526933 
L 21.150162 620.469201 
L 530.733082 668.021589 
L 385.366496 331.845179 
z
" clip-path="url(#p53791e70cf)" style="fill: #28171b"/>
   </g>
   <g id="patch_159">
    <path d="M 330.739856 386.177075 
L 148.592109 451.498573 
L 355.897916 628.866082 
z
" clip-path="url(#p53791e70cf)" style="fill: #e4216a; fill-opacity: 0.481313"/>
   </g>
   <g id="patch_160">
    <path d="M 307.010645 422.065137 
L 446.571665 26.341404 
L 402.439511 0.932009 
L 194.668645 93.255361 
z
" clip-path="url(#p53791e70cf)" style="fill: #000037"/>
   </g>
   <g id="patch_161">
    <path d="M 31.043168 17.03449 
L 404.733102 113.559946 
L 297.244975 409.502233 
z
" clip-path="url(#p53791e70cf)" style="fill: #c704ea; fill-opacity: 0.745379"/>
   </g>
   <g id="patch_162">
    <path d="M 481.863194 61.733513 
L 168.485266 336.629025 
L 377.275606 558.255992 
z
" clip-path="url(#p53791e70cf)" style="fill: #513e66; fill-opacity: 0.13184"/>
   </g>
   <g id="patch_163">
    <path d="M 69.313888 338.23816 
L 286.782807 394.014078 
L 303.334594 396.80743 
z
" clip-path="url(#p53791e70cf)" style="fill: #145c00; fill-opacity: 0.688668"/>
   </g>
   <g id="patch_164">
    <path d="M 364.753922 498.06069 
L 45.721396 177.891159 
L 76.205098 59.400167 
L 148.879644 675.910599 
z
" clip-path="url(#p53791e70cf)" style="fill: #002100"/>
   </g>
   <g id="patch_165">
    <path d="M 522.013664 396.106794 
L 461.310569 617.750071 
L 536.931411 94.255097 
L 444.931585 225.389477 
z
" clip-path="url(#p53791e70cf)" style="fill: #fbffff"/>
   </g>
   <g id="patch_166">
    <path d="M 92.777491 681.695218 
L 565.685374 65.939051 
L 50.79395 117.356774 
L 41.020831 442.341192 
z
" clip-path="url(#p53791e70cf)" style="fill: #211200"/>
   </g>
   <g id="patch_167">
    <path d="M 117.026018 21.879155 
L 43.454887 408.752205 
L 156.060422 588.63366 
z
" clip-path="url(#p53791e70cf)" style="fill: #796684; fill-opacity: 0.781207"/>
   </g>
   <g id="patch_168">
    <path d="M 564.966349 283.975741 
L 352.105964 1.85366 
L 140.664509 17.357399 
z
" clip-path="url(#p53791e70cf)" style="fill: #0c1d23; fill-opacity: 0.033247"/>
   </g>
   <g id="patch_169">
    <path d="M 538.902479 496.880025 
L 575.154228 60.601141 
L 271.58835 557.158472 
z
" clip-path="url(#p53791e70cf)" style="fill: #160b07; fill-opacity: 0.319665"/>
   </g>
   <g id="patch_170">
    <path d="M 462.864653 133.440393 
L 307.941979 678.123182 
L 67.975417 323.542936 
L 497.49643 482.481215 
L 403.027182 21.285534 
z
" clip-path="url(#p53791e70cf)" style="fill: #6d655c; fill-opacity: 0.992966"/>
   </g>
   <g id="patch_171">
    <path d="M 340.796215 62.200861 
L 230.852504 242.318055 
L 527.853077 535.32422 
z
" clip-path="url(#p53791e70cf)" style="fill: #152b40; fill-opacity: 0.146608"/>
   </g>
   <g id="patch_172">
    <path d="M 342.27414 641.95193 
L 177.308305 94.788969 
L 558.336861 90.297934 
L 500.103385 234.477813 
z
" clip-path="url(#p53791e70cf)" style="fill: #d3bf51; fill-opacity: 0.765202"/>
   </g>
   <g id="patch_173">
    <path d="M 531.083988 4.221759 
L 44.206895 374.845622 
L 376.461174 481.967313 
L 559.526626 6.802434 
z
" clip-path="url(#p53791e70cf)" style="fill: #0d0e00; fill-opacity: 0.971048"/>
   </g>
   <g id="patch_174">
    <path d="M 45.149932 372.679551 
L 381.0404 358.602433 
L 568.689543 569.141521 
L 388.813087 593.988649 
z
" clip-path="url(#p53791e70cf)" style="fill: #170d04; fill-opacity: 0.958264"/>
   </g>
   <g id="patch_175">
    <path d="M 475.500279 462.050077 
L 406.202711 79.916629 
L 129.97567 658.756189 
L 276.789203 135.581467 
z
" clip-path="url(#p53791e70cf)" style="fill: #2a655c; fill-opacity: 0.524883"/>
   </g>
   <g id="patch_176">
    <path d="M 557.296224 311.894433 
L 65.334489 108.006924 
L 319.501276 565.138307 
L 47.039545 395.282415 
z
" clip-path="url(#p53791e70cf)" style="fill: #0a0000; fill-opacity: 0.925912"/>
   </g>
   <g id="patch_177">
    <path d="M 176.127736 676.519955 
L 484.100939 62.300371 
L 118.138942 22.390303 
z
" clip-path="url(#p53791e70cf)" style="fill: #6c2800; fill-opacity: 0.210903"/>
   </g>
   <g id="patch_178">
    <path d="M 128.062849 236.412426 
L 306.355683 489.327009 
L 149.150281 385.173256 
L 333.366052 590.628895 
L 372.771604 218.886132 
z
" clip-path="url(#p53791e70cf)" style="fill: #3c1b39; fill-opacity: 0.01477"/>
   </g>
   <g id="patch_179">
    <path d="M 128.940404 656.176033 
L 33.912158 62.155608 
L 465.742322 346.905723 
L 228.491149 229.935637 
L 236.745297 317.95104 
z
" clip-path="url(#p53791e70cf)" style="fill: #81d1ce; fill-opacity: 0.087228"/>
   </g>
   <g id="patch_180">
    <path d="M 7.575901 467.578508 
L 160.407368 585.92129 
L 570.974837 511.401885 
L 36.269517 269.99357 
z
" clip-path="url(#p53791e70cf)" style="fill: #b9bba0; fill-opacity: 0.57579"/>
   </g>
   <g id="patch_181">
    <path d="M 202.973932 278.053245 
L 362.122176 335.61242 
L 267.353697 12.729271 
z
" clip-path="url(#p53791e70cf)" style="fill: #39d795; fill-opacity: 0.903787"/>
   </g>
   <g id="patch_182">
    <path d="M 193.84567 185.458753 
L 281.3714 112.655924 
L 449.688911 567.682038 
L 327.562064 315.982164 
L 378.774009 509.965519 
z
" clip-path="url(#p53791e70cf)" style="fill: #bcfffe; fill-opacity: 0.552891"/>
   </g>
   <g id="patch_183">
    <path d="M 321.647638 81.553888 
L 511.997622 619.300997 
L 44.425322 160.528443 
z
" clip-path="url(#p53791e70cf)" style="fill: #0f1500; fill-opacity: 0.491898"/>
   </g>
   <g id="patch_184">
    <path d="M 571.392313 586.834225 
L 108.422587 362.420685 
L 549.730511 615.728615 
L 378.10264 375.621371 
L 370.563911 575.642437 
z
" clip-path="url(#p53791e70cf)" style="fill: #1c1727; fill-opacity: 0.606677"/>
   </g>
   <g id="patch_185">
    <path d="M 202.296342 482.160285 
L 129.285908 80.319586 
L 421.093512 342.178871 
L 444.073141 37.045832 
L 239.039941 590.822034 
z
" clip-path="url(#p53791e70cf)" style="fill: #009a58; fill-opacity: 0.829707"/>
   </g>
   <g id="patch_186">
    <path d="M 266.331834 17.6198 
L 223.622375 41.634327 
L 301.837385 461.035318 
L 66.28748 112.684876 
z
" clip-path="url(#p53791e70cf)" style="fill: #9c806b; fill-opacity: 0.178702"/>
   </g>
   <g id="patch_187">
    <path d="M 450.837185 626.248567 
L 529.082191 449.923111 
L 346.673921 195.436857 
L 522.414996 13.755747 
L 244.16229 136.754755 
z
" clip-path="url(#p53791e70cf)" style="fill: #9ba8ad; fill-opacity: 0.852748"/>
   </g>
   <g id="patch_188">
    <path d="M 237.295046 116.786994 
L 184.609694 105.217625 
L 489.456326 493.163143 
L 465.247326 38.256769 
L 128.577889 442.479111 
z
" clip-path="url(#p53791e70cf)" style="fill: #ffffff"/>
   </g>
   <g id="patch_189">
    <path d="M 410.902004 494.405239 
L 289.497721 474.644185 
L 556.028866 411.529174 
z
" clip-path="url(#p53791e70cf)" style="fill: #6fa28b; fill-opacity: 0.828537"/>
   </g>
   <g id="patch_190">
    <path d="M 436.004794 297.530044 
L 298.345994 397.120076 
L 286.841605 158.856596 
z
" clip-path="url(#p53791e70cf)" style="fill: #c195e1; fill-opacity: 0.287265"/>
   </g>
   <g id="patch_191">
    <path d="M 161.570267 290.318806 
L 260.089742 417.599373 
L 467.528799 282.364856 
L 501.098013 122.163758 
z
" clip-path="url(#p53791e70cf)" style="fill: #8b1851; fill-opacity: 0.717007"/>
   </g>
   <g id="patch_192">
    <path d="M 307.945352 329.808491 
L 12.997558 386.253359 
L 399.011062 301.209116 
z
" clip-path="url(#p53791e70cf)" style="fill: #aebbaa; fill-opacity: 0.645456"/>
   </g>
   <g id="patch_193">
    <path d="M 332.590155 271.267845 
L 122.979817 435.028368 
L 349.819634 536.889372 
L 62.300688 57.676427 
z
" clip-path="url(#p53791e70cf)" style="fill: #fb4fd1; fill-opacity: 0.959177"/>
   </g>
   <g id="patch_194">
    <path d="M 68.197529 87.815658 
L 548.772253 145.812691 
L 181.124692 206.950611 
L 412.251493 323.831187 
z
" clip-path="url(#p53791e70cf)" style="fill: #4f7168; fill-opacity: 0.646915"/>
   </g>
   <g id="patch_195">
    <path d="M 452.658517 323.744964 
L 365.687104 363.076294 
L 175.074909 511.510642 
L 372.586742 541.432703 
L 185.328898 145.185044 
z
" clip-path="url(#p53791e70cf)" style="fill: #6f1124; fill-opacity: 0.622971"/>
   </g>
   <g id="patch_196">
    <path d="M 182.025102 175.475568 
L 519.333763 282.686377 
L 520.673969 304.095947 
L 179.032646 366.087095 
L 323.902398 481.609525 
z
" clip-path="url(#p53791e70cf)" style="fill: #1c0b00; fill-opacity: 0.539733"/>
   </g>
   <g id="patch_197">
    <path d="M 100.431197 679.125347 
L 114.771101 293.354735 
L 346.146934 171.609764 
L 450.000671 84.125789 
L 199.714217 654.716028 
z
" clip-path="url(#p53791e70cf)" style="fill: #130c1a"/>
   </g>
   <g id="patch_198">
    <path d="M 115.944509 397.621001 
L 73.621968 215.163916 
L 73.841304 192.901511 
L 485.162311 364.540657 
L 392.067972 242.743479 
z
" clip-path="url(#p53791e70cf)" style="fill: #fffff2"/>
   </g>
   <g id="patch_199">
    <path d="M 338.839552 327.706011 
L 210.039616 66.471433 
L 238.036163 608.784921 
L 213.492304 322.892722 
z
" clip-path="url(#p53791e70cf)" style="fill: #54019c; fill-opacity: 0.815535"/>
   </g>
   <g id="patch_200">
    <path d="M 414.242892 370.751765 
L 298.493596 640.117451 
L 26.657549 72.20536 
L 91.630355 321.273208 
L 563.76995 58.648106 
z
" clip-path="url(#p53791e70cf)" style="fill: #464900; fill-opacity: 0.299939"/>
   </g>
   <g id="patch_201">
    <path d="M 13.011466 151.268143 
L 37.91153 6.561347 
L 395.452946 522.458855 
L 13.011466 151.268143 
z
" clip-path="url(#p53791e70cf)" style="fill: none"/>
   </g>
   <g id="patch_202">
    <path d="M 176.283225 512.780063 
L 153.416872 612.785795 
L 466.251793 147.654406 
z
" clip-path="url(#p53791e70cf)" style="fill: #768448; fill-opacity: 0.710044"/>
   </g>
   <g id="patch_203">
    <path d="M 546.150169 484.060776 
L 472.464326 527.434544 
L 20.625701 630.813895 
L 354.874911 113.774642 
z
" clip-path="url(#p53791e70cf)" style="fill: #cdc6ab"/>
   </g>
   <g id="patch_204">
    <path d="M 450.308242 396.53848 
L 568.74524 80.435097 
L 507.156262 78.858891 
L 298.625268 391.927145 
L 354.427028 330.422106 
z
" clip-path="url(#p53791e70cf)" style="fill: #1b1f07; fill-opacity: 0.931203"/>
   </g>
   <g id="patch_205">
    <path d="M 356.812273 560.473804 
L 128.100071 522.309794 
L 76.330403 429.300295 
L 19.229401 224.66268 
L 573.939178 433.413082 
z
" clip-path="url(#p53791e70cf)" style="fill: #9a6071; fill-opacity: 0.320693"/>
   </g>
   <g id="patch_206">
    <path d="M 243.388338 649.473906 
L 146.670525 22.715342 
L 314.9949 253.591844 
L 386.673234 169.618111 
L 411.043679 408.721866 
z
" clip-path="url(#p53791e70cf)" style="fill: #9cff13; fill-opacity: 0.520903"/>
   </g>
   <g id="patch_207">
    <path d="M 430.177151 617.678373 
L 574.25559 478.095935 
L 112.33766 336.816498 
z
" clip-path="url(#p53791e70cf)" style="fill: #daffff; fill-opacity: 0.28209"/>
   </g>
   <g id="patch_208">
    <path d="M 342.227361 99.34438 
L 90.623431 594.24406 
L 404.595117 270.742688 
L 559.01532 133.978618 
L 118.117604 172.485734 
z
" clip-path="url(#p53791e70cf)" style="fill: #1a2000; fill-opacity: 0.718074"/>
   </g>
   <g id="patch_209">
    <path d="M 393.944045 659.332425 
L 136.505224 636.159058 
L 199.436845 650.815253 
L 290.493967 126.511849 
L 442.206976 525.914951 
z
" clip-path="url(#p53791e70cf)" style="fill: #717e5d; fill-opacity: 0.674422"/>
   </g>
   <g id="patch_210">
    <path d="M 188.290202 464.960788 
L 26.992226 580.422241 
L 371.172958 496.178914 
L 146.077401 117.297317 
z
" clip-path="url(#p53791e70cf)" style="fill: #8e2027; fill-opacity: 0.147663"/>
   </g>
   <g id="patch_211">
    <path d="M 575.628167 177.135505 
L 284.735855 360.031284 
L 117.252074 132.060444 
z
" clip-path="url(#p53791e70cf)" style="fill: #1a0b02; fill-opacity: 0.991981"/>
   </g>
   <g id="patch_212">
    <path d="M 302.339542 500.41579 
L 44.897321 1.021644 
L 266.68494 183.042717 
L 487.6588 431.700747 
L 394.627641 204.134658 
z
" clip-path="url(#p53791e70cf)" style="fill: #ed891a"/>
   </g>
   <g id="patch_213">
    <path d="M 42.560119 1.810555 
L 262.499177 62.32894 
L 290.157854 475.102975 
z
" clip-path="url(#p53791e70cf)" style="fill: #000013"/>
   </g>
   <g id="patch_214">
    <path d="M 165.215264 46.149445 
L 311.428263 307.235135 
L 484.07374 649.203772 
L 326.904036 563.600341 
L 158.091483 399.136709 
z
" clip-path="url(#p53791e70cf)" style="fill: #ffc93e; fill-opacity: 0.416409"/>
   </g>
   <g id="patch_215">
    <path d="M 153.621761 634.464628 
L 35.201455 226.334454 
L 220.937515 629.084883 
z
" clip-path="url(#p53791e70cf)" style="fill: #f6a7ff; fill-opacity: 0.886926"/>
   </g>
   <g id="patch_216">
    <path d="M 538.914623 3.322791 
L 346.128548 344.436775 
L 14.988879 62.033445 
L 27.079854 92.725317 
z
" clip-path="url(#p53791e70cf)" style="fill: #1c1900"/>
   </g>
   <g id="patch_217">
    <path d="M 165.593891 324.57583 
L 29.586637 203.961695 
L 94.860709 305.434467 
L 310.836314 607.22628 
z
" clip-path="url(#p53791e70cf)" style="fill: #355f1d; fill-opacity: 0.994015"/>
   </g>
   <g id="patch_218">
    <path d="M 524.988832 41.345716 
L 325.675628 32.937533 
L 447.668571 471.46323 
L 228.54132 532.390962 
z
" clip-path="url(#p53791e70cf)" style="fill: #82730d; fill-opacity: 0.642312"/>
   </g>
   <g id="patch_219">
    <path d="M 1.786152 2.662528 
L 37.335778 588.779839 
L 75.1705 647.387874 
L 327.406097 116.333999 
L 575.133803 27.320211 
z
" clip-path="url(#p53791e70cf)" style="fill: #242510; fill-opacity: 0.992344"/>
   </g>
   <g id="patch_220">
    <path d="M 446.209359 73.993868 
L 520.729493 255.090074 
L 161.789865 602.060073 
L 398.01598 67.951637 
L 252.017138 353.354096 
z
" clip-path="url(#p53791e70cf)" style="fill: #520000; fill-opacity: 0.601318"/>
   </g>
   <g id="patch_221">
    <path d="M 346.779735 359.118499 
L 479.012291 241.840049 
L 386.493072 184.71421 
z
" clip-path="url(#p53791e70cf)" style="fill: #00c0e3; fill-opacity: 0.651492"/>
   </g>
   <g id="patch_222">
    <path d="M 510.835581 591.112515 
L 521.983447 678.284818 
L 165.491098 355.905881 
L 506.021758 616.128234 
L 510.835581 591.112515 
z
" clip-path="url(#p53791e70cf)" style="fill: none"/>
   </g>
   <g id="patch_223">
    <path d="M 553.566072 461.211735 
L 272.903833 197.726566 
L 201.803023 223.372464 
L 208.304761 609.337503 
z
" clip-path="url(#p53791e70cf)" style="fill: #edd17b; fill-opacity: 0.513337"/>
   </g>
   <g id="patch_224">
    <path d="M 445.653037 464.349779 
L 564.372856 681.918096 
L 14.837676 296.670401 
L 101.486821 345.676545 
z
" clip-path="url(#p53791e70cf)" style="fill: #060000; fill-opacity: 0.088574"/>
   </g>
   <g id="patch_225">
    <path d="M 32.95131 501.248938 
L 207.36036 27.875559 
L 476.505502 586.843942 
L 293.670367 234.681736 
L 486.202059 594.417347 
z
" clip-path="url(#p53791e70cf)" style="fill: #0c1b07"/>
   </g>
   <g id="patch_226">
    <path d="M 169.143649 225.123893 
L 487.276281 18.578117 
L 87.679745 644.263592 
L 76.706818 24.153525 
z
" clip-path="url(#p53791e70cf)" style="fill: #2f214d; fill-opacity: 0.064107"/>
   </g>
   <g id="patch_227">
    <path d="M 222.69053 632.17833 
L 119.583324 641.655053 
L 389.353347 358.183535 
z
" clip-path="url(#p53791e70cf)" style="fill: #faeac5"/>
   </g>
   <g id="patch_228">
    <path d="M 466.62795 217.212153 
L 434.810244 62.611609 
L 558.261918 28.109284 
L 289.784265 305.762615 
z
" clip-path="url(#p53791e70cf)" style="fill: #da2853; fill-opacity: 0.910667"/>
   </g>
   <g id="patch_229">
    <path d="M 1.628449 656.524687 
L 150.407792 123.920977 
L 574.195627 1.10119 
L 364.556584 504.470415 
z
" clip-path="url(#p53791e70cf)" style="fill: #171702"/>
   </g>
   <g id="patch_230">
    <path d="M 469.529337 502.228438 
L 132.907103 161.345176 
L 558.802922 563.099779 
L 371.914763 80.910915 
z
" clip-path="url(#p53791e70cf)" style="fill: #f8bca5; fill-opacity: 0.049381"/>
   </g>
   <g id="patch_231">
    <path d="M 229.440334 493.070979 
L 381.89594 110.247772 
L 449.283833 58.599243 
L 73.220146 661.621706 
z
" clip-path="url(#p53791e70cf)" style="fill: #9c7370; fill-opacity: 0.081935"/>
   </g>
   <g id="patch_232">
    <path d="M 270.068526 630.067213 
L 242.623468 14.350521 
L 241.894799 17.725658 
L 425.020442 66.357791 
L 348.919064 606.169783 
z
" clip-path="url(#p53791e70cf)" style="fill: #2ddb2f; fill-opacity: 0.376951"/>
   </g>
   <g id="patch_233">
    <path d="M 442.066627 213.591699 
L 118.420322 83.431156 
L 41.198558 327.595959 
L 303.455711 162.363007 
L 509.499061 263.615934 
z
" clip-path="url(#p53791e70cf)" style="fill: #103fb8; fill-opacity: 0.171347"/>
   </g>
   <g id="patch_234">
    <path d="M 228.32874 435.372787 
L 139.853653 213.118439 
L 33.471035 70.057785 
z
" clip-path="url(#p53791e70cf)" style="fill: #211311; fill-opacity: 0.506844"/>
   </g>
   <g id="patch_235">
    <path d="M 535.861588 215.285 
L 152.504874 678.37602 
L 199.400634 112.754764 
L 105.672954 77.787643 
z
" clip-path="url(#p53791e70cf)" style="fill-opacity: 0.99445"/>
   </g>
   <g id="patch_236">
    <path d="M 32.382189 658.873984 
L 305.213779 118.717669 
L 442.63354 29.423915 
L 328.063614 640.162265 
z
" clip-path="url(#p53791e70cf)" style="fill: #3d5f33; fill-opacity: 0.535178"/>
   </g>
   <g id="patch_237">
    <path d="M 466.883987 137.574453 
L 405.239211 541.595116 
L 108.851371 539.097017 
z
" clip-path="url(#p53791e70cf)" style="fill: #4393d7; fill-opacity: 0.826895"/>
   </g>
   <g id="patch_238">
    <path d="M 138.191799 2.555845 
L 97.179583 676.803965 
L 9.807494 372.78633 
L 210.204767 420.038221 
L 281.594141 548.91635 
z
" clip-path="url(#p53791e70cf)" style="fill: #1e7ada; fill-opacity: 0.231581"/>
   </g>
   <g id="patch_239">
    <path d="M 255.523369 653.081262 
L 185.668193 144.142247 
L 37.92086 562.365358 
L 70.402531 682.212654 
z
" clip-path="url(#p53791e70cf)" style="fill: #1f1700; fill-opacity: 0.727916"/>
   </g>
   <g id="patch_240">
    <path d="M 564.216087 619.801473 
L 482.415685 429.503161 
L 358.561506 112.371011 
L 95.339446 663.229413 
z
" clip-path="url(#p53791e70cf)" style="fill: #2c3d1c; fill-opacity: 0.05963"/>
   </g>
   <g id="patch_241">
    <path d="M 509.100029 570.68663 
L 232.635525 566.15028 
L 102.792491 330.029827 
z
" clip-path="url(#p53791e70cf)" style="fill: #070308"/>
   </g>
   <g id="patch_242">
    <path d="M 456.092544 92.343234 
L 324.43225 612.215909 
L 423.557551 455.998149 
L 255.010989 11.035099 
L 62.169397 204.510123 
z
" clip-path="url(#p53791e70cf)" style="fill: #3bccff"/>
   </g>
   <g id="patch_243">
    <path d="M 413.109265 141.941379 
L 163.447966 382.370076 
L 406.567969 428.817683 
L 65.610413 206.999835 
z
" clip-path="url(#p53791e70cf)" style="fill: #0c606a; fill-opacity: 0.519011"/>
   </g>
   <g id="patch_244">
    <path d="M 18.788832 63.958868 
L 41.631587 184.446446 
L 190.618753 369.14493 
L 474.379913 394.139893 
L 407.220138 110.33774 
z
" clip-path="url(#p53791e70cf)" style="fill: #494580; fill-opacity: 0.115774"/>
   </g>
   <g id="patch_245">
    <path d="M 249.315417 645.986228 
L 33.610064 189.378691 
L 560.424492 217.844485 
z
" clip-path="url(#p53791e70cf)" style="fill: #a55591; fill-opacity: 0.002826"/>
   </g>
   <g id="patch_246">
    <path d="M 404.277326 679.958911 
L 328.71103 280.309529 
L 122.220422 225.257072 
z
" clip-path="url(#p53791e70cf)" style="fill: #0b3d22; fill-opacity: 0.409746"/>
   </g>
   <g id="patch_247">
    <path d="M 433.457513 312.160724 
L 473.703246 67.892641 
L 302.672411 262.706574 
L 18.109578 582.406304 
L 64.365683 586.022177 
z
" clip-path="url(#p53791e70cf)" style="fill: #1a973b; fill-opacity: 0.680473"/>
   </g>
   <g id="patch_248">
    <path d="M 493.225167 35.931341 
L 266.54355 195.501836 
L 42.592455 172.207755 
L 423.41327 595.858162 
z
" clip-path="url(#p53791e70cf)" style="fill: #000f00; fill-opacity: 0.847632"/>
   </g>
   <g id="patch_249">
    <path d="M 486.686482 549.917867 
L 33.914263 659.900002 
L 33.053098 556.971277 
L 38.432241 29.552255 
L 8.291578 681.023831 
z
" clip-path="url(#p53791e70cf)" style="fill: #1e0d06"/>
   </g>
   <g id="patch_250">
    <path d="M 499.199862 630.328989 
L 201.659217 625.707782 
L 346.784977 33.690301 
L 119.265923 408.880565 
L 430.426238 527.606582 
z
" clip-path="url(#p53791e70cf)" style="fill: #ffcb58; fill-opacity: 0.438053"/>
   </g>
   <g id="patch_251">
    <path d="M 62.33316 321.37551 
L 334.137728 319.293215 
L 238.227876 657.136771 
L 54.747625 633.055545 
L 312.245898 610.496544 
z
" clip-path="url(#p53791e70cf)" style="fill: #fcb543; fill-opacity: 0.651648"/>
   </g>
   <g id="patch_252">
    <path d="M 5.780684 285.068305 
L 418.989692 401.615006 
L 452.383621 230.103038 
L 0.401767 440.211118 
z
" clip-path="url(#p53791e70cf)" style="fill: #28150b; fill-opacity: 0.604047"/>
   </g>
   <g id="patch_253">
    <path d="M 349.272579 337.039207 
L 442.471355 547.145168 
L 384.277125 137.917916 
L 105.199825 596.120488 
L 349.272579 337.039207 
z
" clip-path="url(#p53791e70cf)" style="fill: none"/>
   </g>
   <g id="patch_254">
    <path d="M 180.883421 132.424034 
L 542.736139 1.981482 
L 76.59513 1.110284 
L 469.595767 495.725029 
z
" clip-path="url(#p53791e70cf)" style="fill: #1f110b; fill-opacity: 0.947065"/>
   </g>
   <g id="patch_255">
    <path d="M 377.707466 87.784154 
L 80.508912 306.232055 
L 134.314853 675.868678 
z
" clip-path="url(#p53791e70cf)" style="fill: #180209; fill-opacity: 0.912158"/>
   </g>
   <g id="patch_256">
    <path d="M 399.285811 637.321429 
L 20.858101 127.218404 
L 262.710447 203.236762 
L 312.966769 298.035426 
L 363.100133 153.717626 
z
" clip-path="url(#p53791e70cf)" style="fill: #174146; fill-opacity: 0.389796"/>
   </g>
   <g id="patch_257">
    <path d="M 480.192272 605.145496 
L 212.604718 533.010444 
L 404.723483 308.287363 
L 17.730461 131.059239 
z
" clip-path="url(#p53791e70cf)" style="fill: #fdd855; fill-opacity: 0.817026"/>
   </g>
   <g id="patch_258">
    <path d="M 141.196351 438.418679 
L 466.196502 45.916997 
L 19.448364 548.16282 
L 356.880819 667.966263 
L 294.09689 678.956305 
z
" clip-path="url(#p53791e70cf)" style="fill: #94774c; fill-opacity: 0.650157"/>
   </g>
   <g id="patch_259">
    <path d="M 236.883895 268.470784 
L 49.467557 672.672142 
L 247.143491 247.575698 
L 70.18194 143.33697 
L 270.408197 501.19473 
z
" clip-path="url(#p53791e70cf)" style="fill: #7f5f87; fill-opacity: 0.534009"/>
   </g>
   <g id="patch_260">
    <path d="M 454.353561 498.037245 
L 188.823303 480.410342 
L 51.269174 175.300533 
L 6.541499 646.252917 
L 226.705282 30.195134 
z
" clip-path="url(#p53791e70cf)" style="fill-opacity: 0.892417"/>
   </g>
   <g id="patch_261">
    <path d="M 370.66065 24.272819 
L 318.901927 284.261993 
L 359.097185 51.844831 
z
" clip-path="url(#p53791e70cf)" style="fill: #645cb7; fill-opacity: 0.706065"/>
   </g>
   <g id="patch_262">
    <path d="M 550.88393 263.167661 
L 213.210011 580.397611 
L 432.250516 312.521268 
L 122.626778 103.689047 
L 275.095869 224.701818 
z
" clip-path="url(#p53791e70cf)"/>
   </g>
   <g id="patch_263">
    <path d="M 419.401622 376.298 
L 201.52513 369.579525 
L 178.260845 479.700164 
z
" clip-path="url(#p53791e70cf)" style="fill: #765001; fill-opacity: 0.858665"/>
   </g>
   <g id="patch_264">
    <path d="M 106.567141 20.643868 
L 231.37207 544.747109 
L 371.39617 404.539054 
z
" clip-path="url(#p53791e70cf)" style="fill: #001800; fill-opacity: 0.279277"/>
   </g>
   <g id="patch_265">
    <path d="M 60.835678 105.865927 
L 349.888753 271.611979 
L 247.778387 62.598386 
L 383.591454 682.387039 
L 519.746748 654.978966 
z
" clip-path="url(#p53791e70cf)" style="fill: #383526; fill-opacity: 0.718801"/>
   </g>
   <g id="patch_266">
    <path d="M 369.705553 272.862247 
L 329.878382 649.279065 
L 470.53224 68.928243 
L 549.909232 663.341792 
L 459.694238 582.93273 
z
" clip-path="url(#p53791e70cf)" style="fill: #154d6b; fill-opacity: 0.052757"/>
   </g>
   <g id="patch_267">
    <path d="M 113.572419 646.205422 
L 32.076858 660.333555 
L 163.106055 644.148968 
L 258.217164 162.978371 
z
" clip-path="url(#p53791e70cf)" style="fill: #1f2511; fill-opacity: 0.700915"/>
   </g>
   <g id="patch_268">
    <path d="M 130.837384 655.605732 
L 204.166484 74.373709 
L 210.161616 264.687266 
L 343.960688 346.234511 
L 3.145069 681.380292 
z
" clip-path="url(#p53791e70cf)" style="fill: #1b140a"/>
   </g>
   <g id="patch_269">
    <path d="M 442.500239 288.855105 
L 500.969941 285.661433 
L 380.731283 84.452532 
L 61.17834 106.285017 
L 571.195994 16.544315 
z
" clip-path="url(#p53791e70cf)" style="fill: #351413; fill-opacity: 0.81978"/>
   </g>
   <g id="patch_270">
    <path d="M 406.401737 231.82175 
L 395.971088 446.894601 
L 421.302515 144.199636 
L 18.315172 552.723272 
L 381.838949 409.960452 
z
" clip-path="url(#p53791e70cf)" style="fill: #ffffff"/>
   </g>
   <g id="patch_271">
    <path d="M 147.169194 561.203061 
L 553.394818 575.490569 
L 103.786903 399.778895 
z
" clip-path="url(#p53791e70cf)" style="fill: #372114; fill-opacity: 0.352961"/>
   </g>
   <g id="patch_272">
    <path d="M 461.656221 468.327648 
L 94.147105 631.600445 
L 2.752006 172.964998 
L 80.866374 210.493305 
L 269.23622 442.923781 
z
" clip-path="url(#p53791e70cf)" style="fill: #00051a; fill-opacity: 0.078807"/>
   </g>
   <g id="patch_273">
    <path d="M 16.346838 112.337227 
L 139.328958 480.918146 
L 77.502836 482.43894 
L 2.969351 141.970827 
z
" clip-path="url(#p53791e70cf)" style="fill: #281b17; fill-opacity: 0.907452"/>
   </g>
   <g id="patch_274">
    <path d="M 44.665697 373.006074 
L 507.123547 191.225293 
L 15.335234 376.558005 
L 11.466207 476.437729 
L 394.823951 29.355441 
z
" clip-path="url(#p53791e70cf)" style="fill: #54c030; fill-opacity: 0.401711"/>
   </g>
   <g id="patch_275">
    <path d="M 349.679166 656.83989 
L 74.540946 549.356185 
L 131.569866 219.411915 
L 247.375506 508.478594 
L 502.515368 501.917622 
z
" clip-path="url(#p53791e70cf)" style="fill: #84a69a; fill-opacity: 0.309396"/>
   </g>
   <g id="patch_276">
    <path d="M 330.83949 209.515944 
L 220.092484 241.759925 
L 230.756896 502.155102 
L 489.134436 667.262416 
L 330.83949 209.515944 
z
" clip-path="url(#p53791e70cf)" style="fill: none"/>
   </g>
   <g id="patch_277">
    <path d="M 116.020098 400.001069 
L 127.401288 223.653907 
L 481.051643 60.253749 
L 114.526665 25.722181 
z
" clip-path="url(#p53791e70cf)" style="fill: #011d3a; fill-opacity: 0.455066"/>
   </g>
   <g id="patch_278">
    <path d="M 245.130124 394.298554 
L 395.68375 200.497741 
L 112.963351 482.632318 
L 12.456599 92.226926 
L 120.058279 136.208748 
z
" clip-path="url(#p53791e70cf)" style="fill: #2c3031; fill-opacity: 0.502281"/>
   </g>
   <g id="patch_279">
    <path d="M 142.086073 679.101528 
L 193.698461 649.11048 
L 107.666213 93.289338 
z
" clip-path="url(#p53791e70cf)" style="fill: #1c100b; fill-opacity: 0.95308"/>
   </g>
   <g id="patch_280">
    <path d="M 142.945222 233.924142 
L 346.802762 194.233279 
L 322.126866 549.342223 
L 249.352933 431.569518 
z
" clip-path="url(#p53791e70cf)" style="fill: #000b00"/>
   </g>
   <g id="patch_281">
    <path d="M 285.993666 420.421337 
L 174.997839 666.350938 
L 250.669573 653.726985 
L 465.900247 397.777276 
L 194.752435 92.289584 
z
" clip-path="url(#p53791e70cf)" style="fill: #ffffff; fill-opacity: 0.337261"/>
   </g>
   <g id="patch_282">
    <path d="M 50.053511 530.597264 
L 303.930026 656.395589 
L 279.865651 438.463228 
z
" clip-path="url(#p53791e70cf)" style="fill: #a6926a"/>
   </g>
   <g id="patch_283">
    <path d="M 83.524291 337.974182 
L 263.289626 488.463024 
L 502.157757 60.957744 
L 226.222876 316.575329 
z
" clip-path="url(#p53791e70cf)" style="fill: #91b0ff; fill-opacity: 0.860152"/>
   </g>
   <g id="patch_284">
    <path d="M 254.036991 324.780665 
L 565.831235 57.835826 
L 124.88088 5.510867 
L 174.752274 122.389358 
L 452.259614 242.702459 
z
" clip-path="url(#p53791e70cf)" style="fill: #22100a; fill-opacity: 0.676589"/>
   </g>
   <g id="patch_285">
    <path d="M 564.984103 35.440313 
L 391.169543 3.045031 
L 196.629596 167.110174 
z
" clip-path="url(#p53791e70cf)" style="fill: #2b2705; fill-opacity: 0.350208"/>
   </g>
   <g id="patch_286">
    <path d="M 235.780377 479.047615 
L 111.402504 475.331101 
L 123.846517 396.358267 
L 351.338125 35.033351 
z
" clip-path="url(#p53791e70cf)" style="fill: #718b59; fill-opacity: 0.683855"/>
   </g>
   <g id="patch_287">
    <path d="M 566.632232 10.905662 
L 53.895278 151.135885 
L 383.065815 333.485095 
z
" clip-path="url(#p53791e70cf)" style="fill: #181e0b; fill-opacity: 0.785359"/>
   </g>
   <g id="patch_288">
    <path d="M 360.007729 47.747615 
L 454.858767 495.378406 
L 177.792798 66.846614 
z
" clip-path="url(#p53791e70cf)" style="fill-opacity: 0.716374"/>
   </g>
   <g id="patch_289">
    <path d="M 145.706743 266.369171 
L 6.224405 267.501865 
L 20.165673 382.013244 
L 86.22404 479.248558 
L 424.069066 378.858447 
z
" clip-path="url(#p53791e70cf)" style="fill: #34110d; fill-opacity: 0.675195"/>
   </g>
   <g id="patch_290">
    <path d="M 16.932275 169.854663 
L 395.354596 115.853952 
L 269.556016 348.888512 
L 86.68542 182.670848 
L 228.109278 624.271915 
z
" clip-path="url(#p53791e70cf)" style="fill: #688673; fill-opacity: 0.755517"/>
   </g>
   <g id="patch_291">
    <path d="M 171.935457 137.817692 
L 199.086964 132.110747 
L 557.384785 387.081249 
z
" clip-path="url(#p53791e70cf)" style="fill: #592c34; fill-opacity: 0.910784"/>
   </g>
   <g id="patch_292">
    <path d="M 483.824262 586.22179 
L 564.082956 365.278666 
L 144.823717 10.507565 
L 261.57215 50.587242 
L 485.652804 473.568753 
z
" clip-path="url(#p53791e70cf)" style="fill: #00050d; fill-opacity: 0.228448"/>
   </g>
   <g id="patch_293">
    <path d="M 357.736247 64.130621 
L 260.40495 369.348766 
L 65.273154 143.53641 
L 337.399071 44.325419 
z
" clip-path="url(#p53791e70cf)" style="fill: #d5c5d0; fill-opacity: 0.190838"/>
   </g>
   <g id="patch_294">
    <path d="M 359.176485 361.062509 
L 389.549021 95.620717 
L 192.278297 340.617047 
z
" clip-path="url(#p53791e70cf)" style="fill: #556314"/>
   </g>
   <g id="patch_295">
    <path d="M 423.980423 656.805727 
L 234.619361 217.687704 
L 246.614344 5.913186 
L 0.546712 557.588394 
L 19.190447 78.78227 
z
" clip-path="url(#p53791e70cf)" style="fill: #212316; fill-opacity: 0.818269"/>
   </g>
   <g id="patch_296">
    <path d="M 423.45972 362.984206 
L 320.761147 348.578661 
L 560.016009 647.275302 
L 164.52333 545.466387 
z
" clip-path="url(#p53791e70cf)" style="fill: #302d2c; fill-opacity: 0.417164"/>
   </g>
   <g id="patch_297">
    <path d="M 298.271105 648.120999 
L 355.502204 510.595483 
L 539.12896 66.94164 
L 61.289094 296.380721 
L 410.095801 309.412806 
z
" clip-path="url(#p53791e70cf)" style="fill: #192b20; fill-opacity: 0.955029"/>
   </g>
   <g id="patch_298">
    <path d="M 195.170456 124.16277 
L 309.716996 119.352243 
L 351.804321 630.339217 
L 116.221644 592.249485 
L 126.122117 515.514212 
z
" clip-path="url(#p53791e70cf)" style="fill: #bfa67d"/>
   </g>
   <g id="patch_299">
    <path d="M 431.898406 132.177329 
L 538.754421 384.83402 
L 5.978884 536.600311 
z
" clip-path="url(#p53791e70cf)" style="fill: #fbffff; fill-opacity: 0.204111"/>
   </g>
   <g id="patch_300">
    <path d="M 532.752267 284.793684 
L 548.739561 614.427082 
L 444.121295 328.867791 
L 488.810141 179.644339 
z
" clip-path="url(#p53791e70cf)" style="fill: #c7eaff; fill-opacity: 0.02641"/>
   </g>
   <g id="patch_301">
    <path d="M 12.080633 372.764305 
L 210.461395 587.39722 
L 177.671825 209.637164 
z
" clip-path="url(#p53791e70cf)" style="fill: #1e2918"/>
   </g>
   <g id="patch_302">
    <path d="M 189.846404 659.172045 
L 396.20783 422.852411 
L 510.155707 125.419931 
L 486.279585 517.394144 
z
" clip-path="url(#p53791e70cf)" style="fill: #e6ff1c; fill-opacity: 0.013665"/>
   </g>
   <g id="patch_303">
    <path d="M 399.380045 266.537955 
L 294.408384 377.932032 
L 246.003648 162.223485 
z
" clip-path="url(#p53791e70cf)" style="fill: #883400"/>
   </g>
   <g id="patch_304">
    <path d="M 291.554926 372.226099 
L 186.917962 58.585981 
L 306.006869 164.789595 
L 503.048329 154.900243 
z
" clip-path="url(#p53791e70cf)" style="fill: #89d9f8; fill-opacity: 0.358164"/>
   </g>
   <g id="patch_305">
    <path d="M 287.636086 44.10234 
L 116.449328 410.120742 
L 335.070019 223.258082 
L 524.644692 263.862926 
L 465.416685 592.31538 
z
" clip-path="url(#p53791e70cf)" style="fill: #ffebef; fill-opacity: 0.12593"/>
   </g>
   <g id="patch_306">
    <path d="M 25.247558 467.269176 
L 43.951309 574.670836 
L 132.034212 672.121562 
L 276.137679 469.280553 
z
" clip-path="url(#p53791e70cf)" style="fill: #1d250f; fill-opacity: 0.40177"/>
   </g>
   <g id="patch_307">
    <path d="M 266.85559 245.725687 
L 457.210552 186.696389 
L 177.011446 332.690782 
z
" clip-path="url(#p53791e70cf)" style="fill: #4f1005; fill-opacity: 0.321672"/>
   </g>
   <g id="patch_308">
    <path d="M 66.304127 292.545569 
L 3.605703 618.225693 
L 20.676121 670.336225 
L 130.8106 649.040178 
L 187.666955 250.936591 
z
" clip-path="url(#p53791e70cf)" style="fill: #1f1906; fill-opacity: 0.990533"/>
   </g>
   <g id="patch_309">
    <path d="M 458.752811 282.163516 
L 496.445883 128.634786 
L 145.817878 592.080768 
L 309.842108 0.806515 
z
" clip-path="url(#p53791e70cf)" style="fill: #546a26; fill-opacity: 0.155011"/>
   </g>
   <g id="patch_310">
    <path d="M 10.626133 677.204927 
L 131.738593 77.899975 
L 515.312571 197.671246 
z
" clip-path="url(#p53791e70cf)" style="fill: #cf2eff; fill-opacity: 0.065011"/>
   </g>
   <g id="patch_311">
    <path d="M 242.127782 86.772441 
L 372.785149 77.546087 
L 294.740485 266.626785 
L 48.729528 293.352172 
z
" clip-path="url(#p53791e70cf)" style="fill: #0977ff; fill-opacity: 0.152705"/>
   </g>
   <g id="patch_312">
    <path d="M 353.359604 366.001925 
L 305.424697 60.950434 
L 473.783952 109.813119 
z
" clip-path="url(#p53791e70cf)" style="fill: #969b8d"/>
   </g>
   <g id="patch_313">
    <path d="M 318.622068 88.513068 
L 368.744571 366.528564 
L 177.149541 477.222416 
z
" clip-path="url(#p53791e70cf)" style="fill: #a98ab0; fill-opacity: 0.126481"/>
   </g>
   <g id="patch_314">
    <path d="M 27.739793 678.649188 
L 286.22075 657.377118 
L 131.6316 479.017104 
L 32.012175 33.994276 
z
" clip-path="url(#p53791e70cf)" style="fill: #8a2c1e; fill-opacity: 0.041671"/>
   </g>
   <g id="patch_315">
    <path d="M 31.390077 665.947023 
L 5.913022 373.485895 
L 214.751218 550.722935 
L 74.735043 623.874934 
L 332.86748 96.043963 
z
" clip-path="url(#p53791e70cf)" style="fill: #252015; fill-opacity: 0.324954"/>
   </g>
   <g id="patch_316">
    <path d="M 275.476371 508.942198 
L 504.532136 318.249375 
L 119.498061 662.290943 
z
" clip-path="url(#p53791e70cf)" style="fill: #26350a; fill-opacity: 0.194173"/>
   </g>
   <g id="patch_317">
    <path d="M 473.493318 264.291046 
L 411.622816 555.771658 
L 404.852799 221.403118 
z
" clip-path="url(#p53791e70cf)" style="fill: #4d6a5a; fill-opacity: 0.977404"/>
   </g>
   <g id="patch_318">
    <path d="M 329.968488 335.880865 
L 417.361671 434.228121 
L 499.25404 43.788105 
z
" clip-path="url(#p53791e70cf)" style="fill: #250b1c; fill-opacity: 0.274312"/>
   </g>
   <g id="patch_319">
    <path d="M 110.113615 135.590459 
L 10.989015 101.227585 
L 258.917085 473.606564 
L 106.776947 658.607988 
z
" clip-path="url(#p53791e70cf)" style="fill: #241a17; fill-opacity: 0.621832"/>
   </g>
   <g id="patch_320">
    <path d="M 279.832928 403.518422 
L 161.696488 404.186489 
L 128.824206 624.247336 
L 319.535656 492.958285 
L 10.466962 613.729882 
z
" clip-path="url(#p53791e70cf)" style="fill: #180a03; fill-opacity: 0.347053"/>
   </g>
   <g id="patch_321">
    <path d="M 340.285217 77.140766 
L 140.702011 164.890295 
L 302.3244 401.387346 
L 296.530045 189.8028 
z
" clip-path="url(#p53791e70cf)" style="fill: #ecdcc6; fill-opacity: 0.395291"/>
   </g>
   <g id="patch_322">
    <path d="M 210.780804 472.672375 
L 45.406562 619.113104 
L 479.387737 111.178153 
L 307.363016 416.575256 
z
" clip-path="url(#p53791e70cf)" style="fill: #6c4019; fill-opacity: 0.401648"/>
   </g>
   <g id="patch_323">
    <path d="M 522.838524 333.47629 
L 562.472404 154.911567 
L 452.05393 216.109368 
z
" clip-path="url(#p53791e70cf)" style="fill: #000000; fill-opacity: 0.617139"/>
   </g>
   <g id="patch_324">
    <path d="M 130.503385 453.438367 
L 323.928382 459.848057 
L 2.215708 548.960197 
L 11.83547 186.241021 
L 130.503385 453.438367 
z
" clip-path="url(#p53791e70cf)" style="fill: none"/>
   </g>
   <g id="patch_325">
    <path d="M 24.661799 334.989869 
L 132.824393 336.263073 
L 264.742304 443.629979 
L 208.617684 504.716606 
z
" clip-path="url(#p53791e70cf)" style="fill: #071314; fill-opacity: 0.882517"/>
   </g>
   <g id="patch_326">
    <path d="M 329.51126 530.688978 
L 351.66659 439.865198 
L 354.427764 640.312051 
L 226.357031 502.013969 
z
" clip-path="url(#p53791e70cf)" style="fill: #a19570; fill-opacity: 0.651388"/>
   </g>
   <g id="patch_327">
    <path d="M 435.121689 447.436772 
L 506.689093 99.831342 
L 91.509626 21.806907 
L 132.029483 169.877039 
L 354.380337 77.443149 
z
" clip-path="url(#p53791e70cf)" style="fill: #603200; fill-opacity: 0.326419"/>
   </g>
   <g id="patch_328">
    <path d="M 122.865046 74.729909 
L 69.354788 635.83361 
L 252.673004 36.128823 
z
" clip-path="url(#p53791e70cf)" style="fill: #000301; fill-opacity: 0.160426"/>
   </g>
   <g id="patch_329">
    <path d="M 416.270504 484.319502 
L 236.42392 509.34192 
L 475.043892 503.363241 
z
" clip-path="url(#p53791e70cf)" style="fill: #000045; fill-opacity: 0.129107"/>
   </g>
   <g id="patch_330">
    <path d="M 92.060481 431.736358 
L 120.382229 599.38585 
L 3.11746 645.073644 
z
" clip-path="url(#p53791e70cf)" style="fill: #251b0d; fill-opacity: 0.993715"/>
   </g>
   <g id="patch_331">
    <path d="M 130.048715 577.062606 
L 414.654143 389.861043 
L 351.813798 423.554472 
L 69.815868 609.439099 
z
" clip-path="url(#p53791e70cf)" style="fill: #9e5a01; fill-opacity: 0.241131"/>
   </g>
   <g id="patch_332">
    <path d="M 340.989373 59.377663 
L 466.925251 397.110621 
L 444.694609 280.22805 
L 488.623469 389.581431 
z
" clip-path="url(#p53791e70cf)" style="fill: #b1a68b; fill-opacity: 0.992828"/>
   </g>
   <g id="patch_333">
    <path d="M 384.759852 426.591379 
L 293.15436 203.591509 
L 467.057777 195.925966 
z
" clip-path="url(#p53791e70cf)" style="fill: #2b4250"/>
   </g>
   <g id="patch_334">
    <path d="M 155.910275 58.608659 
L 383.32939 584.161737 
L 128.867849 392.782567 
L 150.738508 555.386382 
z
" clip-path="url(#p53791e70cf)" style="fill: #ffe292; fill-opacity: 0.181117"/>
   </g>
   <g id="patch_335">
    <path d="M 221.669233 602.654081 
L 242.151709 547.3691 
L 178.164216 664.862424 
L 262.692785 298.229051 
z
" clip-path="url(#p53791e70cf)" style="fill: #00190d; fill-opacity: 0.172626"/>
   </g>
   <g id="patch_336">
    <path d="M 417.894733 105.739376 
L 220.958357 335.606502 
L 472.084472 25.932605 
L 177.650101 254.264179 
L 202.594321 200.932128 
z
" clip-path="url(#p53791e70cf)" style="fill: #fffaff; fill-opacity: 0.117083"/>
   </g>
   <g id="patch_337">
    <path d="M 283.008433 358.014101 
L 213.917096 638.462346 
L 144.256674 595.192196 
z
" clip-path="url(#p53791e70cf)" style="fill: #000300; fill-opacity: 0.442216"/>
   </g>
   <g id="patch_338">
    <path d="M 128.23621 247.973632 
L 52.548466 249.46412 
L 431.310269 23.973321 
L 231.587621 11.989026 
L 87.634745 131.608877 
z
" clip-path="url(#p53791e70cf)" style="fill: #211a0b; fill-opacity: 0.696481"/>
   </g>
   <g id="patch_339">
    <path d="M 188.342086 520.493451 
L 57.717811 115.702922 
L 300.559117 529.555777 
z
" clip-path="url(#p53791e70cf)" style="fill-opacity: 0.121214"/>
   </g>
   <g id="patch_340">
    <path d="M 44.615485 427.658439 
L 217.044874 477.789081 
L 184.406115 196.099833 
L 44.615485 427.658439 
z
" clip-path="url(#p53791e70cf)" style="fill: none"/>
   </g>
   <g id="patch_341">
    <path d="M 215.784958 528.755884 
L 28.444195 294.209441 
L 220.520803 495.475079 
z
" clip-path="url(#p53791e70cf)" style="fill: #211908"/>
   </g>
   <g id="patch_342">
    <path d="M 203.411553 682.549166 
L 544.859999 92.670076 
L 406.60251 648.941034 
z
" clip-path="url(#p53791e70cf)" style="fill: #916438; fill-opacity: 0.350991"/>
   </g>
   <g id="patch_343">
    <path d="M 194.37197 457.464498 
L 112.617303 629.694538 
L 87.654563 216.158069 
z
" clip-path="url(#p53791e70cf)" style="fill: #26230d; fill-opacity: 0.792508"/>
   </g>
   <g id="patch_344">
    <path d="M 223.893211 535.07355 
L 83.966471 599.537267 
L 177.31627 21.738985 
L 165.111058 371.833067 
L 193.972999 663.475416 
z
" clip-path="url(#p53791e70cf)" style="fill: #121007; fill-opacity: 0.411818"/>
   </g>
   <g id="patch_345">
    <path d="M 540.237916 148.173111 
L 530.742855 450.533434 
L 533.40028 440.436392 
z
" clip-path="url(#p53791e70cf)" style="fill: #1e0000; fill-opacity: 0.374975"/>
   </g>
   <g id="patch_346">
    <path d="M 173.455647 671.220766 
L 197.790483 522.745547 
L 478.580533 360.622834 
L 511.39351 239.537258 
z
" clip-path="url(#p53791e70cf)" style="fill: #fdb67f; fill-opacity: 0.122752"/>
   </g>
   <g id="patch_347">
    <path d="M 229.042681 591.307592 
L 85.596226 546.579965 
L 244.399862 288.549378 
z
" clip-path="url(#p53791e70cf)" style="fill: #370000; fill-opacity: 0.145042"/>
   </g>
   <g id="patch_348">
    <path d="M 21.281974 407.951924 
L 10.113577 262.492383 
L 217.43697 102.567159 
L 92.314219 467.018484 
L 116.16327 51.327554 
z
" clip-path="url(#p53791e70cf)" style="fill: #27281b"/>
   </g>
   <g id="patch_349">
    <path d="M 364.497534 58.625154 
L 8.75267 543.413689 
L 465.949621 79.481457 
z
" clip-path="url(#p53791e70cf)" style="fill: #e8bfff; fill-opacity: 0.045508"/>
   </g>
   <g id="patch_350">
    <path d="M 531.679934 478.688709 
L 393.920266 191.839116 
L 259.19095 555.698269 
L 274.434182 178.564851 
L 557.896225 189.433156 
z
" clip-path="url(#p53791e70cf)" style="fill: #769768; fill-opacity: 0.24253"/>
   </g>
   <g id="patch_351">
    <path d="M 556.336742 148.760317 
L 575.612243 319.968421 
L 335.122988 229.662902 
z
" clip-path="url(#p53791e70cf)" style="fill: #ff9053; fill-opacity: 0.122347"/>
   </g>
   <g id="patch_352">
    <path d="M 363.415806 572.598415 
L 486.082838 353.180853 
L 543.210033 331.827175 
L 388.823422 138.062783 
L 286.045697 520.03146 
z
" clip-path="url(#p53791e70cf)" style="fill: #b8ffb7; fill-opacity: 0.035"/>
   </g>
   <g id="patch_353">
    <path d="M 473.449729 636.196688 
L 369.154066 668.722265 
L 354.398681 598.5983 
L 464.232152 466.620993 
z
" clip-path="url(#p53791e70cf)" style="fill: #68777e; fill-opacity: 0.061756"/>
   </g>
   <g id="patch_354">
    <path d="M 4.526626 385.885766 
L 147.573935 348.18465 
L 46.236741 56.949576 
z
" clip-path="url(#p53791e70cf)" style="fill: #2c2919; fill-opacity: 0.386244"/>
   </g>
   <g id="patch_355">
    <path d="M 89.386145 271.470995 
L 30.547674 464.274165 
L 361.730628 458.030705 
L 254.752769 198.87853 
L 469.075369 681.472524 
z
" clip-path="url(#p53791e70cf)" style="fill: #4b4503; fill-opacity: 0.048191"/>
   </g>
   <g id="patch_356">
    <path d="M 305.771431 584.164088 
L 306.694029 663.110685 
L 39.53418 84.734884 
L 145.645849 497.582662 
z
" clip-path="url(#p53791e70cf)" style="fill: #4e5e00; fill-opacity: 0.066806"/>
   </g>
   <g id="patch_357">
    <path d="M 35.848949 315.034304 
L 257.811315 614.913599 
L 255.914355 593.480592 
L 94.470045 87.155778 
z
" clip-path="url(#p53791e70cf)" style="fill: #231d0e; fill-opacity: 0.149735"/>
   </g>
   <g id="patch_358">
    <path d="M 574.820768 635.474316 
L 554.109224 19.296728 
L 500.915239 149.637601 
L 426.823163 89.710129 
z
" clip-path="url(#p53791e70cf)" style="fill: #1a140f; fill-opacity: 0.483238"/>
   </g>
   <g id="patch_359">
    <path d="M 229.252804 483.599264 
L 67.444336 275.038162 
L 6.993317 635.688056 
L 241.651987 46.817382 
L 95.100801 498.676285 
z
" clip-path="url(#p53791e70cf)" style="fill: #291e18; fill-opacity: 0.76203"/>
   </g>
   <g id="patch_360">
    <path d="M 418.573654 42.92743 
L 440.29682 384.471406 
L 182.980404 424.869796 
z
" clip-path="url(#p53791e70cf)" style="fill: #2f0019; fill-opacity: 0.095019"/>
   </g>
   <g id="patch_361">
    <path d="M 243.093766 265.255129 
L 462.74688 196.415191 
L 243.190106 264.464558 
L 366.67416 446.92629 
L 463.389333 280.719535 
z
" clip-path="url(#p53791e70cf)" style="fill: #c31500; fill-opacity: 0.077269"/>
   </g>
   <g id="patch_362">
    <path d="M 318.906945 580.260899 
L 408.948797 70.89562 
L 215.835267 555.471691 
L 395.749383 175.146889 
L 355.404305 149.531229 
z
" clip-path="url(#p53791e70cf)" style="fill: #424651; fill-opacity: 0.241686"/>
   </g>
   <g id="patch_363">
    <path d="M 122.834649 179.22758 
L 174.146757 670.534283 
L 88.840813 378.98519 
z
" clip-path="url(#p53791e70cf)" style="fill: #282115; fill-opacity: 0.836912"/>
   </g>
   <g id="patch_364">
    <path d="M 486.631094 143.157872 
L 499.209948 96.607767 
L 313.238375 291.307105 
L 564.865698 7.005454 
L 507.167254 612.983248 
z
" clip-path="url(#p53791e70cf)" style="fill: #1e1216; fill-opacity: 0.338474"/>
   </g>
   <g id="patch_365">
    <path d="M 369.158174 180.083448 
L 385.849936 591.178807 
L 455.580132 535.101426 
z
" clip-path="url(#p53791e70cf)" style="fill: #3c382c; fill-opacity: 0.506504"/>
   </g>
  </g>
 </g>
 <defs>
  <clipPath id="p53791e70cf">
   <rect x="0" y="0" width="576" height="682.56"/>
  </clipPath>
 </defs>
</svg>
