<?xml version="1.0" encoding="utf-8" standalone="no"?>
<!DOCTYPE svg PUBLIC "-//W3C//DTD SVG 1.1//EN"
  "http://www.w3.org/Graphics/SVG/1.1/DTD/svg11.dtd">
<svg xmlns:xlink="http://www.w3.org/1999/xlink" width="576pt" height="682.56pt" viewBox="0 0 576 682.56" xmlns="http://www.w3.org/2000/svg" version="1.1">
 <metadata>
  <rdf:RDF xmlns:dc="http://purl.org/dc/elements/1.1/" xmlns:cc="http://creativecommons.org/ns#" xmlns:rdf="http://www.w3.org/1999/02/22-rdf-syntax-ns#">
   <cc:Work>
    <dc:type rdf:resource="http://purl.org/dc/dcmitype/StillImage"/>
    <dc:date>2022-05-08T15:43:02.896613</dc:date>
    <dc:format>image/svg+xml</dc:format>
    <dc:creator>
     <cc:Agent>
      <dc:title>Matplotlib v3.5.2, https://matplotlib.org/</dc:title>
     </cc:Agent>
    </dc:creator>
   </cc:Work>
  </rdf:RDF>
 </metadata>
 <defs>
  <style type="text/css">*{stroke-linejoin: round; stroke-linecap: butt}</style>
 </defs>
 <g id="figure_1">
  <g id="patch_1">
   <path d="M 0 682.56 
L 576 682.56 
L 576 0 
L 0 0 
z
" style="fill: #ffffff"/>
  </g>
  <g id="axes_1">
   <g id="patch_2">
    <path d="M 0 682.56 
L 0 0 
L 576 0 
L 576 682.56 
z
" clip-path="url(#p08554c6aea)" style="fill: #808080"/>
   </g>
   <g id="patch_3">
    <path d="M 3.329294 50.684334 
L 210.793161 532.852977 
L 228.162674 107.0662 
L 400.175203 48.014735 
z
" clip-path="url(#p08554c6aea)" style="fill: #280011; fill-opacity: 0.818626"/>
   </g>
   <g id="patch_4">
    <path d="M 192.952869 458.058856 
L 81.270188 255.638463 
L 78.932463 620.851452 
L 241.376693 374.360976 
z
" clip-path="url(#p08554c6aea)" style="fill: #070000; fill-opacity: 0.390473"/>
   </g>
   <g id="patch_5">
    <path d="M 102.077247 352.913079 
L 264.219202 538.761637 
L 567.100012 660.779046 
L 255.876054 264.288184 
z
" clip-path="url(#p08554c6aea)" style="fill: #332b0a; fill-opacity: 0.861725"/>
   </g>
   <g id="patch_6">
    <path d="M 319.688007 497.215078 
L 105.620447 59.965011 
L 287.578703 659.813165 
z
" clip-path="url(#p08554c6aea)" style="fill: #d99868; fill-opacity: 0.290746"/>
   </g>
   <g id="patch_7">
    <path d="M 77.575687 314.139592 
L 160.015492 78.328416 
L 184.713886 568.667457 
z
" clip-path="url(#p08554c6aea)" style="fill: #112213; fill-opacity: 0.716916"/>
   </g>
   <g id="patch_8">
    <path d="M 364.753922 498.06069 
L 45.721396 177.891159 
L 148.879644 675.910599 
z
" clip-path="url(#p08554c6aea)" style="fill: #062300; fill-opacity: 0.798151"/>
   </g>
   <g id="patch_9">
    <path d="M 381.0404 358.602433 
L 568.689543 569.141521 
L 388.813087 593.988649 
z
" clip-path="url(#p08554c6aea)" style="fill: #404348; fill-opacity: 0.966935"/>
   </g>
   <g id="patch_10">
    <path d="M 333.366052 590.628895 
L 7.209607 474.428123 
L 29.564155 71.078963 
z
" clip-path="url(#p08554c6aea)" style="fill: #401611; fill-opacity: 0.67317"/>
   </g>
   <g id="patch_11">
    <path d="M 279.646733 207.764972 
L 396.638674 278.971031 
L 412.59021 661.884039 
L 546.945848 165.174559 
z
" clip-path="url(#p08554c6aea)" style="fill: #1d1d25; fill-opacity: 0.151818"/>
   </g>
   <g id="patch_12">
    <path d="M 94.940887 202.660268 
L 574.136854 360.078245 
L 447.079257 355.705977 
z
" clip-path="url(#p08554c6aea)" style="fill: #d6c374; fill-opacity: 0.005614"/>
   </g>
   <g id="patch_13">
    <path d="M 249.289924 284.292094 
L 254.919952 77.310148 
L 242.591573 21.964746 
z
" clip-path="url(#p08554c6aea)" style="fill: #282216; fill-opacity: 0.28468"/>
   </g>
   <g id="patch_14">
    <path d="M 314.9949 253.591844 
L 386.673234 169.618111 
L 177.487226 638.699058 
z
" clip-path="url(#p08554c6aea)" style="fill: #000a00; fill-opacity: 0.925183"/>
   </g>
   <g id="patch_15">
    <path d="M 75.1705 647.387874 
L 575.133803 27.320211 
L 507.132295 45.484157 
L 417.942135 318.643003 
z
" clip-path="url(#p08554c6aea)" style="fill: #170e00; fill-opacity: 0.837682"/>
   </g>
   <g id="patch_16">
    <path d="M 553.566072 461.211735 
L 272.903833 197.726566 
L 201.803023 223.372464 
L 208.304761 609.337503 
z
" clip-path="url(#p08554c6aea)" style="fill: #aa9963"/>
   </g>
   <g id="patch_17">
    <path d="M 169.143649 225.123893 
L 342.310493 251.827825 
L 87.679745 644.263592 
L 76.706818 24.153525 
z
" clip-path="url(#p08554c6aea)" style="fill: #0f1f20; fill-opacity: 0.64483"/>
   </g>
   <g id="patch_18">
    <path d="M 423.980423 656.805727 
L 246.614344 5.913186 
L 19.190447 78.78227 
z
" clip-path="url(#p08554c6aea)" style="fill: #2d2a00; fill-opacity: 0.542764"/>
   </g>
   <g id="patch_19">
    <path d="M 355.502204 510.595483 
L 410.095801 309.412806 
L 382.049258 481.096964 
L 461.930287 143.702355 
z
" clip-path="url(#p08554c6aea)" style="fill: #321b28; fill-opacity: 0.869444"/>
   </g>
   <g id="patch_20">
    <path d="M 210.461395 587.39722 
L 177.671825 209.637164 
L 515.577831 13.780542 
z
" clip-path="url(#p08554c6aea)" style="fill: #391810; fill-opacity: 0.676595"/>
   </g>
   <g id="patch_21">
    <path d="M 43.951309 574.670836 
L 132.034212 672.121562 
L 154.432606 77.892226 
z
" clip-path="url(#p08554c6aea)" style="fill: #453427; fill-opacity: 0.344739"/>
   </g>
   <g id="patch_22">
    <path d="M 260.982522 491.212999 
L 176.574337 240.388836 
L 526.149429 609.577338 
z
" clip-path="url(#p08554c6aea)" style="fill: #a5afff; fill-opacity: 0.238121"/>
   </g>
   <g id="patch_23">
    <path d="M 10.626133 677.204927 
L 131.738593 77.899975 
L 515.312571 197.671246 
z
" clip-path="url(#p08554c6aea)" style="fill: #7c8280; fill-opacity: 0.980146"/>
   </g>
   <g id="patch_24">
    <path d="M 27.739793 678.649188 
L 286.22075 657.377118 
L 131.6316 479.017104 
L 32.012175 33.994276 
z
" clip-path="url(#p08554c6aea)" style="fill: #381e0b; fill-opacity: 0.785291"/>
   </g>
   <g id="patch_25">
    <path d="M 31.390077 665.947023 
L 5.913022 373.485895 
L 74.735043 623.874934 
L 332.86748 96.043963 
z
" clip-path="url(#p08554c6aea)" style="fill: #001f00; fill-opacity: 0.486766"/>
   </g>
   <g id="patch_26">
    <path d="M 9.971455 530.374135 
L 147.221131 13.368724 
L 290.938727 372.997688 
z
" clip-path="url(#p08554c6aea)" style="fill: #173000; fill-opacity: 0.443814"/>
   </g>
   <g id="patch_27">
    <path d="M 91.509626 21.806907 
L 132.029483 169.877039 
L 354.380337 77.443149 
L 437.856487 537.296695 
L 401.829093 134.863968 
z
" clip-path="url(#p08554c6aea)" style="fill: #170938; fill-opacity: 0.256136"/>
   </g>
   <g id="patch_28">
    <path d="M 92.060481 431.736358 
L 120.382229 599.38585 
L 3.11746 645.073644 
z
" clip-path="url(#p08554c6aea)" style="fill: #201c23; fill-opacity: 0.739614"/>
   </g>
   <g id="patch_29">
    <path d="M 340.989373 59.377663 
L 466.925251 397.110621 
L 488.623469 389.581431 
z
" clip-path="url(#p08554c6aea)" style="fill: #adaf6c; fill-opacity: 0.464082"/>
   </g>
   <g id="patch_30">
    <path d="M 155.910275 58.608659 
L 383.32939 584.161737 
L 128.867849 392.782567 
L 150.738508 555.386382 
z
" clip-path="url(#p08554c6aea)" style="fill: #e79b9a; fill-opacity: 0.603504"/>
   </g>
   <g id="patch_31">
    <path d="M 417.894733 105.739376 
L 220.958357 335.606502 
L 472.084472 25.932605 
L 202.594321 200.932128 
z
" clip-path="url(#p08554c6aea)" style="fill: #a9a791; fill-opacity: 0.66285"/>
   </g>
   <g id="patch_32">
    <path d="M 283.008433 358.014101 
L 213.917096 638.462346 
L 144.256674 595.192196 
z
" clip-path="url(#p08554c6aea)" style="fill: #393847; fill-opacity: 0.504532"/>
   </g>
   <g id="patch_33">
    <path d="M 128.23621 247.973632 
L 431.310269 23.973321 
L 87.634745 131.608877 
L 247.966209 233.715828 
z
" clip-path="url(#p08554c6aea)" style="fill: #2b371e; fill-opacity: 0.375467"/>
   </g>
   <g id="patch_34">
    <path d="M 217.044874 477.789081 
L 184.406115 196.099833 
L 9.701537 150.113798 
z
" clip-path="url(#p08554c6aea)" style="fill: #1c2916; fill-opacity: 0.547791"/>
   </g>
   <g id="patch_35">
    <path d="M 203.411553 682.549166 
L 544.859999 92.670076 
L 406.60251 648.941034 
z
" clip-path="url(#p08554c6aea)" style="fill: #223d00; fill-opacity: 0.141658"/>
   </g>
   <g id="patch_36">
    <path d="M 194.37197 457.464498 
L 112.617303 629.694538 
L 87.654563 216.158069 
z
" clip-path="url(#p08554c6aea)" style="fill: #262118; fill-opacity: 0.920205"/>
   </g>
   <g id="patch_37">
    <path d="M 173.455647 671.220766 
L 197.790483 522.745547 
L 478.580533 360.622834 
L 511.39351 239.537258 
z
" clip-path="url(#p08554c6aea)" style="fill: #c5d34b; fill-opacity: 0.188166"/>
   </g>
   <g id="patch_38">
    <path d="M 229.042681 591.307592 
L 85.596226 546.579965 
L 244.399862 288.549378 
L 440.398684 1.565358 
z
" clip-path="url(#p08554c6aea)" style="fill: #000006; fill-opacity: 0.123669"/>
   </g>
   <g id="patch_39">
    <path d="M 363.415806 572.598415 
L 543.210033 331.827175 
L 388.823422 138.062783 
L 367.610148 599.415094 
z
" clip-path="url(#p08554c6aea)" style="fill: #685535; fill-opacity: 0.46556"/>
   </g>
   <g id="patch_40">
    <path d="M 89.386145 271.470995 
L 30.547674 464.274165 
L 361.730628 458.030705 
L 469.075369 681.472524 
z
" clip-path="url(#p08554c6aea)" style="fill: #3a2e0a; fill-opacity: 0.242375"/>
   </g>
   <g id="patch_41">
    <path d="M 305.771431 584.164088 
L 39.53418 84.734884 
L 145.645849 497.582662 
z
" clip-path="url(#p08554c6aea)" style="fill: #241806; fill-opacity: 0.514905"/>
   </g>
   <g id="patch_42">
    <path d="M 506.552993 490.602045 
L 500.915239 149.637601 
L 438.550771 169.210612 
L 28.578803 517.420549 
L 426.823163 89.710129 
z
" clip-path="url(#p08554c6aea)" style="fill: #44333c; fill-opacity: 0.167056"/>
   </g>
   <g id="patch_43">
    <path d="M 486.631094 143.157872 
L 499.209948 96.607767 
L 564.865698 7.005454 
L 507.167254 612.983248 
z
" clip-path="url(#p08554c6aea)" style="fill: #28261d; fill-opacity: 0.88215"/>
   </g>
   <g id="patch_44">
    <path d="M 369.158174 180.083448 
L 385.849936 591.178807 
L 455.580132 535.101426 
L 463.989979 677.995279 
z
" clip-path="url(#p08554c6aea)" style="fill: #473b29; fill-opacity: 0.871164"/>
   </g>
  </g>
 </g>
 <defs>
  <clipPath id="p08554c6aea">
   <rect x="0" y="0" width="576" height="682.56"/>
  </clipPath>
 </defs>
</svg>
