<?xml version="1.0" encoding="utf-8" standalone="no"?>
<!DOCTYPE svg PUBLIC "-//W3C//DTD SVG 1.1//EN"
  "http://www.w3.org/Graphics/SVG/1.1/DTD/svg11.dtd">
<svg xmlns:xlink="http://www.w3.org/1999/xlink" width="576pt" height="682.56pt" viewBox="0 0 576 682.56" xmlns="http://www.w3.org/2000/svg" version="1.1">
 <metadata>
  <rdf:RDF xmlns:dc="http://purl.org/dc/elements/1.1/" xmlns:cc="http://creativecommons.org/ns#" xmlns:rdf="http://www.w3.org/1999/02/22-rdf-syntax-ns#">
   <cc:Work>
    <dc:type rdf:resource="http://purl.org/dc/dcmitype/StillImage"/>
    <dc:date>2022-05-08T22:19:40.402203</dc:date>
    <dc:format>image/svg+xml</dc:format>
    <dc:creator>
     <cc:Agent>
      <dc:title>Matplotlib v3.5.2, https://matplotlib.org/</dc:title>
     </cc:Agent>
    </dc:creator>
   </cc:Work>
  </rdf:RDF>
 </metadata>
 <defs>
  <style type="text/css">*{stroke-linejoin: round; stroke-linecap: butt}</style>
 </defs>
 <g id="figure_1">
  <g id="patch_1">
   <path d="M 0 682.56 
L 576 682.56 
L 576 0 
L 0 0 
z
" style="fill: #ffffff"/>
  </g>
  <g id="axes_1">
   <g id="patch_2">
    <path d="M 0 682.56 
L 0 0 
L 576 0 
L 576 682.56 
z
" clip-path="url(#p90cb4e1d3d)" style="fill: #808080"/>
   </g>
   <g id="patch_3">
    <path d="M 561.91053 461.894819 
L 30.248103 660.473209 
L 66.181381 671.966927 
L 374.5717 425.026456 
L 311.927399 9.789122 
z
" clip-path="url(#p90cb4e1d3d)" style="fill: #19110b"/>
   </g>
   <g id="patch_4">
    <path d="M 283.339428 365.852619 
L 62.689579 207.86058 
L 416.594158 623.833372 
L 349.97368 318.98529 
L 97.06986 537.793607 
z
" clip-path="url(#p90cb4e1d3d)" style="fill: #771755; fill-opacity: 0.532568"/>
   </g>
   <g id="patch_5">
    <path d="M 133.986955 666.458782 
L 205.472998 501.621693 
L 570.219626 597.4268 
L 148.825346 532.791983 
z
" clip-path="url(#p90cb4e1d3d)" style="fill: #012100"/>
   </g>
   <g id="patch_6">
    <path d="M 571.781531 177.666884 
L 320.309087 624.067553 
L 572.392479 596.479798 
z
" clip-path="url(#p90cb4e1d3d)" style="fill: #231100; fill-opacity: 0.987027"/>
   </g>
   <g id="patch_7">
    <path d="M 463.247843 552.068 
L 45.347659 643.98665 
L 342.747304 394.214861 
z
" clip-path="url(#p90cb4e1d3d)" style="fill: #09400f; fill-opacity: 0.755223"/>
   </g>
   <g id="patch_8">
    <path d="M 198.778284 161.756476 
L 336.144075 98.738615 
L 149.543814 583.47041 
z
" clip-path="url(#p90cb4e1d3d)" style="fill: #471336; fill-opacity: 0.277907"/>
   </g>
   <g id="patch_9">
    <path d="M 370.653149 183.304488 
L 368.317683 667.141668 
L 437.613433 151.234784 
z
" clip-path="url(#p90cb4e1d3d)" style="fill: #313b37; fill-opacity: 0.719035"/>
   </g>
   <g id="patch_10">
    <path d="M 108.698232 360.008939 
L 375.561416 206.767214 
L 76.063879 672.004336 
z
" clip-path="url(#p90cb4e1d3d)" style="fill: #15160f; fill-opacity: 0.910592"/>
   </g>
   <g id="patch_11">
    <path d="M 248.144879 367.615843 
L 3.996196 483.0808 
L 6.033577 310.27576 
L 401.025568 594.855221 
z
" clip-path="url(#p90cb4e1d3d)" style="fill: #1e000f; fill-opacity: 0.930892"/>
   </g>
   <g id="patch_12">
    <path d="M 326.628761 657.390673 
L 2.724592 576.100205 
L 11.326448 431.341378 
L 166.818046 156.65154 
z
" clip-path="url(#p90cb4e1d3d)" style="fill: #110911"/>
   </g>
   <g id="patch_13">
    <path d="M 167.633039 375.224396 
L 548.018754 489.978507 
L 408.39739 634.086083 
L 147.988821 80.676613 
L 450.124131 321.531645 
z
" clip-path="url(#p90cb4e1d3d)" style="fill: #f3c388; fill-opacity: 0.775895"/>
   </g>
   <g id="patch_14">
    <path d="M 215.943055 623.095686 
L 538.34249 58.678398 
L 393.159712 370.63597 
L 52.088046 432.70253 
z
" clip-path="url(#p90cb4e1d3d)" style="fill: #504f3c; fill-opacity: 0.827233"/>
   </g>
   <g id="patch_15">
    <path d="M 82.674903 38.06796 
L 402.030768 476.586104 
L 447.805877 276.879253 
L 301.790127 528.698892 
L 167.78579 395.320554 
z
" clip-path="url(#p90cb4e1d3d)" style="fill: #ae054e; fill-opacity: 0.103836"/>
   </g>
   <g id="patch_16">
    <path d="M 287.754345 204.498324 
L 55.594847 435.485497 
L 489.488684 661.048177 
L 509.513246 2.887405 
z
" clip-path="url(#p90cb4e1d3d)" style="fill: #100500; fill-opacity: 0.944204"/>
   </g>
   <g id="patch_17">
    <path d="M 238.70773 557.2186 
L 211.643094 65.70662 
L 120.315746 658.451661 
L 86.810346 167.773384 
L 475.707234 635.806213 
z
" clip-path="url(#p90cb4e1d3d)" style="fill: #5f0083; fill-opacity: 0.966419"/>
   </g>
   <g id="patch_18">
    <path d="M 553.973323 455.481317 
L 295.773154 515.065616 
L 149.307813 616.487136 
L 505.317613 345.888531 
z
" clip-path="url(#p90cb4e1d3d)" style="fill: #525476; fill-opacity: 0.852713"/>
   </g>
   <g id="patch_19">
    <path d="M 415.280778 552.03169 
L 491.487497 11.603291 
L 460.42794 503.591171 
L 328.456396 55.333368 
L 385.01048 377.313983 
z
" clip-path="url(#p90cb4e1d3d)" style="fill: #3c002e; fill-opacity: 0.940358"/>
   </g>
   <g id="patch_20">
    <path d="M 3.329294 50.684334 
L 210.793161 532.852977 
L 228.162674 107.0662 
L 58.949321 153.312468 
L 400.175203 48.014735 
z
" clip-path="url(#p90cb4e1d3d)" style="fill: #250000"/>
   </g>
   <g id="patch_21">
    <path d="M 41.267067 474.232012 
L 349.886237 362.033837 
L 163.613928 595.30758 
L 341.881368 363.94353 
L 548.227864 592.250514 
z
" clip-path="url(#p90cb4e1d3d)" style="fill: #071924; fill-opacity: 0.784899"/>
   </g>
   <g id="patch_22">
    <path d="M 427.360848 637.703691 
L 240.502368 501.880392 
L 573.358469 168.466635 
L 320.016497 623.304818 
z
" clip-path="url(#p90cb4e1d3d)" style="fill: #0e1b04"/>
   </g>
   <g id="patch_23">
    <path d="M 451.51409 586.525186 
L 539.860677 39.665897 
L 24.043298 46.400663 
L 315.650914 598.544798 
L 131.300867 105.784161 
z
" clip-path="url(#p90cb4e1d3d)" style="fill: #f837cc; fill-opacity: 0.758038"/>
   </g>
   <g id="patch_24">
    <path d="M 265.456082 590.404871 
L 456.506683 207.480993 
L 496.399826 152.674267 
L 388.148154 23.387093 
z
" clip-path="url(#p90cb4e1d3d)" style="fill: #860721; fill-opacity: 0.803063"/>
   </g>
   <g id="patch_25">
    <path d="M 384.152356 653.953864 
L 391.324709 194.658798 
L 445.851659 662.659464 
L 24.920752 199.624487 
L 139.381954 298.948298 
z
" clip-path="url(#p90cb4e1d3d)" style="fill: #1e1636; fill-opacity: 0.282131"/>
   </g>
   <g id="patch_26">
    <path d="M 173.20916 382.242644 
L 506.755463 458.598922 
L 263.220997 156.157082 
z
" clip-path="url(#p90cb4e1d3d)" style="fill: #d87782; fill-opacity: 0.597926"/>
   </g>
   <g id="patch_27">
    <path d="M 83.584979 181.183934 
L 193.795993 212.666263 
L 200.780224 234.258392 
z
" clip-path="url(#p90cb4e1d3d)" style="fill: #657553; fill-opacity: 0.741943"/>
   </g>
   <g id="patch_28">
    <path d="M 481.93962 655.714649 
L 516.644997 680.4644 
L 227.313384 347.45127 
L 447.396784 2.055388 
z
" clip-path="url(#p90cb4e1d3d)" style="fill: #785972"/>
   </g>
   <g id="patch_29">
    <path d="M 414.130226 678.606939 
L 71.457045 246.55649 
L 86.127833 61.109114 
L 171.954396 398.191814 
z
" clip-path="url(#p90cb4e1d3d)" style="fill: #466010"/>
   </g>
   <g id="patch_30">
    <path d="M 67.704646 628.516732 
L 306.969104 280.215167 
L 520.44953 34.478568 
L 233.687901 38.345985 
L 471.976067 484.008184 
z
" clip-path="url(#p90cb4e1d3d)" style="fill: #793b0b; fill-opacity: 0.971823"/>
   </g>
   <g id="patch_31">
    <path d="M 451.272151 280.145544 
L 512.275204 53.051852 
L 84.657163 363.51218 
z
" clip-path="url(#p90cb4e1d3d)" style="fill: #cd269c; fill-opacity: 0.828977"/>
   </g>
   <g id="patch_32">
    <path d="M 193.328331 260.267928 
L 542.060825 146.639114 
L 142.519244 418.827305 
L 255.539122 227.874528 
z
" clip-path="url(#p90cb4e1d3d)" style="fill: #384a77; fill-opacity: 0.744178"/>
   </g>
   <g id="patch_33">
    <path d="M 526.477017 579.902042 
L 389.797712 110.874791 
L 555.478759 161.992689 
z
" clip-path="url(#p90cb4e1d3d)" style="fill: #ffffff"/>
   </g>
   <g id="patch_34">
    <path d="M 78.682497 304.408571 
L 571.903203 135.403859 
L 571.664974 382.445494 
L 149.675442 162.106445 
L 564.967702 178.853048 
z
" clip-path="url(#p90cb4e1d3d)" style="fill: #161702"/>
   </g>
   <g id="patch_35">
    <path d="M 192.952869 458.058856 
L 13.230792 216.269639 
L 78.932463 620.851452 
L 241.376693 374.360976 
z
" clip-path="url(#p90cb4e1d3d)" style="fill: #f46743; fill-opacity: 0.996278"/>
   </g>
   <g id="patch_36">
    <path d="M 483.064638 115.544322 
L 222.732513 680.83494 
L 387.009378 560.761976 
L 334.432877 260.181313 
z
" clip-path="url(#p90cb4e1d3d)" style="fill: #ffe190; fill-opacity: 0.406233"/>
   </g>
   <g id="patch_37">
    <path d="M 478.661126 253.616031 
L 2.312147 547.727837 
L 472.295745 226.151727 
L 301.640359 176.417571 
L 70.151684 38.916381 
z
" clip-path="url(#p90cb4e1d3d)" style="fill: #824d68; fill-opacity: 0.320878"/>
   </g>
   <g id="patch_38">
    <path d="M 291.115246 282.025784 
L 282.448885 58.016294 
L 450.138126 493.960536 
z
" clip-path="url(#p90cb4e1d3d)" style="fill: #392a12; fill-opacity: 0.858167"/>
   </g>
   <g id="patch_39">
    <path d="M 509.599557 189.721743 
L 178.078429 146.541799 
L 564.923912 671.04443 
L 119.897184 448.768283 
z
" clip-path="url(#p90cb4e1d3d)" style="fill: #000300; fill-opacity: 0.868808"/>
   </g>
   <g id="patch_40">
    <path d="M 308.023719 158.199606 
L 102.077247 352.913079 
L 312.365296 429.785271 
L 264.219202 538.761637 
L 567.100012 660.779046 
z
" clip-path="url(#p90cb4e1d3d)" style="fill: #111228; fill-opacity: 0.885478"/>
   </g>
   <g id="patch_41">
    <path d="M 564.405001 224.104986 
L 14.762497 3.032418 
L 284.14936 179.740775 
z
" clip-path="url(#p90cb4e1d3d)" style="fill: #15010c; fill-opacity: 0.853219"/>
   </g>
   <g id="patch_42">
    <path d="M 507.877545 283.587255 
L 421.332179 284.185448 
L 575.754381 470.762312 
z
" clip-path="url(#p90cb4e1d3d)" style="fill: #281f0e; fill-opacity: 0.917191"/>
   </g>
   <g id="patch_43">
    <path d="M 430.485009 608.400141 
L 575.774781 305.200926 
L 267.337591 128.835776 
L 506.643975 5.33767 
z
" clip-path="url(#p90cb4e1d3d)" style="fill: #120d00; fill-opacity: 0.913691"/>
   </g>
   <g id="patch_44">
    <path d="M 353.924753 435.857389 
L 75.493053 21.321751 
L 57.091027 189.660984 
L 262.064028 286.102335 
z
" clip-path="url(#p90cb4e1d3d)" style="fill: #382521; fill-opacity: 0.078855"/>
   </g>
   <g id="patch_45">
    <path d="M 327.856977 493.545735 
L 490.692228 140.543942 
L 410.652312 94.643737 
z
" clip-path="url(#p90cb4e1d3d)" style="fill: #031679; fill-opacity: 0.203566"/>
   </g>
   <g id="patch_46">
    <path d="M 509.087391 504.618861 
L 108.676947 559.473653 
L 355.589457 651.10226 
z
" clip-path="url(#p90cb4e1d3d)" style="fill: #94f438; fill-opacity: 0.66267"/>
   </g>
   <g id="patch_47">
    <path d="M 237.129164 58.566472 
L 570.834292 153.808982 
L 568.265025 287.481559 
L 548.391373 583.73613 
z
" clip-path="url(#p90cb4e1d3d)" style="fill: #17399b; fill-opacity: 0.051948"/>
   </g>
   <g id="patch_48">
    <path d="M 73.226862 25.057624 
L 97.067686 557.40465 
L 258.761573 43.876218 
L 310.484961 597.352988 
L 85.887078 670.420005 
z
" clip-path="url(#p90cb4e1d3d)" style="fill: #0a0522; fill-opacity: 0.778146"/>
   </g>
   <g id="patch_49">
    <path d="M 554.645448 207.343332 
L 429.045568 218.301931 
L 11.53737 364.570777 
L 22.660301 263.869899 
L 322.101485 467.585687 
z
" clip-path="url(#p90cb4e1d3d)" style="fill: #000f00; fill-opacity: 0.880111"/>
   </g>
   <g id="patch_50">
    <path d="M 455.082595 660.460604 
L 126.552638 141.569822 
L 168.542147 101.154494 
L 143.664021 98.397965 
L 475.95137 2.816278 
z
" clip-path="url(#p90cb4e1d3d)" style="fill: #190b00"/>
   </g>
   <g id="patch_51">
    <path d="M 550.870972 663.862582 
L 91.039735 175.961145 
L 475.30318 550.22154 
z
" clip-path="url(#p90cb4e1d3d)" style="fill: #2f0045; fill-opacity: 0.8317"/>
   </g>
   <g id="patch_52">
    <path d="M 430.099817 304.261746 
L 1.69306 55.107289 
L 0.846497 471.319189 
z
" clip-path="url(#p90cb4e1d3d)" style="fill: #211300; fill-opacity: 0.92132"/>
   </g>
   <g id="patch_53">
    <path d="M 512.815127 677.695383 
L 527.544743 651.058152 
L 254.70788 51.528224 
z
" clip-path="url(#p90cb4e1d3d)" style="fill: #0e0000; fill-opacity: 0.871019"/>
   </g>
   <g id="patch_54">
    <path d="M 4.812228 17.624394 
L 4.870497 601.302531 
L 387.010119 337.197227 
L 74.832085 432.476178 
z
" clip-path="url(#p90cb4e1d3d)" style="fill: #1a1c0f"/>
   </g>
   <g id="patch_55">
    <path d="M 145.972558 228.051946 
L 60.435232 97.959049 
L 575.156296 11.893851 
L 524.806917 232.097142 
z
" clip-path="url(#p90cb4e1d3d)" style="fill: #150f00; fill-opacity: 0.962972"/>
   </g>
   <g id="patch_56">
    <path d="M 11.738007 669.958417 
L 253.678145 252.701717 
L 249.355794 280.782213 
L 415.072011 265.297141 
L 32.208292 353.490667 
z
" clip-path="url(#p90cb4e1d3d)" style="fill: #350008; fill-opacity: 0.89619"/>
   </g>
   <g id="patch_57">
    <path d="M 276.934157 455.43601 
L 12.493645 23.531615 
L 8.47815 605.307903 
L 548.008945 402.471575 
z
" clip-path="url(#p90cb4e1d3d)" style="fill: #231a00"/>
   </g>
   <g id="patch_58">
    <path d="M 415.108419 385.65138 
L 71.219012 257.172793 
L 39.204439 66.378086 
z
" clip-path="url(#p90cb4e1d3d)" style="fill: #9904f2"/>
   </g>
   <g id="patch_59">
    <path d="M 46.96149 299.664768 
L 243.024244 155.857265 
L 9.66891 407.440826 
L 113.762819 196.714866 
L 46.96149 299.664768 
z
" clip-path="url(#p90cb4e1d3d)" style="fill: none"/>
   </g>
   <g id="patch_60">
    <path d="M 14.985931 441.153308 
L 105.436176 191.976497 
L 531.205951 396.368906 
L 1.687418 617.517669 
z
" clip-path="url(#p90cb4e1d3d)" style="fill: #181801"/>
   </g>
   <g id="patch_61">
    <path d="M 317.831928 200.02534 
L 121.757394 433.718108 
L 89.391821 55.153226 
L 402.345734 478.435676 
z
" clip-path="url(#p90cb4e1d3d)" style="fill: #ee68ff; fill-opacity: 0.537741"/>
   </g>
   <g id="patch_62">
    <path d="M 209.317733 143.951149 
L 36.546973 402.014852 
L 390.273409 164.114293 
L 546.713451 112.775762 
L 490.060626 1.143774 
z
" clip-path="url(#p90cb4e1d3d)" style="fill: #160000; fill-opacity: 0.850302"/>
   </g>
   <g id="patch_63">
    <path d="M 138.749026 229.896305 
L 484.422004 577.433134 
L 229.757633 664.530589 
z
" clip-path="url(#p90cb4e1d3d)" style="fill: #f5ffb0; fill-opacity: 0.56696"/>
   </g>
   <g id="patch_64">
    <path d="M 261.842384 82.748994 
L 0.04406 331.739771 
L 571.544531 633.800166 
L 340.099041 662.364011 
z
" clip-path="url(#p90cb4e1d3d)" style="fill: #180a05; fill-opacity: 0.787533"/>
   </g>
   <g id="patch_65">
    <path d="M 209.398559 336.751302 
L 147.262705 156.004014 
L 164.132749 658.426851 
L 443.859423 578.913001 
z
" clip-path="url(#p90cb4e1d3d)" style="fill: #7d3709; fill-opacity: 0.904966"/>
   </g>
   <g id="patch_66">
    <path d="M 423.235546 646.936449 
L 194.856033 252.114201 
L 315.146274 41.586931 
z
" clip-path="url(#p90cb4e1d3d)" style="fill: #c31c00; fill-opacity: 0.486535"/>
   </g>
   <g id="patch_67">
    <path d="M 153.7359 586.584195 
L 336.942313 335.569529 
L 417.717551 515.837355 
L 193.21654 471.200707 
z
" clip-path="url(#p90cb4e1d3d)" style="fill: #4e001e; fill-opacity: 0.607775"/>
   </g>
   <g id="patch_68">
    <path d="M 40.013508 485.308039 
L 154.318533 310.550297 
L 153.782328 28.359803 
L 115.09609 9.011993 
z
" clip-path="url(#p90cb4e1d3d)" style="fill: #5e0019"/>
   </g>
   <g id="patch_69">
    <path d="M 246.542442 648.704324 
L 514.698098 679.192361 
L 397.801927 486.21514 
z
" clip-path="url(#p90cb4e1d3d)" style="fill: #323e2b; fill-opacity: 0.990736"/>
   </g>
   <g id="patch_70">
    <path d="M 298.009851 505.851369 
L 310.471686 2.543816 
L 510.811616 15.594735 
z
" clip-path="url(#p90cb4e1d3d)" style="fill: #1e2b07; fill-opacity: 0.530038"/>
   </g>
   <g id="patch_71">
    <path d="M 49.551925 68.714406 
L 566.243912 569.131548 
L 534.34883 559.764753 
z
" clip-path="url(#p90cb4e1d3d)" style="fill: #ad1200; fill-opacity: 0.640109"/>
   </g>
   <g id="patch_72">
    <path d="M 350.898699 55.871707 
L 572.00925 65.958495 
L 494.498136 651.065713 
L 198.374245 181.605502 
z
" clip-path="url(#p90cb4e1d3d)" style="fill: #100d00; fill-opacity: 0.916236"/>
   </g>
   <g id="patch_73">
    <path d="M 283.061029 403.271331 
L 146.37678 44.496168 
L 281.534168 6.323699 
L 107.224088 260.249152 
L 252.073268 602.836955 
z
" clip-path="url(#p90cb4e1d3d)" style="fill: #95ffff; fill-opacity: 0.561185"/>
   </g>
   <g id="patch_74">
    <path d="M 53.172527 127.670843 
L 40.22905 137.985174 
L 69.504166 109.408196 
z
" clip-path="url(#p90cb4e1d3d)" style="fill: #8c6d76; fill-opacity: 0.71172"/>
   </g>
   <g id="patch_75">
    <path d="M 1.428556 135.366928 
L 412.654079 13.914429 
L 396.607129 663.036967 
L 12.928885 220.473036 
z
" clip-path="url(#p90cb4e1d3d)" style="fill: #302121; fill-opacity: 0.852373"/>
   </g>
   <g id="patch_76">
    <path d="M 482.876377 156.826708 
L 250.931595 326.058071 
L 167.283362 390.045295 
L 87.326276 444.504934 
z
" clip-path="url(#p90cb4e1d3d)" style="fill: #ff0099; fill-opacity: 0.853259"/>
   </g>
   <g id="patch_77">
    <path d="M 457.455672 596.498398 
L 249.311597 61.942573 
L 84.206377 91.992641 
L 208.093258 457.56265 
L 101.20907 583.314099 
z
" clip-path="url(#p90cb4e1d3d)" style="fill: #00005e; fill-opacity: 0.333639"/>
   </g>
   <g id="patch_78">
    <path d="M 317.412729 13.570801 
L 309.638788 290.058596 
L 45.23892 100.04568 
L 486.496508 390.3439 
L 350.728399 208.876003 
z
" clip-path="url(#p90cb4e1d3d)" style="fill: #556d8d; fill-opacity: 0.477972"/>
   </g>
   <g id="patch_79">
    <path d="M 460.480697 254.4889 
L 142.342337 140.32069 
L 407.558859 21.7329 
z
" clip-path="url(#p90cb4e1d3d)" style="fill: #250300; fill-opacity: 0.666572"/>
   </g>
   <g id="patch_80">
    <path d="M 110.311694 299.277042 
L 74.056538 459.453047 
L 453.189411 496.314262 
L 95.031557 344.363759 
z
" clip-path="url(#p90cb4e1d3d)" style="fill: #ffc41d; fill-opacity: 0.467889"/>
   </g>
   <g id="patch_81">
    <path d="M 77.575687 314.139592 
L 455.066015 3.391619 
L 255.85231 0.040495 
L 8.801087 75.463122 
L 529.929749 154.561322 
z
" clip-path="url(#p90cb4e1d3d)" style="fill: #1b0e00; fill-opacity: 0.951666"/>
   </g>
   <g id="patch_82">
    <path d="M 28.772312 225.831177 
L 572.776784 670.8838 
L 511.132871 12.800482 
L 323.283691 624.119468 
z
" clip-path="url(#p90cb4e1d3d)" style="fill: #271504; fill-opacity: 0.776367"/>
   </g>
   <g id="patch_83">
    <path d="M 508.521777 406.72042 
L 162.180818 641.931931 
L 455.653776 677.948354 
L 473.850376 472.663934 
z
" clip-path="url(#p90cb4e1d3d)" style="fill: #6f6b54"/>
   </g>
   <g id="patch_84">
    <path d="M 470.16091 232.984113 
L 151.74627 103.181154 
L 27.561759 603.976797 
z
" clip-path="url(#p90cb4e1d3d)" style="fill: #1c3285; fill-opacity: 0.833087"/>
   </g>
   <g id="patch_85">
    <path d="M 416.942815 434.167129 
L 452.980545 414.131376 
L 296.424223 622.622833 
L 424.582394 680.067384 
L 48.344279 199.67528 
z
" clip-path="url(#p90cb4e1d3d)" style="fill: #6d6348; fill-opacity: 0.733169"/>
   </g>
   <g id="patch_86">
    <path d="M 186.772521 665.220542 
L 360.016997 122.60608 
L 262.621409 647.247558 
z
" clip-path="url(#p90cb4e1d3d)" style="fill: #867846; fill-opacity: 0.297351"/>
   </g>
   <g id="patch_87">
    <path d="M 514.250548 478.983911 
L 101.226441 359.305357 
L 33.034341 643.167305 
L 114.018231 96.482974 
L 199.156701 16.014365 
z
" clip-path="url(#p90cb4e1d3d)" style="fill: #da05b2; fill-opacity: 0.129237"/>
   </g>
   <g id="patch_88">
    <path d="M 560.100999 680.55793 
L 126.296715 615.526933 
L 530.733082 668.021589 
L 385.366496 331.845179 
z
" clip-path="url(#p90cb4e1d3d)" style="fill: #26280c; fill-opacity: 0.882933"/>
   </g>
   <g id="patch_89">
    <path d="M 330.739856 386.177075 
L 148.592109 451.498573 
L 355.897916 628.866082 
z
" clip-path="url(#p90cb4e1d3d)" style="fill: #d9e9b8; fill-opacity: 0.18467"/>
   </g>
   <g id="patch_90">
    <path d="M 113.831352 101.316564 
L 488.260594 422.77975 
L 340.976932 78.365179 
z
" clip-path="url(#p90cb4e1d3d)" style="fill: #89cced; fill-opacity: 0.952607"/>
   </g>
   <g id="patch_91">
    <path d="M 435.530231 509.268548 
L 446.571665 26.341404 
L 402.439511 0.932009 
L 194.668645 93.255361 
L 10.03422 438.659976 
z
" clip-path="url(#p90cb4e1d3d)" style="fill: #291912; fill-opacity: 0.804176"/>
   </g>
   <g id="patch_92">
    <path d="M 31.043168 17.03449 
L 404.733102 113.559946 
L 297.244975 409.502233 
z
" clip-path="url(#p90cb4e1d3d)" style="fill: #292500; fill-opacity: 0.933359"/>
   </g>
   <g id="patch_93">
    <path d="M 481.863194 61.733513 
L 168.485266 336.629025 
L 377.275606 558.255992 
z
" clip-path="url(#p90cb4e1d3d)" style="fill: #424d09; fill-opacity: 0.421304"/>
   </g>
   <g id="patch_94">
    <path d="M 364.753922 498.06069 
L 45.721396 177.891159 
L 148.879644 675.910599 
z
" clip-path="url(#p90cb4e1d3d)" style="fill: #000201; fill-opacity: 0.960272"/>
   </g>
   <g id="patch_95">
    <path d="M 522.013664 396.106794 
L 461.310569 617.750071 
L 536.931411 94.255097 
L 444.931585 225.389477 
z
" clip-path="url(#p90cb4e1d3d)" style="fill: #baccf3; fill-opacity: 0.870753"/>
   </g>
   <g id="patch_96">
    <path d="M 92.777491 681.695218 
L 565.685374 65.939051 
L 50.79395 117.356774 
L 41.020831 442.341192 
z
" clip-path="url(#p90cb4e1d3d)" style="fill: #180b12"/>
   </g>
   <g id="patch_97">
    <path d="M 67.975417 323.542936 
L 497.49643 482.481215 
L 403.027182 21.285534 
z
" clip-path="url(#p90cb4e1d3d)" style="fill: #440c0d; fill-opacity: 0.23491"/>
   </g>
   <g id="patch_98">
    <path d="M 376.461174 481.967313 
L 13.364274 663.793244 
L 559.526626 6.802434 
z
" clip-path="url(#p90cb4e1d3d)" style="fill: #635838; fill-opacity: 0.646557"/>
   </g>
   <g id="patch_99">
    <path d="M 45.149932 372.679551 
L 381.0404 358.602433 
L 568.689543 569.141521 
L 388.813087 593.988649 
z
" clip-path="url(#p90cb4e1d3d)" style="fill: #1c0e10; fill-opacity: 0.920918"/>
   </g>
   <g id="patch_100">
    <path d="M 557.296224 311.894433 
L 65.334489 108.006924 
L 26.394761 661.611191 
L 319.501276 565.138307 
L 94.901692 130.888646 
z
" clip-path="url(#p90cb4e1d3d)" style="fill: #070025; fill-opacity: 0.917419"/>
   </g>
   <g id="patch_101">
    <path d="M 333.366052 590.628895 
L 7.209607 474.428123 
L 29.564155 71.078963 
z
" clip-path="url(#p90cb4e1d3d)" style="fill: #1b3300; fill-opacity: 0.947853"/>
   </g>
   <g id="patch_102">
    <path d="M 128.940404 656.176033 
L 33.912158 62.155608 
L 228.491149 229.935637 
L 345.49636 307.080342 
z
" clip-path="url(#p90cb4e1d3d)" style="fill: #a9baf3; fill-opacity: 0.819762"/>
   </g>
   <g id="patch_103">
    <path d="M 25.917309 579.112416 
L 65.074842 561.581829 
L 267.353697 12.729271 
z
" clip-path="url(#p90cb4e1d3d)" style="fill: #431144; fill-opacity: 0.622304"/>
   </g>
   <g id="patch_104">
    <path d="M 281.3714 112.655924 
L 449.688911 567.682038 
L 327.562064 315.982164 
L 378.774009 509.965519 
z
" clip-path="url(#p90cb4e1d3d)" style="fill: #792aff"/>
   </g>
   <g id="patch_105">
    <path d="M 571.392313 586.834225 
L 549.730511 615.728615 
L 378.10264 375.621371 
L 370.563911 575.642437 
z
" clip-path="url(#p90cb4e1d3d)" style="fill: #1a1112; fill-opacity: 0.664636"/>
   </g>
   <g id="patch_106">
    <path d="M 202.296342 482.160285 
L 421.093512 342.178871 
L 444.073141 37.045832 
L 239.039941 590.822034 
z
" clip-path="url(#p90cb4e1d3d)" style="fill: #391b03; fill-opacity: 0.632096"/>
   </g>
   <g id="patch_107">
    <path d="M 266.331834 17.6198 
L 66.28748 112.684876 
L 280.262774 298.03593 
L 266.331834 17.6198 
z
" clip-path="url(#p90cb4e1d3d)" style="fill: none"/>
   </g>
   <g id="patch_108">
    <path d="M 450.837185 626.248567 
L 529.082191 449.923111 
L 346.673921 195.436857 
L 522.414996 13.755747 
L 244.16229 136.754755 
z
" clip-path="url(#p90cb4e1d3d)" style="fill: #5b878c; fill-opacity: 0.871467"/>
   </g>
   <g id="patch_109">
    <path d="M 237.295046 116.786994 
L 184.609694 105.217625 
L 489.456326 493.163143 
L 465.247326 38.256769 
L 128.577889 442.479111 
z
" clip-path="url(#p90cb4e1d3d)" style="fill: #ffff65"/>
   </g>
   <g id="patch_110">
    <path d="M 161.570267 290.318806 
L 260.089742 417.599373 
L 467.528799 282.364856 
L 501.098013 122.163758 
z
" clip-path="url(#p90cb4e1d3d)" style="fill: #1d1005; fill-opacity: 0.29946"/>
   </g>
   <g id="patch_111">
    <path d="M 332.590155 271.267845 
L 349.819634 536.889372 
L 62.300688 57.676427 
z
" clip-path="url(#p90cb4e1d3d)" style="fill: #edc84a; fill-opacity: 0.733021"/>
   </g>
   <g id="patch_112">
    <path d="M 68.197529 87.815658 
L 548.772253 145.812691 
L 181.124692 206.950611 
L 412.251493 323.831187 
z
" clip-path="url(#p90cb4e1d3d)" style="fill: #8f4458; fill-opacity: 0.700901"/>
   </g>
   <g id="patch_113">
    <path d="M 182.025102 175.475568 
L 519.333763 282.686377 
L 520.673969 304.095947 
L 179.032646 366.087095 
L 323.902398 481.609525 
z
" clip-path="url(#p90cb4e1d3d)" style="fill: #1ef806; fill-opacity: 0.961427"/>
   </g>
   <g id="patch_114">
    <path d="M 115.944509 397.621001 
L 73.621968 215.163916 
L 73.841304 192.901511 
L 485.162311 364.540657 
L 392.067972 242.743479 
L 115.944509 397.621001 
z
" clip-path="url(#p90cb4e1d3d)" style="fill: none"/>
   </g>
   <g id="patch_115">
    <path d="M 338.839552 327.706011 
L 210.039616 66.471433 
L 238.036163 608.784921 
L 213.492304 322.892722 
z
" clip-path="url(#p90cb4e1d3d)" style="fill: #1d0157; fill-opacity: 0.314577"/>
   </g>
   <g id="patch_116">
    <path d="M 414.242892 370.751765 
L 298.493596 640.117451 
L 26.657549 72.20536 
L 91.630355 321.273208 
L 563.76995 58.648106 
z
" clip-path="url(#p90cb4e1d3d)" style="fill: #3b2800; fill-opacity: 0.858923"/>
   </g>
   <g id="patch_117">
    <path d="M 145.452501 65.786837 
L 108.060043 22.304302 
L 130.366775 6.549397 
L 466.653544 155.761102 
L 226.244101 461.467979 
z
" clip-path="url(#p90cb4e1d3d)" style="fill: #093d5a; fill-opacity: 0.480191"/>
   </g>
   <g id="patch_118">
    <path d="M 546.150169 484.060776 
L 472.464326 527.434544 
L 20.625701 630.813895 
L 169.461674 53.945896 
L 354.874911 113.774642 
z
" clip-path="url(#p90cb4e1d3d)" style="fill: #cba598; fill-opacity: 0.766274"/>
   </g>
   <g id="patch_119">
    <path d="M 450.308242 396.53848 
L 568.74524 80.435097 
L 507.156262 78.858891 
L 298.625268 391.927145 
L 354.427028 330.422106 
z
" clip-path="url(#p90cb4e1d3d)" style="fill: #291c06"/>
   </g>
   <g id="patch_120">
    <path d="M 356.812273 560.473804 
L 128.100071 522.309794 
L 76.330403 429.300295 
L 19.229401 224.66268 
L 573.939178 433.413082 
z
" clip-path="url(#p90cb4e1d3d)" style="fill: #533036; fill-opacity: 0.232139"/>
   </g>
   <g id="patch_121">
    <path d="M 314.9949 253.591844 
L 386.673234 169.618111 
L 9.082824 609.342067 
L 56.735909 666.196901 
L 177.487226 638.699058 
z
" clip-path="url(#p90cb4e1d3d)" style="fill: #132812; fill-opacity: 0.858665"/>
   </g>
   <g id="patch_122">
    <path d="M 430.177151 617.678373 
L 574.25559 478.095935 
L 112.33766 336.816498 
L 493.828849 249.24504 
z
" clip-path="url(#p90cb4e1d3d)" style="fill: #e4ffeb; fill-opacity: 0.289868"/>
   </g>
   <g id="patch_123">
    <path d="M 404.595117 270.742688 
L 559.01532 133.978618 
L 95.934226 226.994435 
z
" clip-path="url(#p90cb4e1d3d)" style="fill: #0a1011; fill-opacity: 0.996358"/>
   </g>
   <g id="patch_124">
    <path d="M 4.817174 285.650544 
L 443.057994 390.38343 
L 168.735945 64.588251 
L 35.385686 146.926012 
z
" clip-path="url(#p90cb4e1d3d)" style="fill: #20270d; fill-opacity: 0.505698"/>
   </g>
   <g id="patch_125">
    <path d="M 302.339542 500.41579 
L 44.897321 1.021644 
L 487.6588 431.700747 
L 394.627641 204.134658 
z
" clip-path="url(#p90cb4e1d3d)" style="fill: #70550b; fill-opacity: 0.874356"/>
   </g>
   <g id="patch_126">
    <path d="M 165.215264 46.149445 
L 484.07374 649.203772 
L 158.091483 399.136709 
z
" clip-path="url(#p90cb4e1d3d)" style="fill: #df9b1a; fill-opacity: 0.581261"/>
   </g>
   <g id="patch_127">
    <path d="M 245.204049 573.183069 
L 153.621761 634.464628 
L 35.201455 226.334454 
L 220.937515 629.084883 
z
" clip-path="url(#p90cb4e1d3d)" style="fill: #863d8e; fill-opacity: 0.779158"/>
   </g>
   <g id="patch_128">
    <path d="M 538.914623 3.322791 
L 14.988879 62.033445 
L 27.079854 92.725317 
z
" clip-path="url(#p90cb4e1d3d)" style="fill: #1b0700"/>
   </g>
   <g id="patch_129">
    <path d="M 165.593891 324.57583 
L 94.860709 305.434467 
L 310.836314 607.22628 
z
" clip-path="url(#p90cb4e1d3d)" style="fill: #7c7e16; fill-opacity: 0.966366"/>
   </g>
   <g id="patch_130">
    <path d="M 1.786152 2.662528 
L 37.335778 588.779839 
L 75.1705 647.387874 
L 327.406097 116.333999 
L 575.133803 27.320211 
z
" clip-path="url(#p90cb4e1d3d)" style="fill: #242510; fill-opacity: 0.992344"/>
   </g>
   <g id="patch_131">
    <path d="M 479.012291 241.840049 
L 294.644843 559.531814 
L 386.493072 184.71421 
z
" clip-path="url(#p90cb4e1d3d)" style="fill: #89c7ba; fill-opacity: 0.963226"/>
   </g>
   <g id="patch_132">
    <path d="M 521.983447 678.284818 
L 165.491098 355.905881 
L 506.021758 616.128234 
L 382.323947 54.941556 
z
" clip-path="url(#p90cb4e1d3d)" style="fill: #bdf3d9; fill-opacity: 0.034013"/>
   </g>
   <g id="patch_133">
    <path d="M 553.566072 461.211735 
L 272.903833 197.726566 
L 201.803023 223.372464 
L 208.304761 609.337503 
z
" clip-path="url(#p90cb4e1d3d)" style="fill: #b6a76d; fill-opacity: 0.538842"/>
   </g>
   <g id="patch_134">
    <path d="M 445.653037 464.349779 
L 564.372856 681.918096 
L 14.837676 296.670401 
L 101.486821 345.676545 
z
" clip-path="url(#p90cb4e1d3d)" style="fill: #090706; fill-opacity: 0.14008"/>
   </g>
   <g id="patch_135">
    <path d="M 32.95131 501.248938 
L 207.36036 27.875559 
L 230.907571 54.8124 
L 486.202059 594.417347 
z
" clip-path="url(#p90cb4e1d3d)" style="fill: #202e08; fill-opacity: 0.900663"/>
   </g>
   <g id="patch_136">
    <path d="M 169.143649 225.123893 
L 70.809139 246.099867 
L 87.679745 644.263592 
L 76.706818 24.153525 
z
" clip-path="url(#p90cb4e1d3d)" style="fill: #1b4521; fill-opacity: 0.312317"/>
   </g>
   <g id="patch_137">
    <path d="M 222.69053 632.17833 
L 119.583324 641.655053 
L 389.353347 358.183535 
z
" clip-path="url(#p90cb4e1d3d)" style="fill: #522534; fill-opacity: 0.106374"/>
   </g>
   <g id="patch_138">
    <path d="M 434.810244 62.611609 
L 558.261918 28.109284 
L 289.784265 305.762615 
z
" clip-path="url(#p90cb4e1d3d)" style="fill: #e994dc; fill-opacity: 0.236312"/>
   </g>
   <g id="patch_139">
    <path d="M 270.068526 630.067213 
L 241.894799 17.725658 
L 348.919064 606.169783 
z
" clip-path="url(#p90cb4e1d3d)" style="fill: #595643; fill-opacity: 0.006816"/>
   </g>
   <g id="patch_140">
    <path d="M 466.883987 137.574453 
L 405.239211 541.595116 
L 36.908536 509.233856 
L 222.482243 258.169345 
L 108.851371 539.097017 
z
" clip-path="url(#p90cb4e1d3d)" style="fill: #10170a; fill-opacity: 0.271568"/>
   </g>
   <g id="patch_141">
    <path d="M 255.523369 653.081262 
L 185.668193 144.142247 
L 249.372931 468.357411 
L 70.402531 682.212654 
z
" clip-path="url(#p90cb4e1d3d)" style="fill: #181004; fill-opacity: 0.845908"/>
   </g>
   <g id="patch_142">
    <path d="M 509.100029 570.68663 
L 232.635525 566.15028 
L 102.792491 330.029827 
z
" clip-path="url(#p90cb4e1d3d)" style="fill: #000500"/>
   </g>
   <g id="patch_143">
    <path d="M 456.092544 92.343234 
L 255.010989 11.035099 
L 329.482199 359.205923 
L 285.16709 487.861831 
L 378.52528 312.933481 
z
" clip-path="url(#p90cb4e1d3d)" style="fill: #1e1510; fill-opacity: 0.464833"/>
   </g>
   <g id="patch_144">
    <path d="M 35.713748 281.842636 
L 18.344574 239.231758 
L 174.916565 559.096859 
L 308.835298 207.76694 
z
" clip-path="url(#p90cb4e1d3d)" style="fill: #7dff04; fill-opacity: 0.13963"/>
   </g>
   <g id="patch_145">
    <path d="M 433.457513 312.160724 
L 473.703246 67.892641 
L 18.109578 582.406304 
L 64.365683 586.022177 
L 379.273494 242.776654 
z
" clip-path="url(#p90cb4e1d3d)" style="fill: #595438; fill-opacity: 0.469805"/>
   </g>
   <g id="patch_146">
    <path d="M 493.225167 35.931341 
L 266.54355 195.501836 
L 42.592455 172.207755 
L 423.41327 595.858162 
z
" clip-path="url(#p90cb4e1d3d)" style="fill: #001316"/>
   </g>
   <g id="patch_147">
    <path d="M 486.686482 549.917867 
L 33.914263 659.900002 
L 33.053098 556.971277 
L 8.291578 681.023831 
z
" clip-path="url(#p90cb4e1d3d)" style="fill: #0c0a00; fill-opacity: 0.914923"/>
   </g>
   <g id="patch_148">
    <path d="M 499.199862 630.328989 
L 201.659217 625.707782 
L 346.784977 33.690301 
L 119.265923 408.880565 
L 430.426238 527.606582 
z
" clip-path="url(#p90cb4e1d3d)" style="fill: #b8a54b; fill-opacity: 0.740604"/>
   </g>
   <g id="patch_149">
    <path d="M 62.33316 321.37551 
L 334.137728 319.293215 
L 238.227876 657.136771 
L 54.747625 633.055545 
L 312.245898 610.496544 
z
" clip-path="url(#p90cb4e1d3d)" style="fill: #d6daf0; fill-opacity: 0.063186"/>
   </g>
   <g id="patch_150">
    <path d="M 5.780684 285.068305 
L 418.989692 401.615006 
L 452.383621 230.103038 
L 0.401767 440.211118 
z
" clip-path="url(#p90cb4e1d3d)" style="fill: #37230f; fill-opacity: 0.388727"/>
   </g>
   <g id="patch_151">
    <path d="M 349.272579 337.039207 
L 442.471355 547.145168 
L 384.277125 137.917916 
L 401.718856 158.239721 
L 105.199825 596.120488 
z
" clip-path="url(#p90cb4e1d3d)" style="fill: #123d51; fill-opacity: 0.192522"/>
   </g>
   <g id="patch_152">
    <path d="M 180.883421 132.424034 
L 542.736139 1.981482 
L 170.228631 535.761019 
L 469.595767 495.725029 
L 19.84177 650.408959 
z
" clip-path="url(#p90cb4e1d3d)" style="fill: #1b1210"/>
   </g>
   <g id="patch_153">
    <path d="M 399.285811 637.321429 
L 20.858101 127.218404 
L 312.966769 298.035426 
L 435.555714 211.416632 
L 363.100133 153.717626 
z
" clip-path="url(#p90cb4e1d3d)" style="fill: #001e4c; fill-opacity: 0.553388"/>
   </g>
   <g id="patch_154">
    <path d="M 480.192272 605.145496 
L 212.604718 533.010444 
L 404.723483 308.287363 
L 17.730461 131.059239 
z
" clip-path="url(#p90cb4e1d3d)" style="fill: #ffc480; fill-opacity: 0.687195"/>
   </g>
   <g id="patch_155">
    <path d="M 466.196502 45.916997 
L 19.448364 548.16282 
L 28.727997 59.478554 
L 132.548237 492.054206 
L 110.075085 414.198787 
z
" clip-path="url(#p90cb4e1d3d)" style="fill: #662e12; fill-opacity: 0.103004"/>
   </g>
   <g id="patch_156">
    <path d="M 454.353561 498.037245 
L 188.823303 480.410342 
L 51.269174 175.300533 
L 6.541499 646.252917 
L 226.705282 30.195134 
z
" clip-path="url(#p90cb4e1d3d)" style="fill: #0f0c08; fill-opacity: 0.899693"/>
   </g>
   <g id="patch_157">
    <path d="M 550.88393 263.167661 
L 213.210011 580.397611 
L 432.250516 312.521268 
L 122.626778 103.689047 
L 275.095869 224.701818 
z
" clip-path="url(#p90cb4e1d3d)" style="fill-opacity: 0.998404"/>
   </g>
   <g id="patch_158">
    <path d="M 367.691741 459.728296 
L 440.610526 144.935256 
L 14.947669 1.414599 
z
" clip-path="url(#p90cb4e1d3d)" style="fill: #21182d; fill-opacity: 0.382275"/>
   </g>
   <g id="patch_159">
    <path d="M 60.835678 105.865927 
L 349.888753 271.611979 
L 247.778387 62.598386 
L 383.591454 682.387039 
L 519.746748 654.978966 
z
" clip-path="url(#p90cb4e1d3d)" style="fill: #383526; fill-opacity: 0.718801"/>
   </g>
   <g id="patch_160">
    <path d="M 329.878382 649.279065 
L 470.53224 68.928243 
L 549.909232 663.341792 
L 459.694238 582.93273 
L 329.878382 649.279065 
z
" clip-path="url(#p90cb4e1d3d)" style="fill: none"/>
   </g>
   <g id="patch_161">
    <path d="M 113.572419 646.205422 
L 32.076858 660.333555 
L 258.217164 162.978371 
z
" clip-path="url(#p90cb4e1d3d)" style="fill: #370123; fill-opacity: 0.33388"/>
   </g>
   <g id="patch_162">
    <path d="M 130.837384 655.605732 
L 210.161616 264.687266 
L 386.227108 333.014024 
L 164.861257 157.707376 
z
" clip-path="url(#p90cb4e1d3d)" style="fill: #908752; fill-opacity: 0.282609"/>
   </g>
   <g id="patch_163">
    <path d="M 406.401737 231.82175 
L 395.971088 446.894601 
L 421.302515 144.199636 
L 18.315172 552.723272 
L 381.838949 409.960452 
z
" clip-path="url(#p90cb4e1d3d)" style="fill: #ffffff"/>
   </g>
   <g id="patch_164">
    <path d="M 147.169194 561.203061 
L 573.298954 572.189244 
L 553.394818 575.490569 
L 103.786903 399.778895 
z
" clip-path="url(#p90cb4e1d3d)" style="fill: #48262b; fill-opacity: 0.344463"/>
   </g>
   <g id="patch_165">
    <path d="M 461.656221 468.327648 
L 94.147105 631.600445 
L 2.752006 172.964998 
L 80.866374 210.493305 
L 269.23622 442.923781 
z
" clip-path="url(#p90cb4e1d3d)" style="fill: #140400; fill-opacity: 0.105448"/>
   </g>
   <g id="patch_166">
    <path d="M 16.346838 112.337227 
L 139.328958 480.918146 
L 2.969351 141.970827 
z
" clip-path="url(#p90cb4e1d3d)" style="fill: #22200c; fill-opacity: 0.990358"/>
   </g>
   <g id="patch_167">
    <path d="M 44.665697 373.006074 
L 507.123547 191.225293 
L 11.466207 476.437729 
L 394.823951 29.355441 
L 44.665697 373.006074 
z
" clip-path="url(#p90cb4e1d3d)" style="fill: none"/>
   </g>
   <g id="patch_168">
    <path d="M 349.679166 656.83989 
L 74.540946 549.356185 
L 131.569866 219.411915 
L 247.375506 508.478594 
L 502.515368 501.917622 
z
" clip-path="url(#p90cb4e1d3d)" style="fill: #aebaa8; fill-opacity: 0.342501"/>
   </g>
   <g id="patch_169">
    <path d="M 377.665099 499.760455 
L 330.83949 209.515944 
L 489.134436 667.262416 
L 377.665099 499.760455 
z
" clip-path="url(#p90cb4e1d3d)" style="fill: none"/>
   </g>
   <g id="patch_170">
    <path d="M 116.020098 400.001069 
L 127.401288 223.653907 
L 481.051643 60.253749 
L 114.526665 25.722181 
z
" clip-path="url(#p90cb4e1d3d)" style="fill: #015847; fill-opacity: 0.226399"/>
   </g>
   <g id="patch_171">
    <path d="M 245.130124 394.298554 
L 395.68375 200.497741 
L 112.963351 482.632318 
L 12.456599 92.226926 
L 120.058279 136.208748 
z
" clip-path="url(#p90cb4e1d3d)" style="fill: #373042; fill-opacity: 0.443255"/>
   </g>
   <g id="patch_172">
    <path d="M 353.838142 133.210037 
L 262.508153 309.356395 
L 104.559748 74.820098 
z
" clip-path="url(#p90cb4e1d3d)" style="fill: #3c150a; fill-opacity: 0.302717"/>
   </g>
   <g id="patch_173">
    <path d="M 346.802762 194.233279 
L 322.126866 549.342223 
L 249.352933 431.569518 
z
" clip-path="url(#p90cb4e1d3d)" style="fill: #050005; fill-opacity: 0.987269"/>
   </g>
   <g id="patch_174">
    <path d="M 285.993666 420.421337 
L 174.997839 666.350938 
L 250.669573 653.726985 
L 465.900247 397.777276 
L 194.752435 92.289584 
z
" clip-path="url(#p90cb4e1d3d)" style="fill: #ffffdd; fill-opacity: 0.643444"/>
   </g>
   <g id="patch_175">
    <path d="M 50.053511 530.597264 
L 303.930026 656.395589 
L 279.865651 438.463228 
z
" clip-path="url(#p90cb4e1d3d)" style="fill: #aa977a; fill-opacity: 0.838889"/>
   </g>
   <g id="patch_176">
    <path d="M 83.524291 337.974182 
L 263.289626 488.463024 
L 502.157757 60.957744 
L 226.222876 316.575329 
z
" clip-path="url(#p90cb4e1d3d)" style="fill: #377d00"/>
   </g>
   <g id="patch_177">
    <path d="M 254.036991 324.780665 
L 565.831235 57.835826 
L 124.88088 5.510867 
L 174.752274 122.389358 
L 452.259614 242.702459 
z
" clip-path="url(#p90cb4e1d3d)" style="fill: #261814; fill-opacity: 0.981955"/>
   </g>
   <g id="patch_178">
    <path d="M 566.632232 10.905662 
L 53.895278 151.135885 
L 383.065815 333.485095 
z
" clip-path="url(#p90cb4e1d3d)" style="fill: #1a1703; fill-opacity: 0.808608"/>
   </g>
   <g id="patch_179">
    <path d="M 118.629816 647.7636 
L 123.247189 661.91443 
L 0.366332 109.482171 
z
" clip-path="url(#p90cb4e1d3d)" style="fill: #788100; fill-opacity: 0.321735"/>
   </g>
   <g id="patch_180">
    <path d="M 145.706743 266.369171 
L 6.224405 267.501865 
L 86.22404 479.248558 
L 424.069066 378.858447 
L 493.602171 105.990084 
z
" clip-path="url(#p90cb4e1d3d)" style="fill: #171300; fill-opacity: 0.615854"/>
   </g>
   <g id="patch_181">
    <path d="M 483.824262 586.22179 
L 564.082956 365.278666 
L 144.823717 10.507565 
L 485.652804 473.568753 
z
" clip-path="url(#p90cb4e1d3d)" style="fill: #42160a; fill-opacity: 0.122909"/>
   </g>
   <g id="patch_182">
    <path d="M 357.736247 64.130621 
L 260.40495 369.348766 
L 337.399071 44.325419 
L 129.276676 672.156002 
z
" clip-path="url(#p90cb4e1d3d)" style="fill: #93b7d3; fill-opacity: 0.130832"/>
   </g>
   <g id="patch_183">
    <path d="M 359.176485 361.062509 
L 389.549021 95.620717 
L 192.278297 340.617047 
z
" clip-path="url(#p90cb4e1d3d)" style="fill: #141800; fill-opacity: 0.698298"/>
   </g>
   <g id="patch_184">
    <path d="M 423.980423 656.805727 
L 234.619361 217.687704 
L 246.614344 5.913186 
L 0.546712 557.588394 
L 19.190447 78.78227 
z
" clip-path="url(#p90cb4e1d3d)" style="fill: #252921; fill-opacity: 0.840942"/>
   </g>
   <g id="patch_185">
    <path d="M 423.45972 362.984206 
L 320.761147 348.578661 
L 560.016009 647.275302 
L 164.52333 545.466387 
z
" clip-path="url(#p90cb4e1d3d)" style="fill: #32392d; fill-opacity: 0.535853"/>
   </g>
   <g id="patch_186">
    <path d="M 298.271105 648.120999 
L 355.502204 510.595483 
L 539.12896 66.94164 
L 61.289094 296.380721 
L 410.095801 309.412806 
z
" clip-path="url(#p90cb4e1d3d)" style="fill: #253528; fill-opacity: 0.99995"/>
   </g>
   <g id="patch_187">
    <path d="M 195.170456 124.16277 
L 309.716996 119.352243 
L 351.804321 630.339217 
L 116.221644 592.249485 
L 126.122117 515.514212 
z
" clip-path="url(#p90cb4e1d3d)" style="fill: #bfa67d"/>
   </g>
   <g id="patch_188">
    <path d="M 431.898406 132.177329 
L 538.754421 384.83402 
L 5.978884 536.600311 
z
" clip-path="url(#p90cb4e1d3d)" style="fill: #ffffff; fill-opacity: 0.181965"/>
   </g>
   <g id="patch_189">
    <path d="M 532.752267 284.793684 
L 548.739561 614.427082 
L 444.121295 328.867791 
L 488.810141 179.644339 
z
" clip-path="url(#p90cb4e1d3d)" style="fill: #d4ffff; fill-opacity: 0.076624"/>
   </g>
   <g id="patch_190">
    <path d="M 12.080633 372.764305 
L 210.461395 587.39722 
L 177.671825 209.637164 
L 515.577831 13.780542 
z
" clip-path="url(#p90cb4e1d3d)" style="fill: #000032; fill-opacity: 0.294306"/>
   </g>
   <g id="patch_191">
    <path d="M 189.846404 659.172045 
L 396.20783 422.852411 
L 510.155707 125.419931 
L 486.279585 517.394144 
z
" clip-path="url(#p90cb4e1d3d)" style="fill: #f7fb72; fill-opacity: 0.038032"/>
   </g>
   <g id="patch_192">
    <path d="M 399.380045 266.537955 
L 294.408384 377.932032 
L 246.003648 162.223485 
z
" clip-path="url(#p90cb4e1d3d)" style="fill: #514c2a"/>
   </g>
   <g id="patch_193">
    <path d="M 92.884546 562.264545 
L 291.554926 372.226099 
L 186.917962 58.585981 
L 430.656311 317.328264 
L 503.048329 154.900243 
z
" clip-path="url(#p90cb4e1d3d)" style="fill: #68d3f3; fill-opacity: 0.116383"/>
   </g>
   <g id="patch_194">
    <path d="M 287.636086 44.10234 
L 116.449328 410.120742 
L 335.070019 223.258082 
L 524.644692 263.862926 
L 465.416685 592.31538 
z
" clip-path="url(#p90cb4e1d3d)" style="fill: #eae5ff; fill-opacity: 0.164803"/>
   </g>
   <g id="patch_195">
    <path d="M 236.848604 365.25857 
L 43.951309 574.670836 
L 132.034212 672.121562 
L 276.137679 469.280553 
L 243.633536 448.597182 
z
" clip-path="url(#p90cb4e1d3d)" style="fill: #1e060e; fill-opacity: 0.613483"/>
   </g>
   <g id="patch_196">
    <path d="M 66.304127 292.545569 
L 3.605703 618.225693 
L 130.8106 649.040178 
L 187.666955 250.936591 
z
" clip-path="url(#p90cb4e1d3d)" style="fill: #191a14; fill-opacity: 0.911453"/>
   </g>
   <g id="patch_197">
    <path d="M 458.752811 282.163516 
L 496.445883 128.634786 
L 145.817878 592.080768 
L 309.842108 0.806515 
z
" clip-path="url(#p90cb4e1d3d)" style="fill: #213400; fill-opacity: 0.202092"/>
   </g>
   <g id="patch_198">
    <path d="M 10.626133 677.204927 
L 131.738593 77.899975 
L 515.312571 197.671246 
z
" clip-path="url(#p90cb4e1d3d)" style="fill: #a951b8; fill-opacity: 0.054716"/>
   </g>
   <g id="patch_199">
    <path d="M 132.725109 435.188989 
L 372.785149 77.546087 
L 294.740485 266.626785 
L 48.729528 293.352172 
L 132.725109 435.188989 
z
" clip-path="url(#p90cb4e1d3d)" style="fill: none"/>
   </g>
   <g id="patch_200">
    <path d="M 353.359604 366.001925 
L 305.424697 60.950434 
L 473.783952 109.813119 
z
" clip-path="url(#p90cb4e1d3d)" style="fill: #97a399; fill-opacity: 0.983432"/>
   </g>
   <g id="patch_201">
    <path d="M 318.622068 88.513068 
L 368.744571 366.528564 
L 177.149541 477.222416 
z
" clip-path="url(#p90cb4e1d3d)" style="fill: #817e6c; fill-opacity: 0.817371"/>
   </g>
   <g id="patch_202">
    <path d="M 27.739793 678.649188 
L 286.22075 657.377118 
L 131.6316 479.017104 
L 32.012175 33.994276 
z
" clip-path="url(#p90cb4e1d3d)" style="fill: #2f2600; fill-opacity: 0.197513"/>
   </g>
   <g id="patch_203">
    <path d="M 31.390077 665.947023 
L 5.913022 373.485895 
L 74.735043 623.874934 
L 332.86748 96.043963 
z
" clip-path="url(#p90cb4e1d3d)" style="fill: #380000; fill-opacity: 0.259979"/>
   </g>
   <g id="patch_204">
    <path d="M 275.476371 508.942198 
L 504.532136 318.249375 
L 119.498061 662.290943 
z
" clip-path="url(#p90cb4e1d3d)" style="fill: #031138; fill-opacity: 0.226844"/>
   </g>
   <g id="patch_205">
    <path d="M 473.493318 264.291046 
L 411.622816 555.771658 
L 404.852799 221.403118 
z
" clip-path="url(#p90cb4e1d3d)" style="fill: #264c72"/>
   </g>
   <g id="patch_206">
    <path d="M 279.832928 403.518422 
L 161.696488 404.186489 
L 319.535656 492.958285 
L 10.466962 613.729882 
z
" clip-path="url(#p90cb4e1d3d)" style="fill: #2a2500; fill-opacity: 0.184769"/>
   </g>
   <g id="patch_207">
    <path d="M 340.285217 77.140766 
L 140.702011 164.890295 
L 302.3244 401.387346 
L 296.530045 189.8028 
z
" clip-path="url(#p90cb4e1d3d)" style="fill: #e4e3e0; fill-opacity: 0.4758"/>
   </g>
   <g id="patch_208">
    <path d="M 210.780804 472.672375 
L 45.406562 619.113104 
L 9.971455 530.374135 
L 147.221131 13.368724 
z
" clip-path="url(#p90cb4e1d3d)" style="fill: #242817; fill-opacity: 0.526413"/>
   </g>
   <g id="patch_209">
    <path d="M 522.838524 333.47629 
L 562.472404 154.911567 
L 452.05393 216.109368 
z
" clip-path="url(#p90cb4e1d3d)" style="fill-opacity: 0.946047"/>
   </g>
   <g id="patch_210">
    <path d="M 130.503385 453.438367 
L 323.928382 459.848057 
L 2.215708 548.960197 
L 11.83547 186.241021 
L 130.503385 453.438367 
z
" clip-path="url(#p90cb4e1d3d)" style="fill: none"/>
   </g>
   <g id="patch_211">
    <path d="M 24.661799 334.989869 
L 264.742304 443.629979 
L 208.617684 504.716606 
z
" clip-path="url(#p90cb4e1d3d)" style="fill: #1e1e0b"/>
   </g>
   <g id="patch_212">
    <path d="M 329.51126 530.688978 
L 351.66659 439.865198 
L 354.427764 640.312051 
L 226.357031 502.013969 
z
" clip-path="url(#p90cb4e1d3d)" style="fill: #284b0c; fill-opacity: 0.060235"/>
   </g>
   <g id="patch_213">
    <path d="M 506.689093 99.831342 
L 91.509626 21.806907 
L 132.029483 169.877039 
L 354.380337 77.443149 
L 437.856487 537.296695 
z
" clip-path="url(#p90cb4e1d3d)" style="fill: #461600; fill-opacity: 0.402915"/>
   </g>
   <g id="patch_214">
    <path d="M 122.865046 74.729909 
L 69.354788 635.83361 
L 252.673004 36.128823 
z
" clip-path="url(#p90cb4e1d3d)" style="fill: #011e20; fill-opacity: 0.443572"/>
   </g>
   <g id="patch_215">
    <path d="M 416.270504 484.319502 
L 236.42392 509.34192 
L 475.043892 503.363241 
z
" clip-path="url(#p90cb4e1d3d)" style="fill: #0d174b; fill-opacity: 0.051083"/>
   </g>
   <g id="patch_216">
    <path d="M 92.060481 431.736358 
L 120.382229 599.38585 
L 3.11746 645.073644 
z
" clip-path="url(#p90cb4e1d3d)" style="fill: #251b0d; fill-opacity: 0.993715"/>
   </g>
   <g id="patch_217">
    <path d="M 414.654143 389.861043 
L 351.813798 423.554472 
L 69.815868 609.439099 
z
" clip-path="url(#p90cb4e1d3d)" style="fill: #756d29; fill-opacity: 0.402937"/>
   </g>
   <g id="patch_218">
    <path d="M 340.989373 59.377663 
L 466.925251 397.110621 
L 444.694609 280.22805 
L 488.623469 389.581431 
z
" clip-path="url(#p90cb4e1d3d)" style="fill: #9fa190"/>
   </g>
   <g id="patch_219">
    <path d="M 384.759852 426.591379 
L 293.15436 203.591509 
L 467.057777 195.925966 
z
" clip-path="url(#p90cb4e1d3d)" style="fill: #2b3c54"/>
   </g>
   <g id="patch_220">
    <path d="M 155.910275 58.608659 
L 383.32939 584.161737 
L 128.867849 392.782567 
L 150.738508 555.386382 
z
" clip-path="url(#p90cb4e1d3d)" style="fill: #ffd27d; fill-opacity: 0.204129"/>
   </g>
   <g id="patch_221">
    <path d="M 221.669233 602.654081 
L 242.151709 547.3691 
L 178.164216 664.862424 
L 262.692785 298.229051 
z
" clip-path="url(#p90cb4e1d3d)" style="fill: #130000; fill-opacity: 0.268475"/>
   </g>
   <g id="patch_222">
    <path d="M 417.894733 105.739376 
L 220.958357 335.606502 
L 472.084472 25.932605 
L 177.650101 254.264179 
L 202.594321 200.932128 
z
" clip-path="url(#p90cb4e1d3d)" style="fill: #ffffe4; fill-opacity: 0.186453"/>
   </g>
   <g id="patch_223">
    <path d="M 283.008433 358.014101 
L 213.917096 638.462346 
L 144.256674 595.192196 
z
" clip-path="url(#p90cb4e1d3d)" style="fill: #010000; fill-opacity: 0.493132"/>
   </g>
   <g id="patch_224">
    <path d="M 128.23621 247.973632 
L 431.310269 23.973321 
L 231.587621 11.989026 
L 87.634745 131.608877 
z
" clip-path="url(#p90cb4e1d3d)" style="fill: #000f00; fill-opacity: 0.204366"/>
   </g>
   <g id="patch_225">
    <path d="M 188.342086 520.493451 
L 57.717811 115.702922 
L 300.559117 529.555777 
z
" clip-path="url(#p90cb4e1d3d)" style="fill: #0d1310; fill-opacity: 0.194648"/>
   </g>
   <g id="patch_226">
    <path d="M 44.615485 427.658439 
L 217.044874 477.789081 
L 184.406115 196.099833 
L 9.701537 150.113798 
L 44.615485 427.658439 
z
" clip-path="url(#p90cb4e1d3d)" style="fill: none"/>
   </g>
   <g id="patch_227">
    <path d="M 203.411553 682.549166 
L 544.859999 92.670076 
L 406.60251 648.941034 
z
" clip-path="url(#p90cb4e1d3d)" style="fill: #965a31; fill-opacity: 0.362623"/>
   </g>
   <g id="patch_228">
    <path d="M 194.37197 457.464498 
L 112.617303 629.694538 
L 87.654563 216.158069 
z
" clip-path="url(#p90cb4e1d3d)" style="fill: #231d0a; fill-opacity: 0.826628"/>
   </g>
   <g id="patch_229">
    <path d="M 173.455647 671.220766 
L 197.790483 522.745547 
L 478.580533 360.622834 
L 511.39351 239.537258 
z
" clip-path="url(#p90cb4e1d3d)" style="fill: #ffd97a; fill-opacity: 0.160272"/>
   </g>
   <g id="patch_230">
    <path d="M 229.042681 591.307592 
L 85.596226 546.579965 
L 244.399862 288.549378 
z
" clip-path="url(#p90cb4e1d3d)" style="fill: #140002; fill-opacity: 0.102062"/>
   </g>
   <g id="patch_231">
    <path d="M 21.281974 407.951924 
L 10.113577 262.492383 
L 217.43697 102.567159 
L 92.314219 467.018484 
L 116.16327 51.327554 
z
" clip-path="url(#p90cb4e1d3d)" style="fill: #2d1b1d; fill-opacity: 0.715162"/>
   </g>
   <g id="patch_232">
    <path d="M 364.497534 58.625154 
L 8.75267 543.413689 
L 465.949621 79.481457 
z
" clip-path="url(#p90cb4e1d3d)" style="fill: #b2a4c0; fill-opacity: 0.092472"/>
   </g>
   <g id="patch_233">
    <path d="M 531.679934 478.688709 
L 393.920266 191.839116 
L 259.19095 555.698269 
L 274.434182 178.564851 
L 557.896225 189.433156 
z
" clip-path="url(#p90cb4e1d3d)" style="fill: #75706d; fill-opacity: 0.249114"/>
   </g>
   <g id="patch_234">
    <path d="M 556.336742 148.760317 
L 575.612243 319.968421 
L 335.122988 229.662902 
z
" clip-path="url(#p90cb4e1d3d)" style="fill: #965911; fill-opacity: 0.147969"/>
   </g>
   <g id="patch_235">
    <path d="M 363.415806 572.598415 
L 486.082838 353.180853 
L 543.210033 331.827175 
L 388.823422 138.062783 
L 286.045697 520.03146 
z
" clip-path="url(#p90cb4e1d3d)" style="fill: #b3f9a0; fill-opacity: 0.072128"/>
   </g>
   <g id="patch_236">
    <path d="M 89.386145 271.470995 
L 30.547674 464.274165 
L 361.730628 458.030705 
L 254.752769 198.87853 
L 469.075369 681.472524 
z
" clip-path="url(#p90cb4e1d3d)" style="fill: #2a1105; fill-opacity: 0.068782"/>
   </g>
   <g id="patch_237">
    <path d="M 305.771431 584.164088 
L 39.53418 84.734884 
L 145.645849 497.582662 
z
" clip-path="url(#p90cb4e1d3d)" style="fill: #391024; fill-opacity: 0.090918"/>
   </g>
   <g id="patch_238">
    <path d="M 35.848949 315.034304 
L 257.811315 614.913599 
L 255.914355 593.480592 
L 94.470045 87.155778 
z
" clip-path="url(#p90cb4e1d3d)" style="fill: #2b210e; fill-opacity: 0.317163"/>
   </g>
   <g id="patch_239">
    <path d="M 574.820768 635.474316 
L 500.915239 149.637601 
L 426.823163 89.710129 
z
" clip-path="url(#p90cb4e1d3d)" style="fill: #07121b; fill-opacity: 0.396136"/>
   </g>
   <g id="patch_240">
    <path d="M 229.252804 483.599264 
L 67.444336 275.038162 
L 6.993317 635.688056 
L 95.100801 498.676285 
z
" clip-path="url(#p90cb4e1d3d)" style="fill: #2c211a; fill-opacity: 0.42276"/>
   </g>
   <g id="patch_241">
    <path d="M 243.093766 265.255129 
L 462.74688 196.415191 
L 243.190106 264.464558 
L 366.67416 446.92629 
L 463.389333 280.719535 
z
" clip-path="url(#p90cb4e1d3d)" style="fill: #891d01; fill-opacity: 0.170649"/>
   </g>
   <g id="patch_242">
    <path d="M 318.906945 580.260899 
L 408.948797 70.89562 
L 215.835267 555.471691 
L 395.749383 175.146889 
L 355.404305 149.531229 
z
" clip-path="url(#p90cb4e1d3d)" style="fill: #3c302a; fill-opacity: 0.246221"/>
   </g>
   <g id="patch_243">
    <path d="M 122.834649 179.22758 
L 174.146757 670.534283 
L 88.840813 378.98519 
z
" clip-path="url(#p90cb4e1d3d)" style="fill: #252018; fill-opacity: 0.839681"/>
   </g>
   <g id="patch_244">
    <path d="M 486.631094 143.157872 
L 499.209948 96.607767 
L 313.238375 291.307105 
L 564.865698 7.005454 
L 507.167254 612.983248 
z
" clip-path="url(#p90cb4e1d3d)" style="fill: #1c1711; fill-opacity: 0.380996"/>
   </g>
   <g id="patch_245">
    <path d="M 369.158174 180.083448 
L 385.849936 591.178807 
L 455.580132 535.101426 
z
" clip-path="url(#p90cb4e1d3d)" style="fill: #353931; fill-opacity: 0.705642"/>
   </g>
  </g>
 </g>
 <defs>
  <clipPath id="p90cb4e1d3d">
   <rect x="0" y="0" width="576" height="682.56"/>
  </clipPath>
 </defs>
</svg>
